<svg id="SvgjsSvg1008" xmlns="http://www.w3.org/2000/svg" version="1.1" xmlns:xlink="http://www.w3.org/1999/xlink" xmlns:svgjs="http://svgjs.com/svgjs" width="120" height="42" viewBox="0 0 120 42"><title>Logo New</title><desc>Created with Avocode.</desc><defs id="SvgjsDefs1009"></defs><path id="SvgjsPath1010" d="M480 17.1674L480 42.832499999999996C480 46.78489999999999 476.893 50.000099999999996 473.074 50.000099999999996L366.927 50.000099999999996C363.107 50.000099999999996 360 46.78489999999999 360 42.832499999999996L360 17.167399999999997C360 13.214899999999997 363.107 9.999419999999997 366.927 9.999419999999997L473.074 9.999419999999997C476.89300000000003 9.999419999999997 480 13.214899999999997 480 17.167399999999997ZM478.694 17.1674C478.694 13.924600000000002 476.173 11.286200000000001 473.074 11.286200000000001L366.927 11.286200000000001C363.827 11.286200000000001 361.30600000000004 13.924600000000002 361.30600000000004 17.1674L361.30600000000004 33.409L478.6940000000001 33.409ZM410.381 18.1405C410.133 18.3862 409.859 18.8158 409.717 19.0501L412.971 25.9835C413.32800000000003 26.746 413.581 27.156399999999998 413.834 27.156399999999998L414.117 27.156399999999998L414.117 28.461499999999997L409.622 28.461499999999997L409.622 27.156399999999998L410.589 27.156399999999998C410.723 27.156399999999998 410.798 27.0538 410.798 26.8923C410.798 26.775299999999998 410.723 26.613999999999997 410.664 26.496399999999998L410.143 25.367399999999996L410.07899999999995 25.221099999999996L410.07899999999995 25.276699999999995C408.51499999999993 25.013399999999994 407.20899999999995 25.011799999999994 405.65 25.270699999999994L405.60299999999995 25.367399999999993L405.06699999999995 26.496399999999994C404.99199999999996 26.643099999999993 404.96299999999997 26.731299999999994 404.96299999999997 26.819199999999995C404.96299999999997 27.024399999999996 405.15599999999995 27.156399999999994 405.26 27.156399999999994L406.45099999999996 27.156399999999994L406.45099999999996 28.461499999999994L402.373 28.461499999999994L402.373 27.156399999999994L402.626 27.156399999999994C403.05699999999996 27.156399999999994 403.37 26.833699999999993 403.65299999999996 26.261899999999994L407.44899999999996 18.592599999999994L409.42199999999997 18.592599999999994C410.37399999999997 17.315199999999994 411.18999999999994 16.496699999999993 412.64099999999996 15.474399999999994C412.64099999999996 15.474399999999994 410.378 16.688299999999995 409.82699999999994 17.539099999999994C409.32699999999994 16.668299999999995 409.54699999999997 15.436599999999995 410.42599999999993 14.570999999999994C410.99499999999995 14.010299999999994 411.96599999999995 13.864699999999994 413.01499999999993 13.775699999999995C414.12799999999993 13.681799999999996 414.82399999999996 13.324399999999995 414.82399999999996 13.324399999999995C414.82399999999996 13.324399999999995 414.58299999999997 16.646299999999997 413.55799999999994 17.656099999999995C412.62299999999993 18.577199999999994 411.26899999999995 18.760899999999996 410.3809999999999 18.140499999999996ZM425.242 18.5858L429.562 18.5858L429.562 19.891399999999997L428.668 19.891399999999997C428.236 19.891399999999997 428.027 20.0676 428.027 20.4638L428.027 26.5823C428.027 26.9786 428.236 27.1548 428.668 27.1548L429.562 27.1548L429.562 28.460500000000003L423.991 28.460500000000003L423.991 27.1548L424.88399999999996 27.1548C425.316 27.1548 425.525 26.9786 425.525 26.5823L425.525 21.0065L425.465 21.0065L422.53099999999995 28.4605L421.17499999999995 28.4605L418.24099999999993 21.0065L418.1809999999999 21.0065L418.1809999999999 26.5823C418.1809999999999 26.9786 418.38999999999993 27.1548 418.82199999999995 27.1548L419.7149999999999 27.1548L419.7149999999999 28.460500000000003L415.2759999999999 28.460500000000003L415.2759999999999 27.1548L416.1699999999999 27.1548C416.6019999999999 27.1548 416.8109999999999 26.9786 416.8109999999999 26.5823L416.8109999999999 20.4638C416.8109999999999 20.0676 416.6019999999999 19.891399999999997 416.1699999999999 19.891399999999997L415.2759999999999 19.891399999999997L415.2759999999999 18.5858L419.5959999999999 18.5858L422.41199999999986 25.423199999999998L422.4709999999999 25.423199999999998ZM385.196 18.5858L390.76700000000005 18.5858L390.76700000000005 19.891399999999997L389.87300000000005 19.891399999999997C389.44100000000003 19.891399999999997 389.232 20.0676 389.232 20.4638L389.232 26.5823C389.232 26.9786 389.44100000000003 27.1548 389.87300000000005 27.1548L390.76700000000005 27.1548L390.76700000000005 28.460500000000003L385.196 28.460500000000003L385.196 27.1548L386.09000000000003 27.1548C386.521 27.1548 386.73 26.9786 386.73 26.5823L386.73 22.0762C385.153 23.3056 383.838 24.5519 382.261 26.313L382.261 26.5823C382.261 26.9786 382.47 27.1548 382.90200000000004 27.1548L383.795 27.1548L383.795 28.460500000000003L378.224 28.460500000000003L378.224 27.1548L379.118 27.1548C379.55 27.1548 379.759 26.9786 379.759 26.5823L379.759 20.4638C379.759 20.0676 379.55 19.891399999999997 379.118 19.891399999999997L378.224 19.891399999999997L378.224 18.5858L383.795 18.5858L383.795 19.891399999999997L382.90200000000004 19.891399999999997C382.47 19.891399999999997 382.261 20.0676 382.261 20.4638L382.261 24.8672C383.838 23.6378 385.153 22.3915 386.73 20.6306L386.73 20.463800000000003C386.73 20.067600000000002 386.521 19.891400000000004 386.09000000000003 19.891400000000004L385.196 19.891400000000004ZM451.164 18.5858L456.735 18.5858L456.735 19.891399999999997L455.84200000000004 19.891399999999997C455.41 19.891399999999997 455.201 20.0676 455.201 20.4638L455.201 26.5823C455.201 26.9786 455.41 27.1548 455.84200000000004 27.1548L456.735 27.1548L456.735 28.460500000000003L451.164 28.460500000000003L451.164 27.1548L452.058 27.1548C452.49 27.1548 452.699 26.9786 452.699 26.5823L452.699 23.9892C451.12100000000004 23.7237 449.807 23.7237 448.23 23.9892L448.23 26.5823C448.23 26.9786 448.43800000000005 27.1548 448.87 27.1548L449.764 27.1548L449.764 28.460500000000003L444.193 28.460500000000003L444.193 27.1548L445.087 27.1548C445.519 27.1548 445.727 26.9786 445.727 26.5823L445.727 20.4638C445.727 20.0676 445.51899999999995 19.891399999999997 445.087 19.891399999999997L444.193 19.891399999999997L444.193 18.5858L449.764 18.5858L449.764 19.891399999999997L448.87 19.891399999999997C448.438 19.891399999999997 448.23 20.0676 448.23 20.4638L448.23 22.7489C449.807 23.0144 451.12100000000004 23.014599999999998 452.699 22.7489L452.699 20.4638C452.699 20.0676 452.49 19.891399999999997 452.058 19.891399999999997L451.164 19.891399999999997ZM437.503 18.5858L443.074 18.5858L443.074 19.891399999999997L442.18 19.891399999999997C441.748 19.891399999999997 441.54 20.0676 441.54 20.4638L441.54 26.5823C441.54 26.9786 441.74800000000005 27.1548 442.18 27.1548L443.074 27.1548L443.074 28.460500000000003L437.503 28.460500000000003L437.503 27.1548L438.397 27.1548C438.829 27.1548 439.037 26.9786 439.037 26.5823L439.037 22.0762C437.46 23.3056 436.14599999999996 24.5519 434.568 26.313L434.568 26.5823C434.568 26.9786 434.777 27.1548 435.209 27.1548L436.103 27.1548L436.103 28.460500000000003L430.532 28.460500000000003L430.532 27.1548L431.42499999999995 27.1548C431.85699999999997 27.1548 432.066 26.9786 432.066 26.5823L432.066 20.4638C432.066 20.0676 431.85699999999997 19.891399999999997 431.42499999999995 19.891399999999997L430.532 19.891399999999997L430.532 18.5858L436.103 18.5858L436.103 19.891399999999997L435.209 19.891399999999997C434.777 19.891399999999997 434.568 20.0676 434.568 20.4638L434.568 24.8672C436.14599999999996 23.6378 437.46 22.3915 439.037 20.6306L439.037 20.463800000000003C439.037 20.067600000000002 438.82899999999995 19.891400000000004 438.397 19.891400000000004L437.503 19.891400000000004ZM468.341 25.57C468.341 27.4921 466.807 28.4605 464.185 28.4605L457.705 28.4605L457.705 27.154799999999998L458.599 27.154799999999998C459.031 27.154799999999998 459.24 26.978599999999997 459.24 26.582299999999996L459.24 20.463799999999996C459.24 20.067599999999995 459.031 19.891399999999997 458.599 19.891399999999997L457.705 19.891399999999997L457.705 18.5858L463.276 18.5858L463.276 19.891399999999997L462.38300000000004 19.891399999999997C461.951 19.891399999999997 461.742 20.0676 461.742 20.4638L461.742 22.738L464.23 22.738C466.494 22.738 468.341 23.5597 468.341 25.57ZM377.18 25.6435C377.18 27.6388 375.422 28.4605 372.75600000000003 28.4605L366.54400000000004 28.4605L366.54400000000004 27.154799999999998L367.43800000000005 27.154799999999998C367.87000000000006 27.154799999999998 368.07800000000003 26.978599999999997 368.07800000000003 26.582299999999996L368.07800000000003 20.463799999999996C368.07800000000003 20.067599999999995 367.87 19.891399999999997 367.43800000000005 19.891399999999997L366.54400000000004 19.891399999999997L366.54400000000004 18.5858L372.607 18.5858C375.661 18.5858 376.68800000000005 19.817999999999998 376.68800000000005 21.1973C376.68800000000005 22.1804 375.944 22.8114 375.124 23.237099999999998C376.68800000000005 23.662499999999998 377.18 24.601699999999997 377.18 25.6435ZM391.811 18.5858L402.328 18.5858L402.328 22.6208L400.957 22.6208L400.957 21.5349C400.957 20.5371 400.466 19.8914 399.319 19.8914L398.321 19.8914L398.321 26.5823C398.321 26.9786 398.52900000000005 27.1548 398.961 27.1548L399.855 27.1548L399.855 28.460500000000003L394.284 28.460500000000003L394.284 27.1548L395.178 27.1548C395.61 27.1548 395.818 26.9786 395.818 26.5823L395.818 19.8914L394.82 19.8914C393.673 19.8914 393.182 20.537100000000002 393.182 21.5349L393.182 22.6208L391.81100000000004 22.6208ZM468.341 18.5858L473.91200000000003 18.5858L473.91200000000003 19.891399999999997L473.01800000000003 19.891399999999997C472.586 19.891399999999997 472.37800000000004 20.0676 472.37800000000004 20.4638L472.37800000000004 26.5823C472.37800000000004 26.9786 472.58600000000007 27.1548 473.01800000000003 27.1548L473.91200000000003 27.1548L473.91200000000003 28.460500000000003L468.341 28.460500000000003L468.341 27.1548L469.235 27.1548C469.66700000000003 27.1548 469.875 26.9786 469.875 26.5823L469.875 20.4638C469.875 20.0676 469.667 19.891399999999997 469.235 19.891399999999997L468.341 19.891399999999997ZM412.104 39.5647L412.104 40.0366L412.42699999999996 40.0366C412.58299999999997 40.0366 412.65799999999996 40.1002 412.65799999999996 40.2436L412.65799999999996 42.4557C412.65799999999996 42.5989 412.58299999999997 42.6626 412.42699999999996 42.6626L412.104 42.6626L412.104 43.1348L417.425 43.1348C417.839 43.1348 418.017 43.3682 418.017 43.729L418.017 44.2225L418.512 44.2225L418.512 42.6626L417.958 42.6626L417.958 40.2436C417.958 40.1002 418.033 40.0366 418.189 40.0366L418.512 40.0366L418.512 39.5647L416.498 39.5647L416.498 40.0366L416.82099999999997 40.0366C416.97799999999995 40.0366 417.053 40.1002 417.053 40.2436L417.053 42.6626L415.76 42.6626L415.76 40.2436C415.76 40.1002 415.836 40.0366 415.992 40.0366L416.315 40.0366L416.315 39.5647L414.301 39.5647L414.301 40.0366L414.62399999999997 40.0366C414.78 40.0366 414.856 40.1002 414.856 40.2436L414.856 42.6626L413.515 42.6626L413.515 40.2436C413.515 40.1002 413.59 40.0366 413.746 40.0366L414.06899999999996 40.0366L414.06899999999996 39.5647ZM449.246 43.1348L449.246 42.6626L448.923 42.6626C448.778 42.6626 448.681 42.6042 448.681 42.4451L449.06899999999996 42.4451C450.13499999999993 42.4451 450.57099999999997 41.8405 450.57099999999997 41.2992C450.57099999999997 40.757999999999996 450.135 40.1693 449.06899999999996 40.1693L448.681 40.1693C448.681 40.0526 448.772 40.01 448.923 40.01L449.246 40.01L449.246 39.5379L447.216 39.5379L447.216 40.01L447.539 40.01C447.69 40.01 447.781 40.0526 447.781 40.1693L447.394 40.1693C446.327 40.1693 445.891 40.758 445.891 41.2992C445.891 41.8405 446.327 42.4451 447.394 42.4451L447.781 42.4451C447.781 42.6042 447.684 42.6626 447.539 42.6626L447.216 42.6626L447.216 43.1348ZM369.522 43.1348L369.522 42.6626L369.198 42.6626C369.053 42.6626 368.95599999999996 42.6042 368.95599999999996 42.4451L369.34399999999994 42.4451C370.4099999999999 42.4451 370.84599999999995 41.8405 370.84599999999995 41.2992C370.84599999999995 40.757999999999996 370.40999999999997 40.1693 369.34399999999994 40.1693L368.95599999999996 40.1693C368.95599999999996 40.0526 369.04799999999994 40.01 369.198 40.01L369.522 40.01L369.522 39.5379L367.491 39.5379L367.491 40.01L367.81399999999996 40.01C367.965 40.01 368.05699999999996 40.0526 368.05699999999996 40.1693L367.669 40.1693C366.603 40.1693 366.166 40.758 366.166 41.2992C366.166 41.8405 366.603 42.4451 367.669 42.4451L368.05699999999996 42.4451C368.05699999999996 42.6042 367.96 42.6626 367.81399999999996 42.6626L367.491 42.6626L367.491 43.1348ZM436.687 39.5647L436.687 40.0366L436.81100000000004 40.0366C437.00500000000005 40.0366 437.11800000000005 40.0897 437.242 40.2117L438.389 41.3469L437.236 42.492799999999995C437.134 42.593799999999995 436.919 42.6626 436.752 42.6626L436.58500000000004 42.6626L436.58500000000004 43.1348L438.362 43.1348L438.362 42.6626L437.96900000000005 42.6626C437.90400000000005 42.6626 437.86100000000005 42.619899999999994 437.86100000000005 42.5672C437.86100000000005 42.5354 437.87700000000007 42.4984 437.91 42.4664L438.701 41.6601L439.466 42.4664C439.498 42.5035 439.515 42.5406 439.515 42.5725C439.515 42.625499999999995 439.477 42.6626 439.407 42.6626L439.041 42.6626L439.041 43.1348L441.082 43.1348L441.082 42.6626L440.931 42.6626C440.77 42.6626 440.69399999999996 42.6413 440.527 42.4717L439.267 41.1774L440.236 40.217C440.382 40.0736 440.57 40.0366 440.753 40.0366L440.91999999999996 40.0366L440.91999999999996 39.5647L439.251 39.5647L439.251 40.0366L439.57399999999996 40.0366C439.62799999999993 40.0366 439.655 40.0632 439.655 40.1002C439.655 40.1268 439.62199999999996 40.1746 439.59 40.2064L438.96 40.8587L438.31399999999996 40.1957C438.28099999999995 40.1642 438.26 40.132000000000005 438.26 40.0949C438.26 40.0632 438.281 40.0366 438.335 40.0366L438.674 40.0366L438.674 39.5647ZM461.321 43.1348L461.321 42.6626L460.997 42.6626C460.841 42.6626 460.766 42.5989 460.766 42.4557L460.766 41.522L461.423 41.522C461.918 41.522 461.94 41.8881 461.94 42.206399999999995L461.94 42.492799999999995C461.94 42.8747 462.231 43.2037 462.769 43.2037C463.195 43.2037 463.464 42.964999999999996 463.464 42.6734L463.464 42.0736L463.028 42.0736L463.028 42.5989C463.028 42.6786 462.97900000000004 42.7156 462.942 42.7156C462.88800000000003 42.7156 462.834 42.694500000000005 462.834 42.572500000000005L462.834 42.254000000000005C462.834 41.686400000000006 462.559 41.3682 461.999 41.224900000000005C462.26300000000003 41.097500000000004 462.37600000000003 40.853500000000004 462.37600000000003 40.439800000000005L462.37600000000003 40.33370000000001C462.37600000000003 39.97290000000001 462.63500000000005 39.92540000000001 462.694 39.92540000000001C462.742 39.92540000000001 462.796 39.94120000000001 462.82300000000004 39.97820000000001C462.737 40.010000000000005 462.66200000000003 40.05790000000001 462.66200000000003 40.22230000000001C462.66200000000003 40.38130000000001 462.81800000000004 40.51940000000001 463.06000000000006 40.51940000000001C463.2970000000001 40.51940000000001 463.46400000000006 40.32840000000001 463.46400000000006 40.09490000000001C463.46400000000006 39.75550000000001 463.19500000000005 39.49560000000001 462.71000000000004 39.49560000000001C462.23600000000005 39.49560000000001 461.886 39.80340000000001 461.886 40.32840000000001L461.886 40.49280000000001C461.886 40.86960000000001 461.67600000000004 41.06570000000001 461.09400000000005 41.06570000000001L460.7660000000001 41.06570000000001L460.7660000000001 40.24360000000001C460.7660000000001 40.10020000000001 460.84100000000007 40.03660000000001 460.99700000000007 40.03660000000001L461.3210000000001 40.03660000000001L461.3210000000001 39.56470000000001L459.3060000000001 39.56470000000001L459.3060000000001 40.03660000000001L459.6300000000001 40.03660000000001C459.7860000000001 40.03660000000001 459.8610000000001 40.10020000000001 459.8610000000001 40.24360000000001L459.8610000000001 42.45570000000001C459.8610000000001 42.59890000000001 459.7860000000001 42.662600000000005 459.6300000000001 42.662600000000005L459.3060000000001 42.662600000000005L459.3060000000001 43.134800000000006ZM381.596 43.1348L381.596 42.6626L381.273 42.6626C381.11600000000004 42.6626 381.041 42.5989 381.041 42.4557L381.041 41.522L381.698 41.522C382.19399999999996 41.522 382.215 41.8881 382.215 42.206399999999995L382.215 42.492799999999995C382.215 42.8747 382.506 43.2037 383.04499999999996 43.2037C383.46999999999997 43.2037 383.739 42.964999999999996 383.739 42.6734L383.739 42.0736L383.303 42.0736L383.303 42.5989C383.303 42.6786 383.255 42.7156 383.217 42.7156C383.163 42.7156 383.109 42.694500000000005 383.109 42.572500000000005L383.109 42.254000000000005C383.109 41.686400000000006 382.835 41.3682 382.274 41.224900000000005C382.538 41.097500000000004 382.651 40.853500000000004 382.651 40.439800000000005L382.651 40.33370000000001C382.651 39.97290000000001 382.91 39.92540000000001 382.969 39.92540000000001C383.018 39.92540000000001 383.072 39.94120000000001 383.098 39.97820000000001C383.012 40.010000000000005 382.937 40.05790000000001 382.937 40.22230000000001C382.937 40.38130000000001 383.093 40.51940000000001 383.33500000000004 40.51940000000001C383.57200000000006 40.51940000000001 383.73900000000003 40.32840000000001 383.73900000000003 40.09490000000001C383.73900000000003 39.75550000000001 383.47 39.49560000000001 382.985 39.49560000000001C382.511 39.49560000000001 382.161 39.80340000000001 382.161 40.32840000000001L382.161 40.49280000000001C382.161 40.86960000000001 381.951 41.06570000000001 381.37 41.06570000000001L381.041 41.06570000000001L381.041 40.24360000000001C381.041 40.10020000000001 381.116 40.03660000000001 381.273 40.03660000000001L381.596 40.03660000000001L381.596 39.56470000000001L379.582 39.56470000000001L379.582 40.03660000000001L379.905 40.03660000000001C380.061 40.03660000000001 380.13599999999997 40.10020000000001 380.13599999999997 40.24360000000001L380.13599999999997 42.45570000000001C380.13599999999997 42.59890000000001 380.061 42.662600000000005 379.905 42.662600000000005L379.582 42.662600000000005L379.582 43.134800000000006ZM400.821 39.469C399.64700000000005 39.469 398.82300000000004 40.2593 398.82300000000004 41.3469C398.82300000000004 42.3337 399.46900000000005 43.230199999999996 400.821 43.230199999999996C402.033 43.230199999999996 402.819 42.450399999999995 402.819 41.3469C402.819 40.2117 402.05400000000003 39.469 400.821 39.469ZM443.441 39.469C442.267 39.469 441.443 40.2593 441.443 41.3469C441.443 42.3337 442.089 43.230199999999996 443.441 43.230199999999996C444.652 43.230199999999996 445.43899999999996 42.450399999999995 445.43899999999996 41.3469C445.43899999999996 40.2117 444.674 39.469 443.441 39.469ZM409.605 39.469C408.43100000000004 39.469 407.607 40.2593 407.607 41.3469C407.607 42.3337 408.25300000000004 43.230199999999996 409.605 43.230199999999996C410.81600000000003 43.230199999999996 411.603 42.450399999999995 411.603 41.3469C411.603 40.2117 410.838 39.469 409.605 39.469ZM454.928 39.5647L454.928 40.0366L455.014 40.0366C455.197 40.0366 455.348 40.0419 455.499 40.2861L456.86100000000005 42.4664C456.76400000000007 42.6626 456.619 42.7739 456.3550000000001 42.7739C456.1720000000001 42.7739 456.04300000000006 42.7052 456.00500000000005 42.6308C456.16700000000003 42.6148 456.33900000000006 42.5035 456.33900000000006 42.2647C456.33900000000006 42.0845 456.19900000000007 41.861799999999995 455.88100000000003 41.861799999999995C455.55800000000005 41.861799999999995 455.38000000000005 42.132 455.38000000000005 42.37069999999999C455.38000000000005 42.72089999999999 455.70900000000006 43.20369999999999 456.37100000000004 43.20369999999999C456.77500000000003 43.20369999999999 457.15200000000004 43.01809999999999 457.45900000000006 42.39209999999999L458.42300000000006 40.40809999999999C458.55300000000005 40.14799999999999 458.7680000000001 40.03659999999999 458.89200000000005 40.03659999999999L459.00000000000006 40.03659999999999L459.00000000000006 39.564699999999995L457.4920000000001 39.564699999999995L457.4920000000001 40.03659999999999L457.8740000000001 40.03659999999999C457.9600000000001 40.03659999999999 457.9980000000001 40.07359999999999 457.9980000000001 40.14289999999999C457.9980000000001 40.19039999999999 457.9760000000001 40.24869999999999 457.94400000000013 40.32309999999999L457.2980000000001 41.71299999999999L456.4410000000001 40.28609999999998C456.4090000000001 40.23299999999998 456.3880000000001 40.17989999999998 456.3880000000001 40.13729999999998C456.3880000000001 40.07919999999998 456.4310000000001 40.03659999999998 456.5540000000001 40.03659999999998L456.8610000000001 40.03659999999998L456.8610000000001 39.56469999999998ZM375.203 39.5647L375.203 40.0366L375.289 40.0366C375.472 40.0366 375.623 40.0419 375.774 40.2861L377.137 42.4664C377.04 42.6626 376.894 42.7739 376.63 42.7739C376.447 42.7739 376.318 42.7052 376.28 42.6308C376.44199999999995 42.6148 376.614 42.5035 376.614 42.2647C376.614 42.0845 376.474 41.861799999999995 376.15599999999995 41.861799999999995C375.83299999999997 41.861799999999995 375.65599999999995 42.132 375.65599999999995 42.37069999999999C375.65599999999995 42.72089999999999 375.9839999999999 43.20369999999999 376.64599999999996 43.20369999999999C377.04999999999995 43.20369999999999 377.42699999999996 43.01809999999999 377.734 42.39209999999999L378.69899999999996 40.40809999999999C378.828 40.14799999999999 379.04299999999995 40.03659999999999 379.167 40.03659999999999L379.275 40.03659999999999L379.275 39.564699999999995L377.767 39.564699999999995L377.767 40.03659999999999L378.149 40.03659999999999C378.235 40.03659999999999 378.273 40.07359999999999 378.273 40.14289999999999C378.273 40.19039999999999 378.25100000000003 40.24869999999999 378.21900000000005 40.32309999999999L377.57300000000004 41.71299999999999L376.71700000000004 40.28609999999998C376.684 40.23299999999998 376.66300000000007 40.17989999999998 376.66300000000007 40.13729999999998C376.66300000000007 40.07919999999998 376.7060000000001 40.03659999999998 376.83000000000004 40.03659999999998L377.13700000000006 40.03659999999998L377.13700000000006 39.56469999999998ZM432.325 39.5647L432.325 40.0366L432.411 40.0366C432.594 40.0366 432.745 40.0419 432.896 40.2861L434.25800000000004 42.4664C434.16100000000006 42.6626 434.016 42.7739 433.75200000000007 42.7739C433.5690000000001 42.7739 433.44000000000005 42.7052 433.40200000000004 42.6308C433.564 42.6148 433.73600000000005 42.5035 433.73600000000005 42.2647C433.73600000000005 42.0845 433.59600000000006 41.861799999999995 433.278 41.861799999999995C432.95500000000004 41.861799999999995 432.77700000000004 42.132 432.77700000000004 42.37069999999999C432.77700000000004 42.72089999999999 433.10600000000005 43.20369999999999 433.76800000000003 43.20369999999999C434.172 43.20369999999999 434.54900000000004 43.01809999999999 434.85600000000005 42.39209999999999L435.82000000000005 40.40809999999999C435.95000000000005 40.14799999999999 436.1650000000001 40.03659999999999 436.28900000000004 40.03659999999999L436.39700000000005 40.03659999999999L436.39700000000005 39.564699999999995L434.88800000000003 39.564699999999995L434.88800000000003 40.03659999999999L435.271 40.03659999999999C435.357 40.03659999999999 435.39500000000004 40.07359999999999 435.39500000000004 40.14289999999999C435.39500000000004 40.19039999999999 435.37300000000005 40.24869999999999 435.34100000000007 40.32309999999999L434.69500000000005 41.71299999999999L433.838 40.28609999999998C433.80600000000004 40.23299999999998 433.78400000000005 40.17989999999998 433.78400000000005 40.13729999999998C433.78400000000005 40.07919999999998 433.82700000000006 40.03659999999998 433.951 40.03659999999998L434.25800000000004 40.03659999999998L434.25800000000004 39.56469999999998ZM403.874 42.4557C403.874 42.5989 403.79900000000004 42.6626 403.64300000000003 42.6626L403.32000000000005 42.6626L403.32000000000005 43.1348L405.56500000000005 43.1348C406.53000000000003 43.1348 407.1650000000001 42.8377 407.1650000000001 42.116299999999995C407.1650000000001 41.73949999999999 406.9870000000001 41.400099999999995 406.4220000000001 41.246199999999995C406.7180000000001 41.09219999999999 406.9870000000001 40.864 406.9870000000001 40.5085C406.9870000000001 40.01 406.6160000000001 39.564699999999995 405.51200000000006 39.564699999999995L403.32000000000005 39.564699999999995L403.32000000000005 40.03659999999999L403.64300000000003 40.03659999999999C403.79900000000004 40.03659999999999 403.874 40.100199999999994 403.874 40.243599999999994ZM469.512 40.2436C469.512 40.1002 469.587 40.0366 469.744 40.0366L470.067 40.0366L470.067 39.5647L468.053 39.5647L468.053 40.0366L468.376 40.0366C468.532 40.0366 468.60699999999997 40.1002 468.60699999999997 40.2436L468.60699999999997 42.4557C468.60699999999997 42.5989 468.532 42.6626 468.376 42.6626L468.053 42.6626L468.053 43.1348L470.395 43.1348C471.34299999999996 43.1348 471.89799999999997 42.7846 471.89799999999997 42.0897C471.89799999999997 41.3628 471.22999999999996 41.0657 470.41099999999994 41.0657L469.51199999999994 41.0657ZM389.787 40.2436C389.787 40.1002 389.863 40.0366 390.019 40.0366L390.342 40.0366L390.342 39.5647L388.328 39.5647L388.328 40.0366L388.65099999999995 40.0366C388.80699999999996 40.0366 388.88199999999995 40.1002 388.88199999999995 40.2436L388.88199999999995 42.4557C388.88199999999995 42.5989 388.80699999999996 42.6626 388.65099999999995 42.6626L388.328 42.6626L388.328 43.1348L390.671 43.1348C391.618 43.1348 392.173 42.7846 392.173 42.0897C392.173 41.3628 391.505 41.0657 390.687 41.0657L389.78700000000003 41.0657ZM463.852 39.5647L463.852 41.0233L464.347 41.0233L464.347 40.6308C464.347 40.27 464.525 40.0366 464.94 40.0366L465.301 40.0366L465.301 42.4557C465.301 42.5989 465.22499999999997 42.6626 465.06899999999996 42.6626L464.746 42.6626L464.746 43.1348L466.76 43.1348L466.76 42.6626L466.437 42.6626C466.281 42.6626 466.205 42.5989 466.205 42.4557L466.205 40.0366L466.566 40.0366C466.981 40.0366 467.159 40.27 467.159 40.6308L467.159 41.0233L467.654 41.0233L467.654 39.5647ZM384.127 39.5647L384.127 41.0233L384.623 41.0233L384.623 40.6308C384.623 40.27 384.8 40.0366 385.215 40.0366L385.57599999999996 40.0366L385.57599999999996 42.4557C385.57599999999996 42.5989 385.49999999999994 42.6626 385.34399999999994 42.6626L385.02099999999996 42.6626L385.02099999999996 43.1348L387.03499999999997 43.1348L387.03499999999997 42.6626L386.712 42.6626C386.556 42.6626 386.481 42.5989 386.481 42.4557L386.481 40.0366L386.841 40.0366C387.25600000000003 40.0366 387.434 40.27 387.434 40.6308L387.434 41.0233L387.92900000000003 41.0233L387.92900000000003 39.5647ZM431.35 41.7874C431.312 42.2012 431.07500000000005 42.757999999999996 430.235 42.757999999999996C429.438 42.757999999999996 429.185 42.07919999999999 429.185 41.3469C429.185 40.4982 429.508 39.941199999999995 430.235 39.941199999999995C430.736 39.941199999999995 431.307 40.21169999999999 431.35 40.970299999999995L431.846 40.970299999999995L431.846 39.559099999999994L431.404 39.559099999999994L431.35 39.92009999999999C431.07500000000005 39.65459999999999 430.704 39.468999999999994 430.235 39.468999999999994C429.045 39.468999999999994 428.243 40.26469999999999 428.243 41.34689999999999C428.243 42.33369999999999 428.889 43.23019999999999 430.235 43.23019999999999C431.296 43.23019999999999 431.808 42.58289999999999 431.846 41.78739999999999ZM453.043 43.1348L453.043 42.6626L452.72 42.6626C452.564 42.6626 452.488 42.5989 452.488 42.4557L452.488 41.5644L453.296 41.5644C454.271 41.5644 454.67 41.1135 454.67 40.535399999999996C454.67 39.972899999999996 454.266 39.564699999999995 453.296 39.564699999999995L451.029 39.564699999999995L451.029 40.03659999999999L451.352 40.03659999999999C451.508 40.03659999999999 451.584 40.100199999999994 451.584 40.243599999999994L451.584 42.45569999999999C451.584 42.59889999999999 451.508 42.66259999999999 451.352 42.66259999999999L451.029 42.66259999999999L451.029 43.13479999999999ZM373.318 43.1348L373.318 42.6626L372.995 42.6626C372.839 42.6626 372.764 42.5989 372.764 42.4557L372.764 41.5644L373.571 41.5644C374.54600000000005 41.5644 374.94500000000005 41.1135 374.94500000000005 40.535399999999996C374.94500000000005 39.972899999999996 374.54100000000005 39.564699999999995 373.571 39.564699999999995L371.30400000000003 39.564699999999995L371.30400000000003 40.03659999999999L371.627 40.03659999999999C371.783 40.03659999999999 371.85900000000004 40.100199999999994 371.85900000000004 40.243599999999994L371.85900000000004 42.45569999999999C371.85900000000004 42.59889999999999 371.783 42.66259999999999 371.627 42.66259999999999L371.30400000000003 42.66259999999999L371.30400000000003 43.13479999999999ZM374.633 25.5552C374.633 24.4549 373.709 24 372.60699999999997 24L370.58099999999996 24L370.58099999999996 27.1548L372.60699999999997 27.1548C373.977 27.1548 374.633 26.567600000000002 374.633 25.555200000000003ZM465.794 25.5552C465.794 24.4254 465.019 24 463.78299999999996 24L461.74199999999996 24L461.74199999999996 27.1548L463.78299999999996 27.1548C465.16799999999995 27.1548 465.794 26.567600000000002 465.794 25.555200000000003ZM409.593 24.1091L409.59200000000004 24.1066L407.97 20.4991L406.213 24.1066L406.204 24.1249C407.369 24.276600000000002 408.421 24.2706 409.593 24.1091ZM370.581 22.738L372.53200000000004 22.738C373.545 22.738 374.18600000000004 22.2832 374.18600000000004 21.1829C374.18600000000004 20.1995 373.53000000000003 19.8914 372.38300000000004 19.8914L370.581 19.8914ZM392.173 39.5647L392.173 40.0366L392.496 40.0366C392.652 40.0366 392.728 40.1002 392.728 40.2436L392.728 42.4557C392.728 42.5989 392.652 42.6626 392.496 42.6626L392.173 42.6626L392.173 43.1348L394.187 43.1348L394.187 42.6626L393.86400000000003 42.6626C393.708 42.6626 393.63300000000004 42.5989 393.63300000000004 42.4557L393.63300000000004 40.2436C393.63300000000004 40.1002 393.708 40.0366 393.86400000000003 40.0366L394.187 40.0366L394.187 39.5647ZM471.898 39.5647L471.898 40.0366L472.221 40.0366C472.377 40.0366 472.45300000000003 40.1002 472.45300000000003 40.2436L472.45300000000003 42.4557C472.45300000000003 42.5989 472.377 42.6626 472.221 42.6626L471.898 42.6626L471.898 43.1348L473.91200000000003 43.1348L473.91200000000003 42.6626L473.58900000000006 42.6626C473.43300000000005 42.6626 473.357 42.5989 473.357 42.4557L473.357 40.2436C473.357 40.1002 473.43300000000005 40.0366 473.58900000000006 40.0366L473.91200000000003 40.0366L473.91200000000003 39.5647ZM400.821 39.9412C401.61800000000005 39.9412 401.877 40.498200000000004 401.877 41.346900000000005C401.877 42.073600000000006 401.623 42.758 400.821 42.758C400.024 42.758 399.76500000000004 42.0792 399.76500000000004 41.346900000000005C399.76500000000004 40.498200000000004 400.09400000000005 39.9412 400.821 39.9412ZM409.605 39.9412C410.40200000000004 39.9412 410.66 40.498200000000004 410.66 41.346900000000005C410.66 42.073600000000006 410.40700000000004 42.758 409.605 42.758C408.808 42.758 408.54900000000004 42.0792 408.54900000000004 41.346900000000005C408.54900000000004 40.498200000000004 408.877 39.9412 409.605 39.9412ZM443.441 39.9412C444.238 39.9412 444.496 40.498200000000004 444.496 41.346900000000005C444.496 42.073600000000006 444.243 42.758 443.441 42.758C442.64399999999995 42.758 442.385 42.0792 442.385 41.346900000000005C442.385 40.498200000000004 442.714 39.9412 443.441 39.9412ZM404.779 41.522L405.512 41.522C405.91 41.522 406.244 41.6864 406.244 42.0845C406.244 42.4504 406.007 42.6626 405.512 42.6626L404.779 42.6626ZM389.787 41.522L390.525 41.522C390.972 41.522 391.25199999999995 41.6759 391.25199999999995 42.0845C391.25199999999995 42.4504 391.02599999999995 42.6626 390.525 42.6626L389.787 42.6626ZM469.512 41.522L470.25 41.522C470.697 41.522 470.977 41.6759 470.977 42.0845C470.977 42.4504 470.751 42.6626 470.25 42.6626L469.512 42.6626ZM395.821 41.4797C395.821 41.7927 396.12800000000004 42.0419 396.50500000000005 42.0419C396.88200000000006 42.0419 397.1890000000001 41.792699999999996 397.1890000000001 41.4797C397.1890000000001 41.1665 396.88200000000006 40.917300000000004 396.50500000000005 40.917300000000004C396.12800000000004 40.917300000000004 395.821 41.166500000000006 395.821 41.4797ZM425.241 41.4797C425.241 41.7927 425.548 42.0419 425.925 42.0419C426.302 42.0419 426.60900000000004 41.792699999999996 426.60900000000004 41.4797C426.60900000000004 41.1665 426.302 40.917300000000004 425.925 40.917300000000004C425.548 40.917300000000004 425.241 41.166500000000006 425.241 41.4797ZM368.057 42.0101L367.857 42.0101C367.37800000000004 42.0101 367.093 41.8618 367.093 41.2992C367.093 40.7528 367.37800000000004 40.6042 367.857 40.6042L368.057 40.6042ZM448.681 40.6042L448.88 40.6042C449.359 40.6042 449.645 40.7528 449.645 41.2992C449.645 41.8618 449.359 42.0101 448.88 42.0101L448.681 42.0101ZM447.781 42.0101L447.582 42.0101C447.103 42.0101 446.817 41.8618 446.817 41.2992C446.817 40.7528 447.103 40.6042 447.582 40.6042L447.781 40.6042ZM368.956 40.6042L369.15500000000003 40.6042C369.63500000000005 40.6042 369.92 40.7528 369.92 41.2992C369.92 41.8618 369.635 42.0101 369.15500000000003 42.0101L368.956 42.0101ZM404.779 40.0366L405.431 40.0366C405.846 40.0366 406.08299999999997 40.148 406.08299999999997 40.5035C406.08299999999997 40.9013 405.85099999999994 41.0657 405.48499999999996 41.0657L404.77899999999994 41.0657ZM452.488 40.0366L453.145 40.0366C453.539 40.0366 453.74899999999997 40.2274 453.74899999999997 40.5354C453.74899999999997 40.917300000000004 453.544 41.092200000000005 453.11299999999994 41.092200000000005L452.48799999999994 41.092200000000005ZM372.764 40.0366L373.421 40.0366C373.81399999999996 40.0366 374.024 40.2274 374.024 40.5354C374.024 40.917300000000004 373.819 41.092200000000005 373.388 41.092200000000005L372.76399999999995 41.092200000000005ZM421.033 43.1348L421.033 42.6626L420.71000000000004 42.6626C420.55400000000003 42.6626 420.478 42.5989 420.478 42.4557C420.478 42.4026 420.516 42.2966 420.596 42.233L422.169 40.9437C422.15799999999996 41.0023 422.14799999999997 41.0657 422.14799999999997 41.1454L422.14799999999997 42.4557C422.14799999999997 42.5989 422.07199999999995 42.6626 421.91599999999994 42.6626L421.59299999999996 42.6626L421.59299999999996 43.1348L423.60699999999997 43.1348L423.60699999999997 42.6626L423.284 42.6626C423.128 42.6626 423.05199999999996 42.5989 423.05199999999996 42.4557L423.05199999999996 40.2436C423.05199999999996 40.1002 423.128 40.0366 423.284 40.0366L423.60699999999997 40.0366L423.60699999999997 39.5647L421.59299999999996 39.5647L421.59299999999996 40.0366L421.91599999999994 40.0366C422.07199999999995 40.0366 422.14799999999997 40.1002 422.14799999999997 40.2436C422.14799999999997 40.3074 422.10499999999996 40.3974 422.018 40.4717L420.45099999999996 41.760799999999996C420.467 41.6654 420.47799999999995 41.574999999999996 420.47799999999995 41.479699999999994L420.47799999999995 40.243599999999994C420.47799999999995 40.100199999999994 420.554 40.03659999999999 420.71 40.03659999999999L421.03299999999996 40.03659999999999L421.03299999999996 39.564699999999995L419.01899999999995 39.564699999999995L419.01899999999995 40.03659999999999L419.3419999999999 40.03659999999999C419.49799999999993 40.03659999999999 419.5729999999999 40.100199999999994 419.5729999999999 40.243599999999994L419.5729999999999 42.45569999999999C419.5729999999999 42.59889999999999 419.49799999999993 42.66259999999999 419.3419999999999 42.66259999999999L419.01899999999995 42.66259999999999L419.01899999999995 43.13479999999999Z " fill="#ffffff" fill-opacity="1" transform="matrix(1,0,0,1,-360,-9)"></path></svg>