<svg xmlns="http://www.w3.org/2000/svg" width="12" height="36" viewBox="0 0 12 36">
  <metadata><?xpacket begin="﻿" id="W5M0MpCehiHzreSzNTczkc9d"?>
<x:xmpmeta xmlns:x="adobe:ns:meta/" x:xmptk="Adobe XMP Core 5.6-c138 79.159824, 2016/09/14-01:09:01        ">
   <rdf:RDF xmlns:rdf="http://www.w3.org/1999/02/22-rdf-syntax-ns#">
      <rdf:Description rdf:about=""/>
   </rdf:RDF>
</x:xmpmeta>
                                                                                                    
                                                                                                    
                                                                                                    
                                                                                                    
                                                                                                    
                                                                                                    
                                                                                                    
                                                                                                    
                                                                                                    
                                                                                                    
                                                                                                    
                                                                                                    
                                                                                                    
                                                                                                    
                                                                                                    
                                                                                                    
                                                                                                    
                                                                                                    
                                                                                                    
                                                                                                    
                           
<?xpacket end="w"?></metadata>
<defs>
    <style>
      .cls-1 {
        fill: #ff7200;
        fill-rule: evenodd;
      }
    </style>
  </defs>
  <path id="Arrow" class="cls-1" d="M762,1918a2,2,0,1,1-2,2A2,2,0,0,1,762,1918Zm-4-8a2,2,0,1,1-2,2A2,2,0,0,1,758,1910Zm0,16a2,2,0,1,1-2,2A2,2,0,0,1,758,1926Zm-4,8a2,2,0,1,1-2,2A2,2,0,0,1,754,1934Zm0-32a2,2,0,1,1-2,2A2,2,0,0,1,754,1902Z" transform="translate(-752 -1902)"/>
</svg>
