<?xml version="1.0" encoding="UTF-8"?>
<svg width="80px" height="81px" viewBox="0 0 80 81" version="1.1" xmlns="http://www.w3.org/2000/svg" xmlns:xlink="http://www.w3.org/1999/xlink">
    <!-- Generator: Sketch 42 (36781) - http://www.bohemiancoding.com/sketch -->
    <title>Sticker/Begin</title>
    <desc>Created with Sketch.</desc>
    <defs></defs>
    <g id="Page-1" stroke="none" stroke-width="1" fill="none" fill-rule="evenodd">
        <g id="Sticker/Begin" transform="translate(40.000000, 40.641016) rotate(-30.000000) translate(-40.000000, -40.641016) translate(0.000000, 0.641016)">
            <ellipse id="Oval-5" fill="#96AF2C" cx="40" cy="40" rx="40" ry="40"></ellipse>
            <ellipse id="Oval-5" stroke="#FFFFFF" stroke-width="2" cx="40" cy="40" rx="35" ry="35"></ellipse>
            <path d="M21.6362305,26.9902344 L21.6362305,26.8344727 C21.6362305,25.7924753 21.8564431,25.2714844 22.296875,25.2714844 C22.7373069,25.2714844 23.2726205,25.806798 23.902832,26.8774414 C24.0174159,27.0922862 24.074707,27.3483058 24.074707,27.6455078 C24.074707,27.7994799 24.0496422,28.0017891 23.9995117,28.2524414 C23.9493813,28.5030937 23.9243164,28.6606442 23.9243164,28.7250977 C23.9243164,28.7322592 23.9278971,28.7430012 23.9350586,28.7573242 C23.9422201,28.7716472 23.9458008,28.7823893 23.9458008,28.7895508 C23.8562821,29.2622094 23.7748213,29.967606 23.701416,30.9057617 C23.6280107,31.8439175 23.5913086,32.8107047 23.5913086,33.8061523 C23.5913086,35.8292744 23.7309556,37.3618112 24.0102539,38.4038086 C24.0854496,38.765464 24.1230469,39.0161126 24.1230469,39.1557617 C24.1230469,39.3598643 24.0335295,39.4619141 23.8544922,39.4619141 C23.7112623,39.4619141 23.4265972,39.3598643 23.0004883,39.1557617 C22.4490532,38.9051094 22.0515963,38.6795257 21.8081055,38.4790039 C21.5646147,38.2784821 21.3945317,37.9982928 21.2978516,37.6384277 C21.2011714,37.2785627 21.152832,36.7351924 21.152832,36.0083008 C21.152832,35.7146795 21.1671548,34.9806374 21.1958008,33.8061523 C21.2244468,33.6915684 21.2387695,33.5304372 21.2387695,33.3227539 C21.2387695,32.8393531 20.98275,32.5976562 20.4707031,32.5976562 C20.302408,32.5976562 19.9640325,32.6424149 19.4555664,32.7319336 C19.1189762,32.7426758 18.8916022,32.8142897 18.7734375,32.9467773 C18.6552728,33.079265 18.5961914,33.3299135 18.5961914,33.6987305 C18.5961914,33.8168951 18.6221514,34.250159 18.6740723,34.9985352 C18.7259931,35.7469113 18.7519531,36.4863245 18.7519531,37.2167969 L18.7519531,37.6357422 C18.7519531,37.8111988 18.7626952,38.018879 18.7841797,38.2587891 C18.8056642,38.4986991 18.8164062,38.6437172 18.8164062,38.6938477 C18.8164062,38.8979502 18.7591152,39 18.6445312,39 C17.8889936,38.8675124 17.3492041,38.7242846 17.0251465,38.5703125 C16.7010889,38.4163404 16.4719245,38.145998 16.3376465,37.7592773 C16.2033685,37.3725567 16.1362305,36.7602581 16.1362305,35.9223633 C16.1362305,35.3780897 16.1433919,34.9591486 16.1577148,34.6655273 C16.1863608,34.457844 16.2006836,34.3253584 16.2006836,34.2680664 C16.2006836,34.1105135 16.1604008,33.9717617 16.079834,33.8518066 C15.9992672,33.7318516 15.8264987,33.5268569 15.5615234,33.2368164 C15.5472004,33.1329747 15.5122887,33.0318202 15.4567871,32.9333496 C15.4012855,32.8348791 15.3117682,32.6925465 15.1882324,32.5063477 C15.0646966,32.3201488 14.9751793,32.1733404 14.9196777,32.065918 C14.8641762,31.9584956 14.8364258,31.8653975 14.8364258,31.7866211 C14.8364258,31.5968415 14.9689114,31.4715172 15.2338867,31.4106445 C15.6170267,31.3533526 15.8784173,31.2844242 16.0180664,31.2038574 C16.1577155,31.1232906 16.2508136,30.9782725 16.2973633,30.7687988 C16.343913,30.5593251 16.3868813,30.0633991 16.4262695,29.2810059 C16.4656577,28.4986126 16.4996743,27.9176451 16.5283203,27.5380859 C16.5569663,27.3375641 16.586507,26.965172 16.6169434,26.4208984 C16.6473797,25.8766249 16.6984046,25.4827486 16.7700195,25.2392578 C16.8416345,24.995767 16.9741201,24.8740234 17.1674805,24.8740234 C17.3107104,24.8740234 17.4951161,24.9402663 17.7207031,25.0727539 C18.2399115,25.5310895 18.5890291,25.884683 18.7680664,26.1335449 C18.9471038,26.3824068 19.0366211,26.6232085 19.0366211,26.855957 C19.0366211,26.941895 19.0115562,27.1459945 18.9614258,27.4682617 C18.9112953,27.790529 18.8862305,28.0930975 18.8862305,28.3759766 C18.7537428,29.614915 18.6875,30.2236329 18.6875,30.2021484 C18.6875,30.4384777 18.7304683,30.6031896 18.8164062,30.6962891 C18.9023442,30.7893885 19.0491526,30.8359375 19.2568359,30.8359375 C19.3821621,30.8359375 19.6337058,30.8090823 20.0114746,30.7553711 C20.3892434,30.7016599 20.6730134,30.6640626 20.862793,30.6425781 C20.9845384,30.6139321 21.0722654,30.566488 21.1259766,30.5002441 C21.1796878,30.4340003 21.2262368,30.2961436 21.265625,30.0866699 C21.3050132,29.8771962 21.3587236,29.4654165 21.4267578,28.8513184 C21.494792,28.2372202 21.5646155,27.6168651 21.6362305,26.9902344 Z M30.1064453,32.0014648 L30.1064453,31.894043 C30.1064453,31.7579746 30.0661625,31.6398117 29.9855957,31.5395508 C29.9050289,31.4392899 29.8056647,31.3891602 29.6875,31.3891602 C29.5335279,31.3891602 29.4010422,31.4249671 29.2900391,31.496582 C28.7457655,31.8474952 28.345623,32.3416309 28.0895996,32.9790039 C27.8335762,33.6163769 27.7055664,34.2805955 27.7055664,34.9716797 C27.7055664,35.490888 27.7718092,35.9689106 27.9042969,36.4057617 C27.9866541,36.6671563 28.1782212,36.7978516 28.4790039,36.7978516 C28.5685226,36.7978516 28.7439766,36.7620446 29.0053711,36.6904297 C29.5496446,36.3896469 29.8951816,35.9277375 30.0419922,35.3046875 C30.0419922,35.0898427 30.0339356,34.8186052 30.0178223,34.4909668 C30.0017089,34.1633284 29.9936523,33.9064137 29.9936523,33.7202148 C29.9936523,33.1437146 30.0312496,32.5708036 30.1064453,32.0014648 Z M30.1279297,38.2963867 C29.6874978,38.7797876 29.1665069,39.0214844 28.5649414,39.0214844 C27.9884411,39.0214844 27.4361192,38.8039573 26.907959,38.3688965 C26.3797988,37.9338357 25.9939791,37.3600296 25.7504883,36.6474609 C25.442544,35.7665972 25.2885742,34.9734736 25.2885742,34.2680664 C25.2885742,32.4275624 26.1604731,30.902187 27.9042969,29.6918945 C28.3375673,29.3696273 28.6831042,29.2084961 28.940918,29.2084961 C29.0089522,29.2084961 29.0895178,29.2228189 29.1826172,29.2514648 C29.708987,29.6489278 30.0312494,29.8476562 30.1494141,29.8476562 C30.2747402,29.8476562 30.3624672,29.686525 30.4125977,29.3642578 C30.4125977,29.3499348 30.409017,29.3212893 30.4018555,29.2783203 C30.394694,29.2353513 30.3911133,29.2120768 30.3911133,29.2084961 C30.3911133,28.9005518 30.5307603,28.746582 30.8100586,28.746582 C31.0786146,28.746582 31.3937156,28.8862291 31.7553711,29.1655273 C32.1134458,29.3839529 32.3533523,29.5558262 32.4750977,29.6811523 C32.5968431,29.8064785 32.6577148,29.964029 32.6577148,30.1538086 C32.6577148,30.218262 32.6416017,30.3400056 32.609375,30.519043 C32.5771483,30.6980803 32.5556641,30.8198239 32.5449219,30.8842773 C32.3408193,31.611169 32.2387695,32.4383092 32.2387695,33.3657227 C32.2387695,35.1059657 32.4804663,36.6546156 32.9638672,38.0117188 C33.1250008,38.4485699 33.2055664,38.7636709 33.2055664,38.9570312 C33.2055664,39.2041028 33.0891939,39.3276367 32.8564453,39.3276367 C31.6676373,39.3276367 30.9855152,39.0931013 30.8100586,38.6240234 C30.6811517,38.2444642 30.5629888,38.0546875 30.4555664,38.0546875 C30.3696285,38.0546875 30.2604173,38.1352531 30.1279297,38.2963867 Z M38.222168,32.9038086 C38.4298513,30.8162331 38.5462238,29.6811533 38.5712891,29.4985352 C38.599935,29.1153952 38.6894524,28.9238281 38.8398437,28.9238281 C38.9580084,28.9238281 39.1925438,29.0258779 39.543457,29.2299805 C40.2166375,29.5594092 40.5532227,30.0302704 40.5532227,30.6425781 C40.5532227,30.7535813 40.5451661,30.8439938 40.5290527,30.9138184 C40.5129394,30.9836429 40.4995118,31.0310871 40.4887695,31.0561523 C40.2524402,32.8751719 40.1342773,34.5473557 40.1342773,36.0727539 C40.1342773,37.1147513 40.1861974,38.0904902 40.2900391,39 C40.2757161,39 40.2685547,39.0071614 40.2685547,39.0214844 C40.2685547,39.211264 40.1879891,39.3061523 40.0268555,39.3061523 C39.8513989,39.3061523 39.6025407,39.1826184 39.2802734,38.9355469 C39.1227206,38.7672518 38.8058292,38.5900074 38.3295898,38.4038086 C38.0323878,38.2856439 37.8712566,38.0672216 37.8461914,37.7485352 C37.8461914,37.7055662 37.8426107,37.6303716 37.8354492,37.5229492 C37.8282877,37.4155268 37.824707,37.3367516 37.824707,37.2866211 C37.824707,36.9392886 37.8766271,36.0727608 37.9804687,34.6870117 C37.9661458,34.6870117 37.9589844,34.6726889 37.9589844,34.644043 C37.9589844,34.572428 37.9357099,34.5366211 37.8891602,34.5366211 C37.8247067,34.5366211 37.6519383,34.6261384 37.3708496,34.8051758 C37.089761,34.9842131 36.8328462,35.1301264 36.6000977,35.2429199 C36.3673491,35.3557135 36.1310233,35.4121094 35.8911133,35.4121094 C35.8839518,35.4121094 35.8767904,35.4085287 35.8696289,35.4013672 C35.8624674,35.3942057 35.855306,35.390625 35.8481445,35.390625 C35.2429983,35.3548175 34.7748226,35.2169608 34.4436035,34.9770508 C34.1123844,34.7371407 33.8823249,34.3038768 33.753418,33.6772461 C33.724772,33.4695628 33.7104492,33.2779957 33.7104492,33.1025391 C33.7104492,32.7838526 33.7435706,32.2565955 33.8098145,31.520752 C33.8760583,30.7849084 33.9091797,30.2791355 33.9091797,30.003418 C33.9091797,29.5343401 33.9270832,29.2076018 33.9628906,29.0231934 C33.9986981,28.8387849 34.0917961,28.746582 34.2421875,28.746582 C34.3424484,28.746582 34.4516596,28.7770179 34.5698242,28.8378906 C34.9923524,29.0205087 35.3244617,29.2174469 35.5661621,29.4287109 C35.8078625,29.639975 35.9376627,29.8977849 35.9555664,30.2021484 L35.9555664,30.4223633 C35.9555664,30.6479503 35.9188643,31.0445121 35.845459,31.6120605 C35.7720537,32.179609 35.7353516,32.5815418 35.7353516,32.8178711 C35.7353516,32.8715823 35.7568357,33.0112293 35.7998047,33.2368164 C35.8642581,33.5161147 36.0486638,33.6557617 36.3530273,33.6557617 C36.4676112,33.6557617 36.5768224,33.6396486 36.6806641,33.6074219 C36.9528008,33.5250647 37.2070301,33.4239101 37.4433594,33.3039551 C37.6796887,33.1840001 37.939289,33.0506192 38.222168,32.9038086 Z M46.3164062,32.0014648 L46.3164062,31.894043 C46.3164062,31.7579746 46.2761234,31.6398117 46.1955566,31.5395508 C46.1149898,31.4392899 46.0156256,31.3891602 45.8974609,31.3891602 C45.7434888,31.3891602 45.6110032,31.4249671 45.5,31.496582 C44.9557264,31.8474952 44.555584,32.3416309 44.2995605,32.9790039 C44.0435371,33.6163769 43.9155273,34.2805955 43.9155273,34.9716797 C43.9155273,35.490888 43.9817702,35.9689106 44.1142578,36.4057617 C44.196615,36.6671563 44.3881821,36.7978516 44.6889648,36.7978516 C44.7784835,36.7978516 44.9539375,36.7620446 45.215332,36.6904297 C45.7596056,36.3896469 46.1051425,35.9277375 46.2519531,35.3046875 C46.2519531,35.0898427 46.2438966,34.8186052 46.2277832,34.4909668 C46.2116698,34.1633284 46.2036133,33.9064137 46.2036133,33.7202148 C46.2036133,33.1437146 46.2412106,32.5708036 46.3164062,32.0014648 Z M46.3378906,38.2963867 C45.8974587,38.7797876 45.3764679,39.0214844 44.7749023,39.0214844 C44.1984021,39.0214844 43.6460801,38.8039573 43.1179199,38.3688965 C42.5897597,37.9338357 42.20394,37.3600296 41.9604492,36.6474609 C41.652505,35.7665972 41.4985352,34.9734736 41.4985352,34.2680664 C41.4985352,32.4275624 42.370434,30.902187 44.1142578,29.6918945 C44.5475282,29.3696273 44.8930651,29.2084961 45.1508789,29.2084961 C45.2189131,29.2084961 45.2994787,29.2228189 45.3925781,29.2514648 C45.9189479,29.6489278 46.2412103,29.8476562 46.359375,29.8476562 C46.4847011,29.8476562 46.5724281,29.686525 46.6225586,29.3642578 C46.6225586,29.3499348 46.6189779,29.3212893 46.6118164,29.2783203 C46.6046549,29.2353513 46.6010742,29.2120768 46.6010742,29.2084961 C46.6010742,28.9005518 46.7407213,28.746582 47.0200195,28.746582 C47.2885756,28.746582 47.6036766,28.8862291 47.965332,29.1655273 C48.3234067,29.3839529 48.5633132,29.5558262 48.6850586,29.6811523 C48.806804,29.8064785 48.8676758,29.964029 48.8676758,30.1538086 C48.8676758,30.218262 48.8515627,30.3400056 48.8193359,30.519043 C48.7871092,30.6980803 48.7656251,30.8198239 48.7548828,30.8842773 C48.5507802,31.611169 48.4487305,32.4383092 48.4487305,33.3657227 C48.4487305,35.1059657 48.6904273,36.6546156 49.1738281,38.0117188 C49.3349617,38.4485699 49.4155273,38.7636709 49.4155273,38.9570312 C49.4155273,39.2041028 49.2991548,39.3276367 49.0664062,39.3276367 C47.8775982,39.3276367 47.1954761,39.0931013 47.0200195,38.6240234 C46.8911126,38.2444642 46.7729498,38.0546875 46.6655273,38.0546875 C46.5795894,38.0546875 46.4703783,38.1352531 46.3378906,38.2963867 Z M50.4736328,38.5595703 C49.9866512,38.0009738 49.7431641,37.583823 49.7431641,37.3081055 C49.7431641,37.2508135 49.7521158,37.1720383 49.7700195,37.0717773 C49.7879233,36.9715164 49.802246,36.8802087 49.8129883,36.7978516 C50.1961282,34.5634654 51.0250587,32.459808 52.2998047,30.4868164 C52.3356122,30.4402667 52.4466137,30.4080405 52.6328125,30.3901367 C52.8190113,30.372233 52.9121094,30.3167322 52.9121094,30.2236328 L52.9121094,30.2021484 C52.9049479,30.0589186 52.8664554,29.9022632 52.7966309,29.7321777 C52.7268063,29.5620922 52.6918945,29.4609377 52.6918945,29.4287109 C52.6918945,29.385742 52.6990559,29.3570964 52.7133789,29.3427734 C52.8745125,29.1386709 53.021321,29.0366211 53.1538086,29.0366211 C53.2540695,29.0366211 53.5852836,29.1529936 54.1474609,29.3857422 C54.1689454,29.3964844 54.2924793,29.4448238 54.5180664,29.5307617 C54.7436535,29.6166996 54.9083654,29.7080073 55.012207,29.8046875 C55.1160487,29.9013677 55.2127274,30.0607085 55.3022461,30.2827148 C55.3917648,30.5047212 55.4687497,30.8216125 55.5332031,31.2333984 C55.6406255,31.9280634 55.7569981,32.6066048 55.8823242,33.269043 C56.0076504,33.9314812 56.1696767,34.7442986 56.3684082,35.7075195 C56.5671397,36.6707405 56.7273757,37.4602834 56.8491211,38.0761719 C56.9386398,38.4951193 56.9833984,38.767252 56.9833984,38.8925781 C56.9833984,39.0823577 56.8885101,39.1772461 56.6987305,39.1772461 C56.5161124,39.1772461 56.1848982,39.0823577 55.7050781,38.8925781 C55.2431618,38.6884755 54.9334318,38.5354009 54.7758789,38.4333496 C54.618326,38.3312983 54.499268,38.1907561 54.4187012,38.0117188 C54.3381344,37.8326814 54.2763674,37.5462259 54.2333984,37.1523438 C54.1653642,36.6295547 54.09196,36.0790231 54.0131836,35.5007324 C53.9344072,34.9224418 53.8753257,34.4596372 53.8359375,34.1123047 C53.7965493,33.7649722 53.7679037,33.4588229 53.75,33.1938477 C53.707031,32.6925431 53.5888682,32.4418945 53.3955078,32.4418945 C53.2666009,32.4418945 53.1788739,32.5457346 53.1323242,32.753418 C52.8745104,33.3155953 52.6462412,34.0406857 52.4475098,34.9287109 C52.2487783,35.8167362 52.0294608,36.9750905 51.7895508,38.4038086 C51.7501626,38.7296566 51.5675472,38.8925781 51.2416992,38.8925781 C50.9230127,38.8925781 50.6669932,38.7815766 50.4736328,38.5595703 Z M64.3740234,32.6191406 C64.5208341,33.0130228 64.5942383,33.5125295 64.5942383,34.1176758 C64.5942383,34.8767942 64.4581719,35.6439577 64.1860352,36.4191895 C63.9138984,37.1944212 63.5182318,37.8326798 62.9990234,38.3339844 C62.4798151,38.835289 61.8746779,39.0859375 61.1835937,39.0859375 C60.9007147,39.0859375 60.5703958,38.9812022 60.192627,38.7717285 C59.8148581,38.5622548 59.4487322,38.2784849 59.0942383,37.9204102 C58.843586,37.6805001 58.5759292,37.3313825 58.2912598,36.8730469 C58.0065904,36.4147112 57.8051764,35.9868184 57.6870117,35.5893555 C57.4936514,35.0379204 57.3969727,34.4506867 57.3969727,33.8276367 C57.3969727,33.2833632 57.4685865,32.7373074 57.6118164,32.1894531 C57.7550463,31.6415988 57.9770493,31.1179224 58.277832,30.6184082 C58.5786148,30.118894 58.9599586,29.6793639 59.421875,29.2998047 C59.8193379,28.9918604 60.1272776,28.8378906 60.3457031,28.8378906 C60.7181008,28.8378906 61.1370419,29.2031213 61.6025391,29.9335938 C61.8710951,30.2952492 62.0537105,30.5145667 62.1503906,30.5915527 C62.2470708,30.6685388 62.4010406,30.7070312 62.6123047,30.7070312 C63.3427771,30.7070312 63.9300108,31.3443947 64.3740234,32.6191406 Z M60.3457031,32.1357422 C59.9804669,33.2099663 59.7978516,34.1642211 59.7978516,34.9985352 C59.7978516,35.5642932 59.8927399,36.0476868 60.0825195,36.4487305 C60.2579761,36.9321313 60.4996729,37.1738281 60.8076172,37.1738281 C60.9544278,37.1738281 61.1012362,37.1290695 61.2480469,37.0395508 C61.4879569,36.9106439 61.720702,36.5507842 61.9462891,35.9599609 C62.1718761,35.3691377 62.284668,34.7031287 62.284668,33.9619141 C62.284668,33.1956342 62.1736665,32.5063507 61.9516602,31.894043 C61.8943682,31.7185864 61.8030605,31.5467131 61.6777344,31.378418 C61.5524082,31.2101229 61.4091805,31.1259766 61.2480469,31.1259766 C60.9651679,31.1259766 60.6643896,31.4625617 60.3457031,32.1357422 Z M21.2602539,45.6953125 C21.117024,45.3443993 20.9702156,45.1689453 20.8198242,45.1689453 C20.7124018,45.1689453 20.6175134,45.2423495 20.5351562,45.3891602 C20.212889,45.7973653 19.9488129,46.3362597 19.7429199,47.0058594 C19.537027,47.6754591 19.434082,48.3164032 19.434082,48.9287109 C19.434082,49.5410187 19.542398,50.0351544 19.7590332,50.4111328 C19.9756684,50.7871113 20.3077777,50.9750977 20.7553711,50.9750977 C21.2065452,50.9750977 21.711423,50.7996437 22.2700195,50.4487305 C22.3810227,50.3162428 22.5206697,50.25 22.6889648,50.25 C22.828614,50.25 22.9673658,50.296549 23.1052246,50.3896484 C23.2430834,50.4827479 23.3317055,50.6044914 23.3710937,50.7548828 C23.4892584,51.0950538 23.5483398,51.343912 23.5483398,51.5014648 C23.5483398,51.8344743 23.3281272,52.1209298 22.8876953,52.3608398 C22.3505833,52.8299177 21.6612998,53.0644531 20.8198242,53.0644531 C20.3758116,53.0644531 19.9371766,52.975831 19.5039062,52.798584 C19.0706359,52.621337 18.6785499,52.3429381 18.3276367,51.9633789 C17.9767235,51.5838197 17.6992198,51.1075875 17.4951172,50.534668 C17.2193997,49.7075154 17.081543,48.9233435 17.081543,48.1821289 C17.081543,47.2941036 17.2399886,46.4642779 17.5568848,45.692627 C17.8737809,44.920976 18.2882461,44.306887 18.800293,43.8503418 C19.3123398,43.3937965 19.8458631,43.1655273 20.4008789,43.1655273 C20.8556338,43.1655273 21.3050108,43.2863757 21.7490234,43.5280762 C22.1930361,43.7697766 22.5528958,44.0786114 22.8286133,44.4545898 C23.1043308,44.8305683 23.2421875,45.2083314 23.2421875,45.5878906 C23.2421875,45.8242199 23.1831061,46.051594 23.0649414,46.2700195 C22.943196,46.4454761 22.8223476,46.5663245 22.7023926,46.6325684 C22.5824376,46.6988122 22.4168305,46.7319336 22.2055664,46.7319336 C21.9191066,46.7319336 21.7167975,46.6630052 21.5986328,46.5251465 C21.4804682,46.3872877 21.3676763,46.1106792 21.2602539,45.6953125 Z M30.7456055,50.9321289 C30.8172204,51.12907 30.8530273,51.3116854 30.8530273,51.4799805 C30.8530273,52.0349963 30.5468781,52.4449857 29.9345703,52.7099609 C29.3222626,52.9749362 28.7350289,53.1074219 28.1728516,53.1074219 C27.6178358,53.1074219 27.1120628,52.9919445 26.6555176,52.7609863 C26.1989723,52.5300281 25.799725,52.1979188 25.4577637,51.7646484 C25.1158023,51.331378 24.8320324,50.8050161 24.6064453,50.1855469 C24.370116,49.4980434 24.2519531,48.8159214 24.2519531,48.1391602 C24.2519531,47.5161102 24.3396801,46.9047068 24.5151367,46.3049316 C24.6905933,45.7051565 24.9448226,45.1662622 25.277832,44.6882324 C25.6108415,44.2102027 26.0100888,43.8333347 26.4755859,43.5576172 C26.9410831,43.2818997 27.4549126,43.144043 28.0170898,43.144043 C28.5076522,43.144043 29.0393852,43.3687315 29.6123047,43.8181152 C30.1852242,44.267499 30.555826,44.732094 30.7241211,45.2119141 C30.8995777,45.7060572 30.9873047,46.1536438 30.9873047,46.5546875 C30.9873047,47.2350294 30.7805196,47.7945128 30.3669434,48.2331543 C29.9533671,48.6717958 29.4959335,48.9895823 28.9946289,49.1865234 C28.4933243,49.3834645 28.1298839,49.4819336 27.9042969,49.4819336 C27.6643868,49.4819336 27.3564472,49.2832051 26.9804687,48.8857422 C26.7692047,48.6064439 26.6009121,48.4667969 26.4755859,48.4667969 C26.418294,48.4667969 26.3896484,48.5258783 26.3896484,48.644043 C26.3896484,48.8123381 26.4326168,49.0844708 26.5185547,49.4604492 C26.7083343,50.4702199 27.1415982,50.9750977 27.8183594,50.9750977 C28.0904962,50.9750977 28.5076469,50.8730479 29.0698242,50.6689453 C29.653486,50.4934887 29.9918615,50.4057617 30.0849609,50.4057617 C30.4072282,50.4057617 30.6274408,50.5812157 30.7456055,50.9321289 Z M28.2587891,47.1938477 C28.5524103,46.9646798 28.7278643,46.7068699 28.7851562,46.4204102 C28.8746749,46.055174 28.9194336,45.7848316 28.9194336,45.609375 C28.9086914,45.3945302 28.8281258,45.2199714 28.6777344,45.0856934 C28.527343,44.9514153 28.3590504,44.8842773 28.1728516,44.8842773 C27.8899725,44.8842773 27.6464854,45.0078113 27.4423828,45.2548828 C26.887367,46.2503305 26.6098633,46.9772112 26.6098633,47.4355469 C26.6098633,47.7434911 26.7333972,47.8974609 26.9804687,47.8974609 C27.2490248,47.8974609 27.6751273,47.6629255 28.2587891,47.1938477 Z M32.5449219,43.8046875 C32.8349624,43.4931625 33.1912414,43.2505705 33.6137695,43.0769043 C34.0362977,42.9032381 34.4641905,42.8164062 34.8974609,42.8164062 C35.2412127,42.8164062 35.5133454,42.8522132 35.7138672,42.9238281 C36.2867867,43.12435 36.7451155,43.4484027 37.0888672,43.8959961 C37.4326189,44.3435895 37.6044922,44.8413059 37.6044922,45.3891602 C37.6044922,46.1160518 37.2750684,46.7981739 36.6162109,47.4355469 C36.4264313,47.5572923 36.331543,47.6521806 36.331543,47.7202148 C36.331543,47.7452801 36.3503416,47.7676594 36.3879395,47.7873535 C36.4255373,47.8070476 36.5043126,47.8383787 36.6242676,47.8813477 C36.7442226,47.9243166 36.8579096,47.9654946 36.965332,48.0048828 C37.7137082,48.4524762 38.0878906,49.1059527 38.0878906,49.965332 C38.0878906,50.7172889 37.8103869,51.4495407 37.2553711,52.1621094 C36.7218398,52.8388706 36.0325563,53.1772461 35.1875,53.1772461 C34.8688135,53.1772461 34.6038422,53.1468102 34.3925781,53.0859375 C33.7695281,52.9104809 33.3004573,52.7063814 32.9853516,52.4736328 C32.5091122,52.1406233 32.1564139,51.8165706 31.9272461,51.5014648 C31.7231435,51.2758778 31.6210937,51.034181 31.6210937,50.7763672 C31.6210937,50.4576807 31.7679022,50.1282569 32.0615234,49.7880859 C32.3193372,49.4801417 32.5538726,49.3261719 32.7651367,49.3261719 C32.9835623,49.3261719 33.1446935,49.4729803 33.2485352,49.7666016 C33.2879234,49.8919277 33.3416338,50.0163568 33.409668,50.1398926 C33.4777022,50.2634284 33.5528967,50.3887526 33.6352539,50.5158691 C33.7176111,50.6429857 33.8160802,50.7960603 33.9306641,50.9750977 C34.030925,51.1433928 34.1634106,51.2848302 34.328125,51.3994141 C34.4928394,51.513998 34.6539706,51.5712891 34.8115234,51.5712891 C34.9368496,51.5712891 35.0550125,51.5265304 35.1660156,51.4370117 C35.4238294,51.2758781 35.6234531,51.032391 35.7648926,50.706543 C35.9063321,50.380695 35.9770508,50.0387388 35.9770508,49.6806641 C35.9770508,49.4873037 35.9698894,49.3548181 35.9555664,49.2832031 C35.7729483,48.7854793 35.4506859,48.5366211 34.9887695,48.5366211 C34.8885086,48.5366211 34.7631843,48.5509439 34.612793,48.5795898 C34.5948892,48.5795898 34.5698244,48.5867512 34.5375977,48.6010742 C34.5053709,48.6153972 34.4874675,48.6225586 34.4838867,48.6225586 C34.4015295,48.6225586 34.3370771,48.5957034 34.2905273,48.5419922 C34.2439776,48.488281 34.1723638,48.3754891 34.0756836,48.2036133 C33.9790034,48.0317374 33.9091799,47.9153649 33.8662109,47.8544922 C33.7766923,47.6969393 33.7319336,47.607422 33.7319336,47.5859375 C33.7319336,47.5035803 33.7740067,47.4310713 33.8581543,47.3684082 C33.9423019,47.3057451 34.0837392,47.2260747 34.2824707,47.1293945 C34.4812022,47.0327144 34.6217444,46.9575198 34.7041016,46.9038086 C35.0335303,46.6818023 35.2913402,46.3819192 35.4775391,46.0041504 C35.6637379,45.6263816 35.7568359,45.2889012 35.7568359,44.9916992 C35.7568359,44.7696929 35.7049159,44.5897631 35.6010742,44.4519043 C35.4972326,44.3140455 35.3665372,44.2451172 35.2089844,44.2451172 L35.1445312,44.2451172 C34.7649721,44.2809247 34.3388696,44.6318326 33.8662109,45.2978516 C33.7229811,45.5341809 33.5475271,45.6523438 33.3398437,45.6523438 C33.0856107,45.6523438 32.8582367,45.4321311 32.6577148,44.9916992 C32.6433919,44.9487303 32.5843104,44.8377288 32.4804687,44.6586914 C32.3766271,44.4796541 32.324707,44.3417974 32.324707,44.2451172 C32.324707,44.0768221 32.3981112,43.9300136 32.5449219,43.8046875 Z M45.8759766,46.6191406 C46.0227872,47.0130228 46.0961914,47.5125295 46.0961914,48.1176758 C46.0961914,48.8767942 45.9601251,49.6439577 45.6879883,50.4191895 C45.4158515,51.1944212 45.0201849,51.8326798 44.5009766,52.3339844 C43.9817682,52.835289 43.3766311,53.0859375 42.6855469,53.0859375 C42.4026679,53.0859375 42.0723489,52.9812022 41.6945801,52.7717285 C41.3168113,52.5622548 40.9506854,52.2784849 40.5961914,51.9204102 C40.3455391,51.6805001 40.0778823,51.3313825 39.7932129,50.8730469 C39.5085435,50.4147112 39.3071295,49.9868184 39.1889648,49.5893555 C38.9956045,49.0379204 38.8989258,48.4506867 38.8989258,47.8276367 C38.8989258,47.2833632 38.9705396,46.7373074 39.1137695,46.1894531 C39.2569994,45.6415988 39.4790024,45.1179224 39.7797852,44.6184082 C40.0805679,44.118894 40.4619118,43.6793639 40.9238281,43.2998047 C41.321291,42.9918604 41.6292307,42.8378906 41.8476562,42.8378906 C42.2200539,42.8378906 42.6389951,43.2031213 43.1044922,43.9335938 C43.3730482,44.2952492 43.5556636,44.5145667 43.6523437,44.5915527 C43.7490239,44.6685388 43.9029937,44.7070312 44.1142578,44.7070312 C44.8447302,44.7070312 45.4319639,45.3443947 45.8759766,46.6191406 Z M41.8476562,46.1357422 C41.48242,47.2099663 41.2998047,48.1642211 41.2998047,48.9985352 C41.2998047,49.5642932 41.3946931,50.0476868 41.5844727,50.4487305 C41.7599293,50.9321313 42.0016261,51.1738281 42.3095703,51.1738281 C42.4563809,51.1738281 42.6031894,51.1290695 42.75,51.0395508 C42.9899101,50.9106439 43.2226551,50.5507842 43.4482422,49.9599609 C43.6738293,49.3691377 43.7866211,48.7031287 43.7866211,47.9619141 C43.7866211,47.1956342 43.6756196,46.5063507 43.4536133,45.894043 C43.3963213,45.7185864 43.3050136,45.5467131 43.1796875,45.378418 C43.0543614,45.2101229 42.9111336,45.1259766 42.75,45.1259766 C42.467121,45.1259766 42.1663427,45.4625617 41.8476562,46.1357422 Z M49.5927734,48.0048828 C49.5319007,49.2832095 49.5014648,50.0978173 49.5014648,50.4487305 C49.5014648,50.7781592 49.5247394,51.2114231 49.5712891,51.7485352 C49.599935,52.0994484 49.6142578,52.3107093 49.6142578,52.3823242 C49.6142578,52.7941101 49.4817722,53 49.2167969,53 C49.0843092,53 48.7692082,52.8979502 48.2714844,52.6938477 C47.823891,52.4181301 47.5356452,52.2041837 47.4067383,52.052002 C47.2778314,51.8998202 47.2133789,51.66618 47.2133789,51.3510742 C47.2133789,51.311686 47.2169596,51.2508142 47.2241211,51.168457 C47.2312826,51.0860998 47.2348633,51.0216474 47.2348633,50.9750977 C47.2599285,50.6671534 47.2894692,50.205244 47.3234863,49.5893555 C47.3575034,48.973467 47.3870441,48.5043961 47.4121094,48.1821289 C46.9573545,47.8455387 46.7299805,47.573406 46.7299805,47.3657227 C46.7299805,47.1258126 46.9877904,46.9073903 47.503418,46.7104492 C47.517741,46.3702782 47.5249023,45.8260129 47.5249023,45.0776367 L47.5249023,43.5844727 C47.5249023,43.5701497 47.5132651,43.5244958 47.4899902,43.4475098 C47.4667154,43.3705237 47.4550781,43.305176 47.4550781,43.2514648 C47.4550781,42.9614243 47.5947252,42.8164062 47.8740234,42.8164062 C48.0566415,42.8164062 48.2482086,42.8522132 48.4487305,42.9238281 C48.8891624,43.1028655 49.1809889,43.245198 49.3242187,43.3508301 C49.4674486,43.4564621 49.5784501,43.6507147 49.6572266,43.9335938 C49.6572266,43.972982 49.6679686,44.1287421 49.6894531,44.4008789 C49.7109376,44.6730157 49.7216797,44.9290353 49.7216797,45.1689453 C49.7216797,45.6953151 49.7001955,46.1357404 49.6572266,46.4902344 C49.9580093,46.4436847 50.6616156,46.4060874 51.7680664,46.3774414 C51.7680664,46.3631184 51.7644857,46.345215 51.7573242,46.3237305 C51.7501627,46.302246 51.746582,46.2843425 51.746582,46.2700195 C51.746582,46.037271 51.7653807,45.6774113 51.8029785,45.1904297 C51.8405764,44.7034481 51.859375,44.3435884 51.859375,44.1108398 C51.859375,43.8458646 51.8522136,43.677572 51.8378906,43.605957 C51.8378906,43.5952148 51.8298341,43.5719403 51.8137207,43.5361328 C51.7976073,43.5003253 51.7895508,43.4716798 51.7895508,43.4501953 C51.7895508,43.1744778 51.9291978,43.0366211 52.2084961,43.0366211 C52.3839527,43.0366211 52.5379225,43.0652666 52.6704102,43.1225586 C53.5369509,43.4806333 53.9702148,43.8028957 53.9702148,44.0893555 L53.9702148,44.1323242 C53.9236651,44.4259455 53.8914389,44.7473127 53.8735352,45.0964355 C53.8556314,45.4455584 53.8350424,45.9728155 53.8117676,46.6782227 C53.7884927,47.3836298 53.7679037,47.8920883 53.75,48.2036133 C53.721354,48.7622098 53.7070312,49.1578764 53.7070312,49.390625 C53.7070312,50.2607465 53.7875969,51.2293241 53.9487305,52.2963867 C53.9773764,52.4002284 53.9916992,52.5470368 53.9916992,52.7368164 C53.9916992,53.1020526 53.8162452,53.284668 53.465332,53.284668 C53.2827139,53.284668 53.0392268,53.2255865 52.7348633,53.1074219 C52.2622047,52.9140615 51.9533699,52.7072765 51.8083496,52.4870605 C51.6633294,52.2668446 51.5908203,51.8291048 51.5908203,51.1738281 C51.5908203,51.0735672 51.6069334,50.7298206 51.6391602,50.1425781 C51.6534831,50.0100905 51.6606445,49.7451192 51.6606445,49.3476562 L51.6606445,47.784668 C51.5102532,47.798991 51.2963067,47.8133137 51.0187988,47.8276367 C50.7412909,47.8419597 50.4915376,47.8616535 50.2695312,47.8867188 C50.0475249,47.911784 49.8219412,47.9511716 49.5927734,48.0048828 Z M59.7548828,46.0014648 L59.7548828,45.894043 C59.7548828,45.7579746 59.7146,45.6398117 59.6340332,45.5395508 C59.5534664,45.4392899 59.4541022,45.3891602 59.3359375,45.3891602 C59.1819654,45.3891602 59.0494797,45.4249671 58.9384766,45.496582 C58.394203,45.8474952 57.9940605,46.3416309 57.7380371,46.9790039 C57.4820137,47.6163769 57.3540039,48.2805955 57.3540039,48.9716797 C57.3540039,49.490888 57.4202467,49.9689106 57.5527344,50.4057617 C57.6350916,50.6671563 57.8266587,50.7978516 58.1274414,50.7978516 C58.2169601,50.7978516 58.3924141,50.7620446 58.6538086,50.6904297 C59.1980821,50.3896469 59.5436191,49.9277375 59.6904297,49.3046875 C59.6904297,49.0898427 59.6823731,48.8186052 59.6662598,48.4909668 C59.6501464,48.1633284 59.6420898,47.9064137 59.6420898,47.7202148 C59.6420898,47.1437146 59.6796871,46.5708036 59.7548828,46.0014648 Z M59.7763672,52.2963867 C59.3359353,52.7797876 58.8149444,53.0214844 58.2133789,53.0214844 C57.6368786,53.0214844 57.0845567,52.8039573 56.5563965,52.3688965 C56.0282363,51.9338357 55.6424166,51.3600296 55.3989258,50.6474609 C55.0909815,49.7665972 54.9370117,48.9734736 54.9370117,48.2680664 C54.9370117,46.4275624 55.8089106,44.902187 57.5527344,43.6918945 C57.9860048,43.3696273 58.3315417,43.2084961 58.5893555,43.2084961 C58.6573897,43.2084961 58.7379553,43.2228189 58.8310547,43.2514648 C59.3574245,43.6489278 59.6796869,43.8476562 59.7978516,43.8476562 C59.9231777,43.8476562 60.0109047,43.686525 60.0610352,43.3642578 C60.0610352,43.3499348 60.0574545,43.3212893 60.050293,43.2783203 C60.0431315,43.2353513 60.0395508,43.2120768 60.0395508,43.2084961 C60.0395508,42.9005518 60.1791978,42.746582 60.4584961,42.746582 C60.7270521,42.746582 61.0421531,42.8862291 61.4038086,43.1655273 C61.7618833,43.3839529 62.0017898,43.5558262 62.1235352,43.6811523 C62.2452806,43.8064785 62.3061523,43.964029 62.3061523,44.1538086 C62.3061523,44.218262 62.2900392,44.3400056 62.2578125,44.519043 C62.2255858,44.6980803 62.2041016,44.8198239 62.1933594,44.8842773 C61.9892568,45.611169 61.887207,46.4383092 61.887207,47.3657227 C61.887207,49.1059657 62.1289038,50.6546156 62.6123047,52.0117188 C62.7734383,52.4485699 62.8540039,52.7636709 62.8540039,52.9570312 C62.8540039,53.2041028 62.7376314,53.3276367 62.5048828,53.3276367 C61.3160748,53.3276367 60.6339527,53.0931013 60.4584961,52.6240234 C60.3295892,52.2444642 60.2114263,52.0546875 60.1040039,52.0546875 C60.018066,52.0546875 59.9088548,52.1352531 59.7763672,52.2963867 Z" id="Начало-сезона" fill="#FFFFFF"></path>
        </g>
    </g>
</svg>