<?xml version="1.0" encoding="UTF-8"?>
<svg width="80px" height="80px" viewBox="0 0 80 80" version="1.1" xmlns="http://www.w3.org/2000/svg" xmlns:xlink="http://www.w3.org/1999/xlink">
    <!-- Generator: Sketch 42 (36781) - http://www.bohemiancoding.com/sketch -->
    <title>Sticker/Best Taste</title>
    <desc>Created with Sketch.</desc>
    <defs></defs>
    <g id="Page-1" stroke="none" stroke-width="1" fill="none" fill-rule="evenodd">
        <g id="Sticker/Best-Taste" transform="translate(40.000000, 40.000000) rotate(-30.000000) translate(-40.000000, -40.000000) ">
            <ellipse id="Oval-5" fill="#FF397D" cx="40" cy="40" rx="40" ry="40"></ellipse>
            <ellipse id="Oval-5" stroke="#FFFFFF" stroke-width="2" cx="40" cy="40" rx="35" ry="35"></ellipse>
            <path d="M18.112793,25.5561523 C18.324057,25.6958015 18.4923496,25.8372389 18.6176758,25.9804688 C18.7430019,26.1236986 18.8387855,26.2731926 18.9050293,26.4289551 C18.9712731,26.5847176 19.0303546,26.7897123 19.0822754,27.0439453 C19.1341962,27.2981784 19.1780597,27.5148103 19.2138672,27.6938477 C19.5182307,28.9864973 19.7849923,30.2307883 20.0141602,31.4267578 C20.243328,32.6227273 20.4313144,33.674556 20.578125,34.5822754 C20.7249356,35.4899948 20.907551,36.6760994 21.1259766,38.140625 C21.2011723,38.3769543 21.2387695,38.5900056 21.2387695,38.7797852 C21.2387695,39.0877294 21.0185569,39.2416992 20.578125,39.2416992 C20.1627583,39.2416992 19.7670917,39.1208508 19.3911133,38.8791504 C19.0151348,38.63745 18.685711,38.0690149 18.402832,37.1738281 C18.0841455,35.4013583 17.8478198,33.215345 17.6938477,30.6157227 C17.6723632,29.9711882 17.563152,29.6489258 17.3662109,29.6489258 C17.2874345,29.6489258 17.1997075,29.72233 17.1030273,29.8691406 C16.8846018,30.3238955 16.6285822,31.0328728 16.3349609,31.9960938 C16.0413397,32.9593147 15.7915863,33.9941351 15.5856934,35.1005859 C15.3798004,36.2070368 15.2768555,37.1988888 15.2768555,38.0761719 C15.2768555,38.1119793 15.2804362,38.1692704 15.2875977,38.2480469 C15.2947592,38.3268233 15.2983398,38.3787434 15.2983398,38.4038086 L15.2983398,38.715332 C15.2983398,39.0375993 15.2034515,39.1987305 15.0136719,39.1987305 C14.8740227,39.1987305 14.689617,39.1253263 14.4604492,38.9785156 C13.869626,38.5595682 13.4399427,38.1979182 13.1713867,37.8935547 C12.9028307,37.5891912 12.7685547,37.2311219 12.7685547,36.8193359 C12.7685547,36.8014322 12.7721354,36.7620446 12.7792969,36.7011719 C12.7864584,36.6402992 12.7900391,36.5919598 12.7900391,36.5561523 C13.4059276,32.2771596 14.6018791,28.6105296 16.3779297,25.5561523 C16.5748708,25.2052391 16.7574861,25.0297852 16.9257812,25.0297852 C17.1012379,25.0297852 17.4969045,25.2052391 18.112793,25.5561523 Z M25.793457,36.2714844 C26.0834975,35.5087852 26.3001295,34.7058148 26.4433594,33.8625488 C26.5865893,33.0192829 26.7727853,31.6290787 27.0019531,29.6918945 C27.0234376,29.5629876 27.082519,29.4501958 27.1791992,29.3535156 C27.2758794,29.2568355 27.3922519,29.2084961 27.5283203,29.2084961 C27.7431651,29.2084961 27.9347322,29.2747389 28.1030273,29.4072266 C28.3429374,29.5970062 28.5309238,29.8521306 28.6669922,30.1726074 C28.8030606,30.4930843 28.8710937,30.8037094 28.8710937,31.1044922 L28.8710937,31.1689453 C28.7887366,32.8339927 28.5345073,34.456942 28.1083984,36.0378418 C27.6822895,37.6187416 27.163089,39.0241638 26.5507812,40.2541504 C25.9384735,41.484137 25.3333363,42.4303352 24.7353516,43.0927734 C24.6028639,43.282553 24.3898127,43.3774414 24.0961914,43.3774414 C23.9350578,43.3774414 23.8115239,43.3559572 23.7255859,43.3129883 C23.1741509,42.9835596 22.7856457,42.4983756 22.5600586,41.8574219 C22.5135089,41.7464187 22.4902344,41.6819662 22.4902344,41.6640625 C22.4902344,41.5423171 22.6889629,41.3435886 23.0864258,41.0678711 C23.4409197,40.8172188 23.788247,40.4743674 24.128418,40.0393066 C24.4685889,39.6042459 24.7371409,39.0966826 24.934082,38.5166016 C24.9448243,38.4557289 24.9582519,38.3930667 24.9743652,38.3286133 C24.9904786,38.2641598 24.9985352,38.2247722 24.9985352,38.2104492 C24.9985352,38.0779616 24.8588881,37.9597987 24.5795898,37.855957 C24.110512,37.616047 23.7515475,37.3286963 23.5026855,36.9938965 C23.2538236,36.6590966 23.0345062,36.1694368 22.8447266,35.5249023 C22.4615866,34.2000259 22.1464856,32.6370533 21.8994141,30.8359375 C21.8528644,30.5817045 21.8295898,30.3776049 21.8295898,30.2236328 C21.8295898,29.9980457 21.8841954,29.8279628 21.9934082,29.7133789 C22.102621,29.598795 22.3058253,29.4680997 22.6030273,29.3212891 C23.0971704,29.0849598 23.3979487,28.9667969 23.5053711,28.9667969 C23.8025731,28.9667969 23.9708657,29.2747365 24.0102539,29.890625 C24.1713875,31.5234457 24.3638498,32.9485616 24.5876465,34.1660156 C24.8114432,35.3834696 25.0218089,36.05664 25.21875,36.1855469 C25.3512376,36.3610035 25.446126,36.4487305 25.503418,36.4487305 C25.5714522,36.4487305 25.6681309,36.389649 25.793457,36.2714844 Z M33.9736328,32.9038086 C34.1813161,30.8162331 34.2976887,29.6811533 34.3227539,29.4985352 C34.3513999,29.1153952 34.4409172,28.9238281 34.5913086,28.9238281 C34.7094732,28.9238281 34.9440087,29.0258779 35.2949219,29.2299805 C35.9681023,29.5594092 36.3046875,30.0302704 36.3046875,30.6425781 C36.3046875,30.7535813 36.2966309,30.8439938 36.2805176,30.9138184 C36.2644042,30.9836429 36.2509766,31.0310871 36.2402344,31.0561523 C36.0039051,32.8751719 35.8857422,34.5473557 35.8857422,36.0727539 C35.8857422,37.1147513 35.9376622,38.0904902 36.0415039,39 C36.0271809,39 36.0200195,39.0071614 36.0200195,39.0214844 C36.0200195,39.211264 35.9394539,39.3061523 35.7783203,39.3061523 C35.6028637,39.3061523 35.3540055,39.1826184 35.0317383,38.9355469 C34.8741854,38.7672518 34.557294,38.5900074 34.0810547,38.4038086 C33.7838527,38.2856439 33.6227215,38.0672216 33.5976562,37.7485352 C33.5976562,37.7055662 33.5940756,37.6303716 33.5869141,37.5229492 C33.5797526,37.4155268 33.5761719,37.3367516 33.5761719,37.2866211 C33.5761719,36.9392886 33.6280919,36.0727608 33.7319336,34.6870117 C33.7176106,34.6870117 33.7104492,34.6726889 33.7104492,34.644043 C33.7104492,34.572428 33.6871747,34.5366211 33.640625,34.5366211 C33.5761716,34.5366211 33.4034031,34.6261384 33.1223145,34.8051758 C32.8412258,34.9842131 32.5843111,35.1301264 32.3515625,35.2429199 C32.1188139,35.3557135 31.8824882,35.4121094 31.6425781,35.4121094 C31.6354166,35.4121094 31.6282552,35.4085287 31.6210937,35.4013672 C31.6139323,35.3942057 31.6067709,35.390625 31.5996094,35.390625 C30.9944631,35.3548175 30.5262875,35.2169608 30.1950684,34.9770508 C29.8638493,34.7371407 29.6337897,34.3038768 29.5048828,33.6772461 C29.4762368,33.4695628 29.4619141,33.2779957 29.4619141,33.1025391 C29.4619141,32.7838526 29.4950355,32.2565955 29.5612793,31.520752 C29.6275231,30.7849084 29.6606445,30.2791355 29.6606445,30.003418 C29.6606445,29.5343401 29.678548,29.2076018 29.7143555,29.0231934 C29.7501629,28.8387849 29.843261,28.746582 29.9936523,28.746582 C30.0939133,28.746582 30.2031244,28.7770179 30.3212891,28.8378906 C30.7438172,29.0205087 31.0759265,29.2174469 31.317627,29.4287109 C31.5593274,29.639975 31.6891275,29.8977849 31.7070312,30.2021484 L31.7070312,30.4223633 C31.7070312,30.6479503 31.6703291,31.0445121 31.5969238,31.6120605 C31.5235185,32.179609 31.4868164,32.5815418 31.4868164,32.8178711 C31.4868164,32.8715823 31.5083006,33.0112293 31.5512695,33.2368164 C31.615723,33.5161147 31.8001287,33.6557617 32.1044922,33.6557617 C32.2190761,33.6557617 32.3282872,33.6396486 32.4321289,33.6074219 C32.7042657,33.5250647 32.9584949,33.4239101 33.1948242,33.3039551 C33.4311535,33.1840001 33.6907538,33.0506192 33.9736328,32.9038086 Z M46.4882812,34.4238281 L46.4882812,33.9619141 C46.4882812,33.6253238 46.517822,32.9628956 46.5769043,31.9746094 C46.6359866,30.9863232 46.6655273,30.3722343 46.6655273,30.1323242 L46.6655273,29.9335938 C46.6655273,29.5826805 46.7890613,29.4072266 47.0361328,29.4072266 C47.1578782,29.4072266 47.3136384,29.4448238 47.503418,29.5200195 C47.7182628,29.6095382 47.9617499,29.7644032 48.2338867,29.9846191 C48.5060235,30.2048351 48.6420898,30.4080394 48.6420898,30.5942383 L48.6420898,30.6157227 C48.6277669,30.823406 48.6206055,31.2137016 48.6206055,31.7866211 L48.6206055,32.7104492 C48.6206055,33.4874713 48.6062827,34.0729147 48.5776367,34.4667969 C48.5489907,35.0826854 48.534668,35.5016265 48.534668,35.7236328 C48.534668,36.088869 48.5633135,36.5651012 48.6206055,37.1523438 C48.9285497,37.2597662 49.0825195,37.465656 49.0825195,37.7700195 C49.0825195,37.8094077 49.0681968,37.8899733 49.0395508,38.0117188 C48.9392899,38.333986 48.8542484,38.5550938 48.7844238,38.6750488 C48.7145993,38.7950039 48.6170254,38.8961584 48.4916992,38.9785156 C48.3592116,39.0644536 48.1980804,39.1074219 48.0083008,39.1074219 C47.8041982,39.1074219 47.4371771,39.0268563 46.9072266,38.8657227 C46.7281892,38.8370767 46.3253612,38.8227539 45.6987305,38.8227539 L44.8393555,38.8227539 C44.5922839,38.8227539 43.8886777,38.8684077 42.7285156,38.9597168 C41.5683536,39.0510258 40.9453129,39.1002604 40.859375,39.1074219 C40.4762351,39.1503908 40.062665,39.2211095 39.6186523,39.3195801 C39.1746397,39.4180506 38.8541677,39.4798176 38.6572266,39.5048828 L38.6357422,39.5048828 C38.3528632,39.5048828 38.0377622,39.1020548 37.6904297,38.2963867 C37.64388,38.1101879 37.6206055,38.0081381 37.6206055,37.9902344 C37.6206055,37.6715479 37.7674139,37.4208994 38.0610352,37.2382813 C38.0359699,36.7441382 38.0189616,36.1040892 38.0100098,35.3181152 C38.0010579,34.5321413 37.996582,34.1319988 37.996582,34.1176758 L37.996582,33.5644531 C37.996582,33.4462885 37.9930013,33.2081724 37.9858398,32.8500977 C37.9786783,32.4920229 37.9750977,32.187664 37.9750977,31.9370117 C37.9750977,31.3712537 37.9965818,30.6157274 38.0395508,29.6704102 C38.0395508,29.0831676 38.2078434,28.7895508 38.5444336,28.7895508 C38.637533,28.7895508 38.7628573,28.8271481 38.9204102,28.9023438 C39.2498389,29.0992848 39.5148102,29.2792147 39.715332,29.4421387 C39.9158539,29.6050627 40.0537106,29.8207994 40.1289062,30.0893555 L40.1289062,30.4438477 C40.1289062,30.5870775 40.1217449,30.9702117 40.1074219,31.5932617 C40.0930989,32.2163117 40.0859375,32.7193991 40.0859375,33.1025391 C40.0859375,33.2028 40.0895182,33.3496084 40.0966797,33.5429688 C40.1038412,33.7363291 40.1074219,33.8759761 40.1074219,33.9619141 L40.1074219,36.2714844 C40.1074219,36.3502608 40.1110026,36.4737947 40.1181641,36.6420898 C40.1253256,36.810385 40.1289062,36.9428706 40.1289062,37.0395508 C40.3652356,37.0323893 40.7000304,36.9938968 41.1333008,36.9240723 C41.5665712,36.8542477 41.906737,36.8193359 42.1538086,36.8193359 L42.2666016,36.8193359 C42.2666016,36.690429 42.2630209,36.5185558 42.2558594,36.3037109 C42.2486979,36.0888661 42.2451172,35.9313156 42.2451172,35.8310547 C42.2451172,35.6305329 42.2486979,35.342287 42.2558594,34.9663086 C42.2630209,34.5903302 42.2666016,34.3146168 42.2666016,34.1391602 C42.2666016,34.0353185 42.2630209,33.8580742 42.2558594,33.6074219 C42.2486979,33.3567696 42.2451172,33.1526701 42.2451172,32.9951172 C42.2451172,32.3756479 42.2809241,31.3712635 42.3525391,29.9819336 C42.3525391,29.2765264 42.5136703,28.9238281 42.8359375,28.9238281 C42.9755866,28.9238281 43.1367178,28.9757482 43.3193359,29.0795898 C44.0211624,29.3767919 44.4096676,29.7867812 44.4848633,30.3095703 L44.4848633,30.7070313 C44.4848633,30.9182953 44.4741212,31.4553993 44.4526367,32.3183594 C44.4311522,33.1813194 44.4204102,33.8312153 44.4204102,34.2680664 C44.3487952,35.4676167 44.3129883,36.1569001 44.3129883,36.3359375 C44.3129883,36.4147139 44.3201497,36.5203444 44.3344727,36.652832 C44.3487956,36.7853197 44.355957,36.8784177 44.355957,36.9321289 C44.4168297,36.9321289 44.6370424,36.9285482 45.0166016,36.9213867 C45.3961608,36.9142252 45.7041004,36.9106445 45.9404297,36.9106445 L46.53125,36.9106445 L46.53125,36.5561523 C46.53125,36.3663727 46.5240886,36.0154648 46.5097656,35.503418 C46.4954426,34.9913711 46.4882812,34.6315115 46.4882812,34.4238281 Z M52.4501953,34.6870117 C52.7366551,34.2215146 53.1135231,33.6548699 53.5808105,32.9870605 C54.048098,32.3192512 54.5046364,31.6693554 54.9504395,31.0373535 C55.3962425,30.4053517 55.714029,29.9353857 55.9038086,29.6274414 C56.039877,29.2156555 56.2224923,29.0097656 56.4516602,29.0097656 C56.5196944,29.0097656 56.5859372,29.0258787 56.6503906,29.0581055 C57.2806021,29.3982764 57.6333004,29.8673473 57.7084961,30.465332 C57.6619464,31.1420932 57.6386719,31.9781851 57.6386719,32.9736328 L57.6386719,34.1606445 C57.6386719,34.2680669 57.6315105,34.4363595 57.6171875,34.6655273 C57.6028645,34.8946952 57.5957031,35.0629877 57.5957031,35.1704102 C57.5957031,35.6215843 57.6162921,36.0450013 57.6574707,36.4406738 C57.6986493,36.8363464 57.7451983,37.190835 57.7971191,37.5041504 C57.84904,37.8174658 57.8929035,38.0815419 57.9287109,38.2963867 C57.9287109,38.3536787 57.9322916,38.4324539 57.9394531,38.5327148 C57.9466146,38.6329758 57.9501953,38.7010089 57.9501953,38.7368164 C57.9501953,39.1020526 57.7801124,39.284668 57.4399414,39.284668 C57.2179351,39.284668 56.9690769,39.2255865 56.6933594,39.1074219 C56.3675114,38.9713535 56.1320808,38.8460292 55.9870605,38.7314453 C55.8420403,38.6168614 55.7364098,38.444093 55.670166,38.2131348 C55.6039222,37.9821766 55.5708008,37.6357445 55.5708008,37.1738281 C55.5708008,36.7477192 55.5779622,36.4039727 55.5922852,36.1425781 C55.7713225,34.0836486 55.8751626,32.7856472 55.9038086,32.2485352 C55.2198859,33.2010139 54.1116613,35.0110544 52.5791016,37.6787109 L52.5791016,38.0117188 C52.5791016,38.5989613 52.4322931,38.8925781 52.1386719,38.8925781 C51.9846998,38.8925781 51.707196,38.8030608 51.3061523,38.6240234 C50.8621397,38.3554674 50.5712084,38.1442065 50.4333496,37.9902344 C50.2954908,37.8362623 50.2265625,37.6017268 50.2265625,37.2866211 C50.2265625,37.2508136 50.2301432,37.1899418 50.2373047,37.1040039 C50.2444662,37.018066 50.2480469,36.9536135 50.2480469,36.9106445 C50.2659506,36.634927 50.2910155,36.226728 50.3232422,35.6860352 C50.3554689,35.1453423 50.3894855,34.6225611 50.425293,34.1176758 C50.4969079,32.7569919 50.5327148,31.4446678 50.5327148,30.1806641 L50.5327148,29.5200195 C50.5327148,29.5092773 50.5219728,29.4645186 50.5004883,29.3857422 C50.4790038,29.3069658 50.4682617,29.2407229 50.4682617,29.1870117 C50.4682617,28.8790675 50.6079088,28.7250977 50.887207,28.7250977 C51.0519214,28.7250977 51.2416981,28.7698563 51.456543,28.859375 C51.9112978,29.0419931 52.2084954,29.1843257 52.3481445,29.286377 C52.4877937,29.3884282 52.5952145,29.5826809 52.6704102,29.8691406 L52.6704102,30.003418 C52.6704102,30.0499677 52.6480308,30.314939 52.6032715,30.7983398 C52.5585121,31.2817407 52.5361328,31.7937798 52.5361328,32.3344727 C52.5325521,32.4204106 52.5182293,32.6835915 52.4931641,33.1240234 C52.4680988,33.5644553 52.4510905,33.8920888 52.4421387,34.1069336 C52.4331868,34.3217784 52.4287109,34.4721675 52.4287109,34.5581055 C52.4287109,34.5831707 52.4322916,34.6100259 52.4394531,34.6386719 C52.4466146,34.6673179 52.4501953,34.683431 52.4501953,34.6870117 Z M61.4897461,32.3344727 C61.4861653,32.4204106 61.4718426,32.6835915 61.4467773,33.1240234 C61.4217121,33.5644553 61.4047038,33.8920888 61.395752,34.1069336 C61.3868001,34.3217784 61.3823242,34.4721675 61.3823242,34.5581055 C61.3823242,34.5831707 61.3859049,34.6100259 61.3930664,34.6386719 C61.4002279,34.6673179 61.4038086,34.683431 61.4038086,34.6870117 C61.6902684,34.2215146 62.0671363,33.6548699 62.5344238,32.9870605 C63.0017113,32.3192512 63.4582497,31.6693554 63.9040527,31.0373535 C64.3498557,30.4053517 64.6676423,29.9353857 64.8574219,29.6274414 C64.9934903,29.2156555 65.1761056,29.0097656 65.4052734,29.0097656 C65.4733076,29.0097656 65.5395505,29.0258787 65.6040039,29.0581055 C66.2342154,29.3982764 66.5869137,29.8673473 66.6621094,30.465332 C66.6155597,31.1420932 66.5922852,31.9781851 66.5922852,32.9736328 L66.5922852,34.1606445 C66.5922852,34.2680669 66.5851238,34.4363595 66.5708008,34.6655273 C66.5564778,34.8946952 66.5493164,35.0629877 66.5493164,35.1704102 C66.5493164,35.6215843 66.5699054,36.0450013 66.611084,36.4406738 C66.6522626,36.8363464 66.6988116,37.190835 66.7507324,37.5041504 C66.8026533,37.8174658 66.8465167,38.0815419 66.8823242,38.2963867 C66.9109702,38.50407 66.925293,38.6508785 66.925293,38.7368164 C66.925293,39.1020526 66.7480486,39.284668 66.3935547,39.284668 C66.2216788,39.284668 65.9728206,39.2255865 65.6469727,39.1074219 C65.3211247,38.9713535 65.0856941,38.8460292 64.9406738,38.7314453 C64.7956536,38.6168614 64.6900231,38.444093 64.6237793,38.2131348 C64.5575355,37.9821766 64.5244141,37.6357445 64.5244141,37.1738281 C64.5244141,36.7477192 64.5315754,36.4039727 64.5458984,36.1425781 C64.7249358,34.0836486 64.8287759,32.7856472 64.8574219,32.2485352 C64.1734992,33.2010139 63.0652746,35.0110544 61.5327148,37.6787109 L61.5327148,38.0117188 C61.5327148,38.5989613 61.3859064,38.8925781 61.0922852,38.8925781 C60.938313,38.8925781 60.6608093,38.8030608 60.2597656,38.6240234 C59.815753,38.3554674 59.5248217,38.1442065 59.3869629,37.9902344 C59.2491041,37.8362623 59.1801758,37.6017268 59.1801758,37.2866211 C59.1801758,37.2508136 59.1837565,37.1899418 59.190918,37.1040039 C59.1980795,37.018066 59.2016602,36.9536135 59.2016602,36.9106445 C59.2195639,36.634927 59.2446287,36.226728 59.2768555,35.6860352 C59.3090822,35.1453423 59.3430988,34.6225611 59.3789062,34.1176758 C59.4505212,32.7569919 59.4863281,31.4446678 59.4863281,30.1806641 L59.4863281,29.5200195 C59.4863281,29.5092773 59.475586,29.4645186 59.4541016,29.3857422 C59.4326171,29.3069658 59.421875,29.2407229 59.421875,29.1870117 C59.421875,28.8933905 59.561522,28.746582 59.8408203,28.746582 C60.0377614,28.746582 60.2275381,28.7841793 60.4101562,28.859375 C60.8649111,29.0419931 61.1621087,29.1843257 61.3017578,29.286377 C61.4414069,29.3884282 61.5488277,29.5826809 61.6240234,29.8691406 L61.6240234,30.003418 C61.6240234,30.0499677 61.6016441,30.314939 61.5568848,30.7983398 C61.5121254,31.2817407 61.4897461,31.7937798 61.4897461,32.3344727 Z M63.8208008,26.8344727 C63.9210617,26.716308 64.0750315,26.6572266 64.2827148,26.6572266 C64.4724944,26.6572266 64.6595857,26.7055659 64.8439941,26.8022461 C65.0284026,26.8989263 65.1635738,27.0188795 65.2495117,27.1621094 C65.2960614,27.2516281 65.3193359,27.3321937 65.3193359,27.4038086 C65.3193359,27.5935882 64.8932334,27.9319637 64.0410156,28.4189453 C63.5862607,28.6660169 63.2192397,28.7895508 62.9399414,28.7895508 C62.8253575,28.7895508 62.6642263,28.7465825 62.456543,28.6606445 C62.1521795,28.5209954 61.8925792,28.31242 61.6777344,28.0349121 C61.4628896,27.7574042 61.3554687,27.4664729 61.3554687,27.1621094 C61.3554687,27.1477864 61.3599446,27.1236167 61.3688965,27.0895996 C61.3778484,27.0555825 61.3823242,27.0296225 61.3823242,27.0117188 C61.4360354,26.8649081 61.531819,26.7512211 61.6696777,26.6706543 C61.8075365,26.5900875 61.9534498,26.5498047 62.1074219,26.5498047 C62.29004,26.5498047 62.4207353,26.5999344 62.4995117,26.7001953 C62.6713876,27.0081396 62.8916002,27.1621094 63.1601562,27.1621094 C63.3570973,27.1621094 63.57731,27.0528982 63.8208008,26.8344727 Z M28.0358887,52.6455078 C27.9535315,52.5882159 27.8872887,52.5595703 27.8371582,52.5595703 C27.7762855,52.5595703 27.7458496,52.5882159 27.7458496,52.6455078 L27.5739746,53.1074219 L27.2624512,53.1074219 C26.7074354,53.0035802 26.2526873,52.7779965 25.8981934,52.4306641 C25.8337399,52.3948566 25.7522791,52.3304041 25.6538086,52.2373047 C25.555338,52.1442053 25.5061035,52.0314134 25.5061035,51.8989258 C25.5061035,51.8917643 25.5096842,51.8810222 25.5168457,51.8666992 C25.5240072,51.8523762 25.5275879,51.8416342 25.5275879,51.8344727 C25.5812991,51.3295873 25.6314288,50.6886432 25.6779785,49.9116211 C25.7245282,49.134599 25.7621255,48.3253623 25.7907715,47.4838867 C25.8194175,46.6424112 25.8337402,45.8994173 25.8337402,45.2548828 L25.8337402,45.2333984 C25.8337402,45.1940102 25.8104657,45.1510419 25.763916,45.1044922 C25.7173663,45.0579425 25.6529138,45.034668 25.5705566,45.034668 C25.2196434,45.020345 24.985108,44.844891 24.8669434,44.5083008 C24.7774247,44.3364249 24.732666,44.1681323 24.732666,44.003418 C24.732666,43.8279614 24.7774247,43.6883143 24.8669434,43.5844727 C25.1354994,43.3409819 25.39689,43.1529955 25.651123,43.0205078 C25.9053561,42.8880202 26.2294088,42.7967125 26.623291,42.746582 C27.0386577,42.7179361 27.355549,42.7036133 27.5739746,42.7036133 C28.304447,42.7036133 28.934649,42.8146148 29.4645996,43.0366211 C30.1198763,43.2980156 30.6498189,43.6775691 31.0544434,44.175293 C31.4590678,44.6730168 31.661377,45.1940077 31.661377,45.7382813 C31.661377,46.4902381 31.3247918,47.1508761 30.6516113,47.7202148 C30.6444498,47.7237956 30.6301271,47.7336425 30.6086426,47.7497559 C30.5871581,47.7658692 30.5728353,47.7775065 30.5656738,47.784668 C30.5656738,47.7739257 30.6229649,47.8258458 30.7375488,47.9404297 C31.1278503,48.2018242 31.4196768,48.5321432 31.6130371,48.9313965 C31.8063975,49.3306498 31.9030762,49.7558571 31.9030762,50.2070313 C31.9030762,50.9482459 31.654218,51.5784479 31.1564941,52.0976563 C30.3902143,52.7565137 29.7528508,53.0859375 29.2443848,53.0859375 C28.8863101,53.0859375 28.4834821,52.9391291 28.0358887,52.6455078 Z M27.9660645,46.6621094 L27.9660645,46.7104492 C27.9660645,46.8859058 28.0394687,46.9736328 28.1862793,46.9736328 C28.290121,46.9736328 28.3867997,46.9503583 28.4763184,46.9038086 C28.8522968,46.7068675 29.1584461,46.4436865 29.3947754,46.1142578 C29.6311047,45.7848291 29.7492676,45.4912122 29.7492676,45.2333984 C29.7492676,45.1009108 29.7421062,45.0131838 29.7277832,44.9702148 C29.5881341,44.5584289 29.2515489,44.3525391 28.7180176,44.3525391 C28.4745268,44.3525391 28.1665871,44.4187819 27.7941895,44.5512695 C27.8013509,44.630046 27.8317868,44.924558 27.885498,45.4348145 C27.9392093,45.9450709 27.9660645,46.3541651 27.9660645,46.6621094 Z M28.1862793,48.5366211 C28.0394687,48.5545248 27.9660645,48.6261387 27.9660645,48.7514648 L27.7941895,50.9106445 C27.8801274,51.2329118 28.0555814,51.394043 28.3205566,51.394043 C28.6356624,51.394043 28.9632958,51.1935241 29.3034668,50.7924805 C29.6436378,50.3914368 29.8137207,49.968915 29.8137207,49.5249023 C29.8137207,49.3780917 29.8065593,49.2742516 29.7922363,49.2133789 C29.6060375,48.744301 29.1888867,48.5097656 28.5407715,48.5097656 C28.4942218,48.5097656 28.4360355,48.5142415 28.3662109,48.5231934 C28.2963864,48.5321452 28.2364098,48.5366211 28.1862793,48.5366211 Z M35.3996582,44.1323242 C35.3996582,44.2504889 35.3960775,44.4313139 35.388916,44.6748047 C35.3817545,44.9182955 35.3781738,45.1044915 35.3781738,45.2333984 C35.3781738,45.437501 35.3924966,45.8045221 35.4211426,46.3344727 C35.4211426,46.5528982 35.4659012,46.6621094 35.5554199,46.6621094 C35.5590007,46.6621094 35.6324049,46.6263024 35.7756348,46.5546875 C36.8283744,45.7203734 37.7002732,44.5835033 38.3913574,43.144043 C38.4522301,43.0115553 38.5560702,42.9453125 38.7028809,42.9453125 C38.7100424,42.9453125 38.7279458,42.9488932 38.7565918,42.9560547 C38.7852378,42.9632162 38.8031412,42.9667969 38.8103027,42.9667969 C39.3975453,43.4788437 39.6911621,43.9640277 39.6911621,44.4223633 C39.6911621,44.5691739 39.6840007,44.6783851 39.6696777,44.75 C39.5300286,45.5019569 39.0394736,46.271806 38.197998,47.0595703 C37.8614078,47.3961605 37.5301937,47.630696 37.2043457,47.7631836 C38.2893121,49.456877 39.3832139,50.8658798 40.486084,51.9902344 C40.8369972,52.3196631 41.0124512,52.5541985 41.0124512,52.6938477 C41.0124512,52.7905278 40.9014497,52.8925776 40.6794434,53 C40.1924618,53.2291678 39.7466654,53.3759762 39.342041,53.4404297 L39.2507324,53.4404297 C39.0108224,53.4404297 38.7834483,53.3222668 38.5686035,53.0859375 C38.1031064,52.5774714 37.6080755,51.9222045 37.0834961,51.1201172 C36.5589166,50.3180298 36.1014831,49.528487 35.7111816,48.7514648 C35.550048,48.4148746 35.4175624,48.246582 35.3137207,48.246582 C35.238525,48.246582 35.2009277,48.3719063 35.2009277,48.6225586 C35.2009277,48.6476238 35.2045084,48.6762694 35.2116699,48.7084961 C35.2188314,48.7407228 35.2242025,48.7639973 35.2277832,48.7783203 C35.1382645,50.4362062 35.0935059,51.6608033 35.0935059,52.4521484 C35.0541176,52.8173846 34.9073092,53 34.6530762,53 C34.4740388,53 34.1875833,52.8907889 33.7937012,52.6723633 C33.4499495,52.4467762 33.2082527,52.2247732 33.0686035,52.0063477 C32.9289544,51.7879221 32.8483888,51.6285812 32.8269043,51.5283203 C32.830485,51.0126927 32.8519692,50.5239281 32.8913574,50.0620117 C32.9307456,49.6000953 32.9772947,49.1167017 33.0310059,48.6118164 C33.0847171,48.1069311 33.1187337,47.7434907 33.1330566,47.5214844 C33.1760256,46.7945927 33.235107,46.0256388 33.3103027,45.2145996 C33.3854984,44.4035604 33.4230957,43.7348659 33.4230957,43.2084961 C33.4230957,43.0330395 33.553791,42.9453125 33.8151855,42.9453125 C34.0013844,42.9453125 34.1857901,42.9972326 34.3684082,43.1010742 C35.0559116,43.4985371 35.3996582,43.792154 35.3996582,43.9819336 L35.3996582,44.1323242 Z M44.9279785,50.2714844 C45.218019,49.5087852 45.434651,48.7058148 45.5778809,47.8625488 C45.7211107,47.0192829 45.9073068,45.6290787 46.1364746,43.6918945 C46.1579591,43.5629876 46.2170405,43.4501958 46.3137207,43.3535156 C46.4104009,43.2568355 46.5267734,43.2084961 46.6628418,43.2084961 C46.8776866,43.2084961 47.0692537,43.2747389 47.2375488,43.4072266 C47.4774589,43.5970062 47.6654453,43.8521306 47.8015137,44.1726074 C47.9375821,44.4930843 48.0056152,44.8037094 48.0056152,45.1044922 L48.0056152,45.1689453 C47.9232581,46.8339927 47.6690288,48.456942 47.2429199,50.0378418 C46.816811,51.6187416 46.2976105,53.0241638 45.6853027,54.2541504 C45.072995,55.484137 44.4678578,56.4303352 43.869873,57.0927734 C43.7373854,57.282553 43.5243342,57.3774414 43.2307129,57.3774414 C43.0695793,57.3774414 42.9460454,57.3559572 42.8601074,57.3129883 C42.3086724,56.9835596 41.9201671,56.4983756 41.6945801,55.8574219 C41.6480304,55.7464187 41.6247559,55.6819662 41.6247559,55.6640625 C41.6247559,55.5423171 41.8234843,55.3435886 42.2209473,55.0678711 C42.5754412,54.8172188 42.9227685,54.4743674 43.2629395,54.0393066 C43.6031104,53.6042459 43.8716624,53.0966826 44.0686035,52.5166016 C44.0793458,52.4557289 44.0927734,52.3930667 44.1088867,52.3286133 C44.1250001,52.2641598 44.1330566,52.2247722 44.1330566,52.2104492 C44.1330566,52.0779616 43.9934096,51.9597987 43.7141113,51.855957 C43.2450335,51.616047 42.886069,51.3286963 42.637207,50.9938965 C42.3883451,50.6590966 42.1690276,50.1694368 41.979248,49.5249023 C41.5961081,48.2000259 41.2810071,46.6370533 41.0339355,44.8359375 C40.9873858,44.5817045 40.9641113,44.3776049 40.9641113,44.2236328 C40.9641113,43.9980457 41.0187169,43.8279628 41.1279297,43.7133789 C41.2371425,43.598795 41.4403468,43.4680997 41.7375488,43.3212891 C42.2316919,43.0849598 42.5324702,42.9667969 42.6398926,42.9667969 C42.9370946,42.9667969 43.1053872,43.2747365 43.1447754,43.890625 C43.305909,45.5234457 43.4983713,46.9485616 43.722168,48.1660156 C43.9459647,49.3834696 44.1563304,50.05664 44.3532715,50.1855469 C44.4857591,50.3610035 44.5806475,50.4487305 44.6379395,50.4487305 C44.7059736,50.4487305 44.8026524,50.389649 44.9279785,50.2714844 Z M52.6462402,45.6953125 C52.5030104,45.3443993 52.3562019,45.1689453 52.2058105,45.1689453 C52.0983881,45.1689453 52.0034998,45.2423495 51.9211426,45.3891602 C51.5988753,45.7973653 51.3347992,46.3362597 51.1289062,47.0058594 C50.9230133,47.6754591 50.8200684,48.3164032 50.8200684,48.9287109 C50.8200684,49.5410187 50.9283843,50.0351544 51.1450195,50.4111328 C51.3616547,50.7871113 51.693764,50.9750977 52.1413574,50.9750977 C52.5925316,50.9750977 53.0974093,50.7996437 53.6560059,50.4487305 C53.767009,50.3162428 53.9066561,50.25 54.0749512,50.25 C54.2146003,50.25 54.3533522,50.296549 54.4912109,50.3896484 C54.6290697,50.4827479 54.7176919,50.6044914 54.7570801,50.7548828 C54.8752447,51.0950538 54.9343262,51.343912 54.9343262,51.5014648 C54.9343262,51.8344743 54.7141135,52.1209298 54.2736816,52.3608398 C53.7365696,52.8299177 53.0472861,53.0644531 52.2058105,53.0644531 C51.7617979,53.0644531 51.323163,52.975831 50.8898926,52.798584 C50.4566222,52.621337 50.0645363,52.3429381 49.713623,51.9633789 C49.3627098,51.5838197 49.0852061,51.1075875 48.8811035,50.534668 C48.605386,49.7075154 48.4675293,48.9233435 48.4675293,48.1821289 C48.4675293,47.2941036 48.625975,46.4642779 48.9428711,45.692627 C49.2597672,44.920976 49.6742325,44.306887 50.1862793,43.8503418 C50.6983261,43.3937965 51.2318494,43.1655273 51.7868652,43.1655273 C52.2416201,43.1655273 52.6909971,43.2863757 53.1350098,43.5280762 C53.5790224,43.7697766 53.9388821,44.0786114 54.2145996,44.4545898 C54.4903171,44.8305683 54.6281738,45.2083314 54.6281738,45.5878906 C54.6281738,45.8242199 54.5690924,46.051594 54.4509277,46.2700195 C54.3291823,46.4454761 54.2083339,46.5663245 54.0883789,46.6325684 C53.9684239,46.6988122 53.8028168,46.7319336 53.5915527,46.7319336 C53.305093,46.7319336 53.1027838,46.6630052 52.9846191,46.5251465 C52.8664545,46.3872877 52.7536626,46.1106792 52.6462402,45.6953125 Z" id="Лучший-вкус" fill="#FFFFFF"></path>
        </g>
    </g>
</svg>