<svg xmlns="http://www.w3.org/2000/svg" width="76" height="66" viewBox="0 0 76 66">
  <metadata><?xpacket begin="﻿" id="W5M0MpCehiHzreSzNTczkc9d"?>
<x:xmpmeta xmlns:x="adobe:ns:meta/" x:xmptk="Adobe XMP Core 5.6-c138 79.159824, 2016/09/14-01:09:01        ">
   <rdf:RDF xmlns:rdf="http://www.w3.org/1999/02/22-rdf-syntax-ns#">
      <rdf:Description rdf:about=""/>
   </rdf:RDF>
</x:xmpmeta>
                                                                                                    
                                                                                                    
                                                                                                    
                                                                                                    
                                                                                                    
                                                                                                    
                                                                                                    
                                                                                                    
                                                                                                    
                                                                                                    
                                                                                                    
                                                                                                    
                                                                                                    
                                                                                                    
                                                                                                    
                                                                                                    
                                                                                                    
                                                                                                    
                                                                                                    
                                                                                                    
                           
<?xpacket end="w"?></metadata>
<defs>
    <style>
      .cls-1 {
        fill: #e33e42;
        fill-rule: evenodd;
      }
    </style>
  </defs>
  <path id="cart" class="cls-1" d="M541.98,885.2L482.2,875.861l-2.015-5.032a1.227,1.227,0,0,0-.8-0.725l-10.8-3.058a1.228,1.228,0,0,0-.667,2.363l10.224,2.894,2.033,5.079c0,0.013.006,0.028,0.011,0.041l12.319,30.735c-2.779,2.406-4.094,4.9-3.876,7.441,0.365,4.251,4.915,6.767,5.108,6.873a1.237,1.237,0,0,0,.584.147h43.452a1.228,1.228,0,0,0,0-2.455H494.647c-0.818-.515-3.382-2.313-3.588-4.785-0.15-1.8.993-3.7,3.373-5.656l44.548-2.283a1.224,1.224,0,0,0,1.149-1.049L543,886.582A1.227,1.227,0,0,0,541.98,885.2Zm-3.788,17.481-3.529-8.8h4.8Zm-10.163,2.869-4.678-11.672h8.671l4.5,11.237Zm-11.086.567-4.906-12.239h8.672l4.732,11.8Zm-11.086.568-5.135-12.807H509.4l4.959,12.372Zm-11.087.568-5.361-13.376h8.672l5.187,12.94Zm9.8-25.41,3.839,9.58h-8.672l-4.419-11.024Zm12.069,1.885,3.085,7.694h-8.672l-3.664-9.139Zm12.069,1.884,2.329,5.81h-8.671l-2.908-7.255Zm11.116,5.81H533.68l-2.153-5.371,8.877,1.386ZM492.5,879.953l4.594,11.464h-8.671l-5.174-12.908Zm37.9,42.923a5.07,5.07,0,1,0,5.062,5.07A5.072,5.072,0,0,0,530.4,922.876Zm0,7.684a2.615,2.615,0,1,1,2.612-2.614A2.616,2.616,0,0,1,530.4,930.56Zm-37.135-7.684a5.07,5.07,0,1,0,5.061,5.07A5.072,5.072,0,0,0,493.266,922.876Zm0,7.684a2.615,2.615,0,1,1,2.611-2.614A2.616,2.616,0,0,1,493.266,930.56Z" transform="translate(-467 -867)"/>
</svg>
