<svg xmlns="http://www.w3.org/2000/svg" width="70" height="68" viewBox="0 0 70 68">
  <metadata><?xpacket begin="﻿" id="W5M0MpCehiHzreSzNTczkc9d"?>
<x:xmpmeta xmlns:x="adobe:ns:meta/" x:xmptk="Adobe XMP Core 5.6-c138 79.159824, 2016/09/14-01:09:01        ">
   <rdf:RDF xmlns:rdf="http://www.w3.org/1999/02/22-rdf-syntax-ns#">
      <rdf:Description rdf:about=""/>
   </rdf:RDF>
</x:xmpmeta>
                                                                                                    
                                                                                                    
                                                                                                    
                                                                                                    
                                                                                                    
                                                                                                    
                                                                                                    
                                                                                                    
                                                                                                    
                                                                                                    
                                                                                                    
                                                                                                    
                                                                                                    
                                                                                                    
                                                                                                    
                                                                                                    
                                                                                                    
                                                                                                    
                                                                                                    
                                                                                                    
                           
<?xpacket end="w"?></metadata>
<defs>
    <style>
      .cls-1 {
        fill: #fff;
        fill-rule: evenodd;
      }
    </style>
  </defs>
  <path id="cashback" class="cls-1" d="M1446.48,3643.63v10.07c0,3.65,4.21,6.3,10.01,6.3s10-2.65,10-6.3v-1.46a15.348,15.348,0,0,0,2.5.2c5.8,0,10.01-2.64,10.01-6.29v-30.22c0-3.65-4.21-6.3-10.01-6.3s-10,2.65-10,6.3v21.6a16.765,16.765,0,0,0-2.5-.2C1450.69,3637.33,1446.48,3639.98,1446.48,3643.63Zm30.02-27.7c0,2.08-3.36,3.77-7.51,3.77s-7.5-1.69-7.5-3.77,3.36-3.78,7.5-3.78S1476.5,3613.84,1476.5,3615.93Zm0,5.03c0,2.09-3.36,3.78-7.51,3.78s-7.5-1.69-7.5-3.78a2.076,2.076,0,0,1,.16-0.64,15.128,15.128,0,0,0,14.68,0A1.844,1.844,0,0,1,1476.5,3620.96Zm0,5.04c0,2.09-3.36,3.78-7.51,3.78s-7.5-1.69-7.5-3.78a2.209,2.209,0,0,1,.16-0.65,15.059,15.059,0,0,0,14.68,0A1.958,1.958,0,0,1,1476.5,3626Zm0,5.04c0,2.08-3.36,3.77-7.51,3.77s-7.5-1.69-7.5-3.77a2.067,2.067,0,0,1,.16-0.65,15.059,15.059,0,0,0,14.68,0A1.84,1.84,0,0,1,1476.5,3631.04Zm0,5.03c0,2.09-3.36,3.78-7.51,3.78s-7.5-1.69-7.5-3.78a2.076,2.076,0,0,1,.16-0.64,15.128,15.128,0,0,0,14.68,0A1.844,1.844,0,0,1,1476.5,3636.07Zm0,5.04c0,2.09-3.36,3.78-7.51,3.78a14.159,14.159,0,0,1-2.5-.23v-1.03a4.493,4.493,0,0,0-.28-1.51,16.421,16.421,0,0,0,2.78.25,13.407,13.407,0,0,0,7.34-1.9A1.844,1.844,0,0,1,1476.5,3641.11Zm-10.01,8.59v-2.5a15.323,15.323,0,0,0,2.5.21,13.321,13.321,0,0,0,7.34-1.91,1.84,1.84,0,0,1,.17.65c0,2.08-3.36,3.78-7.51,3.78A14.159,14.159,0,0,1,1466.49,3649.7Zm-17.51,4a1.844,1.844,0,0,1,.17-0.64,15.108,15.108,0,0,0,14.67,0,1.844,1.844,0,0,1,.17.64c0,2.09-3.36,3.78-7.5,3.78S1448.98,3655.79,1448.98,3653.7Zm0-5.03a1.84,1.84,0,0,1,.17-0.65,15.039,15.039,0,0,0,14.67,0,1.84,1.84,0,0,1,.17.65c0,2.08-3.36,3.77-7.5,3.77S1448.98,3650.75,1448.98,3648.67Zm0-5.04c0-2.09,3.36-3.78,7.51-3.78s7.5,1.69,7.5,3.78-3.36,3.78-7.5,3.78S1448.98,3645.72,1448.98,3643.63Zm17.51-51.63h-40.02a2.52,2.52,0,0,0-2.51,2.52v50.37h-12.45a2.524,2.524,0,0,0-1.85.82,2.455,2.455,0,0,0-.65,1.86c0.48,5.93,3.97,9.91,8.7,9.91h23.77a1.26,1.26,0,0,0,0-2.52h-18.51a14.77,14.77,0,0,0,3.5-10.07v-50.37h40.02v10.07a1.25,1.25,0,1,0,2.5,0v-10.07A2.512,2.512,0,0,0,1466.49,3592Zm-48.78,62.96c-3.35,0-5.84-3.05-6.2-7.55h12.25C1423.04,3651.7,1420.56,3654.96,1417.71,3654.96Zm28.77-47.85a2.548,2.548,0,0,0-.77-1.82,2.509,2.509,0,0,0-.24-1.96,2.472,2.472,0,0,0-1.56-1.18,2.545,2.545,0,0,0-1.18-1.58,2.45,2.45,0,0,0-1.25-.34,2.37,2.37,0,0,0-.7.1,2.5,2.5,0,0,0-3.61,0,2.37,2.37,0,0,0-.7-0.1,2.45,2.45,0,0,0-1.25.34,6.933,6.933,0,0,1-2.75,2.76,2.549,2.549,0,0,0-.23,1.96,2.536,2.536,0,0,0,0,3.64,2.539,2.539,0,0,0,.23,1.96,2.567,2.567,0,0,0,1.57,1.19,2.491,2.491,0,0,0,1.18,1.57,2.954,2.954,0,0,0,.37.16l-1.57,7.92a2.51,2.51,0,0,0,2.45,3.01,2.467,2.467,0,0,0,1.77-.74l0.73-.73,0.74,0.73a2.467,2.467,0,0,0,1.77.74,2.51,2.51,0,0,0,2.45-3.01l-1.57-7.92a2.954,2.954,0,0,0,.37-0.16,7.171,7.171,0,0,1,2.74-2.76,2.5,2.5,0,0,0,.24-1.96A2.548,2.548,0,0,0,1446.48,3607.11Zm-7.51,12.59-2.5,2.52,1.54-7.75a2.428,2.428,0,0,0,1.93,0l1.54,7.75Zm0-7.55a5.04,5.04,0,1,1,5.01-5.04A5.023,5.023,0,0,1,1438.97,3612.15Z" transform="translate(-1409 -3592)"/>
</svg>
