<svg xmlns="http://www.w3.org/2000/svg" width="90.031" height="90.03" viewBox="0 0 90.031 90.03">
  <metadata><?xpacket begin="﻿" id="W5M0MpCehiHzreSzNTczkc9d"?>
<x:xmpmeta xmlns:x="adobe:ns:meta/" x:xmptk="Adobe XMP Core 5.6-c138 79.159824, 2016/09/14-01:09:01        ">
   <rdf:RDF xmlns:rdf="http://www.w3.org/1999/02/22-rdf-syntax-ns#">
      <rdf:Description rdf:about=""/>
   </rdf:RDF>
</x:xmpmeta>
                                                                                                    
                                                                                                    
                                                                                                    
                                                                                                    
                                                                                                    
                                                                                                    
                                                                                                    
                                                                                                    
                                                                                                    
                                                                                                    
                                                                                                    
                                                                                                    
                                                                                                    
                                                                                                    
                                                                                                    
                                                                                                    
                                                                                                    
                                                                                                    
                                                                                                    
                                                                                                    
                           
<?xpacket end="w"?></metadata>
<defs>
    <style>
      .cls-1 {
        fill: #5fb136;
        fill-rule: evenodd;
      }
    </style>
  </defs>
  <path id="clock_before_21" class="cls-1" d="M530.562,1540.44a1.8,1.8,0,1,0,0-2.55A1.8,1.8,0,0,0,530.562,1540.44Zm0.494-48.55a1.8,1.8,0,1,0,0-2.54A1.785,1.785,0,0,0,531.056,1491.89Zm-10.669,24.1a1.8,1.8,0,1,0,2.543-2.54A1.8,1.8,0,0,0,520.387,1515.99Zm34.412-34.41a1.8,1.8,0,1,0,0-2.55A1.8,1.8,0,0,0,554.8,1481.58Zm34.483,34.48a1.8,1.8,0,0,0,2.543-2.54A1.8,1.8,0,1,0,589.282,1516.06Zm-34.413,34.41a1.8,1.8,0,1,0,0-2.54A1.8,1.8,0,0,0,554.869,1550.47Zm24.379-58.72a1.8,1.8,0,1,0,0-2.54A1.8,1.8,0,0,0,579.248,1491.75Zm-53.632,53.63a42.967,42.967,0,1,0,0-60.76,43.026,43.026,0,0,0,0,60.76m-1.414,1.42a44.971,44.971,0,1,1,63.6,0,44.915,44.915,0,0,1-63.6,0h0Zm30.809-30.81a2,2,0,1,0,0-2.83,2,2,0,0,0,0,2.83m-1.413,1.41a4,4,0,1,1,5.652,0,4,4,0,0,1-5.652,0h0Zm24.766,17.35-18.583-18.58a1.247,1.247,0,0,0-1.767,1.76l18.584,18.59A1.25,1.25,0,0,0,578.364,1534.75Zm-24.873-21.06a1.265,1.265,0,0,0-.883-0.36H537.345a1.25,1.25,0,0,0-1.249,1.25,1.235,1.235,0,0,0,1.25,1.24h15.262a1.235,1.235,0,0,0,1.249-1.24A1.259,1.259,0,0,0,553.491,1513.69Z" transform="translate(-511 -1470)"/>
</svg>
