<svg xmlns="http://www.w3.org/2000/svg" width="90.061" height="90.06" viewBox="0 0 90.061 90.06">
  <metadata><?xpacket begin="﻿" id="W5M0MpCehiHzreSzNTczkc9d"?>
<x:xmpmeta xmlns:x="adobe:ns:meta/" x:xmptk="Adobe XMP Core 5.6-c138 79.159824, 2016/09/14-01:09:01        ">
   <rdf:RDF xmlns:rdf="http://www.w3.org/1999/02/22-rdf-syntax-ns#">
      <rdf:Description rdf:about=""/>
   </rdf:RDF>
</x:xmpmeta>
                                                                                                    
                                                                                                    
                                                                                                    
                                                                                                    
                                                                                                    
                                                                                                    
                                                                                                    
                                                                                                    
                                                                                                    
                                                                                                    
                                                                                                    
                                                                                                    
                                                                                                    
                                                                                                    
                                                                                                    
                                                                                                    
                                                                                                    
                                                                                                    
                                                                                                    
                                                                                                    
                           
<?xpacket end="w"?></metadata>
<defs>
    <style>
      .cls-1 {
        fill: #f03c0b;
        fill-rule: evenodd;
      }
    </style>
  </defs>
  <path id="clock_after_21" class="cls-1" d="M934.544,1489.54a1.8,1.8,0,1,1,0,2.55A1.806,1.806,0,0,1,934.544,1489.54Zm0.5,48.58a1.8,1.8,0,1,1,0,2.55A1.806,1.806,0,0,1,935.039,1538.12Zm-10.677-24.11a1.8,1.8,0,1,1,0,2.55A1.8,1.8,0,0,1,924.362,1514.01Zm34.436,34.44a1.8,1.8,0,0,1,2.546,2.54A1.8,1.8,0,0,1,958.8,1548.45Zm34.507-34.51a1.8,1.8,0,1,1,0,2.55A1.8,1.8,0,0,1,993.305,1513.94Zm-34.436-34.44a1.8,1.8,0,1,1,0,2.55A1.8,1.8,0,0,1,958.869,1479.5Zm24.395,58.76a1.8,1.8,0,1,1,0,2.55A1.8,1.8,0,0,1,983.264,1538.26ZM929.6,1484.59a43,43,0,1,1,0,60.82,43.077,43.077,0,0,1,0-60.82m-1.415-1.41a45,45,0,1,0,63.64,0,44.94,44.94,0,0,0-63.64,0h0Zm30.83,30.83a2,2,0,1,1,0,2.83,2,2,0,0,1,0-2.83m-1.414-1.41a4,4,0,1,0,5.657,0,4,4,0,0,0-5.657,0h0Zm24.784-17.36-18.6,18.59a1.247,1.247,0,0,1-1.768-1.76l18.6-18.6A1.251,1.251,0,1,1,982.38,1495.24Zm-24.89,21.07a1.269,1.269,0,0,1-.884.36H941.333a1.25,1.25,0,0,1,0-2.5h15.273A1.254,1.254,0,0,1,957.49,1516.31Z" transform="translate(-914.969 -1469.97)"/>
</svg>
