<svg xmlns="http://www.w3.org/2000/svg" width="90" height="90" viewBox="0 0 90 90">
  <metadata><?xpacket begin="﻿" id="W5M0MpCehiHzreSzNTczkc9d"?>
<x:xmpmeta xmlns:x="adobe:ns:meta/" x:xmptk="Adobe XMP Core 5.6-c138 79.159824, 2016/09/14-01:09:01        ">
   <rdf:RDF xmlns:rdf="http://www.w3.org/1999/02/22-rdf-syntax-ns#">
      <rdf:Description rdf:about=""/>
   </rdf:RDF>
</x:xmpmeta>
                                                                                                    
                                                                                                    
                                                                                                    
                                                                                                    
                                                                                                    
                                                                                                    
                                                                                                    
                                                                                                    
                                                                                                    
                                                                                                    
                                                                                                    
                                                                                                    
                                                                                                    
                                                                                                    
                                                                                                    
                                                                                                    
                                                                                                    
                                                                                                    
                                                                                                    
                                                                                                    
                           
<?xpacket end="w"?></metadata>
<defs>
    <style>
      .cls-1 {
        fill: #f18925;
        fill-rule: evenodd;
      }
    </style>
  </defs>
  <path id="clock_in_time" class="cls-1" d="M1364,1469a1.8,1.8,0,1,1-1.8,1.8A1.805,1.805,0,0,1,1364,1469Zm-34,34.7a1.8,1.8,0,1,1-1.8,1.8A1.805,1.805,0,0,1,1330,1503.7Zm9.5-24.6a1.8,1.8,0,1,1-1.8,1.8A1.805,1.805,0,0,1,1339.5,1479.1Zm0,48.7a1.8,1.8,0,1,1-1.8,1.8A1.805,1.805,0,0,1,1339.5,1527.8Zm48.8,0a1.8,1.8,0,1,1-1.8,1.8A1.805,1.805,0,0,1,1388.3,1527.8Zm0-48.7a1.8,1.8,0,1,1-1.8,1.8A1.805,1.805,0,0,1,1388.3,1479.1Zm-24.3,58.8a1.8,1.8,0,1,1-1.8,1.8A1.805,1.805,0,0,1,1364,1537.9Zm0-75.9a43,43,0,1,1-43,43,43.062,43.062,0,0,1,43-43m0-2a45,45,0,1,0,45,45,44.94,44.94,0,0,0-45-45h0Zm0,43.6a2,2,0,1,1-2,2,2.006,2.006,0,0,1,2-2m0-2a4,4,0,1,0,4,4,4.012,4.012,0,0,0-4-4h0Zm29.8,5.25h-26.3a1.25,1.25,0,0,1,0-2.5h26.3A1.25,1.25,0,0,1,1393.8,1506.85Zm-32.5-2.7a1.21,1.21,0,0,1-.88-0.37l-10.8-10.8a1.245,1.245,0,1,1,1.76-1.76l10.8,10.8a1.237,1.237,0,0,1,0,1.76A1.21,1.21,0,0,1,1361.3,1504.15Z" transform="translate(-1319 -1460)"/>
</svg>
