<svg xmlns="http://www.w3.org/2000/svg" width="66" height="70" viewBox="0 0 66 70">
  <metadata><?xpacket begin="﻿" id="W5M0MpCehiHzreSzNTczkc9d"?>
<x:xmpmeta xmlns:x="adobe:ns:meta/" x:xmptk="Adobe XMP Core 5.6-c138 79.159824, 2016/09/14-01:09:01        ">
   <rdf:RDF xmlns:rdf="http://www.w3.org/1999/02/22-rdf-syntax-ns#">
      <rdf:Description rdf:about=""/>
   </rdf:RDF>
</x:xmpmeta>
                                                                                                    
                                                                                                    
                                                                                                    
                                                                                                    
                                                                                                    
                                                                                                    
                                                                                                    
                                                                                                    
                                                                                                    
                                                                                                    
                                                                                                    
                                                                                                    
                                                                                                    
                                                                                                    
                                                                                                    
                                                                                                    
                                                                                                    
                                                                                                    
                                                                                                    
                                                                                                    
                           
<?xpacket end="w"?></metadata>
<defs>
    <style>
      .cls-1 {
        fill: #fff;
        fill-rule: evenodd;
      }
    </style>
  </defs>
  <path id="delivery" class="cls-1" d="M1201.14,3656.43v-37.26l7.19-3.26v16.6l15.75-7.73v-16.03l3.91-1.78v20.34a1.321,1.321,0,1,0,2.64,0v-23.3L1199.82,3590,1169,3604.01v41.98l30.28,13.76,0.54,0.24,0.54-.24,17.64-8.02-1.07-2.47Zm20.29-33.35-10.46,5.13V3614.7l10.46-4.75v13.13Zm-21.61-30.12,26.24,11.93-3.71,1.68-26.24-11.92Zm-6.97,3.17,26.24,11.92-10.08,4.59-26.24-11.93Zm5.64,60.3-26.85-12.2v-37.26l26.85,12.2v37.26Zm1.33-39.61-26.24-11.93,6.09-2.77-0.05.12,26.13,11.88Zm16.01,19.28a1.341,1.341,0,0,0,1.32,1.36h16.52a1.355,1.355,0,0,0,0-2.71h-16.52A1.338,1.338,0,0,0,1215.83,3636.1Zm17.84,4.29h-11.01a1.35,1.35,0,0,0,0,2.7h11.01A1.35,1.35,0,0,0,1233.67,3640.39Zm0,5.63h-5.5a1.35,1.35,0,0,0,0,2.7h5.5A1.35,1.35,0,0,0,1233.67,3646.02Z" transform="translate(-1169 -3590)"/>
</svg>
