<?xml version="1.0" encoding="UTF-8"?>
<svg width="81px" height="81px" viewBox="0 0 81 81" version="1.1" xmlns="http://www.w3.org/2000/svg" xmlns:xlink="http://www.w3.org/1999/xlink">
    <!-- Generator: Sketch 42 (36781) - http://www.bohemiancoding.com/sketch -->
    <title>Sticker/End</title>
    <desc>Created with Sketch.</desc>
    <defs></defs>
    <g id="Page-1" stroke="none" stroke-width="1" fill="none" fill-rule="evenodd">
        <g id="Sticker/End" transform="translate(40.358984, 40.641016) rotate(-30.000000) translate(-40.358984, -40.641016) translate(0.358984, 0.641016)">
            <ellipse id="Oval-5" fill="#C5B066" cx="40" cy="40" rx="40" ry="40"></ellipse>
            <ellipse id="Oval-5" stroke="#FFFFFF" stroke-width="2" cx="40" cy="40" rx="35" ry="35"></ellipse>
            <path d="M24.7219238,32.6191406 C24.861573,32.7910165 25.0755194,33.1231258 25.3637695,33.6154785 C25.6520197,34.1078312 25.9662255,34.6404594 26.3063965,35.2133789 C26.6608904,35.8042022 27.0386536,36.33504 27.4396973,36.8059082 C27.8407409,37.2767764 28.4387167,37.9490516 29.2336426,38.8227539 C29.3518072,38.962403 29.4108887,39.0662431 29.4108887,39.1342773 C29.4108887,39.2058923 29.3231617,39.2703448 29.1477051,39.3276367 C29.0832516,39.3670249 28.976726,39.4287919 28.828125,39.5129395 C28.679524,39.597087 28.5183928,39.6687009 28.3447266,39.7277832 C28.1710603,39.7868655 27.9982919,39.8164062 27.826416,39.8164062 C27.4719221,39.8164062 27.1496597,39.691082 26.8596191,39.4404297 C26.4979637,39.1002587 26.138104,38.7063824 25.7800293,38.2587891 C25.4219546,37.8111957 25.0603046,37.3000517 24.6950684,36.7253418 C24.3298322,36.1506319 23.9950373,35.5616078 23.6906738,34.958252 C23.3863103,34.3548961 23.1302908,33.7667672 22.9226074,33.1938477 C22.8903807,33.1508787 22.8429365,33.0962731 22.7802734,33.0300293 C22.7176104,32.9637855 22.6612144,32.9306641 22.611084,32.9306641 C22.539469,32.9306641 22.5036621,33.0112297 22.5036621,33.1723633 L22.1062012,38.715332 L22.1062012,38.7583008 C22.1062012,38.9194344 21.9665541,39 21.6872559,39 C21.472411,39 21.2020687,38.9409186 20.8762207,38.8227539 C20.503823,38.751139 20.2254241,38.6777348 20.0410156,38.6025391 C19.8566072,38.5273434 19.7223311,38.4091805 19.6381836,38.2480469 C19.554036,38.0869133 19.5119629,37.8380551 19.5119629,37.5014648 C19.5119629,37.4370114 19.5191243,37.3081064 19.5334473,37.1147461 C19.5477703,36.9213858 19.5549316,36.7656256 19.5549316,36.6474609 C19.705323,35.6162058 19.8503411,34.0935159 19.9899902,32.0793457 C20.1296394,30.0651755 20.2263181,27.9785264 20.2800293,25.8193359 C20.3194175,25.3681618 20.4447418,25.1425781 20.6560059,25.1425781 C20.7276208,25.1425781 20.8583161,25.1783851 21.0480957,25.25 C21.4598816,25.4039721 21.8788227,25.609862 22.3049316,25.8676758 C22.5090342,25.9930019 22.6298826,26.0887855 22.6674805,26.1550293 C22.7050783,26.2212731 22.723877,26.3528636 22.723877,26.5498047 L22.5895996,30.1108398 C22.5895996,30.1144206 22.5860189,30.1341144 22.5788574,30.1699219 C22.5716959,30.2057293 22.5681152,30.2307942 22.5681152,30.2451172 C22.5681152,30.4778657 22.6415194,30.5942383 22.7883301,30.5942383 C22.8778488,30.5942383 22.9584144,30.5584313 23.0300293,30.4868164 C23.7067905,29.8816702 24.2555318,29.2165564 24.6762695,28.4914551 C25.0970073,27.7663538 25.6045706,26.7306382 26.1989746,25.3842773 C26.2061361,25.3484699 26.2258299,25.302816 26.2580566,25.2473145 C26.2902834,25.1918129 26.3511552,25.1640625 26.4406738,25.1640625 C26.5767422,25.1640625 26.7593576,25.2589509 26.9885254,25.4487305 C27.3573423,25.7781592 27.6115716,26.0377595 27.7512207,26.2275391 C27.8908698,26.4173187 27.9606934,26.6196278 27.9606934,26.8344727 C27.9606934,27.0528982 27.9374189,27.2283522 27.8908691,27.3608398 C27.6330554,28.2130576 27.2239611,29.0867468 26.6635742,29.9819336 C26.1031873,30.8771204 25.5150584,31.5735652 24.8991699,32.0712891 C24.7380363,32.1930345 24.6574707,32.3022456 24.6574707,32.3989258 C24.6574707,32.4597985 24.6789549,32.5332027 24.7219238,32.6191406 Z M36.0334473,32.6191406 C36.1802579,33.0130228 36.2536621,33.5125295 36.2536621,34.1176758 C36.2536621,34.8767942 36.1175958,35.6439577 35.845459,36.4191895 C35.5733222,37.1944212 35.1776556,37.8326798 34.6584473,38.3339844 C34.1392389,38.835289 33.5341018,39.0859375 32.8430176,39.0859375 C32.5601386,39.0859375 32.2298196,38.9812022 31.8520508,38.7717285 C31.474282,38.5622548 31.1081561,38.2784849 30.7536621,37.9204102 C30.5030098,37.6805001 30.235353,37.3313825 29.9506836,36.8730469 C29.6660142,36.4147112 29.4646002,35.9868184 29.3464355,35.5893555 C29.1530752,35.0379204 29.0563965,34.4506867 29.0563965,33.8276367 C29.0563965,33.2833632 29.1280104,32.7373074 29.2712402,32.1894531 C29.4144701,31.6415988 29.6364731,31.1179224 29.9372559,30.6184082 C30.2380386,30.118894 30.6193825,29.6793639 31.0812988,29.2998047 C31.4787618,28.9918604 31.7867014,28.8378906 32.005127,28.8378906 C32.3775246,28.8378906 32.7964658,29.2031213 33.2619629,29.9335938 C33.5305189,30.2952492 33.7131343,30.5145667 33.8098145,30.5915527 C33.9064946,30.6685388 34.0604644,30.7070312 34.2717285,30.7070312 C35.0022009,30.7070312 35.5894346,31.3443947 36.0334473,32.6191406 Z M32.005127,32.1357422 C31.6398908,33.2099663 31.4572754,34.1642211 31.4572754,34.9985352 C31.4572754,35.5642932 31.5521638,36.0476868 31.7419434,36.4487305 C31.9174,36.9321313 32.1590968,37.1738281 32.467041,37.1738281 C32.6138516,37.1738281 32.7606601,37.1290695 32.9074707,37.0395508 C33.1473808,36.9106439 33.3801258,36.5507842 33.6057129,35.9599609 C33.8313,35.3691377 33.9440918,34.7031287 33.9440918,33.9619141 C33.9440918,33.1956342 33.8330903,32.5063507 33.611084,31.894043 C33.553792,31.7185864 33.4624844,31.5467131 33.3371582,31.378418 C33.2118321,31.2101229 33.0686043,31.1259766 32.9074707,31.1259766 C32.6245917,31.1259766 32.3238134,31.4625617 32.005127,32.1357422 Z M39.7502441,34.0048828 C39.6893714,35.2832095 39.6589355,36.0978173 39.6589355,36.4487305 C39.6589355,36.7781592 39.6822101,37.2114231 39.7287598,37.7485352 C39.7574057,38.0994484 39.7717285,38.3107093 39.7717285,38.3823242 C39.7717285,38.7941101 39.6392429,39 39.3742676,39 C39.2417799,39 38.9266789,38.8979502 38.4289551,38.6938477 C37.9813617,38.4181301 37.6931159,38.2041837 37.564209,38.052002 C37.4353021,37.8998202 37.3708496,37.66618 37.3708496,37.3510742 C37.3708496,37.311686 37.3744303,37.2508142 37.3815918,37.168457 C37.3887533,37.0860998 37.392334,37.0216474 37.392334,36.9750977 C37.4173992,36.6671534 37.4469399,36.205244 37.480957,35.5893555 C37.5149741,34.973467 37.5445148,34.5043961 37.5695801,34.1821289 C37.1148252,33.8455387 36.8874512,33.573406 36.8874512,33.3657227 C36.8874512,33.1258126 37.1452611,32.9073903 37.6608887,32.7104492 C37.6752117,32.3702782 37.682373,31.8260129 37.682373,31.0776367 L37.682373,29.5844727 C37.682373,29.5701497 37.6707358,29.5244958 37.6474609,29.4475098 C37.6241861,29.3705237 37.6125488,29.305176 37.6125488,29.2514648 C37.6125488,28.9614243 37.7521959,28.8164062 38.0314941,28.8164062 C38.2141122,28.8164062 38.4056793,28.8522132 38.6062012,28.9238281 C39.0466331,29.1028655 39.3384596,29.245198 39.4816895,29.3508301 C39.6249193,29.4564621 39.7359208,29.6507147 39.8146973,29.9335938 C39.8146973,29.972982 39.8254393,30.1287421 39.8469238,30.4008789 C39.8684083,30.6730157 39.8791504,30.9290353 39.8791504,31.1689453 C39.8791504,31.6953151 39.8576662,32.1357404 39.8146973,32.4902344 C40.11548,32.4436847 40.8190863,32.4060874 41.9255371,32.3774414 C41.9255371,32.3631184 41.9219564,32.345215 41.9147949,32.3237305 C41.9076334,32.302246 41.9040527,32.2843425 41.9040527,32.2700195 C41.9040527,32.037271 41.9228514,31.6774113 41.9604492,31.1904297 C41.9980471,30.7034481 42.0168457,30.3435884 42.0168457,30.1108398 C42.0168457,29.8458646 42.0096843,29.677572 41.9953613,29.605957 C41.9953613,29.5952148 41.9873048,29.5719403 41.9711914,29.5361328 C41.955078,29.5003253 41.9470215,29.4716798 41.9470215,29.4501953 C41.9470215,29.1744778 42.0866685,29.0366211 42.3659668,29.0366211 C42.5414234,29.0366211 42.6953932,29.0652666 42.8278809,29.1225586 C43.6944217,29.4806333 44.1276855,29.8028957 44.1276855,30.0893555 L44.1276855,30.1323242 C44.0811358,30.4259455 44.0489096,30.7473127 44.0310059,31.0964355 C44.0131021,31.4455584 43.9925131,31.9728155 43.9692383,32.6782227 C43.9459634,33.3836298 43.9253744,33.8920883 43.9074707,34.2036133 C43.8788247,34.7622098 43.864502,35.1578764 43.864502,35.390625 C43.864502,36.2607465 43.9450676,37.2293241 44.1062012,38.2963867 C44.1348471,38.4002284 44.1491699,38.5470368 44.1491699,38.7368164 C44.1491699,39.1020526 43.9737159,39.284668 43.6228027,39.284668 C43.4401846,39.284668 43.1966975,39.2255865 42.892334,39.1074219 C42.4196754,38.9140615 42.1108406,38.7072765 41.9658203,38.4870605 C41.8208001,38.2668446 41.748291,37.8291048 41.748291,37.1738281 C41.748291,37.0735672 41.7644041,36.7298206 41.7966309,36.1425781 C41.8109538,36.0100905 41.8181152,35.7451192 41.8181152,35.3476562 L41.8181152,33.784668 C41.6677239,33.798991 41.4537774,33.8133137 41.1762695,33.8276367 C40.8987616,33.8419597 40.6490083,33.8616535 40.427002,33.8867188 C40.2049956,33.911784 39.979412,33.9511716 39.7502441,34.0048828 Z M51.7385254,36.9321289 C51.8101403,37.12907 51.8459473,37.3116854 51.8459473,37.4799805 C51.8459473,38.0349963 51.539798,38.4449857 50.9274902,38.7099609 C50.3151825,38.9749362 49.7279488,39.1074219 49.1657715,39.1074219 C48.6107557,39.1074219 48.1049828,38.9919445 47.6484375,38.7609863 C47.1918922,38.5300281 46.7926449,38.1979188 46.4506836,37.7646484 C46.1087222,37.331378 45.8249523,36.8050161 45.5993652,36.1855469 C45.3630359,35.4980434 45.244873,34.8159214 45.244873,34.1391602 C45.244873,33.5161102 45.3326,32.9047068 45.5080566,32.3049316 C45.6835132,31.7051565 45.9377425,31.1662622 46.270752,30.6882324 C46.6037614,30.2102027 47.0030087,29.8333347 47.4685059,29.5576172 C47.934003,29.2818997 48.4478325,29.144043 49.0100098,29.144043 C49.5005721,29.144043 50.0323051,29.3687315 50.6052246,29.8181152 C51.1781441,30.267499 51.5487459,30.732094 51.717041,31.2119141 C51.8924976,31.7060572 51.9802246,32.1536438 51.9802246,32.5546875 C51.9802246,33.2350294 51.7734396,33.7945128 51.3598633,34.2331543 C50.946287,34.6717958 50.4888534,34.9895823 49.9875488,35.1865234 C49.4862442,35.3834645 49.1228039,35.4819336 48.8972168,35.4819336 C48.6573067,35.4819336 48.3493671,35.2832051 47.9733887,34.8857422 C47.7621246,34.6064439 47.593832,34.4667969 47.4685059,34.4667969 C47.4112139,34.4667969 47.3825684,34.5258783 47.3825684,34.644043 C47.3825684,34.8123381 47.4255367,35.0844708 47.5114746,35.4604492 C47.7012542,36.4702199 48.1345181,36.9750977 48.8112793,36.9750977 C49.0834161,36.9750977 49.5005669,36.8730479 50.0627441,36.6689453 C50.6464059,36.4934887 50.9847814,36.4057617 51.0778809,36.4057617 C51.4001481,36.4057617 51.6203607,36.5812157 51.7385254,36.9321289 Z M49.251709,33.1938477 C49.5453302,32.9646798 49.7207842,32.7068699 49.7780762,32.4204102 C49.8675948,32.055174 49.9123535,31.7848316 49.9123535,31.609375 C49.9016113,31.3945302 49.8210457,31.2199714 49.6706543,31.0856934 C49.5202629,30.9514153 49.3519703,30.8842773 49.1657715,30.8842773 C48.8828925,30.8842773 48.6394053,31.0078113 48.4353027,31.2548828 C47.8802869,32.2503305 47.6027832,32.9772112 47.6027832,33.4355469 C47.6027832,33.7434911 47.7263171,33.8974609 47.9733887,33.8974609 C48.2419447,33.8974609 48.6680472,33.6629255 49.251709,33.1938477 Z M59.0378418,38.8442383 L58.9089355,38.8442383 C58.7227367,38.8442383 58.4738785,38.8334962 58.1623535,38.8120117 C57.8508285,38.7905272 57.6216641,38.7797852 57.4748535,38.7797852 C57.3459466,38.7797852 57.1490085,38.7941079 56.8840332,38.8227539 C56.1678838,38.8585614 55.678224,38.9024249 55.4150391,38.9543457 C55.1518542,39.0062665 54.701582,39.1163729 54.064209,39.284668 L53.9138184,39.284668 C53.7240388,39.284668 53.5709641,39.2264817 53.4545898,39.1101074 C53.3382156,38.9937331 53.2119961,38.7744157 53.0759277,38.4521484 C52.9720861,38.1585272 52.920166,37.9454759 52.920166,37.8129883 C52.920166,37.4549136 53.0759262,37.2418623 53.3874512,37.1738281 C53.3874512,37.1487629 53.3829753,37.1156415 53.3740234,37.0744629 C53.3650716,37.0332843 53.3605957,37.0073243 53.3605957,36.996582 C53.3605957,36.69938 53.3462729,36.2929713 53.317627,35.7773438 C53.288981,35.2617162 53.2746582,34.8982758 53.2746582,34.6870117 C53.2746582,34.6225583 53.2818196,34.5348313 53.2961426,34.4238281 C53.3104656,34.312825 53.317627,34.2322594 53.317627,34.1821289 C53.3212077,34.067545 53.3292643,33.4391333 53.3417969,32.296875 C53.3543295,31.1546167 53.3838702,30.2504916 53.4304199,29.5844727 C53.4304199,29.5808919 53.4232585,29.5379236 53.4089355,29.4555664 C53.3946126,29.3732092 53.3874512,29.305176 53.3874512,29.2514648 C53.3874512,28.9435206 53.5181465,28.7895508 53.779541,28.7895508 C53.9120287,28.7895508 54.1035958,28.8343094 54.354248,28.9238281 C54.8555526,29.12435 55.1822909,29.2720536 55.3344727,29.3669434 C55.4866544,29.4618332 55.5627441,29.636392 55.5627441,29.890625 L55.5627441,29.9335938 C55.4911292,30.8574265 55.4553223,32.1930251 55.4553223,33.9404297 C55.4553223,34.2913429 55.4508464,34.622557 55.4418945,34.934082 C55.4329427,35.245607 55.4284668,35.4497065 55.4284668,35.5463867 C55.4284668,35.797039 55.4383137,36.0638007 55.4580078,36.3466797 C55.4777019,36.6295587 55.4911295,36.8318679 55.498291,36.9536133 C56.16431,36.8640946 56.706785,36.8193359 57.1257324,36.8193359 L57.5661621,36.8193359 L57.5661621,33.6987305 C57.5661621,33.3585595 57.5957028,32.6764374 57.6547852,31.6523438 C57.7138675,30.6282501 57.7434082,29.9908867 57.7434082,29.7402344 L57.7434082,29.5415039 C57.7434082,29.1870099 57.8669421,29.0097656 58.1140137,29.0097656 C58.2465013,29.0097656 58.4004711,29.0473629 58.5759277,29.1225586 C59.4424685,29.4806333 59.8757324,29.8028957 59.8757324,30.0893555 L59.8757324,30.1323242 C59.8291827,30.4259455 59.7969565,30.7473127 59.7790527,31.0964355 C59.761149,31.4455584 59.74056,31.9728155 59.7172852,32.6782227 C59.6940103,33.3836298 59.6734213,33.8920883 59.6555176,34.2036133 C59.6268716,34.7908558 59.6125488,35.2097969 59.6125488,35.4604492 C59.6125488,35.8686544 59.6411944,36.352048 59.6984863,36.9106445 C60.4969929,37.0467129 60.9069823,37.4495409 60.9284668,38.1191406 C60.9284668,38.226563 60.9248861,38.3859039 60.9177246,38.597168 C60.9105631,38.808432 60.9069824,38.9641922 60.9069824,39.0644531 C60.9069824,39.6767609 60.9374183,40.2120745 60.998291,40.6704102 L60.998291,41.0249023 C60.998291,41.5978219 60.8514826,41.8842773 60.5578613,41.8842773 C60.3895662,41.8842773 60.140708,41.8037117 59.8112793,41.6425781 C59.2526828,41.3596991 58.9357914,40.9264352 58.8605957,40.3427734 C58.8605957,40.2317703 58.8901364,40.0231949 58.9492188,39.717041 C59.0083011,39.4108871 59.0378418,39.1503917 59.0378418,38.9355469 L59.0378418,38.8442383 Z M21.2602539,45.6953125 C21.117024,45.3443993 20.9702156,45.1689453 20.8198242,45.1689453 C20.7124018,45.1689453 20.6175134,45.2423495 20.5351562,45.3891602 C20.212889,45.7973653 19.9488129,46.3362597 19.7429199,47.0058594 C19.537027,47.6754591 19.434082,48.3164032 19.434082,48.9287109 C19.434082,49.5410187 19.542398,50.0351544 19.7590332,50.4111328 C19.9756684,50.7871113 20.3077777,50.9750977 20.7553711,50.9750977 C21.2065452,50.9750977 21.711423,50.7996437 22.2700195,50.4487305 C22.3810227,50.3162428 22.5206697,50.25 22.6889648,50.25 C22.828614,50.25 22.9673658,50.296549 23.1052246,50.3896484 C23.2430834,50.4827479 23.3317055,50.6044914 23.3710938,50.7548828 C23.4892584,51.0950538 23.5483398,51.343912 23.5483398,51.5014648 C23.5483398,51.8344743 23.3281272,52.1209298 22.8876953,52.3608398 C22.3505833,52.8299177 21.6612998,53.0644531 20.8198242,53.0644531 C20.3758116,53.0644531 19.9371766,52.975831 19.5039062,52.798584 C19.0706359,52.621337 18.6785499,52.3429381 18.3276367,51.9633789 C17.9767235,51.5838197 17.6992198,51.1075875 17.4951172,50.534668 C17.2193997,49.7075154 17.081543,48.9233435 17.081543,48.1821289 C17.081543,47.2941036 17.2399886,46.4642779 17.5568848,45.692627 C17.8737809,44.920976 18.2882461,44.306887 18.800293,43.8503418 C19.3123398,43.3937965 19.8458631,43.1655273 20.4008789,43.1655273 C20.8556338,43.1655273 21.3050108,43.2863757 21.7490234,43.5280762 C22.1930361,43.7697766 22.5528958,44.0786114 22.8286133,44.4545898 C23.1043308,44.8305683 23.2421875,45.2083314 23.2421875,45.5878906 C23.2421875,45.8242199 23.1831061,46.051594 23.0649414,46.2700195 C22.943196,46.4454761 22.8223476,46.5663245 22.7023926,46.6325684 C22.5824376,46.6988122 22.4168305,46.7319336 22.2055664,46.7319336 C21.9191066,46.7319336 21.7167975,46.6630052 21.5986328,46.5251465 C21.4804682,46.3872877 21.3676763,46.1106792 21.2602539,45.6953125 Z M30.7456055,50.9321289 C30.8172204,51.12907 30.8530273,51.3116854 30.8530273,51.4799805 C30.8530273,52.0349963 30.5468781,52.4449857 29.9345703,52.7099609 C29.3222626,52.9749362 28.7350289,53.1074219 28.1728516,53.1074219 C27.6178358,53.1074219 27.1120628,52.9919445 26.6555176,52.7609863 C26.1989723,52.5300281 25.799725,52.1979188 25.4577637,51.7646484 C25.1158023,51.331378 24.8320324,50.8050161 24.6064453,50.1855469 C24.370116,49.4980434 24.2519531,48.8159214 24.2519531,48.1391602 C24.2519531,47.5161102 24.3396801,46.9047068 24.5151367,46.3049316 C24.6905933,45.7051565 24.9448226,45.1662622 25.277832,44.6882324 C25.6108415,44.2102027 26.0100888,43.8333347 26.4755859,43.5576172 C26.9410831,43.2818997 27.4549126,43.144043 28.0170898,43.144043 C28.5076522,43.144043 29.0393852,43.3687315 29.6123047,43.8181152 C30.1852242,44.267499 30.555826,44.732094 30.7241211,45.2119141 C30.8995777,45.7060572 30.9873047,46.1536438 30.9873047,46.5546875 C30.9873047,47.2350294 30.7805196,47.7945128 30.3669434,48.2331543 C29.9533671,48.6717958 29.4959335,48.9895823 28.9946289,49.1865234 C28.4933243,49.3834645 28.1298839,49.4819336 27.9042969,49.4819336 C27.6643868,49.4819336 27.3564472,49.2832051 26.9804688,48.8857422 C26.7692047,48.6064439 26.6009121,48.4667969 26.4755859,48.4667969 C26.418294,48.4667969 26.3896484,48.5258783 26.3896484,48.644043 C26.3896484,48.8123381 26.4326168,49.0844708 26.5185547,49.4604492 C26.7083343,50.4702199 27.1415982,50.9750977 27.8183594,50.9750977 C28.0904962,50.9750977 28.5076469,50.8730479 29.0698242,50.6689453 C29.653486,50.4934887 29.9918615,50.4057617 30.0849609,50.4057617 C30.4072282,50.4057617 30.6274408,50.5812157 30.7456055,50.9321289 Z M28.2587891,47.1938477 C28.5524103,46.9646798 28.7278643,46.7068699 28.7851562,46.4204102 C28.8746749,46.055174 28.9194336,45.7848316 28.9194336,45.609375 C28.9086914,45.3945302 28.8281258,45.2199714 28.6777344,45.0856934 C28.527343,44.9514153 28.3590504,44.8842773 28.1728516,44.8842773 C27.8899725,44.8842773 27.6464854,45.0078113 27.4423828,45.2548828 C26.887367,46.2503305 26.6098633,46.9772112 26.6098633,47.4355469 C26.6098633,47.7434911 26.7333972,47.8974609 26.9804688,47.8974609 C27.2490248,47.8974609 27.6751273,47.6629255 28.2587891,47.1938477 Z M32.5449219,43.8046875 C32.8349624,43.4931625 33.1912414,43.2505705 33.6137695,43.0769043 C34.0362977,42.9032381 34.4641905,42.8164062 34.8974609,42.8164062 C35.2412127,42.8164062 35.5133454,42.8522132 35.7138672,42.9238281 C36.2867867,43.12435 36.7451155,43.4484027 37.0888672,43.8959961 C37.4326189,44.3435895 37.6044922,44.8413059 37.6044922,45.3891602 C37.6044922,46.1160518 37.2750684,46.7981739 36.6162109,47.4355469 C36.4264313,47.5572923 36.331543,47.6521806 36.331543,47.7202148 C36.331543,47.7452801 36.3503416,47.7676594 36.3879395,47.7873535 C36.4255373,47.8070476 36.5043126,47.8383787 36.6242676,47.8813477 C36.7442226,47.9243166 36.8579096,47.9654946 36.965332,48.0048828 C37.7137082,48.4524762 38.0878906,49.1059527 38.0878906,49.965332 C38.0878906,50.7172889 37.8103869,51.4495407 37.2553711,52.1621094 C36.7218398,52.8388706 36.0325563,53.1772461 35.1875,53.1772461 C34.8688135,53.1772461 34.6038422,53.1468102 34.3925781,53.0859375 C33.7695281,52.9104809 33.3004573,52.7063814 32.9853516,52.4736328 C32.5091122,52.1406233 32.1564139,51.8165706 31.9272461,51.5014648 C31.7231435,51.2758778 31.6210938,51.034181 31.6210938,50.7763672 C31.6210938,50.4576807 31.7679022,50.1282569 32.0615234,49.7880859 C32.3193372,49.4801417 32.5538726,49.3261719 32.7651367,49.3261719 C32.9835623,49.3261719 33.1446935,49.4729803 33.2485352,49.7666016 C33.2879234,49.8919277 33.3416338,50.0163568 33.409668,50.1398926 C33.4777022,50.2634284 33.5528967,50.3887526 33.6352539,50.5158691 C33.7176111,50.6429857 33.8160802,50.7960603 33.9306641,50.9750977 C34.030925,51.1433928 34.1634106,51.2848302 34.328125,51.3994141 C34.4928394,51.513998 34.6539706,51.5712891 34.8115234,51.5712891 C34.9368496,51.5712891 35.0550125,51.5265304 35.1660156,51.4370117 C35.4238294,51.2758781 35.6234531,51.032391 35.7648926,50.706543 C35.9063321,50.380695 35.9770508,50.0387388 35.9770508,49.6806641 C35.9770508,49.4873037 35.9698894,49.3548181 35.9555664,49.2832031 C35.7729483,48.7854793 35.4506859,48.5366211 34.9887695,48.5366211 C34.8885086,48.5366211 34.7631843,48.5509439 34.612793,48.5795898 C34.5948892,48.5795898 34.5698244,48.5867512 34.5375977,48.6010742 C34.5053709,48.6153972 34.4874675,48.6225586 34.4838867,48.6225586 C34.4015295,48.6225586 34.3370771,48.5957034 34.2905273,48.5419922 C34.2439776,48.488281 34.1723638,48.3754891 34.0756836,48.2036133 C33.9790034,48.0317374 33.9091799,47.9153649 33.8662109,47.8544922 C33.7766923,47.6969393 33.7319336,47.607422 33.7319336,47.5859375 C33.7319336,47.5035803 33.7740067,47.4310713 33.8581543,47.3684082 C33.9423019,47.3057451 34.0837392,47.2260747 34.2824707,47.1293945 C34.4812022,47.0327144 34.6217444,46.9575198 34.7041016,46.9038086 C35.0335303,46.6818023 35.2913402,46.3819192 35.4775391,46.0041504 C35.6637379,45.6263816 35.7568359,45.2889012 35.7568359,44.9916992 C35.7568359,44.7696929 35.7049159,44.5897631 35.6010742,44.4519043 C35.4972326,44.3140455 35.3665372,44.2451172 35.2089844,44.2451172 L35.1445312,44.2451172 C34.7649721,44.2809247 34.3388696,44.6318326 33.8662109,45.2978516 C33.7229811,45.5341809 33.5475271,45.6523438 33.3398438,45.6523438 C33.0856107,45.6523438 32.8582367,45.4321311 32.6577148,44.9916992 C32.6433919,44.9487303 32.5843104,44.8377288 32.4804688,44.6586914 C32.3766271,44.4796541 32.324707,44.3417974 32.324707,44.2451172 C32.324707,44.0768221 32.3981112,43.9300136 32.5449219,43.8046875 Z M45.8759766,46.6191406 C46.0227872,47.0130228 46.0961914,47.5125295 46.0961914,48.1176758 C46.0961914,48.8767942 45.9601251,49.6439577 45.6879883,50.4191895 C45.4158515,51.1944212 45.0201849,51.8326798 44.5009766,52.3339844 C43.9817682,52.835289 43.3766311,53.0859375 42.6855469,53.0859375 C42.4026679,53.0859375 42.0723489,52.9812022 41.6945801,52.7717285 C41.3168113,52.5622548 40.9506854,52.2784849 40.5961914,51.9204102 C40.3455391,51.6805001 40.0778823,51.3313825 39.7932129,50.8730469 C39.5085435,50.4147112 39.3071295,49.9868184 39.1889648,49.5893555 C38.9956045,49.0379204 38.8989258,48.4506867 38.8989258,47.8276367 C38.8989258,47.2833632 38.9705396,46.7373074 39.1137695,46.1894531 C39.2569994,45.6415988 39.4790024,45.1179224 39.7797852,44.6184082 C40.0805679,44.118894 40.4619118,43.6793639 40.9238281,43.2998047 C41.321291,42.9918604 41.6292307,42.8378906 41.8476562,42.8378906 C42.2200539,42.8378906 42.6389951,43.2031213 43.1044922,43.9335938 C43.3730482,44.2952492 43.5556636,44.5145667 43.6523438,44.5915527 C43.7490239,44.6685388 43.9029937,44.7070312 44.1142578,44.7070312 C44.8447302,44.7070312 45.4319639,45.3443947 45.8759766,46.6191406 Z M41.8476562,46.1357422 C41.48242,47.2099663 41.2998047,48.1642211 41.2998047,48.9985352 C41.2998047,49.5642932 41.3946931,50.0476868 41.5844727,50.4487305 C41.7599293,50.9321313 42.0016261,51.1738281 42.3095703,51.1738281 C42.4563809,51.1738281 42.6031894,51.1290695 42.75,51.0395508 C42.9899101,50.9106439 43.2226551,50.5507842 43.4482422,49.9599609 C43.6738293,49.3691377 43.7866211,48.7031287 43.7866211,47.9619141 C43.7866211,47.1956342 43.6756196,46.5063507 43.4536133,45.894043 C43.3963213,45.7185864 43.3050136,45.5467131 43.1796875,45.378418 C43.0543614,45.2101229 42.9111336,45.1259766 42.75,45.1259766 C42.467121,45.1259766 42.1663427,45.4625617 41.8476562,46.1357422 Z M49.5927734,48.0048828 C49.5319007,49.2832095 49.5014648,50.0978173 49.5014648,50.4487305 C49.5014648,50.7781592 49.5247394,51.2114231 49.5712891,51.7485352 C49.599935,52.0994484 49.6142578,52.3107093 49.6142578,52.3823242 C49.6142578,52.7941101 49.4817722,53 49.2167969,53 C49.0843092,53 48.7692082,52.8979502 48.2714844,52.6938477 C47.823891,52.4181301 47.5356452,52.2041837 47.4067383,52.052002 C47.2778314,51.8998202 47.2133789,51.66618 47.2133789,51.3510742 C47.2133789,51.311686 47.2169596,51.2508142 47.2241211,51.168457 C47.2312826,51.0860998 47.2348633,51.0216474 47.2348633,50.9750977 C47.2599285,50.6671534 47.2894692,50.205244 47.3234863,49.5893555 C47.3575034,48.973467 47.3870441,48.5043961 47.4121094,48.1821289 C46.9573545,47.8455387 46.7299805,47.573406 46.7299805,47.3657227 C46.7299805,47.1258126 46.9877904,46.9073903 47.503418,46.7104492 C47.517741,46.3702782 47.5249023,45.8260129 47.5249023,45.0776367 L47.5249023,43.5844727 C47.5249023,43.5701497 47.5132651,43.5244958 47.4899902,43.4475098 C47.4667154,43.3705237 47.4550781,43.305176 47.4550781,43.2514648 C47.4550781,42.9614243 47.5947252,42.8164062 47.8740234,42.8164062 C48.0566415,42.8164062 48.2482086,42.8522132 48.4487305,42.9238281 C48.8891624,43.1028655 49.1809889,43.245198 49.3242188,43.3508301 C49.4674486,43.4564621 49.5784501,43.6507147 49.6572266,43.9335938 C49.6572266,43.972982 49.6679686,44.1287421 49.6894531,44.4008789 C49.7109376,44.6730157 49.7216797,44.9290353 49.7216797,45.1689453 C49.7216797,45.6953151 49.7001955,46.1357404 49.6572266,46.4902344 C49.9580093,46.4436847 50.6616156,46.4060874 51.7680664,46.3774414 C51.7680664,46.3631184 51.7644857,46.345215 51.7573242,46.3237305 C51.7501627,46.302246 51.746582,46.2843425 51.746582,46.2700195 C51.746582,46.037271 51.7653807,45.6774113 51.8029785,45.1904297 C51.8405764,44.7034481 51.859375,44.3435884 51.859375,44.1108398 C51.859375,43.8458646 51.8522136,43.677572 51.8378906,43.605957 C51.8378906,43.5952148 51.8298341,43.5719403 51.8137207,43.5361328 C51.7976073,43.5003253 51.7895508,43.4716798 51.7895508,43.4501953 C51.7895508,43.1744778 51.9291978,43.0366211 52.2084961,43.0366211 C52.3839527,43.0366211 52.5379225,43.0652666 52.6704102,43.1225586 C53.5369509,43.4806333 53.9702148,43.8028957 53.9702148,44.0893555 L53.9702148,44.1323242 C53.9236651,44.4259455 53.8914389,44.7473127 53.8735352,45.0964355 C53.8556314,45.4455584 53.8350424,45.9728155 53.8117676,46.6782227 C53.7884927,47.3836298 53.7679037,47.8920883 53.75,48.2036133 C53.721354,48.7622098 53.7070312,49.1578764 53.7070312,49.390625 C53.7070312,50.2607465 53.7875969,51.2293241 53.9487305,52.2963867 C53.9773764,52.4002284 53.9916992,52.5470368 53.9916992,52.7368164 C53.9916992,53.1020526 53.8162452,53.284668 53.465332,53.284668 C53.2827139,53.284668 53.0392268,53.2255865 52.7348633,53.1074219 C52.2622047,52.9140615 51.9533699,52.7072765 51.8083496,52.4870605 C51.6633294,52.2668446 51.5908203,51.8291048 51.5908203,51.1738281 C51.5908203,51.0735672 51.6069334,50.7298206 51.6391602,50.1425781 C51.6534831,50.0100905 51.6606445,49.7451192 51.6606445,49.3476562 L51.6606445,47.784668 C51.5102532,47.798991 51.2963067,47.8133137 51.0187988,47.8276367 C50.7412909,47.8419597 50.4915376,47.8616535 50.2695312,47.8867188 C50.0475249,47.911784 49.8219413,47.9511716 49.5927734,48.0048828 Z M59.7548828,46.0014648 L59.7548828,45.894043 C59.7548828,45.7579746 59.7146,45.6398117 59.6340332,45.5395508 C59.5534664,45.4392899 59.4541022,45.3891602 59.3359375,45.3891602 C59.1819654,45.3891602 59.0494797,45.4249671 58.9384766,45.496582 C58.394203,45.8474952 57.9940605,46.3416309 57.7380371,46.9790039 C57.4820137,47.6163769 57.3540039,48.2805955 57.3540039,48.9716797 C57.3540039,49.490888 57.4202467,49.9689106 57.5527344,50.4057617 C57.6350916,50.6671563 57.8266587,50.7978516 58.1274414,50.7978516 C58.2169601,50.7978516 58.3924141,50.7620446 58.6538086,50.6904297 C59.1980821,50.3896469 59.5436191,49.9277375 59.6904297,49.3046875 C59.6904297,49.0898427 59.6823731,48.8186052 59.6662598,48.4909668 C59.6501464,48.1633284 59.6420898,47.9064137 59.6420898,47.7202148 C59.6420898,47.1437146 59.6796871,46.5708036 59.7548828,46.0014648 Z M59.7763672,52.2963867 C59.3359353,52.7797876 58.8149444,53.0214844 58.2133789,53.0214844 C57.6368786,53.0214844 57.0845567,52.8039573 56.5563965,52.3688965 C56.0282363,51.9338357 55.6424166,51.3600296 55.3989258,50.6474609 C55.0909815,49.7665972 54.9370117,48.9734736 54.9370117,48.2680664 C54.9370117,46.4275624 55.8089106,44.902187 57.5527344,43.6918945 C57.9860048,43.3696273 58.3315417,43.2084961 58.5893555,43.2084961 C58.6573897,43.2084961 58.7379553,43.2228189 58.8310547,43.2514648 C59.3574245,43.6489278 59.6796869,43.8476562 59.7978516,43.8476562 C59.9231777,43.8476562 60.0109047,43.686525 60.0610352,43.3642578 C60.0610352,43.3499348 60.0574545,43.3212893 60.050293,43.2783203 C60.0431315,43.2353513 60.0395508,43.2120768 60.0395508,43.2084961 C60.0395508,42.9005518 60.1791978,42.746582 60.4584961,42.746582 C60.7270521,42.746582 61.0421531,42.8862291 61.4038086,43.1655273 C61.7618833,43.3839529 62.0017898,43.5558262 62.1235352,43.6811523 C62.2452806,43.8064785 62.3061523,43.964029 62.3061523,44.1538086 C62.3061523,44.218262 62.2900392,44.3400056 62.2578125,44.519043 C62.2255858,44.6980803 62.2041016,44.8198239 62.1933594,44.8842773 C61.9892568,45.611169 61.887207,46.4383092 61.887207,47.3657227 C61.887207,49.1059657 62.1289038,50.6546156 62.6123047,52.0117188 C62.7734383,52.4485699 62.8540039,52.7636709 62.8540039,52.9570312 C62.8540039,53.2041028 62.7376314,53.3276367 62.5048828,53.3276367 C61.3160748,53.3276367 60.6339527,53.0931013 60.4584961,52.6240234 C60.3295892,52.2444642 60.2114263,52.0546875 60.1040039,52.0546875 C60.018066,52.0546875 59.9088548,52.1352531 59.7763672,52.2963867 Z" id="Конец-сезона" fill="#FFFFFF"></path>
        </g>
    </g>
</svg>