<svg id="Layer_1" data-name="Layer 1" xmlns="http://www.w3.org/2000/svg" viewBox="0 0 135.99 180.01"><defs><style>.cls-1{fill:#c0378b;}</style></defs><title>Artboard 1</title><path class="cls-1" d="M120.41,74.19c3.38-28.64-17.39-54.66-46.3-58S18.95,33.42,15.57,62.06s17.39,54.66,46.3,58S117,102.83,120.41,74.19ZM62.12,117.93c-27.72-3.21-47.64-28.16-44.4-55.62s28.42-47.2,56.14-44,47.64,28.16,44.4,55.62S89.84,121.14,62.12,117.93ZM129.8,75.27c.82-7,7.33-14.09,6-20.63-1.37-6.77-10.22-10.84-13.57-16.73s-2.32-15.55-7.38-20.18S100.3,15,94,12.08C87.85,9.3,83.05.88,76,.06S62.34,6.34,55.75,7.65C48.92,9,40.05,5.07,34.11,8.39s-7.2,12.94-11.88,18S8,33.25,5.13,39.52C2.33,45.58,7,54,6.19,61s-7.34,14.09-6,20.63C1.54,88.37,10.4,92.44,13.74,98.33s2.32,15.55,7.38,20.18,14.56,2.78,20.89,5.66c6.11,2.78,10.91,11.2,18,12s13.67-6.28,20.26-7.59c6.83-1.35,15.7,2.58,21.65-.73s7.21-12.93,11.88-18,14.19-6.91,17.1-13.18C133.66,90.66,129,82.24,129.8,75.27Zm-3.25-.38c-3.78,32-33.05,55-65.4,51.25S5.66,93.39,9.44,61.34s33.05-55,65.39-51.24S130.33,42.85,126.55,74.89ZM34.57,58a.21.21,0,0,0,.1-.21V57.7A2.11,2.11,0,0,0,34,56.3a2.26,2.26,0,0,0-1.52-.53h0q-.88,0-1.94.15a10.62,10.62,0,0,0-1.83.34q-.77.23-.77.58V57a8.88,8.88,0,0,0,.46,1.22.54.54,0,0,0,.48.33l0,0h0a.34.34,0,0,1,.23.15.87.87,0,0,1,.13.55v0A74.33,74.33,0,0,1,28.73,68v0a.05.05,0,0,0,0,0,1.31,1.31,0,0,0,.36.69,2.45,2.45,0,0,0,.54.55,5.66,5.66,0,0,0,1.42.58q.41,0,.41-.49.23-3.25.24-5.66V62.05q0-.34,0-.63,0-2,.07-2.61a1,1,0,0,1,.18-.57.56.56,0,0,1,.41-.13l1.81-.06A1.2,1.2,0,0,0,34.57,58Zm1.58,10q0,.28,0,.44a.63.63,0,0,0,.24.4,3.81,3.81,0,0,0,1,.58,2.4,2.4,0,0,0,.92.24q.46,0,.5-.29a27.27,27.27,0,0,1,.34-3.35.3.3,0,0,1,.1-.23.81.81,0,0,1,.33-.09l1.7-.19h.19c.09,0,.16,0,.18.07a.92.92,0,0,1,.07.29A35.57,35.57,0,0,1,42,69.48q.14.24.93.5a4.59,4.59,0,0,0,1.35.26q.43,0,.5-.17-.73-4.77-1.22-7.41a33.91,33.91,0,0,0-.94-4,4.63,4.63,0,0,0-1-1.89,2.18,2.18,0,0,0-1.39-.56h-.11q-.41,0-.41.21a.66.66,0,0,0,.08.19l.38,1.13a1.59,1.59,0,0,0-.71-.2.91.91,0,0,0-.73.47,7,7,0,0,0-.72,1.67q-.39,1.2-.94,3.33a1.2,1.2,0,0,1-.31.74,2.37,2.37,0,0,1-.69.26,1.56,1.56,0,0,0-.8.47,3.1,3.1,0,0,0,.94,1.61,10.22,10.22,0,0,0-.13,1.6Q36.14,67.78,36.15,68.06ZM40,61.71a5.55,5.55,0,0,1,.61-1.46.09.09,0,0,1,.09-.06c.07,0,.12.05.15.15q.45,2,.59,3.27H39.84a.19.19,0,0,1-.21-.21A9.33,9.33,0,0,1,40,61.71Zm15.27-1.43A3.28,3.28,0,0,0,55,59.21a4,4,0,0,0-.91-1.44,5.08,5.08,0,0,0-1.66-1.14,5.43,5.43,0,0,0-2.21-.45,7.48,7.48,0,0,0-2.94.63q-.34.18-.34.4a1.9,1.9,0,0,0,.3.6,7.89,7.89,0,0,1,.62.88,1.07,1.07,0,0,1,.13.52v.28q-.17.94-.28,1.89t-.16,2q-.05,1.06-.06,2.31,0,.61,0,2.37a.8.8,0,0,1,0,.11.81.81,0,0,0,0,.1,1.12,1.12,0,0,0,.26.83,2.18,2.18,0,0,0,1.18.37,3.06,3.06,0,0,0,.86.28q.31,0,.34-.36-.06-1.94,0-4.8,0-.39.13-.39t.6.51a1.16,1.16,0,0,0,.8.45q.57,0,1.75-1.25A6,6,0,0,0,55.22,60.28Zm-3.45,1.52q-1,.85-1.36.85T50,62a8.47,8.47,0,0,1,.24-1.64,4,4,0,0,0,.09-.77v-.36c0-.22.06-.35.13-.4a1.45,1.45,0,0,1,.52-.11h.59q1.31,0,1.31.94A3.82,3.82,0,0,1,51.77,61.81Zm14.08,8.34q-.73-4.77-1.22-7.41a33.91,33.91,0,0,0-.94-4,4.62,4.62,0,0,0-1-1.88,2.18,2.18,0,0,0-1.39-.56H61.2q-.4,0-.41.21a.66.66,0,0,0,.08.19l.38,1.13a1.58,1.58,0,0,0-.71-.2.91.91,0,0,0-.73.47,7,7,0,0,0-.72,1.67q-.39,1.2-.94,3.33a1.21,1.21,0,0,1-.31.74,2.39,2.39,0,0,1-.69.26,1.56,1.56,0,0,0-.8.47,3.1,3.1,0,0,0,.94,1.61,10.17,10.17,0,0,0-.13,1.6q0,.12,0,.4t0,.44a.64.64,0,0,0,.24.4,3.82,3.82,0,0,0,1,.58,2.41,2.41,0,0,0,.92.24q.46,0,.5-.3a27.34,27.34,0,0,1,.34-3.35.31.31,0,0,1,.1-.23.81.81,0,0,1,.33-.09l1.7-.19h.19q.14,0,.18.07a.9.9,0,0,1,.07.29,35.58,35.58,0,0,1,.35,3.57q.14.24.93.5a4.57,4.57,0,0,0,1.35.26Q65.77,70.31,65.84,70.14Zm-5-6.47a.19.19,0,0,1-.22-.21A9.38,9.38,0,0,1,61,61.79a5.56,5.56,0,0,1,.61-1.46.09.09,0,0,1,.09-.06c.07,0,.12.05.15.15q.45,2,.59,3.27Zm13.27,5.68A5.58,5.58,0,0,0,75.3,70a2.63,2.63,0,0,0,.84.3q.26,0,.26-.3a4.27,4.27,0,0,0-.11-.73,18.25,18.25,0,0,1-.39-4.46q0-1.45.12-2.81A20.37,20.37,0,0,1,76.27,60v-.06a3.25,3.25,0,0,1,.08-.46,3.16,3.16,0,0,0,.08-.59,1.55,1.55,0,0,0-.17-.75q-.92-1.56-1.57-1.56T74,58v.15L73.8,60q-.1.89-.16,1.2a1,1,0,0,1-.14.4.45.45,0,0,1-.26.14l-.83.11a6.73,6.73,0,0,1-.74.08.57.57,0,0,1-.43-.14.7.7,0,0,1-.12-.48s.07-.57.2-1.77a5.75,5.75,0,0,1,.08-.88,5.36,5.36,0,0,0,.08-.59,1.2,1.2,0,0,0-.26-.7,7.31,7.31,0,0,0-1-1,1.16,1.16,0,0,0-.54-.2q-.28,0-.39.35a5.56,5.56,0,0,0-.15,1.15q0,.79-.09,1.08,0,.55-.11,1.69a11.52,11.52,0,0,1-.13,1.44.61.61,0,0,1-.27.42,2.45,2.45,0,0,1-.77.2q-.39.09-.39.36a.6.6,0,0,0,.08.27,4.92,4.92,0,0,0,.26.43c.12.18.21.32.26.41a.84.84,0,0,1,.1.29,6.45,6.45,0,0,1,.51.6.7.7,0,0,1,.12.4,3.86,3.86,0,0,1,0,.39q0,.43,0,1.22a5.84,5.84,0,0,0,.19,1.78,1.29,1.29,0,0,0,.67.79,6.81,6.81,0,0,0,1.58.42q.17,0,.17-.3s0-.19,0-.42,0-.43,0-.6v-.41q0-1.06-.07-2.15T71,64.7a1.12,1.12,0,0,1,.18-.73.93.93,0,0,1,.67-.21,7.37,7.37,0,0,1,1-.13q.75,0,.75.71a2,2,0,0,1,0,.47q0,1.71-.05,2.14a6.48,6.48,0,0,0,.14,1.58A1.54,1.54,0,0,0,74.14,69.35ZM84.35,58.54a.31.31,0,0,1,.19-.09l.59-.05,1.07-.05q.61,0,.61-.32a2,2,0,0,0,0-.3,2.85,2.85,0,0,0-.72-1.07A1.56,1.56,0,0,0,85,56.15h-.49a18.86,18.86,0,0,0-5.31.64.64.64,0,0,0-.48.66,2.31,2.31,0,0,0,.13.56,1.63,1.63,0,0,0,.47.7,1.16,1.16,0,0,0,.79.3,3.66,3.66,0,0,0,.49-.1,2.57,2.57,0,0,1,.8-.15q.43,0,.43.53a6.57,6.57,0,0,1-.11,1q-.2,3-.33,7.06c0,.26,0,.44,0,.54a1.57,1.57,0,0,0,.2.84,1.7,1.7,0,0,0,.56.55,11,11,0,0,0,1,.54,1.49,1.49,0,0,0,.47.15.28.28,0,0,0,.28-.21A2.76,2.76,0,0,0,84,69.1q0-.44,0-1t-.05-1.28q0-.72,0-1.65a48.66,48.66,0,0,1,.46-6.42A.37.37,0,0,1,84.35,58.54ZM94.7,66.88a7.21,7.21,0,0,0,.13,1.66,1.55,1.55,0,0,0,.5.84A5.46,5.46,0,0,0,96.5,70a3.17,3.17,0,0,0,.86.33q.24,0,.24-.32,0-.08-.08-.72-.31-1.6-.45-3a31.31,31.31,0,0,1-.13-3.17v-2.5q0-.8.08-1.81a2.43,2.43,0,0,0,.35-1.07,1.25,1.25,0,0,0-.32-.83,1.06,1.06,0,0,0-.76-.45q-.49,0-1.08,1L94,59.56l-1.35,2.38q-.52.93-1.23,2.22,0-1.48.09-2.63a19,19,0,0,1,.23-1.92,9.31,9.31,0,0,0,.12-1.11,1.89,1.89,0,0,0-.26-1,5.31,5.31,0,0,0-1-1.1,1,1,0,0,0-.6-.34q-.2,0-.31.3a3.58,3.58,0,0,0-.15.86q0,.56-.09,1.57,0,.52-.11,1.66t-.13,2q-.05.83-.09,1.65t0,1.66,0,.31c0,.14,0,.24,0,.31a10.22,10.22,0,0,0,.16,2.22,1.32,1.32,0,0,0,.63.9,5.91,5.91,0,0,0,1.63.45h0a.13.13,0,0,0,.15-.15s0-.16,0-.37,0-.37-.05-.51a14.5,14.5,0,0,1,1.18-3.2q.41-.72,1-1.95a17.69,17.69,0,0,1,1.12-2q-.13,1.75-.14,2.63s0,.12,0,.22,0,.18,0,.25q0,.48,0,1.08T94.7,66.88ZM108.32,56q-.9-.09-1.46-.09a10.59,10.59,0,0,0-2.67.33,5.13,5.13,0,0,0-2.05,1.2,4.68,4.68,0,0,0-1.37,2.19,2,2,0,0,0-.13.72,2.93,2.93,0,0,0,.77,1.94,4,4,0,0,0,1.8,1.25,12.58,12.58,0,0,0-1.93,1.8,10.73,10.73,0,0,0-1.54,2.14l-.28.47a3.1,3.1,0,0,0-.19.36.68.68,0,0,0-.06.27q0,.36,1.24,1.09a2.07,2.07,0,0,0,1,.45.47.47,0,0,0,.42-.21,7.1,7.1,0,0,0,.43-.85,13.09,13.09,0,0,1,.76-1.67q.47-.87,1-1.67t1.12-1.51q.32-.45.54-.45t.26.64v.51q0,.15,0,.46c0,.21,0,.36,0,.45q0,.72,0,1.7t0,1.23V69l0,0a.83.83,0,0,0,.49.79,6.51,6.51,0,0,0,1.38.48l.13,0,.19,0,.17,0a.5.5,0,0,0,.47-.22,1.56,1.56,0,0,0,.14-.76,30.78,30.78,0,0,1-.41-5.83,48.14,48.14,0,0,1,.26-5q0-.48.24-.56l.48-.19q.26-.11.36-.63a1.07,1.07,0,0,0,0-.23Q109.87,56.17,108.32,56Zm-2,3.23q-.07.67-.2,2.61a4.14,4.14,0,0,1-1.68.4,1.39,1.39,0,0,1-1-.36,1,1,0,0,1-.32-.77,2.55,2.55,0,0,1,.28-1,3.57,3.57,0,0,1,.73-1,4.68,4.68,0,0,1,.94-.75A2.91,2.91,0,0,1,106.5,58,6.16,6.16,0,0,0,106.28,59.23ZM44.69,80.69q-.09,1.69-.21,3.24t-.22,2.3a.24.24,0,0,1,0,.06v0a.73.73,0,0,0,.14.45,1.82,1.82,0,0,0,.24.28,4.22,4.22,0,0,0,1.55.94.34.34,0,0,0,.15,0,.16.16,0,0,0,.17-.1l.24-.66c0-.06,0-.09.08-.09a.35.35,0,0,1,.22.09,2.47,2.47,0,0,0,1.57.79q.89,0,2.2-1.51A3.76,3.76,0,0,0,51.72,84a3.94,3.94,0,0,0-.32-1.57,3.15,3.15,0,0,0-.94-1.25c-.11-.07-.17-.13-.17-.17a.55.55,0,0,1,.11-.12,3.76,3.76,0,0,0,1.19-2.69,3.45,3.45,0,0,0-.62-2,4.45,4.45,0,0,0-1.75-1.49,5.57,5.57,0,0,0-2.51-.57,8.15,8.15,0,0,0-3.41.8.49.49,0,0,0-.28.45,2,2,0,0,0,.17.68,2.82,2.82,0,0,0,.61,1,1.23,1.23,0,0,0,.74.3q.26,0,.26.24v0Q44.78,79,44.69,80.69Zm3.59-4.16a1.11,1.11,0,0,1,1.19.76,1,1,0,0,1,0,.26A2.14,2.14,0,0,1,49,78.72a3.74,3.74,0,0,1-1.24,1.1,1.39,1.39,0,0,1-.32.1c-.19,0-.28-.12-.28-.36a.3.3,0,0,1,0-.06V79a5.57,5.57,0,0,0-.36-2.22Q48.08,76.53,48.28,76.53Zm-1.19,5.67c0-.17.13-.26.35-.28H48c.7,0,1.27.27,1.38.9,0,0,0,.07,0,.14a1.59,1.59,0,0,1,0,.16,2.58,2.58,0,0,1-.32,1.2,3.14,3.14,0,0,1-.77,1,1.36,1.36,0,0,1-.84.38q-.5,0-.62-.62Zm8,5.49a4.64,4.64,0,0,0,.82.22,2.44,2.44,0,0,0,.79.17c.27,0,.41-.08.41-.23v0l.41-5.38q0-.23.11-.23a.25.25,0,0,1,.17.1l.14.16a15.67,15.67,0,0,0,.75,1.71q.44.88,1,1.72a16.91,16.91,0,0,0,1.06,1.49,11,11,0,0,0,1.05,1.15,1.42,1.42,0,0,0,.95.37,1.57,1.57,0,0,0,.51-.08,2.72,2.72,0,0,0,.47-.21l.31-.18c.17-.05.26-.12.26-.19a.59.59,0,0,0-.17-.3q-1.16-1.28-1.75-2a11.52,11.52,0,0,1-1.1-1.55l-.92-1.55a9,9,0,0,0-.62-1,.49.49,0,0,1-.06-.21q0-.14.24-.32a8.12,8.12,0,0,0,1.74-2,10.56,10.56,0,0,0,1.21-2.54,1.56,1.56,0,0,0,.07-.51,1,1,0,0,0-.2-.59A5.67,5.67,0,0,0,61.9,75a1,1,0,0,0-.54-.28.19.19,0,0,0-.18.08.46.46,0,0,0-.06.13,32.23,32.23,0,0,1-1.5,3A8,8,0,0,1,58,79.83a.33.33,0,0,1-.24.1q-.22,0-.21-.34a.54.54,0,0,1,0-.07v-.06L57.72,76a.88.88,0,0,0-.05-.38,1.15,1.15,0,0,0-.35-.28,7.47,7.47,0,0,0-1.23-.6,1.37,1.37,0,0,0-.38-.11q-.31,0-.37.66-.09,3.14-.31,6.07t-.44,4.43c0,.11,0,.27,0,.45s0,.31,0,.38a1.62,1.62,0,0,0,.12.73A.74.74,0,0,0,55,87.7Zm11.47-1a.64.64,0,0,0-.22.41q0,.53,1.22,1.42a1.48,1.48,0,0,0,.69.34.57.57,0,0,0,.42-.21,5,5,0,0,0,.51-.72,59.88,59.88,0,0,0,2.67-5.48,30.8,30.8,0,0,0,1.77-5.48v-.09a2.7,2.7,0,0,0-.3-1.22,2.19,2.19,0,0,0-.61-.83,1.73,1.73,0,0,0-.95-.41q-.42,0-.48.54-.37,2.12-.67,3.4a16.94,16.94,0,0,1-.71,2.31.4.4,0,0,1-.39.23q-.31,0-.47-.43a22.54,22.54,0,0,1-1.36-5.13,2,2,0,0,0-.36-.88.7.7,0,0,0-.54-.24H66.5q-1.32.44-1.32,1.1s0,.15.07.37q.64,2.55,1.09,4a9.26,9.26,0,0,0,.92,2.16,2,2,0,0,0,1.1.9.44.44,0,0,1,.4.45,2,2,0,0,1-.06.3A15.88,15.88,0,0,1,66.51,86.67Zm15.2-7.95a2.11,2.11,0,0,0,.63.11,1,1,0,0,0,.81-.3,1.2,1.2,0,0,0,.27-.82,3.24,3.24,0,0,0-.28-1.25,4.75,4.75,0,0,0-.76-1.25,2.51,2.51,0,0,0-1-.76,3.29,3.29,0,0,0-1-.17,3.34,3.34,0,0,0-1.52.38,5,5,0,0,0-1.44,1.12,7.06,7.06,0,0,0-1.17,1.8A9.42,9.42,0,0,0,75.53,80q-.09.93-.1,1.5a8.2,8.2,0,0,0,1.29,4.87,4.18,4.18,0,0,0,3.59,1.85h.22a1.94,1.94,0,0,0,1.07-.5,3.73,3.73,0,0,0,.94-1.16,3.79,3.79,0,0,0,.54-1.69,2.39,2.39,0,0,0-.47-1.35,1.4,1.4,0,0,0-.46-.45,1.06,1.06,0,0,0-.55-.18q-.63,0-.76.87a4.25,4.25,0,0,1-.35,1.12,3.38,3.38,0,0,1-.57.89.86.86,0,0,1-.6.34q-.29,0-.52-.45a7.51,7.51,0,0,1-.66-3.29,10.38,10.38,0,0,1,.59-3.46,4.88,4.88,0,0,1,1.58-2.38l.24-.06q.61,0,.6,1.79l0,0C81.15,78.51,81.34,78.66,81.71,78.73Zm4.12,7.82q0,.28,0,.44a.63.63,0,0,0,.23.4A3.83,3.83,0,0,0,87,88a2.41,2.41,0,0,0,.92.24c.31,0,.47-.1.5-.3a27.3,27.3,0,0,1,.34-3.35.3.3,0,0,1,.1-.23.8.8,0,0,1,.33-.09l1.7-.19h.19c.09,0,.16,0,.18.07a.92.92,0,0,1,.07.29A35.52,35.52,0,0,1,91.72,88q.14.24.93.5a4.58,4.58,0,0,0,1.35.26c.28,0,.45-.06.5-.17q-.73-4.77-1.22-7.41a33.94,33.94,0,0,0-.94-4,4.63,4.63,0,0,0-1-1.89A2.18,2.18,0,0,0,90,74.66h-.11q-.41,0-.41.21a.68.68,0,0,0,.08.19l.39,1.13a1.59,1.59,0,0,0-.71-.2.91.91,0,0,0-.73.47,7,7,0,0,0-.72,1.67q-.39,1.2-.94,3.33a1.2,1.2,0,0,1-.31.74,2.39,2.39,0,0,1-.69.26,1.56,1.56,0,0,0-.8.47A3.1,3.1,0,0,0,86,84.55a10.24,10.24,0,0,0-.13,1.6C85.82,86.23,85.82,86.37,85.83,86.55Zm3.8-6.35a5.57,5.57,0,0,1,.61-1.46.09.09,0,0,1,.09-.06c.07,0,.12.05.15.15q.45,2,.59,3.26H89.52a.19.19,0,0,1-.22-.21A9.36,9.36,0,0,1,89.63,80.2ZM28.25,106.64a.57.57,0,0,0,.34,1,.58.58,0,0,0,.47-.16.56.56,0,0,0,0-.81A.58.58,0,0,0,28.25,106.64Zm72.42-82.48a.58.58,0,0,0,.53-.23.57.57,0,0,0-.12-.8.58.58,0,0,0-.81.13.57.57,0,0,0,.13.8A.59.59,0,0,0,100.67,24.16Zm2.72,2.1a.59.59,0,0,0,.51-.2.57.57,0,0,0-.08-.81.58.58,0,0,0-.81.08.57.57,0,0,0,.08.81A.55.55,0,0,0,103.39,26.26ZM88.46,17.51l.15,0a.58.58,0,1,0-.15,0Zm-3.21-1.16.11,0A.58.58,0,0,0,86,16a.57.57,0,0,0-.37-.72.57.57,0,1,0-.36,1.09Zm9.4,4.06a.5.5,0,0,0,.21.07.57.57,0,0,0,.35-1.07.58.58,0,0,0-.79.23A.56.56,0,0,0,94.64,20.41Zm-3-1.55a.59.59,0,0,0,.18,0,.57.57,0,0,0,.59-.32.57.57,0,0,0-.27-.76.57.57,0,1,0-.49,1Zm6,3.28a.56.56,0,0,0,.24.08.57.57,0,0,0,.38-1,.58.58,0,0,0-.8.18A.57.57,0,0,0,97.57,22.14ZM14.35,80.27a.58.58,0,0,0-.69-.43A.57.57,0,0,0,13.72,81a.56.56,0,0,0,.2,0A.57.57,0,0,0,14.35,80.27Zm3.22,9.66a.58.58,0,0,0-.76-.29.57.57,0,0,0-.3.75.58.58,0,0,0,.46.34.59.59,0,0,0,.3,0,.57.57,0,0,0,.29-.75Zm2.33,5.83a.57.57,0,0,0-.2.79.58.58,0,0,0,.43.28.58.58,0,0,0,.56-.86A.58.58,0,0,0,19.9,95.76Zm-1.65-3a.57.57,0,0,0-.25.77.59.59,0,0,0,.78.24A.57.57,0,0,0,19,93,.58.58,0,0,0,18.25,92.74ZM108.42,31a.57.57,0,0,0,.46-.15.57.57,0,0,0,0-.81.58.58,0,0,0-.82,0,.57.57,0,0,0,0,.81A.58.58,0,0,0,108.42,31ZM25.91,104.11a.57.57,0,0,0-.05.81.59.59,0,0,0,.37.19.58.58,0,0,0,.45-.14.57.57,0,0,0,.05-.81A.59.59,0,0,0,25.91,104.11Zm-4.18-5.45a.57.57,0,0,0-.15.79.58.58,0,0,0,.8.15.57.57,0,0,0,.16-.79A.58.58,0,0,0,21.73,98.67Zm2,2.79a.57.57,0,0,0-.1.8.59.59,0,0,0,.81.1.57.57,0,0,0,.1-.8A.59.59,0,0,0,23.73,101.45ZM82,15.39l.08,0a.58.58,0,0,0,.62-.43.57.57,0,0,0-.41-.7.58.58,0,0,0-.7.41A.57.57,0,0,0,82,15.39Zm-66.42,71a.57.57,0,0,0-.35.74.58.58,0,0,0,.48.37.59.59,0,0,0,.26,0,.57.57,0,1,0-.39-1.08Zm-1.86-9.49a.58.58,0,1,0-.64.66h.16A.57.57,0,0,0,13.69,76.94Zm-1-2.74a.57.57,0,1,0-.12-1.13.57.57,0,0,0-.52.62.58.58,0,0,0,.51.51ZM58.05,14.47h.17a.57.57,0,0,0,.46-.67.58.58,0,0,0-.67-.46h0a.57.57,0,0,0,0,1.13ZM12.46,70.79A.57.57,0,0,0,13,70.2a.58.58,0,0,0-.6-.55.57.57,0,0,0,0,1.14Zm2.76,12.76a.58.58,0,0,0-.72-.39.57.57,0,0,0-.39.71.58.58,0,0,0,.49.41.63.63,0,0,0,.23,0A.57.57,0,0,0,15.22,83.56Zm90.76-55a.58.58,0,0,0,.49-.17.56.56,0,0,0,0-.81.58.58,0,0,0-.82,0,.57.57,0,0,0,.35,1ZM28,30.35a.58.58,0,0,0,.48-.17.57.57,0,0,0,0-.81.58.58,0,0,0-.82,0,.57.57,0,0,0,0,.81A.6.6,0,0,0,28,30.35Zm2.12-2.57a.59.59,0,0,0,.36.18A.57.57,0,0,0,31,27a.58.58,0,0,0-.82,0h0A.57.57,0,0,0,30.13,27.78Zm3-2a.58.58,0,0,0,.43-.12.57.57,0,0,0,.09-.8.58.58,0,0,0-.81-.09.57.57,0,0,0,.29,1Zm-7.44,7.14a.59.59,0,0,0,.51-.2.57.57,0,0,0-.06-.81.59.59,0,0,0-.82.06.57.57,0,0,0,.07.81A.58.58,0,0,0,25.68,32.88Zm10.2-9.2a.56.56,0,0,0,.4-.1.57.57,0,0,0,.14-.8.58.58,0,0,0-.8-.14.57.57,0,0,0,.27,1ZM21.27,38.24a.57.57,0,0,0,.26.09.58.58,0,0,0,.55-.25.57.57,0,0,0-.16-.79.58.58,0,0,0-.8.16A.57.57,0,0,0,21.27,38.24Zm-1.78,2.93a.56.56,0,0,0,.22.07.58.58,0,0,0,.57-.28.57.57,0,0,0-.21-.78.58.58,0,0,0-.79.21A.57.57,0,0,0,19.49,41.17Zm4-5.63a.59.59,0,0,0,.53-.22.57.57,0,0,0-.11-.8.58.58,0,0,0-.81.11.57.57,0,0,0,.11.8A.54.54,0,0,0,23.51,35.54ZM51.33,16.11a.6.6,0,0,0,.24,0A.57.57,0,1,0,51.22,15a.57.57,0,0,0,.1,1.11Zm-3.27,1.13a.56.56,0,0,0,.27,0,.57.57,0,1,0-.41-1.07.56.56,0,0,0-.33.74A.57.57,0,0,0,48.06,17.23Zm6.6-2a.59.59,0,0,0,.2,0,.58.58,0,0,0,.43-.69.58.58,0,0,0-.7-.42.57.57,0,0,0-.42.69A.58.58,0,0,0,54.66,15.18Zm-9.79,3.38a.61.61,0,0,0,.3,0h0a.57.57,0,0,0,.29-.76.58.58,0,0,0-.77-.28.57.57,0,0,0-.29.76A.58.58,0,0,0,44.87,18.56Zm-3.1,1.52a.59.59,0,0,0,.34-.07.57.57,0,0,0,.23-.77.58.58,0,0,0-.78-.24.57.57,0,0,0,.21,1.08Zm-3,1.7a.59.59,0,0,0,.37-.08.57.57,0,0,0,.19-.79.58.58,0,0,0-.79-.19.57.57,0,0,0,.24,1.06ZM12.35,67.37h.05a.57.57,0,0,0,.59-.56h0a.58.58,0,1,0-.65.56Zm.19-3.42h0a.58.58,0,0,0,.63-.52.58.58,0,1,0-.64.52ZM78.63,14.63h0a.57.57,0,1,0-.5-.68A.57.57,0,0,0,78.63,14.63Zm-10.26-1h.07a.57.57,0,1,0-.07,0Zm6.88.48h0a.57.57,0,1,0-.49-.64A.57.57,0,0,0,75.25,14.08Zm-10.34-.41H65a.57.57,0,0,0,.55-.6.58.58,0,1,0-.64.6Zm6.91.06h0a.57.57,0,1,0-.54-.61A.58.58,0,0,0,71.85,13.74ZM17.9,44.21a.61.61,0,0,0,.19.05.57.57,0,0,0,.58-.31.57.57,0,0,0-.26-.77.58.58,0,0,0-.77.26h0A.57.57,0,0,0,17.9,44.21Zm-3.6,9.62h.09a.58.58,0,0,0,.62-.41.57.57,0,0,0-.4-.7.57.57,0,1,0-.31,1.1Zm1-3.28.12,0A.58.58,0,0,0,16,50.2a.57.57,0,0,0-.36-.73.58.58,0,0,0-.73.35A.57.57,0,0,0,15.29,50.55Zm1.2-3.21.16,0a.58.58,0,0,0,.6-.35h0a.58.58,0,0,0-1.06-.44A.56.56,0,0,0,16.49,47.34ZM12.93,60.54h0a.57.57,0,1,0-.5-.65A.57.57,0,0,0,12.93,60.54ZM61.47,14h.13a.57.57,0,1,0-.13,0Zm-48,43.2h.05a.6.6,0,1,0-.05,0ZM42.8,116.6a.58.58,0,0,0-.78.24.57.57,0,0,0,.25.77h0a.59.59,0,0,0,.19.06.58.58,0,0,0,.58-.31A.57.57,0,0,0,42.8,116.6ZM30.74,109a.57.57,0,0,0,0,.81.59.59,0,0,0,.32.14.57.57,0,0,0,.45-1A.58.58,0,0,0,30.74,109ZM120.1,87.37a.59.59,0,0,0-.75.33h0a.57.57,0,0,0,.33.74l.14,0a.58.58,0,0,0,.6-.36A.57.57,0,0,0,120.1,87.37Zm2-6.55a.58.58,0,0,0-.7.42.57.57,0,0,0,.42.69h.07a.58.58,0,0,0,.63-.43A.57.57,0,0,0,122.1,80.81Zm-3.31,9.73a.58.58,0,0,0-.76.29.57.57,0,0,0,.46.8.58.58,0,0,0,.59-.33A.57.57,0,0,0,118.79,90.54Zm4.49-16.6a.58.58,0,0,0-.64.5s0,0,0,.06v.06a.58.58,0,0,0,1.15.14.31.31,0,0,0,0-.06.33.33,0,0,0,0-.06A.57.57,0,0,0,123.28,73.94Zm-.49,3.52a.57.57,0,1,0-.21,1.12h0a.58.58,0,0,0,.63-.47A.57.57,0,0,0,122.78,77.46ZM103.7,109.59a.57.57,0,0,0-.06.81.59.59,0,0,0,.81.06.57.57,0,0,0,.07-.81A.59.59,0,0,0,103.7,109.59Zm13.58-16a.58.58,0,0,0-.78.23.57.57,0,0,0,.44.84.58.58,0,0,0,.58-.3A.57.57,0,0,0,117.29,93.62Zm-11,13.69h0a.57.57,0,0,0,.34,1,.59.59,0,0,0,.47-.16.57.57,0,1,0-.8-.82Zm4.61-5a.57.57,0,0,0,.09.81.62.62,0,0,0,.3.12.58.58,0,0,0,.52-.21.57.57,0,0,0-.09-.8A.58.58,0,0,0,110.85,102.31Zm-2.23,2.57a.57.57,0,0,0,0,.81.59.59,0,0,0,.82,0h0a.56.56,0,0,0,0-.8A.58.58,0,0,0,108.62,104.88Zm4.3-5.27h0a.57.57,0,0,0,.14.8.55.55,0,0,0,.26.1.57.57,0,0,0,.4-1A.58.58,0,0,0,112.92,99.61Zm2.68-3a.58.58,0,0,0-.79.18.57.57,0,0,0,.42.87.57.57,0,0,0,.56-.27A.57.57,0,0,0,115.6,96.6Zm7.94-26.08a.57.57,0,0,0-.1,1.14h0a.57.57,0,1,0,.07-1.14Zm-7-28.53a.58.58,0,0,0,.35-.07.57.57,0,0,0,.22-.77.57.57,0,0,0-.78-.22.57.57,0,0,0-.23.78A.58.58,0,0,0,116.56,42Zm1.58,3a.58.58,0,0,0,.59-.81.58.58,0,0,0-1,.49A.58.58,0,0,0,118.14,45Zm-3.35-6a.59.59,0,0,0,.38-.09.56.56,0,0,0,.17-.79.58.58,0,0,0-.8-.18.57.57,0,0,0-.18.79A.58.58,0,0,0,114.79,39.05Zm-2-2.83a.59.59,0,0,0,.41-.1.57.57,0,0,0,.12-.8.58.58,0,0,0-.81-.13.57.57,0,0,0-.13.8A.58.58,0,0,0,112.83,36.22Zm6.7,12a.59.59,0,0,0,.28,0,.58.58,0,1,0-.28,0Zm-9.2-14.87a.56.56,0,0,0,.38.21.58.58,0,0,0,.43-.13.57.57,0,0,0,.07-.81.58.58,0,0,0-.81-.07A.57.57,0,0,0,110.34,33.31Zm12.2,27.61a.58.58,0,0,0,.5.49h.14a.58.58,0,0,0,.5-.65.58.58,0,0,0-1.15.15Zm.34,3.37a.58.58,0,0,0,.51.53h.11a.57.57,0,1,0-.62-.53Zm.71,2.81a.58.58,0,0,0-.58.58h0a.57.57,0,0,0,.51.56h.07a.57.57,0,1,0,0-1.14Zm-2.37-12.84a.58.58,0,0,0,.49.42.58.58,0,0,0,.62-.71.58.58,0,0,0-.71-.41A.57.57,0,0,0,121.22,54.27Zm.77,3.31a.58.58,0,0,0,.5.46.57.57,0,1,0-.5-.46Zm-1.26-6.18a.57.57,0,1,0-.48-.39A.58.58,0,0,0,120.72,51.4Zm.48,32.72a.58.58,0,0,0-.72.38.57.57,0,0,0,.38.71l.1,0a.57.57,0,0,0,.24-1.11ZM52.32,120.38a.58.58,0,0,0-.72.39.57.57,0,0,0,.39.71l.1,0a.57.57,0,0,0,.23-1.12Zm3.31.86a.57.57,0,1,0-.26,1.12h.06a.58.58,0,0,0,.63-.44A.57.57,0,0,0,55.62,121.24Zm3.35.66a.57.57,0,1,0-.19,1.13h0A.57.57,0,0,0,59,121.9Zm6.81.69a.57.57,0,0,0-.09,1.14h0a.57.57,0,1,0,0-1.14Zm-3.41-.24a.57.57,0,1,0-.13,1.14h0a.57.57,0,1,0,.12-1.14Zm-25.43-9.22a.59.59,0,0,0-.8.15.57.57,0,0,0,.41.89.58.58,0,0,0,.55-.25.57.57,0,0,0-.15-.79ZM101,111.71a.57.57,0,0,0,.28,1,.57.57,0,0,0,.41-.11.57.57,0,0,0,.11-.8A.58.58,0,0,0,101,111.71ZM39.82,115a.58.58,0,0,0-.79.2.57.57,0,0,0,.2.79.6.6,0,0,0,.23.08.58.58,0,0,0,.56-.27A.57.57,0,0,0,39.82,115Zm9.25,4.36a.57.57,0,1,0-.4,1.07l.13,0a.58.58,0,0,0,.61-.37A.57.57,0,0,0,49.07,119.32Zm-3.18-1.27a.58.58,0,0,0-.76.29.57.57,0,0,0,.3.75l.17,0a.58.58,0,0,0,.59-.34A.57.57,0,0,0,45.89,118.05Zm26.73,4.39a.57.57,0,0,0,0,1.14h.11a.57.57,0,1,0-.1-1.14Zm16.56-4a.57.57,0,0,0,.16,1.09.6.6,0,0,0,.29,0,.57.57,0,0,0,.31-.75A.58.58,0,0,0,89.18,118.44ZM92.3,117a.57.57,0,0,0-.26.77.58.58,0,0,0,1-.51A.58.58,0,0,0,92.3,117ZM86,119.65a.57.57,0,0,0-.36.73.58.58,0,0,0,.48.38.61.61,0,0,0,.25,0,.57.57,0,1,0-.38-1.08Zm9.34-4.21a.57.57,0,0,0-.21.78.58.58,0,0,0,.43.28.58.58,0,0,0,.57-.85A.58.58,0,0,0,95.32,115.44Zm-12.61,5.22a.57.57,0,0,0,.31,1.1h0a.57.57,0,0,0,.4-.71A.58.58,0,0,0,82.71,120.66Zm15.52-7h0a.57.57,0,0,0,.25,1,.57.57,0,0,0,.55-.88A.57.57,0,0,0,98.24,113.66ZM76,122.06h0a.57.57,0,0,0,0,1.14h.15a.57.57,0,1,0-.17-1.13ZM34.18,111.13a.58.58,0,0,0-.81.1.57.57,0,0,0,.39.92.58.58,0,0,0,.52-.22.57.57,0,0,0-.1-.8Zm35,11.5a.57.57,0,0,0-.06,1.14h.08a.57.57,0,1,0,0-1.14Zm10.18-1.16a.57.57,0,0,0-.44.68.57.57,0,0,0,.5.45.58.58,0,0,0,.19,0,.57.57,0,1,0-.24-1.12ZM34.88,52.31H102.7a.57.57,0,1,0,0-1.14H35a.57.57,0,0,0-.07,1.14ZM101.75,92H34a.57.57,0,0,0-.07,1.14h67.82a.57.57,0,1,0,0-1.14ZM64.34,42.63h-1.7a.5.5,0,0,1-.42-.48,1,1,0,0,1,.15-.46l.77-1.62.07-.14a17.89,17.89,0,0,1,6.32,0v-.08l.09.21.74,1.62a1.5,1.5,0,0,1,.19.57c0,.23-.11.38-.3.38H68.86v1.87h6.41V42.64h-.4c-.36,0-.72-.59-1.23-1.68L69,31A7.6,7.6,0,0,1,70,29.7,3.62,3.62,0,0,0,74.48,29c1.46-1.45,1.81-6.21,1.81-6.21a7.48,7.48,0,0,1-2.58.65c-1.5.13-2.88.33-3.69,1.14a3.61,3.61,0,0,0-.86,4.26c.79-1.22,4-3,4-3a18.17,18.17,0,0,0-4.59,4.47H65.77l-5.42,11c-.4.82-.85,1.28-1.47,1.28h-.36V44.5h5.82ZM64,38.26l2.51-5.17,2.31,5.18h0a17.43,17.43,0,0,1-4.83,0Zm5.21,66.27-1.29-3.89-1.26,3.89H62.54l3.35,2.4-1.26,3.89L68,108.42l3.35,2.4L70,106.93l3.33-2.41Zm-38.33,20.1-13.76,43,3.38-.66,13.43-42C32.94,124.87,31.92,124.75,30.89,124.63ZM59.61,139.3c-7.36-.85-12.39-9.66-18.78-12.56a19.21,19.21,0,0,0-4.08-1.26L23.66,166.41l16.53-3.2L52,175.46,63.69,139A11.75,11.75,0,0,1,59.61,139.3ZM108,125.85l12.39,20.08,3.16-.15-14-22.7C109.1,124,108.59,125,108,125.85ZM70.48,136.1l-.9.48c-.86.45-1.71.88-2.57,1.26L54.26,177.75,56.44,180l13.63-42.63,18.32,29.7,1.72-3-17.89-29Zm32.95-5.51c-6.21,3.47-15.49-.65-22.64.77a23.07,23.07,0,0,0-6.1,2.41l17,27.6,8.4-14.46,17.11-.83-11-17.8A10.92,10.92,0,0,1,103.43,130.59Z"/></svg>