<svg id="Layer_1" data-name="Layer 1" xmlns="http://www.w3.org/2000/svg" viewBox="0 0 55.39 73.31"><defs><style>.cls-1{fill:#fff;}</style></defs><title>Artboard 1</title><path class="cls-1" d="M49,30.21A21.49,21.49,0,1,0,25.2,48.9,21.37,21.37,0,0,0,49,30.21ZM25.3,48A20.43,20.43,0,1,1,48.17,30.11,20.49,20.49,0,0,1,25.3,48ZM52.86,30.66c.33-2.84,3-5.74,2.45-8.4s-4.16-4.42-5.53-6.82-.95-6.33-3-8.22-5.93-1.13-8.51-2.3S33.83.36,31,0s-5.57,2.56-8.25,3.09-6.39-1.05-8.82.3S11,8.68,9.05,10.73s-5.78,2.81-7,5.37.76,5.89.43,8.73-3,5.74-2.45,8.4S4.24,37.65,5.6,40s.95,6.33,3,8.22,5.93,1.13,8.51,2.3,4.44,4.56,7.31,4.89S30,52.9,32.68,52.37s6.4,1.05,8.82-.3,2.94-5.27,4.84-7.31,5.78-2.81,7-5.37S52.53,33.5,52.86,30.66Zm-1.32-.15A24,24,0,0,1,3.84,25a24,24,0,0,1,47.7,5.52ZM14.08,23.63a.08.08,0,0,0,0-.08v0a.86.86,0,0,0-.29-.57.92.92,0,0,0-.62-.21h0l-.79.06a4.31,4.31,0,0,0-.75.14q-.31.09-.31.24v0a3.62,3.62,0,0,0,.19.5.22.22,0,0,0,.2.14h0a.14.14,0,0,1,.1.06.36.36,0,0,1,.05.22v0a30.29,30.29,0,0,1-.22,3.56h0a.53.53,0,0,0,.15.28,1,1,0,0,0,.22.22,2.31,2.31,0,0,0,.58.24q.17,0,.17-.2.09-1.32.1-2.3v-.67q0-.14,0-.25,0-.83,0-1.06a.38.38,0,0,1,.07-.23.23.23,0,0,1,.17-.05l.74,0A.49.49,0,0,0,14.08,23.63Zm.64,4.1c0,.08,0,.13,0,.17a.24.24,0,0,0,.1.16,1.55,1.55,0,0,0,.39.24,1,1,0,0,0,.37.1q.19,0,.2-.12a11.11,11.11,0,0,1,.14-1.36.12.12,0,0,1,0-.09l.14,0,.69-.08h.08s.06,0,.07,0a.37.37,0,0,1,0,.12,14.51,14.51,0,0,1,.14,1.45q.06.1.38.2a1.87,1.87,0,0,0,.55.1c.12,0,.18,0,.2-.07q-.3-1.94-.5-3a13.86,13.86,0,0,0-.38-1.64,1.89,1.89,0,0,0-.4-.77.89.89,0,0,0-.56-.23h0q-.17,0-.17.09a.27.27,0,0,0,0,.08l.16.46a.65.65,0,0,0-.29-.08.37.37,0,0,0-.3.19,2.85,2.85,0,0,0-.29.68q-.16.49-.38,1.36A.49.49,0,0,1,15,26a1,1,0,0,1-.28.11.64.64,0,0,0-.33.19,1.26,1.26,0,0,0,.38.66,4.18,4.18,0,0,0-.05.65S14.71,27.65,14.72,27.73Zm1.56-2.59a2.26,2.26,0,0,1,.25-.6,0,0,0,0,1,0,0s0,0,.06.06q.18.83.24,1.33h-.63a.08.08,0,0,1-.09-.09A3.79,3.79,0,0,1,16.27,25.13Zm6.22-.58a1.34,1.34,0,0,0-.08-.44,1.61,1.61,0,0,0-.37-.59,2.07,2.07,0,0,0-.67-.46,2.22,2.22,0,0,0-.9-.18,3,3,0,0,0-1.2.26q-.14.07-.14.16a.77.77,0,0,0,.12.24,3.21,3.21,0,0,1,.25.36.44.44,0,0,1,.05.21v.11q-.07.38-.11.77t-.07.82q0,.43,0,.94,0,.25,0,1v.09a.46.46,0,0,0,.11.34.89.89,0,0,0,.48.15,1.26,1.26,0,0,0,.35.11q.13,0,.14-.15,0-.79,0-2c0-.1,0-.16.05-.16s.13.07.24.21a.47.47,0,0,0,.32.18q.23,0,.71-.51A2.45,2.45,0,0,0,22.49,24.55Zm-1.41.62q-.39.35-.56.35t-.15-.28a3.46,3.46,0,0,1,.1-.67,1.63,1.63,0,0,0,0-.31v-.15c0-.09,0-.14.05-.16a.59.59,0,0,1,.21,0H21q.53,0,.53.38A1.56,1.56,0,0,1,21.08,25.17Zm5.73,3.4q-.3-1.94-.5-3a13.8,13.8,0,0,0-.38-1.64,1.88,1.88,0,0,0-.4-.77.89.89,0,0,0-.56-.23h0q-.16,0-.17.09a.27.27,0,0,0,0,.08l.16.46a.64.64,0,0,0-.29-.08.37.37,0,0,0-.3.19,2.86,2.86,0,0,0-.29.68q-.16.49-.38,1.36a.49.49,0,0,1-.12.3,1,1,0,0,1-.28.11.64.64,0,0,0-.33.19,1.26,1.26,0,0,0,.38.66,4.14,4.14,0,0,0-.05.65s0,.09,0,.16,0,.13,0,.18a.26.26,0,0,0,.1.16,1.55,1.55,0,0,0,.39.24,1,1,0,0,0,.37.1q.19,0,.2-.12a11.14,11.14,0,0,1,.14-1.36.12.12,0,0,1,0-.09.33.33,0,0,1,.14,0l.69-.08h.08s.06,0,.07,0a.36.36,0,0,1,0,.12,14.47,14.47,0,0,1,.14,1.45q.06.1.38.2a1.87,1.87,0,0,0,.55.11Q26.79,28.64,26.82,28.57Zm-2-2.63a.08.08,0,0,1-.09-.09,3.81,3.81,0,0,1,.13-.68,2.26,2.26,0,0,1,.25-.6,0,0,0,0,1,0,0s0,0,.06.06q.18.83.24,1.33Zm5.4,2.31a2.27,2.27,0,0,0,.48.27,1.07,1.07,0,0,0,.34.12q.11,0,.11-.12a1.72,1.72,0,0,0,0-.3,7.44,7.44,0,0,1-.16-1.82q0-.59,0-1.15a8.27,8.27,0,0,1,.1-.84h0a1.3,1.3,0,0,1,0-.19,1.3,1.3,0,0,0,0-.24.63.63,0,0,0-.07-.3q-.38-.64-.64-.64t-.27.62v.06l-.09.74q0,.36-.07.49a.4.4,0,0,1-.06.16.18.18,0,0,1-.11.06l-.34,0-.3,0a.23.23,0,0,1-.17-.06A.29.29,0,0,1,29,25l.08-.72a2.34,2.34,0,0,1,0-.36,2.22,2.22,0,0,0,0-.24.49.49,0,0,0-.11-.29,3,3,0,0,0-.42-.42.47.47,0,0,0-.22-.08c-.08,0-.13,0-.16.14a2.26,2.26,0,0,0-.06.47q0,.32,0,.44t0,.69a4.68,4.68,0,0,1-.05.59.25.25,0,0,1-.11.17,1,1,0,0,1-.31.08q-.16,0-.16.15a.25.25,0,0,0,0,.11l.11.17.11.17a.34.34,0,0,1,0,.12l.21.24a.29.29,0,0,1,0,.16s0,.07,0,.16,0,.28,0,.5A2.38,2.38,0,0,0,28,28a.53.53,0,0,0,.27.32,2.77,2.77,0,0,0,.65.17s.07,0,.07-.12,0-.08,0-.17,0-.18,0-.25v-.17q0-.43,0-.88t0-.51a.46.46,0,0,1,.07-.3.38.38,0,0,1,.27-.08l.4-.05q.31,0,.3.29a.82.82,0,0,1,0,.19q0,.7,0,.87a2.64,2.64,0,0,0,.06.64A.63.63,0,0,0,30.19,28.24Zm4.16-4.4a.13.13,0,0,1,.08,0l.24,0,.44,0q.25,0,.25-.13a.81.81,0,0,0,0-.12,1.16,1.16,0,0,0-.29-.43.63.63,0,0,0-.44-.21h-.2a7.68,7.68,0,0,0-2.16.26.26.26,0,0,0-.19.27.94.94,0,0,0,.05.23.66.66,0,0,0,.19.29.47.47,0,0,0,.32.12l.2,0a1,1,0,0,1,.33-.06c.12,0,.18.07.17.22a2.68,2.68,0,0,1,0,.39q-.08,1.21-.13,2.88c0,.1,0,.18,0,.22a.64.64,0,0,0,.08.34.69.69,0,0,0,.23.22l.42.22a.6.6,0,0,0,.19.06.11.11,0,0,0,.11-.09,1.12,1.12,0,0,0,0-.25c0-.12,0-.25,0-.41s0-.33,0-.52,0-.42,0-.67a19.84,19.84,0,0,1,.19-2.62A.15.15,0,0,1,34.36,23.84Zm4.21,3.4a2.94,2.94,0,0,0,.05.67.63.63,0,0,0,.2.34,2.23,2.23,0,0,0,.48.27,1.29,1.29,0,0,0,.35.13q.1,0,.1-.13s0-.12,0-.3q-.13-.65-.18-1.21a12.76,12.76,0,0,1-.05-1.29v-1q0-.32,0-.74a1,1,0,0,0,.14-.43.51.51,0,0,0-.13-.34.43.43,0,0,0-.31-.18q-.2,0-.44.4l-.48.84-.55,1-.5.9q0-.6,0-1.07a7.74,7.74,0,0,1,.09-.78,3.8,3.8,0,0,0,0-.45.77.77,0,0,0-.11-.41A2.17,2.17,0,0,0,36.9,23a.43.43,0,0,0-.25-.14c-.05,0-.1,0-.12.12a1.46,1.46,0,0,0-.06.35q0,.23,0,.64l0,.67q0,.46-.05.8t0,.67q0,.33,0,.68s0,.07,0,.13,0,.1,0,.13a4.16,4.16,0,0,0,.06.9.54.54,0,0,0,.26.37,2.41,2.41,0,0,0,.66.19h0a.05.05,0,0,0,.06-.06s0-.07,0-.15,0-.15,0-.21a5.91,5.91,0,0,1,.48-1.3q.17-.29.41-.79a7.22,7.22,0,0,1,.46-.81q-.05.71-.06,1.07s0,.05,0,.09,0,.07,0,.1,0,.28,0,.44S38.57,27.15,38.57,27.24Zm5.55-4.43-.6,0a4.33,4.33,0,0,0-1.09.13,2.09,2.09,0,0,0-.84.49,1.91,1.91,0,0,0-.56.89.82.82,0,0,0-.05.29,1.19,1.19,0,0,0,.31.79,1.62,1.62,0,0,0,.74.51,5.12,5.12,0,0,0-.79.73,4.37,4.37,0,0,0-.63.87l-.12.19-.08.15a.28.28,0,0,0,0,.11q0,.15.51.45a.84.84,0,0,0,.4.18.19.19,0,0,0,.17-.09,2.88,2.88,0,0,0,.17-.35,5.34,5.34,0,0,1,.31-.68q.19-.36.41-.68t.45-.62Q43,26,43,26t.1.26v.21s0,.1,0,.19,0,.15,0,.18q0,.3,0,.69t0,.5v.14a.34.34,0,0,0,.2.32,2.64,2.64,0,0,0,.56.19h.2a.21.21,0,0,0,.19-.09.63.63,0,0,0,.06-.31,12.53,12.53,0,0,1-.17-2.38,19.6,19.6,0,0,1,.1-2c0-.13,0-.21.1-.23l.2-.08q.11,0,.15-.26a.43.43,0,0,0,0-.1Q44.75,22.88,44.12,22.81Zm-.83,1.31q0,.27-.08,1.06a1.69,1.69,0,0,1-.68.16.57.57,0,0,1-.41-.15.43.43,0,0,1-.13-.31,1,1,0,0,1,.12-.41,1.46,1.46,0,0,1,.3-.4,1.91,1.91,0,0,1,.38-.31,1.19,1.19,0,0,1,.6-.14A2.51,2.51,0,0,0,43.29,24.12ZM18.43,32.85q0,.69-.09,1.32t-.09.94v0a.3.3,0,0,0,.06.18l.1.11a1.72,1.72,0,0,0,.63.38l.06,0a.07.07,0,0,0,.07,0l.1-.27s0,0,0,0a.14.14,0,0,1,.09,0,1,1,0,0,0,.64.32q.36,0,.9-.61a1.53,1.53,0,0,0,.37-1,1.6,1.6,0,0,0-.13-.64,1.28,1.28,0,0,0-.38-.51s-.07-.05-.07-.07l0-.05a1.53,1.53,0,0,0,.49-1.09A1.41,1.41,0,0,0,21,31a1.82,1.82,0,0,0-.71-.61,2.27,2.27,0,0,0-1-.23,3.32,3.32,0,0,0-1.39.32.2.2,0,0,0-.11.18.8.8,0,0,0,.07.28,1.15,1.15,0,0,0,.25.39.5.5,0,0,0,.3.12q.11,0,.1.1v0Q18.47,32.16,18.43,32.85Zm1.46-1.69a.45.45,0,0,1,.48.31.4.4,0,0,1,0,.1.87.87,0,0,1-.19.48,1.52,1.52,0,0,1-.5.45l-.13,0c-.08,0-.11,0-.11-.15v-.24a2.27,2.27,0,0,0-.15-.9Zm-.48,2.31c0-.07.05-.11.14-.11h.22c.28,0,.52.11.56.37,0,0,0,0,0,.06a.62.62,0,0,1,0,.07,1.05,1.05,0,0,1-.13.49,1.28,1.28,0,0,1-.31.4.56.56,0,0,1-.34.15q-.2,0-.25-.25Zm3,2.25a1.87,1.87,0,0,0,.33.09,1,1,0,0,0,.32.07c.11,0,.17,0,.17-.09v0l.17-2.19c0-.06,0-.1,0-.1a.1.1,0,0,1,.07,0l.06.07a6.4,6.4,0,0,0,.3.7q.18.36.4.7a6.92,6.92,0,0,0,.43.61,4.48,4.48,0,0,0,.43.47.58.58,0,0,0,.39.15.64.64,0,0,0,.21,0l.19-.08.13-.07c.07,0,.11,0,.11-.08a.24.24,0,0,0-.07-.12l-.71-.8a4.7,4.7,0,0,1-.45-.63l-.37-.63a3.62,3.62,0,0,0-.25-.39.2.2,0,0,1,0-.09s0-.08.1-.13a3.3,3.3,0,0,0,.71-.82,4.3,4.3,0,0,0,.49-1,.64.64,0,0,0,0-.21.39.39,0,0,0-.08-.24,2.31,2.31,0,0,0-.3-.31.4.4,0,0,0-.22-.11.08.08,0,0,0-.07,0l0,.05a13.16,13.16,0,0,1-.61,1.23,3.24,3.24,0,0,1-.66.79.13.13,0,0,1-.1,0c-.06,0-.09,0-.09-.14v-.05L23.51,31a.36.36,0,0,0,0-.16.47.47,0,0,0-.14-.11,3.07,3.07,0,0,0-.5-.25l-.16,0c-.08,0-.13.09-.15.27q0,1.28-.13,2.47t-.18,1.8s0,.11,0,.18,0,.13,0,.15a.66.66,0,0,0,0,.3A.3.3,0,0,0,22.42,35.72Zm4.67-.42a.26.26,0,0,0-.09.17q0,.21.5.58a.6.6,0,0,0,.28.14.23.23,0,0,0,.17-.09,2,2,0,0,0,.21-.29,24.44,24.44,0,0,0,1.09-2.23A12.55,12.55,0,0,0,30,31.34v0a1.1,1.1,0,0,0-.12-.5.89.89,0,0,0-.25-.34.7.7,0,0,0-.39-.17q-.17,0-.19.22-.15.86-.27,1.38a6.9,6.9,0,0,1-.29.94.16.16,0,0,1-.16.09q-.12,0-.19-.17a9.17,9.17,0,0,1-.55-2.09.82.82,0,0,0-.15-.36.29.29,0,0,0-.22-.1h-.1q-.54.18-.54.45s0,.06,0,.15q.26,1,.44,1.62a3.77,3.77,0,0,0,.38.88.8.8,0,0,0,.45.37.18.18,0,0,1,.16.18A.81.81,0,0,1,28,34,6.48,6.48,0,0,1,27.09,35.3Zm6.19-3.24a.86.86,0,0,0,.25,0,.42.42,0,0,0,.33-.12.49.49,0,0,0,.11-.33,1.32,1.32,0,0,0-.12-.51,1.94,1.94,0,0,0-.31-.51,1,1,0,0,0-.4-.31,1.33,1.33,0,0,0-.41-.07,1.36,1.36,0,0,0-.62.16,2,2,0,0,0-.59.46,2.88,2.88,0,0,0-.48.73,3.83,3.83,0,0,0-.29,1q0,.38,0,.61a3.34,3.34,0,0,0,.53,2,1.7,1.7,0,0,0,1.46.76h.09a.79.79,0,0,0,.44-.2,1.52,1.52,0,0,0,.38-.47,1.54,1.54,0,0,0,.22-.69,1,1,0,0,0-.19-.55.57.57,0,0,0-.19-.18.43.43,0,0,0-.22-.07q-.26,0-.31.36a1.72,1.72,0,0,1-.14.45,1.37,1.37,0,0,1-.23.36.35.35,0,0,1-.24.14q-.12,0-.21-.18a3.06,3.06,0,0,1-.27-1.34,4.23,4.23,0,0,1,.24-1.41,2,2,0,0,1,.65-1l.1,0q.25,0,.24.73v0C33.05,32,33.13,32,33.28,32.06ZM35,35.25q0,.11,0,.18a.26.26,0,0,0,.1.16,1.56,1.56,0,0,0,.39.24,1,1,0,0,0,.37.1c.13,0,.19,0,.2-.12a11.14,11.14,0,0,1,.14-1.36.12.12,0,0,1,0-.09.32.32,0,0,1,.13,0l.69-.08h.08s.06,0,.07,0a.38.38,0,0,1,0,.12,14.49,14.49,0,0,1,.14,1.45q.06.1.38.2a1.87,1.87,0,0,0,.55.11c.12,0,.18,0,.2-.07q-.3-1.94-.5-3a13.81,13.81,0,0,0-.38-1.64,1.88,1.88,0,0,0-.4-.77.89.89,0,0,0-.56-.23h0q-.16,0-.17.09a.28.28,0,0,0,0,.08l.16.46a.65.65,0,0,0-.29-.08.37.37,0,0,0-.3.19,2.87,2.87,0,0,0-.29.68q-.16.49-.38,1.36a.49.49,0,0,1-.12.3,1,1,0,0,1-.28.11.64.64,0,0,0-.33.19,1.26,1.26,0,0,0,.38.66,4.18,4.18,0,0,0-.05.65S35,35.18,35,35.25Zm1.55-2.59a2.27,2.27,0,0,1,.25-.6,0,0,0,0,1,0,0s0,0,.06.06q.18.83.24,1.33h-.63a.08.08,0,0,1-.09-.09A3.81,3.81,0,0,1,36.5,32.67ZM8.85,40.18a.23.23,0,0,0-.06.32.24.24,0,0,0,.33.06.23.23,0,0,0,.06-.32A.24.24,0,0,0,8.85,40.18ZM7.43,37.77a.23.23,0,0,0-.1.31.24.24,0,0,0,.32.1.23.23,0,0,0,.1-.31A.23.23,0,0,0,7.43,37.77ZM5.27,24.66h0a.23.23,0,1,0-.2-.27A.23.23,0,0,0,5.27,24.66ZM5.11,26h0a.24.24,0,0,0,.26-.21.23.23,0,1,0-.26.21ZM9.67,41.32a.23.23,0,0,0,0,.33.24.24,0,0,0,.33,0,.23.23,0,0,0,0-.33A.24.24,0,0,0,9.67,41.32Zm.89,1.08a.23.23,0,0,0,0,.33.24.24,0,0,0,.15.08.23.23,0,0,0,.18-.06.23.23,0,0,0,0-.33A.24.24,0,0,0,10.55,42.4Zm-3.4-5.78a.24.24,0,0,0-.31-.12.23.23,0,0,0-.12.31.23.23,0,0,0,.19.14.24.24,0,0,0,.12,0,.23.23,0,0,0,.12-.31Zm-2-6.4a.23.23,0,1,0,0-.46.23.23,0,0,0-.21.25.23.23,0,0,0,.21.21Zm1.15,5a.23.23,0,0,0-.14.3.24.24,0,0,0,.19.15h.11a.23.23,0,1,0-.16-.44ZM5,27.44H5a.23.23,0,0,0,.24-.23h0a.24.24,0,1,0-.26.23Zm0,1.4a.23.23,0,0,0,.23-.24.23.23,0,0,0-.24-.23.23.23,0,0,0,0,.46Zm.5,2.51a.24.24,0,1,0-.26.27h.07A.23.23,0,0,0,5.58,31.34Zm.33,2.54a.23.23,0,0,0-.16.29.24.24,0,0,0,.2.17H6A.23.23,0,0,0,6.2,34,.24.24,0,0,0,5.9,33.87Zm-.06-1.18a.23.23,0,0,0-.28-.17.23.23,0,0,0,0,.46h.08A.23.23,0,0,0,5.84,32.69Zm5.56-20.33a.24.24,0,0,0,.2-.07.23.23,0,0,0,0-.33.24.24,0,0,0-.33,0,.23.23,0,0,0,0,.33A.24.24,0,0,0,11.41,12.36Zm23.31-5.7h0A.23.23,0,0,0,35,6.51a.23.23,0,0,0-.15-.29.23.23,0,0,0-.3.15A.23.23,0,0,0,34.72,6.66ZM32,6h0a.23.23,0,0,0,.07-.46A.23.23,0,1,0,32,6Zm-1.37-.22h0a.23.23,0,1,0-.2-.26A.23.23,0,0,0,30.65,5.74Zm2.73.53h0a.23.23,0,1,0-.2-.29A.23.23,0,0,0,33.38,6.27ZM29.25,5.6h0A.23.23,0,1,0,29,5.35.23.23,0,0,0,29.26,5.6ZM25,5.69h.05a.23.23,0,1,0-.05,0Zm-1.39.2h.07a.23.23,0,0,0,.19-.27.23.23,0,0,0-.27-.19h0a.23.23,0,0,0,0,.46Zm2.79-.32h0a.23.23,0,0,0,.22-.24.24.24,0,1,0-.26.24Zm1.41,0h0a.23.23,0,1,0-.23-.24A.23.23,0,0,0,27.87,5.54Zm16.31,7.07a.23.23,0,0,0,.19-.06.23.23,0,0,0,0-.33.24.24,0,0,0-.33,0,.23.23,0,0,0,0,.33A.24.24,0,0,0,44.16,12.61Zm-2-1.91a.24.24,0,0,0,.21-.08.23.23,0,0,0,0-.33.24.24,0,0,0-.33,0,.23.23,0,0,0,0,.33A.22.22,0,0,0,42.11,10.7ZM41,9.84a.24.24,0,0,0,.22-.09.23.23,0,0,0-.05-.33.24.24,0,0,0-.33.05.23.23,0,0,0,.05.33A.24.24,0,0,0,41,9.84Zm2.16,1.78a.24.24,0,0,0,.2-.07.23.23,0,0,0,0-.33.23.23,0,0,0-.33,0,.23.23,0,0,0,.14.39ZM22.26,6.18h.08a.23.23,0,0,0,.17-.28.24.24,0,0,0-.29-.17.23.23,0,0,0-.17.28A.24.24,0,0,0,22.26,6.18ZM36,7.13l.06,0a.23.23,0,0,0,.11-.45.24.24,0,0,0-.31.13A.23.23,0,0,0,36,7.13Zm1.35.57a.23.23,0,0,0,.24-.13.23.23,0,0,0-.11-.31.23.23,0,1,0-.2.42Zm2.46,1.35A.23.23,0,0,0,40,8.63a.24.24,0,0,0-.33.07.23.23,0,0,0,.07.32Zm-1.21-.71A.23.23,0,1,0,38.45,8a.23.23,0,0,0,.09.32ZM8.77,15.61a.24.24,0,0,0,.22-.1.23.23,0,0,0-.07-.32.24.24,0,0,0-.33.07.23.23,0,0,0,.07.32ZM7.36,18a.23.23,0,0,0,.24-.13.23.23,0,0,0-.11-.31.24.24,0,0,0-.31.11h0a.23.23,0,0,0,.11.31ZM8,16.8a.23.23,0,0,0,.23-.12.23.23,0,0,0-.09-.32.24.24,0,0,0-.32.09.23.23,0,0,0,.09.32ZM5.5,23.28h0a.23.23,0,1,0-.2-.28A.23.23,0,0,0,5.52,23.29Zm4.08-8.81a.24.24,0,0,0,.22-.09.23.23,0,0,0,0-.33.24.24,0,0,0-.33,0,.23.23,0,0,0,0,.33A.22.22,0,0,0,9.58,14.48Zm.88-1.09a.24.24,0,0,0,.21-.08.23.23,0,0,0,0-.33.24.24,0,0,0-.33,0,.23.23,0,0,0,0,.33A.24.24,0,0,0,10.46,13.39ZM7,19.15H7Zm-.8,1.43h0a.24.24,0,0,0,.25-.16.23.23,0,0,0-.15-.3.24.24,0,0,0-.3.14A.23.23,0,0,0,6.23,20.59Zm-.41,1.34h0a.23.23,0,0,0,.25-.17.23.23,0,0,0-.16-.29.23.23,0,1,0-.13.45Zm1-2.63A.24.24,0,0,0,7,19.15.23.23,0,0,0,6.59,19a.23.23,0,0,0,.12.3Zm7.83-9.65a.23.23,0,0,0,.16,0,.23.23,0,0,0,.06-.32.24.24,0,0,0-.33-.06.23.23,0,0,0-.06.32A.23.23,0,0,0,14.62,9.64ZM17,8.18a.24.24,0,0,0,.14,0,.23.23,0,0,0,.1-.32.24.24,0,0,0-.32-.1.23.23,0,0,0-.1.32A.24.24,0,0,0,17,8.18ZM11.5,43.43a.23.23,0,0,0,.14.4.24.24,0,0,0,.19-.07.23.23,0,0,0,0-.33A.24.24,0,0,0,11.5,43.43ZM19.57,7h.11a.23.23,0,1,0-.17-.43.23.23,0,0,0,.06.45ZM15.79,8.87a.24.24,0,0,0,.15,0A.23.23,0,0,0,16,8.52a.24.24,0,0,0-.32-.08.23.23,0,0,0,.1.43Zm2.48-1.31a.25.25,0,0,0,.12,0h0a.23.23,0,0,0,.12-.31.24.24,0,0,0-.31-.12.23.23,0,0,0-.12.31A.24.24,0,0,0,18.27,7.56Zm2.63-1H21a.23.23,0,1,0-.14-.44.23.23,0,0,0,0,.45Zm-8.63,4.75a.24.24,0,0,0,.15.07.23.23,0,0,0,.2-.39.24.24,0,0,0-.33,0h0A.23.23,0,0,0,12.27,11.31Zm1.22-.83a.24.24,0,0,0,.17,0,.23.23,0,0,0,0-.33.24.24,0,0,0-.33,0,.23.23,0,0,0,.12.41ZM8.1,39a.23.23,0,0,0-.08.32.24.24,0,0,0,.18.11.24.24,0,0,0,.23-.35A.24.24,0,0,0,8.1,39Zm41.26-4.74a.23.23,0,0,0-.29.15.23.23,0,0,0,.15.29h0a.23.23,0,0,0,.1-.45ZM48.07,37a.23.23,0,0,0,.12.31l.07,0a.24.24,0,0,0,.24-.13.23.23,0,0,0-.12-.31A.24.24,0,0,0,48.07,37Zm-5.83,7.64a.23.23,0,0,0,0,.33.24.24,0,0,0,.33,0,.23.23,0,0,0,0-.33A.24.24,0,0,0,42.24,44.63Zm6.68-9a.24.24,0,0,0-.3.13h0a.23.23,0,0,0,.14.3l.06,0a.24.24,0,0,0,.25-.15A.23.23,0,0,0,48.91,35.58Zm1.29-5.47a.24.24,0,0,0-.26.2v0a.24.24,0,0,0,.47.06.11.11,0,0,0,0,0v0A.23.23,0,0,0,50.21,30.11ZM50,31.55a.23.23,0,1,0-.08.46h0a.24.24,0,0,0,.26-.19A.23.23,0,0,0,50,31.55Zm.31-2.82a.23.23,0,0,0,0,.47h0a.23.23,0,1,0,0-.47Zm-6.08,14a.23.23,0,0,0,0,.33.24.24,0,0,0,.33,0h0a.23.23,0,0,0,0-.33A.24.24,0,0,0,44.24,42.72Zm.91-1a.23.23,0,0,0,0,.33.25.25,0,0,0,.12,0,.23.23,0,0,0,.21-.08.23.23,0,0,0,0-.33A.24.24,0,0,0,45.15,41.67Zm2.3-3.44a.23.23,0,0,0,.09.32l.08,0a.24.24,0,0,0,.23-.12.23.23,0,0,0-.1-.32A.24.24,0,0,0,47.45,38.23Zm-4.18,5.48h0a.23.23,0,0,0,.14.4A.24.24,0,0,0,43.6,44a.23.23,0,0,0,0-.33A.23.23,0,0,0,43.27,43.71Zm-30.75.69a.23.23,0,0,0,0,.33.24.24,0,0,0,.13.06.23.23,0,0,0,.18-.41A.24.24,0,0,0,12.52,44.4Zm34.24-5a.23.23,0,0,0,.08.32l.1,0a.23.23,0,0,0,.23-.11.23.23,0,0,0-.08-.32A.24.24,0,0,0,46.76,39.42Zm3-6.51a.24.24,0,0,0-.28.17.23.23,0,0,0,.17.28h0a.24.24,0,0,0,.26-.18A.23.23,0,0,0,49.73,32.91Zm-3-17a.24.24,0,0,0,.15,0,.23.23,0,0,0,.07-.32.24.24,0,0,0-.32-.07.23.23,0,0,0-.07.32A.24.24,0,0,0,46.75,15.9Zm.72,1.2a.24.24,0,0,0,.14,0,.23.23,0,0,0,.09-.32.23.23,0,0,0-.41.23A.24.24,0,0,0,47.47,17.1Zm.65,1.24a.23.23,0,0,0,.24-.33.23.23,0,0,0-.42.2A.24.24,0,0,0,48.12,18.34Zm.57,1.28.11,0a.24.24,0,1,0-.11,0Zm-3.75-6.05a.23.23,0,0,0,.15.08.24.24,0,0,0,.18-.05.23.23,0,0,0,0-.33.24.24,0,0,0-.33,0A.23.23,0,0,0,44.94,13.57Zm1,1.18a.24.24,0,0,0,.17,0,.23.23,0,0,0,.05-.33.24.24,0,0,0-.33-.05.23.23,0,0,0-.05.33A.23.23,0,0,0,46,14.75Zm4.38,12.58a.23.23,0,0,0-.23.23h0a.23.23,0,0,0,.21.23h0a.23.23,0,1,0,0-.47ZM50,26.18a.24.24,0,0,0,.21.22h0a.23.23,0,1,0-.25-.22Zm-.88-5.25h.1a.23.23,0,1,0-.3-.15A.24.24,0,0,0,49.17,20.93Zm.74,3.88a.23.23,0,0,0,.21.2h.06a.24.24,0,0,0,.2-.26.24.24,0,0,0-.47.06Zm-.23-1.36a.24.24,0,0,0,.2.19H50a.23.23,0,1,0-.28-.18Zm-.31-1.35a.23.23,0,0,0,.2.17h.09a.23.23,0,0,0,.17-.28.24.24,0,0,0-.29-.17A.23.23,0,0,0,49.37,22.1ZM46,40.57h0a.23.23,0,0,0,.06.33.22.22,0,0,0,.11,0,.23.23,0,0,0,.16-.42A.24.24,0,0,0,46,40.57ZM22.65,49.38a.23.23,0,1,0-.11.45h0a.24.24,0,0,0,.26-.18A.23.23,0,0,0,22.65,49.38ZM21.31,49a.24.24,0,0,0-.29.16.23.23,0,0,0,.16.29h0a.23.23,0,0,0,.1-.46ZM20,48.6a.23.23,0,1,0-.16.44h.05a.24.24,0,0,0,.25-.15A.23.23,0,0,0,20,48.6Zm6.81,1.33a.23.23,0,0,0,0,.46h0a.23.23,0,1,0,0-.47ZM24,49.65a.23.23,0,1,0-.08.46h0a.23.23,0,0,0,.06-.46Zm1.38.18a.23.23,0,1,0-.05.46h0a.23.23,0,1,0,0-.46ZM15,46.08a.24.24,0,0,0-.33.06.23.23,0,0,0,.06.32l.1,0a.23.23,0,0,0,.22-.1.23.23,0,0,0-.06-.32Zm-1.12-.82a.24.24,0,0,0-.33,0,.23.23,0,0,0,0,.33.23.23,0,0,0,.29-.37Zm4.46,2.94a.23.23,0,0,0,.12.31l.07,0a.23.23,0,0,0,.24-.14.23.23,0,0,0-.12-.31A.24.24,0,0,0,18.38,48.2ZM15.9,46.9a.23.23,0,0,0,.08.32l.09,0a.24.24,0,0,0,.23-.11.23.23,0,0,0-.4-.24Zm1.22.69a.23.23,0,0,0,.1.31h0l.08,0a.23.23,0,0,0,.24-.12.23.23,0,0,0-.1-.31A.24.24,0,0,0,17.12,47.59ZM38.82,47a.23.23,0,0,0-.09.32.24.24,0,0,0,.18.11.23.23,0,0,0,.23-.35A.24.24,0,0,0,38.82,47Zm-2.5,1.22a.23.23,0,0,0,.06.45l.12,0a.23.23,0,0,0,.13-.3A.24.24,0,0,0,36.32,48.24Zm1.27-.57a.23.23,0,0,0-.11.31.23.23,0,0,0,.18.13.23.23,0,0,0,.13,0,.23.23,0,0,0,.11-.31A.24.24,0,0,0,37.59,47.66ZM35,48.73a.23.23,0,0,0,.05.45h.1a.23.23,0,1,0-.15-.44Zm5-2.44h0a.23.23,0,0,0,.1.43.23.23,0,0,0,.22-.36A.23.23,0,0,0,40,46.29Zm1.14-.79a.23.23,0,0,0,.11.42.23.23,0,0,0,.17,0,.23.23,0,0,0,0-.33A.24.24,0,0,0,41.15,45.5Zm-7.46,3.65a.23.23,0,0,0,0,.46h.09A.23.23,0,0,0,34,49.3.24.24,0,0,0,33.69,49.14Zm-1.35.33a.23.23,0,0,0-.18.28.23.23,0,0,0,.2.18h.08a.23.23,0,1,0-.1-.45Zm-2.76.4a.23.23,0,0,0,0,.46h0a.23.23,0,1,0,0-.46Zm-1.39.07a.23.23,0,0,0,0,.46h0a.23.23,0,1,0,0-.47ZM31,49.71h0a.23.23,0,0,0,0,.46H31a.23.23,0,1,0-.07-.46ZM14.21,21.31H41.83a.23.23,0,1,0,0-.47H14.23a.23.23,0,0,0,0,.46ZM41.44,37.47H13.85a.23.23,0,0,0,0,.46H41.44a.23.23,0,1,0,0-.47ZM26.2,17.36h-.69a.2.2,0,0,1-.17-.2A.42.42,0,0,1,25.4,17l.31-.66,0-.06a7.29,7.29,0,0,1,2.57,0v0l0,.09.3.66a.61.61,0,0,1,.08.23c0,.09,0,.15-.12.15H28v.76h2.61v-.76h-.16c-.15,0-.29-.24-.5-.69L28.1,12.63a3.09,3.09,0,0,1,.39-.53,1.47,1.47,0,0,0,1.85-.28,5.52,5.52,0,0,0,.74-2.53A3,3,0,0,1,30,9.55a2.44,2.44,0,0,0-1.5.46,1.47,1.47,0,0,0-.35,1.73,6.32,6.32,0,0,1,1.64-1.21,7.4,7.4,0,0,0-1.87,1.82H26.79l-2.21,4.48c-.16.33-.35.52-.6.52h-.15v.76H26.2Zm-.14-1.78,1-2.11L28,15.58h0a7.09,7.09,0,0,1-2,0Zm2.12,27L27.67,41l-.52,1.59H25.47l1.36,1-.52,1.59,1.36-1,1.36,1-.52-1.58,1.36-1ZM12.58,50.76,7,68.29,8.36,68l5.47-17.11Zm11.69,6c-3-.35-5-3.93-7.65-5.12A7.83,7.83,0,0,0,15,51.1L9.64,67.77l6.73-1.3,4.83,5,4.75-14.85A4.78,4.78,0,0,1,24.28,56.73ZM44,51.26l5,8.18,1.29-.06-5.7-9.25C44.43,50.52,44.23,50.9,44,51.26Zm-15.3,4.17-.37.2c-.35.18-.7.36-1,.51L22.1,72.39l.89.92L28.54,56,36,68l.7-1.21L29.42,55Zm13.42-2.24c-2.53,1.41-6.31-.26-9.22.31a9.39,9.39,0,0,0-2.48,1l6.93,11.24,3.42-5.89,7-.34-4.47-7.25A4.45,4.45,0,0,1,42.13,53.19Z"/></svg>