<?xml version="1.0" encoding="UTF-8"?>
<svg width="86px" height="28px" viewBox="0 0 86 28" version="1.1" xmlns="http://www.w3.org/2000/svg" xmlns:xlink="http://www.w3.org/1999/xlink">
    <!-- Generator: Sketch 42 (36781) - http://www.bohemiancoding.com/sketch -->
    <title>Fill 1</title>
    <desc>Created with Sketch.</desc>
    <defs></defs>
    <g id="Page-1" stroke="none" stroke-width="1" fill="none" fill-rule="evenodd">
        <g id="DESIGN-Cart-Popover-Copy" transform="translate(-322.000000, -764.000000)" fill="#F8E81C">
            <g id="Popover" transform="translate(190.000000, 710.000000)">
                <path d="M186.143936,54.8210557 C195.758379,55.4037027 205.285896,55.0752782 214.83972,55.3114341 C216.501602,55.3520839 217.314816,55.2830438 217.628206,56.6070654 C218.156623,58.8460298 218.375081,60.3352316 216.509609,62.6342029 C216.143606,63.0865124 215.737571,63.5304339 215.299511,63.9620959 C213.227019,66.0055542 212.214792,68.3187207 211.915127,70.5525233 C211.53883,73.3444539 210.274975,75.9970138 209.441175,78.7134519 C208.762925,80.9227356 207.250875,81.3685928 202.827957,81.1692152 C199.421841,81.0150041 195.975694,81.138244 192.546702,81.138244 C189.117711,81.138244 185.501144,81.5240943 182.314629,81.0291993 C179.160141,80.5394662 176.128034,80.5117211 173.020439,80.5201091 C171.246468,80.525271 169.541123,80.4000955 167.650488,81.0001637 C166.141869,81.4789279 163.491779,81.2595481 161.698364,80.8549859 C160.387615,80.5594684 159.212974,80.5168829 157.96742,80.5065592 C153.777829,80.4717165 149.580231,80.5755993 145.398646,80.4678451 C141.926192,80.3775122 138.466319,80.0929637 135.017884,79.8206747 C134.386529,79.7709916 133.450934,79.4193387 133.323977,79.1173688 C132.790985,77.8546445 130.980413,76.651927 132.776116,75.2324106 C133.510409,74.6529899 135.036185,73.9141961 132.985424,73.1670143 C133.41319,72.2178741 133.830662,71.2674433 134.274441,70.3215292 C134.384242,70.0866638 134.830308,69.7498513 134.6942,69.6543565 C133.384596,68.7342518 134.174934,68.0567554 134.998441,67.1508458 C135.864267,66.1984794 135.739597,64.9744692 136.30347,63.9124128 C136.59856,63.3562205 137.536443,62.9181061 138.000809,62.3767542 C138.267305,62.0651058 138.465176,61.4456805 138.186098,61.317924 C135.296962,59.9971286 135.638946,58.2504782 136.788424,56.7174005 C138.418282,54.5448952 140.724101,53.6693117 146.042583,54.1112975 C159.040266,55.1914204 172.693324,54.0041886 186.143936,54.8210557 Z" id="Fill-1"></path>
            </g>
        </g>
    </g>
</svg>