<svg id="SvgjsSvg1011" xmlns="http://www.w3.org/2000/svg" version="1.1" xmlns:xlink="http://www.w3.org/1999/xlink" xmlns:svgjs="http://svgjs.com/svgjs" width="22" height="22" viewBox="0 0 22 22"><title>Close copy</title><desc>Created with Avocode.</desc><defs id="SvgjsDefs1012"></defs><path id="SvgjsPath1013" d="M1438.39 239.394C1438.7800000000002 239.00300000000001 1439.42 239.00300000000001 1439.8100000000002 239.394L1449.0000000000002 248.58307L1458.1900000000003 239.394C1458.5800000000004 239.00300000000001 1459.2200000000003 239.00300000000001 1459.6100000000004 239.394C1460.0000000000005 239.784 1460.0000000000005 240.417 1459.6100000000004 240.808L1450.4173000000003 250.00023L1459.6100000000004 259.192C1460.0000000000005 259.583 1460.0000000000005 260.216 1459.6100000000004 260.607C1459.2200000000003 260.997 1458.5800000000004 260.997 1458.1900000000003 260.607L1449.0000000000002 251.41746000000003L1439.8100000000002 260.607C1439.42 260.997 1438.7800000000002 260.997 1438.39 260.607C1438 260.216 1438 259.583 1438.39 259.192L1447.5827000000002 250.00023000000002L1438.39 240.80800000000002C1438 240.41700000000003 1438 239.78400000000002 1438.39 239.39400000000003Z " fill="#e5cfb1" fill-opacity="1" transform="matrix(1,0,0,1,-1438,-239)"></path></svg>