<svg id="SvgjsSvg1000" xmlns="http://www.w3.org/2000/svg" version="1.1" xmlns:xlink="http://www.w3.org/1999/xlink" xmlns:svgjs="http://svgjs.com/svgjs" width="28" height="41" viewBox="0 0 28 41"><title>Фигура 22</title><desc>Created with Avocode.</desc><defs id="SvgjsDefs1001"></defs><path id="SvgjsPath1007" d="M880.013 487.004L888.0060000000001 487.004L888.0060000000001 483.672C888.0060000000001 478.886 884.0970000000001 474.992 879.2930000000001 474.992L868.0000000000001 474.992L868.0000000000001 470L865.0000000000001 470L865.0000000000001 488L868.0000000000001 488L868.0000000000001 482.987L879.1680000000001 482.987C879.6340000000001 482.987 880.0130000000001 483.365 880.0130000000001 483.829ZM883.867 500.424C886.1139999999999 500.424 887.943 498.59499999999997 887.943 496.34799999999996C887.943 494.36599999999993 885.091 490.70199999999994 884.519 489.98799999999994L883.867 489.17299999999994L883.2149999999999 489.98799999999994C882.6429999999999 490.70199999999994 879.7909999999999 494.36599999999993 879.7909999999999 496.34799999999996C879.7909999999999 498.59499999999997 881.6189999999999 500.424 883.867 500.424ZM878.867 510.424C881.1139999999999 510.424 882.943 508.59499999999997 882.943 506.34799999999996C882.943 504.36599999999993 880.091 500.70199999999994 879.519 499.98799999999994L878.867 499.17299999999994L878.2149999999999 499.98799999999994C877.6429999999999 500.70199999999994 874.7909999999999 504.36599999999993 874.7909999999999 506.34799999999996C874.7909999999999 508.59499999999997 876.6189999999999 510.424 878.867 510.424ZM888.867 510.424C891.1139999999999 510.424 892.943 508.59499999999997 892.943 506.34799999999996C892.943 504.36599999999993 890.091 500.70199999999994 889.519 499.98799999999994L888.867 499.17299999999994L888.2149999999999 499.98799999999994C887.6429999999999 500.70199999999994 884.7909999999999 504.36599999999993 884.7909999999999 506.34799999999996C884.7909999999999 508.59499999999997 886.6189999999999 510.424 888.867 510.424ZM883.867 491.885C885.019 493.455 886.2719999999999 495.486 886.2719999999999 496.348C886.2719999999999 497.67400000000004 885.193 498.753 883.867 498.753C882.5409999999999 498.753 881.462 497.674 881.462 496.348C881.462 495.48400000000004 882.7139999999999 493.454 883.867 491.885ZM878.867 501.885C880.019 503.454 881.2719999999999 505.486 881.2719999999999 506.348C881.2719999999999 507.67400000000004 880.193 508.753 878.867 508.753C877.5409999999999 508.753 876.462 507.674 876.462 506.348C876.462 505.48400000000004 877.7139999999999 503.45300000000003 878.867 501.885ZM888.867 501.885C890.019 503.454 891.2719999999999 505.486 891.2719999999999 506.348C891.2719999999999 507.67400000000004 890.193 508.753 888.867 508.753C887.5409999999999 508.753 886.462 507.674 886.462 506.348C886.462 505.48400000000004 887.7139999999999 503.45300000000003 888.867 501.885Z " fill="#e5cfb1" fill-opacity="1" transform="matrix(1,0,0,1,-865,-470)"></path></svg>