<?xml version="1.0" encoding="UTF-8"?>
<svg width="12px" height="12px" viewBox="0 0 12 12" version="1.1" xmlns="http://www.w3.org/2000/svg" xmlns:xlink="http://www.w3.org/1999/xlink">
    <!-- Generator: Sketch 42 (36781) - http://www.bohemiancoding.com/sketch -->
    <title>Ne_Ok</title>
    <desc>Created with Sketch.</desc>
    <defs></defs>
    <g id="Symbols" stroke="none" stroke-width="1" fill="none" fill-rule="evenodd">
        <g id="Promo-code-Field/False" transform="translate(-219.000000, -19.000000)" fill="#FF5D3C">
            <g id="Ne_Ok" transform="translate(219.000000, 19.000000)">
                <path d="M7.36425,5.9505 L11.60625,1.7075 C11.99725,1.3165 11.99725,0.6835 11.60625,0.2935 C11.41125,0.0975 11.15525,0.0005 10.89925,0.0005 C10.64325,0.0005 10.38725,0.0975 10.19225,0.2935 L5.95025,4.5355 L1.70725,0.2935 C1.51125,0.0975 1.25625,0.0005 1.00025,0.0005 C0.74425,0.0005 0.48825,0.0975 0.29325,0.2935 C-0.09775,0.6835 -0.09775,1.3165 0.29325,1.7075 L4.53525,5.9505 L0.29325,10.1925 C-0.09775,10.5835 -0.09775,11.2165 0.29325,11.6065 C0.48825,11.8025 0.74425,11.8995 1.00025,11.8995 C1.25625,11.8995 1.51125,11.8025 1.70725,11.6065 L5.95025,7.3645 L10.19225,11.6065 C10.38725,11.8025 10.64325,11.8995 10.89925,11.8995 C11.15525,11.8995 11.41125,11.8025 11.60625,11.6065 C11.99725,11.2165 11.99725,10.5835 11.60625,10.1925 L7.36425,5.9505 Z" id="Page-1"></path>
            </g>
        </g>
    </g>
</svg>