<?xml version="1.0" encoding="UTF-8"?>
<svg width="16px" height="22px" viewBox="0 0 16 22" version="1.1" xmlns="http://www.w3.org/2000/svg" xmlns:xlink="http://www.w3.org/1999/xlink">
    <!-- Generator: Sketch 42 (36781) - http://www.bohemiancoding.com/sketch -->
    <title>Sync</title>
    <desc>Created with Sketch.</desc>
    <defs>
        <polygon id="path-1" points="0 10.8335441 0 0.000194117647 16 0.000194117647 16 21.6668941 0 21.6668941"></polygon>
    </defs>
    <g id="Symbols" stroke="none" stroke-width="1" fill="none" fill-rule="evenodd">
        <g id="Promo-code-Field/Sync" transform="translate(-214.000000, -14.000000)">
            <g id="Sync" transform="translate(214.000000, 14.000000)">
                <mask id="mask-2" fill="white">
                    <use xlink:href="#path-1"></use>
                </mask>
                <g id="Clip-2"></g>
                <path d="M7.8144,4.03777647 L6.19008,5.68001176 C5.93984,5.93301176 5.93984,6.3426 6.19008,6.59495294 C6.31488,6.72112941 6.47872,6.78454118 6.64256,6.78454118 C6.8064,6.78454118 6.97024,6.72112941 7.09504,6.59495294 L9.80992,3.85012941 C10.06016,3.59712941 10.06016,3.18754118 9.80992,2.93454118 L7.09504,0.189717647 C6.97024,0.0628941176 6.8064,0.000129411765 6.64256,0.000129411765 C6.47872,0.000129411765 6.31488,0.0628941176 6.19008,0.189717647 C5.93984,0.442070588 5.93984,0.851658824 6.19008,1.10465882 L7.8112,2.74365882 C3.48096,2.84589412 0,6.42024706 0,10.8221882 C0,12.8008941 0.70272,14.6133059 1.8688,16.0187176 C2.112,16.3111882 2.55104,16.3312471 2.81792,16.0614235 L2.81856,16.0607765 C3.04896,15.8284824 3.07648,15.4531882 2.86656,15.2021294 C1.87712,14.0186588 1.28,12.4896588 1.28,10.8221882 C1.28,7.13977647 4.1952,4.13871765 7.8144,4.03777647 M14.13376,5.62954118 C13.88992,5.33577647 13.45024,5.31248235 13.18208,5.5836 L13.18144,5.58489412 C12.9504,5.81718824 12.92416,6.19248235 13.13472,6.44418824 C14.29184,7.82889412 14.91264,9.6866 14.66688,11.6860118 C14.35776,14.2101882 12.60352,16.3720118 10.23296,17.2216 C9.53984,17.4700706 8.86208,17.5884824 8.2048,17.6098353 L9.80992,15.9870118 C10.06016,15.7340118 10.06016,15.3244235 9.80992,15.0720706 C9.68512,14.9452471 9.52128,14.8824824 9.35744,14.8824824 C9.1936,14.8824824 9.02976,14.9452471 8.90496,15.0720706 L6.19008,17.8168941 C5.93984,18.0698941 5.93984,18.4794824 6.19008,18.7324824 L8.90496,21.4773059 C9.02976,21.6034824 9.1936,21.6668941 9.35744,21.6668941 C9.52128,21.6668941 9.68512,21.6034824 9.80992,21.4773059 C10.06016,21.2249529 10.06016,20.8153647 9.80992,20.5623647 L8.17408,18.9078353 C8.81536,18.8936 9.47648,18.7984824 10.14976,18.6076 C13.20832,17.7353647 15.53664,15.0610706 15.93472,11.8736588 C16.23104,9.49183529 15.50272,7.28018824 14.13376,5.62954118" id="Fill-1" fill="#2D2824" fill-rule="evenodd" mask="url(#mask-2)"></path>
            </g>
        </g>
    </g>
</svg>