<svg xmlns="http://www.w3.org/2000/svg" width="46" height="24.97" viewBox="0 0 46 24.97">
  <defs>
    <style>
      .cls-1 {
        fill: #fff;
        fill-rule: evenodd;
      }
    </style>
  </defs>
  <path id="icon-bakin.svg" class="cls-1" d="M1557.75,7740.27a7.533,7.533,0,0,1-5.36,2.19l-0.01-.01H1534l-1.63.01h-6.03a12.175,12.175,0,0,1-8.72-3.61h-0.01a12.571,12.571,0,0,1-3.63-8.84h0a12.607,12.607,0,0,1,3.63-8.84v-0.01a12.228,12.228,0,0,1,8.72-3.67h4.75a2.862,2.862,0,0,1,2.85,2.88,2.739,2.739,0,0,1-2.85,2.74h-4.75v-0.01a6.819,6.819,0,0,0-4.69,2.14l-0.01.01a6.752,6.752,0,0,0-1.95,4.76h0a6.78,6.78,0,0,0,1.97,4.76l-0.01.01a6.616,6.616,0,0,0,4.7,2.03l6.02-.01,1.65,0.01,18.37-.01h0.01a1.922,1.922,0,0,0,1.34-.62,2.5,2.5,0,0,0,.58-1.57h0a3.03,3.03,0,0,0-.59-1.77,1.863,1.863,0,0,0-1.34-.55h-4.89l-7.35-.01a3.069,3.069,0,0,1-2.85-2.88l-0.01-9.02a3.079,3.079,0,0,1,2.85-2.89h7.71a2.733,2.733,0,0,1,2.85,2.74,2.877,2.877,0,0,1-2.85,2.89l-4.97-.01v4.05h9.51a7.527,7.527,0,0,1,5.37,2.27,7.621,7.621,0,0,1,2.23,5.39,7.739,7.739,0,0,1-2.23,5.45" transform="translate(-1513.97 -7717.5)"/>
</svg>
