<?xml version="1.0" encoding="UTF-8"?>
<svg width="35px" height="40px" viewBox="0 0 35 40" version="1.1" xmlns="http://www.w3.org/2000/svg" xmlns:xlink="http://www.w3.org/1999/xlink">
    <!-- Generator: Sketch 42 (36781) - http://www.bohemiancoding.com/sketch -->
    <title>Icon Selection</title>
    <desc>Created with Sketch.</desc>
    <defs></defs>
    <g id="Symbols" stroke="none" stroke-width="1" fill="none" fill-rule="evenodd">
        <g id="Icon-Selection" fill="#FFFFFF">
            <path d="M31.885,16.9181304 C31.2688272,11.355087 25.5724691,10.8072609 25.5145679,10.802913 L25.4160494,11.9763913 C25.611358,11.992913 30.2106173,12.4363913 30.721358,17.0481304 L31.885,16.9181304 Z M30.7637037,18.1459565 C30.7529012,18.5681304 30.7114198,19.0146522 30.6409877,19.4720435 L31.797716,19.652913 C31.876358,19.1459565 31.9221605,18.6494348 31.9342593,18.1772609 L30.7637037,18.1459565 Z M28.7462346,24.8198696 C28.5837654,24.8942174 28.4191358,24.9607391 28.2545062,25.0237826 C28.201358,25.0437826 28.1490741,25.0624783 28.0954938,25.0807391 C27.9490123,25.1324783 27.8020988,25.1803043 27.654321,25.2237826 C27.5575309,25.2507391 27.4594444,25.2755217 27.3617901,25.299 C27.2490123,25.3272609 27.1358025,25.3568261 27.0221605,25.3803043 C26.8004938,25.4246522 26.5770988,25.4624783 26.3489506,25.489 L25.8045062,25.5976957 L25.8045062,26.1242174 C25.8045062,26.3924783 25.6584568,26.619 25.4510494,26.619 C25.4000617,26.619 25.3516667,26.605087 25.3088889,26.5798696 C25.1805556,26.502913 25.099321,26.3259565 25.1010494,26.1233478 L25.1451235,25.5546522 L24.5812346,25.4933478 C20.5048148,25.0437826 17.4317284,21.589 17.4317284,17.4581304 C17.4317284,17.212913 17.4468519,16.9703043 17.4680247,16.7303043 C17.4745062,16.665087 17.4805556,16.5994348 17.4883333,16.5337826 C17.512963,16.3155217 17.5453704,16.0985652 17.587284,15.885087 C17.5950617,15.8468261 17.6024074,15.809 17.6106173,15.7703043 C17.6542593,15.5655217 17.7078395,15.3633478 17.7657407,15.1642174 C17.7873457,15.0916087 17.8102469,15.0194348 17.8331481,14.9472609 C17.8949383,14.759 17.9614815,14.572913 18.0362346,14.3911739 C18.0479012,14.3603043 18.0591358,14.3285652 18.0716667,14.2976957 C18.160679,14.0885652 18.2604938,13.8842174 18.3672222,13.6833478 C18.3944444,13.6303043 18.4238272,13.5772609 18.4532099,13.525087 C18.5577778,13.3359565 18.6688272,13.1494348 18.7880864,12.9698696 C18.7962963,12.9581304 18.8027778,12.9455217 18.8109877,12.9337826 C18.9466667,12.7324783 19.092716,12.5381304 19.2452469,12.3498696 C19.2655556,12.325087 19.2858642,12.3007391 19.307037,12.2763913 C19.4548148,12.099 19.6090741,11.9272609 19.7711111,11.7633478 C19.7797531,11.7546522 19.7870988,11.7459565 19.7953086,11.7376957 C19.9703086,11.5616087 20.1543827,11.3942174 20.3440741,11.235087 C20.3596296,11.222913 20.3756173,11.2098696 20.3911728,11.1976957 C20.5614198,11.0581304 20.737716,10.9259565 20.9191975,10.7998696 C20.9511728,10.7776957 20.9835802,10.7546522 21.0168519,10.732913 C22.2915432,9.8763913 23.8203086,9.37421739 25.4648765,9.37421739 C29.8956173,9.37421739 33.4854938,13.0007391 33.4854938,17.4581304 C33.4854938,20.7133478 31.5587654,23.5459565 28.7462346,24.8198696 L28.7462346,24.8198696 Z M16.4417901,36.5359565 L15.8964815,36.5963913 L15.9211111,37.1476957 C15.9228395,37.1733478 15.9245679,37.1985652 15.9267284,37.1985652 L15.9275926,37.1981304 C15.9275926,37.8681304 15.4682716,38.412913 14.9026543,38.412913 C14.3383333,38.412913 13.8781481,37.8681304 13.877284,37.2263913 L13.907963,36.5916087 L13.3661111,36.529 C6.41364198,35.739 1.17055556,29.8272609 1.17055556,22.7785652 C1.17055556,15.1455217 7.34222222,8.93552174 14.927716,8.93552174 C16.7191975,8.93552174 18.4488889,9.27465217 20.0861111,9.94421739 C19.6855556,10.2346522 19.3135185,10.5581304 18.9682716,10.9042174 C18.9635185,10.909 18.9591975,10.9133478 18.9548765,10.9181304 C18.7517901,11.1216087 18.5612346,11.3346522 18.379321,11.5555217 C18.3680864,11.569 18.357284,11.582913 18.3460494,11.5959565 C17.9947531,12.0276957 17.683642,12.4898696 17.4166049,12.9763913 C17.3928395,13.019 17.368642,13.0616087 17.3457407,13.105087 C17.2251852,13.3311739 17.1145679,13.5624783 17.0125926,13.7985652 C16.9901235,13.852913 16.9689506,13.9081304 16.9460494,13.9633478 C16.8583333,14.1803043 16.7775309,14.3998696 16.7053704,14.6237826 C16.6937037,14.6607391 16.6798765,14.6963913 16.6690741,14.7337826 C16.5938889,14.9785652 16.5320988,15.229 16.4767901,15.4811739 C16.4633951,15.5472609 16.4487037,15.6124783 16.4348765,15.679 C16.3851852,15.9333478 16.3467284,16.1907391 16.3177778,16.4498696 C16.3117284,16.5042174 16.3082716,16.5581304 16.3030864,16.6124783 C16.2775926,16.8924783 16.2603086,17.1742174 16.2603086,17.459 C16.2603086,22.0346522 19.552037,25.885087 23.9909877,26.6020435 C24.1815432,27.292913 24.7774074,27.7976957 25.4795679,27.7976957 C25.5664198,27.7976957 25.6515432,27.7903043 25.7349383,27.7759565 C25.777716,27.7668261 25.8187654,27.7520435 25.860679,27.7416087 C25.8991358,27.7307391 25.9388889,27.7242174 25.9773457,27.7098696 C26.2737654,27.6007391 26.5278395,27.3937826 26.7127778,27.1237826 C26.7218519,27.1098696 26.7348148,27.0972609 26.7438889,27.0824783 C26.7603086,27.0576957 26.7715432,27.0303043 26.7870988,27.0033478 C26.8583951,26.8776957 26.919321,26.7442174 26.9599383,26.5981304 C26.9953704,26.5916087 27.028642,26.5824783 27.0640741,26.5755217 C27.256358,26.5407391 27.448642,26.5016087 27.6400617,26.4546522 C27.8219753,26.4098696 28,26.3568261 28.1767284,26.3020435 C28.1944444,26.2963913 28.2130247,26.292913 28.2311728,26.2863913 C26.8039506,31.7642174 22.0953704,35.912913 16.4417901,36.5359565 L16.4417901,36.5359565 Z M10.1495679,6.019 C8.9595679,4.79117391 8.54259259,2.98856522 9.05160494,1.35986957 C9.46944444,1.239 9.90111111,1.17813043 10.3392593,1.17813043 C11.597963,1.17813043 12.7754321,1.67682609 13.6525926,2.58247826 C14.8425926,3.80986957 15.2595679,5.61204348 14.7501235,7.24204348 C14.332284,7.36247826 13.9006173,7.42334783 13.4633333,7.42334783 L13.4624691,7.42334783 C12.2041975,7.42334783 11.0271605,6.92508696 10.1495679,6.019 L10.1495679,6.019 Z M26.398642,5.48508696 C27.02,4.84378261 27.947284,4.57552174 28.8088889,4.77943478 C29.032716,5.64334783 28.7946296,6.57682609 28.1698148,7.22204348 C27.5484568,7.86378261 26.6198765,8.13204348 25.7595679,7.92726087 C25.5357407,7.06378261 25.7733951,6.13030435 26.398642,5.48508696 L26.398642,5.48508696 Z M28.2614198,8.63595652 C28.5297531,8.47291304 28.782963,8.27726087 29.0076543,8.04465217 C30.0157407,7.00465217 30.3341975,5.45378261 29.8187037,4.09291304 L29.7214815,3.83813043 L29.4661111,3.74682609 C29.0659877,3.60552174 28.6481481,3.53378261 28.2238272,3.53378261 C27.2114198,3.53378261 26.2659877,3.93465217 25.5612346,4.66247826 C25.0824691,5.1563913 24.7640123,5.76813043 24.6119136,6.419 C23.8492593,5.4816087 22.6704938,4.40508696 20.9157407,3.65508696 L20.457716,4.74030435 C22.7862963,5.73421739 23.970679,7.40682609 24.4481481,8.25595652 C23.3285802,8.38030435 22.2725309,8.71204348 21.3093827,9.20508696 C19.6272222,8.40204348 17.8474074,7.93030435 15.9997531,7.79943478 C16.567963,6.6316087 18.558642,3.19769565 23.1082099,1.25552174 L22.6501852,0.17073913 C19.3424691,1.58291304 17.2934568,3.70552174 16.1064815,5.35378261 C15.9954321,4.02508696 15.4453704,2.74508696 14.4908642,1.75986957 C13.3907407,0.624652174 11.9164198,-0.000130434782 10.3392593,-0.000130434782 C9.67598765,-0.000130434782 9.02395062,0.111608696 8.4008642,0.332913043 L8.14419753,0.423782609 L8.04783951,0.678565217 C7.2441358,2.80030435 7.73975309,5.21943478 9.3112963,6.8416087 C9.89635802,7.44465217 10.5890123,7.89943478 11.3456173,8.19726087 C4.83907407,9.81682609 0,15.7381304 0,22.7785652 C0,30.2607391 5.44530864,36.5624783 12.7456173,37.6355217 C12.9348765,38.7468261 13.8301852,39.5903043 14.9035185,39.5903043 C15.9742593,39.5903043 16.8661111,38.7507391 17.0592593,37.6442174 C23.2525309,36.7472609 28.3003086,31.942913 29.5421605,25.7581304 C32.602716,24.239 34.6703086,21.0759565 34.6703086,17.4581304 C34.6703086,13.3316087 31.9735802,9.83030435 28.2614198,8.63595652 L28.2614198,8.63595652 Z" id="Fill-1"></path>
        </g>
    </g>
</svg>