<?xml version="1.0" encoding="UTF-8"?>
<svg width="34px" height="34px" viewBox="0 0 34 34" version="1.1" xmlns="http://www.w3.org/2000/svg" xmlns:xlink="http://www.w3.org/1999/xlink">
    <!-- Generator: Sketch 42 (36781) - http://www.bohemiancoding.com/sketch -->
    <title>Close</title>
    <desc>Created with Sketch.</desc>
    <defs></defs>
    <g id="Symbols" stroke="none" stroke-width="1" fill="none" fill-rule="evenodd">
        <g id="Close" fill="#E1E1E1">
            <path d="M15.9705627,15.9705627 L5.97125738,15.9705627 C5.41803197,15.9705627 4.97056275,16.418278 4.97056275,16.9705627 C4.97056275,17.5266979 5.418589,17.9705627 5.97125738,17.9705627 L15.9705627,17.9705627 L15.9705627,27.9698681 C15.9705627,28.5230935 16.418278,28.9705627 16.9705627,28.9705627 C17.5266979,28.9705627 17.9705627,28.5225365 17.9705627,27.9698681 L17.9705627,17.9705627 L27.9698681,17.9705627 C28.5230935,17.9705627 28.9705627,17.5228475 28.9705627,16.9705627 C28.9705627,16.4144276 28.5225365,15.9705627 27.9698681,15.9705627 L17.9705627,15.9705627 L17.9705627,5.97125738 C17.9705627,5.41803197 17.5228475,4.97056275 16.9705627,4.97056275 C16.4144276,4.97056275 15.9705627,5.418589 15.9705627,5.97125738 L15.9705627,15.9705627 Z" id="Combined-Shape" transform="translate(16.970563, 16.970563) rotate(-45.000000) translate(-16.970563, -16.970563) "></path>
        </g>
    </g>
</svg>