<svg id="SvgjsSvg1000" xmlns="http://www.w3.org/2000/svg" version="1.1" xmlns:xlink="http://www.w3.org/1999/xlink" xmlns:svgjs="http://svgjs.com/svgjs" width="28" height="41" viewBox="0 0 28 41"><title>Фигура 22</title><desc>Created with Avocode.</desc><defs id="SvgjsDefs1001"></defs><path id="SvgjsPath1007" d="M880.013 407.004L888.0060000000001 407.004L888.0060000000001 403.672C888.0060000000001 398.886 884.0970000000001 394.992 879.2930000000001 394.992L868.0000000000001 394.992L868.0000000000001 390L865.0000000000001 390L865.0000000000001 408L868.0000000000001 408L868.0000000000001 402.987L879.1680000000001 402.987C879.6340000000001 402.987 880.0130000000001 403.36400000000003 880.0130000000001 403.829ZM883.867 420.424C886.1139999999999 420.424 887.943 418.59499999999997 887.943 416.34799999999996C887.943 414.36599999999993 885.091 410.70199999999994 884.519 409.98799999999994L883.867 409.17299999999994L883.2149999999999 409.98799999999994C882.6429999999999 410.70199999999994 879.7909999999999 414.36599999999993 879.7909999999999 416.34799999999996C879.7909999999999 418.59499999999997 881.6189999999999 420.424 883.867 420.424ZM878.867 430.424C881.1139999999999 430.424 882.943 428.59499999999997 882.943 426.34799999999996C882.943 424.36599999999993 880.091 420.70199999999994 879.519 419.98799999999994L878.867 419.17299999999994L878.2149999999999 419.98799999999994C877.6429999999999 420.70199999999994 874.7909999999999 424.36599999999993 874.7909999999999 426.34799999999996C874.7909999999999 428.59499999999997 876.6189999999999 430.424 878.867 430.424ZM888.867 430.424C891.1139999999999 430.424 892.943 428.59499999999997 892.943 426.34799999999996C892.943 424.36599999999993 890.091 420.70199999999994 889.519 419.98799999999994L888.867 419.17299999999994L888.2149999999999 419.98799999999994C887.6429999999999 420.70199999999994 884.7909999999999 424.36599999999993 884.7909999999999 426.34799999999996C884.7909999999999 428.59499999999997 886.6189999999999 430.424 888.867 430.424ZM883.867 411.885C885.019 413.454 886.2719999999999 415.486 886.2719999999999 416.348C886.2719999999999 417.67400000000004 885.193 418.753 883.867 418.753C882.5409999999999 418.753 881.462 417.674 881.462 416.348C881.462 415.48400000000004 882.7139999999999 413.454 883.867 411.885ZM878.867 421.885C880.019 423.454 881.2719999999999 425.486 881.2719999999999 426.348C881.2719999999999 427.67400000000004 880.193 428.753 878.867 428.753C877.5409999999999 428.753 876.462 427.674 876.462 426.348C876.462 425.48400000000004 877.7139999999999 423.45300000000003 878.867 421.885ZM888.867 421.885C890.019 423.454 891.2719999999999 425.486 891.2719999999999 426.348C891.2719999999999 427.67400000000004 890.193 428.753 888.867 428.753C887.5409999999999 428.753 886.462 427.674 886.462 426.348C886.462 425.48400000000004 887.7139999999999 423.45300000000003 888.867 421.885Z " fill="#ff5a42" fill-opacity="1" transform="matrix(1,0,0,1,-865,-390)"></path></svg>