<svg id="SvgjsSvg1008" xmlns="http://www.w3.org/2000/svg" version="1.1" xmlns:xlink="http://www.w3.org/1999/xlink" xmlns:svgjs="http://svgjs.com/svgjs" width="14" height="13" viewBox="0 0 14 13"><title>352 Р копия 2</title><desc>Created with Avocode.</desc><defs id="SvgjsDefs1009"></defs><path id="SvgjsPath1010" d="M1122.43 420L1122.43 418.385L1121.3200000000002 418.385C1120.7800000000002 418.385 1120.5200000000002 418.167 1120.5200000000002 417.676L1120.5200000000002 416.409L1126.14 416.409L1126.14 414.762C1125.5200000000002 414.768 1125.0600000000002 414.793 1124.39 414.793L1120.5200000000002 414.793L1120.5200000000002 413.858L1123.3000000000002 413.858C1126.64 413.858 1128.0100000000002 412.314 1128.0100000000002 410.336C1128.0100000000002 408.411 1126.63 407.014 1123.3000000000002 407.014L1115.5100000000002 407.014L1115.5100000000002 408.629L1116.6200000000001 408.629C1117.15 408.629 1117.41 408.84700000000004 1117.41 409.33700000000005L1117.41 412.23121000000003C1117.3512400000002 412.23715000000004 1117.2904700000001 412.242 1117.22 412.242L1115 412.242L1115 413.858L1117.41 413.858L1117.41 414.793L1115 414.793L1115 416.409L1117.41 416.409L1117.41 417.676C1117.41 418.167 1117.15 418.385 1116.6200000000001 418.385L1115.5100000000002 418.385L1115.5100000000002 420ZM1120.52 408.629L1122.78 408.629C1124.1299999999999 408.629 1124.85 409.283 1124.85 410.336C1124.85 411.64300000000003 1124.1499999999999 412.242 1122.6699999999998 412.242L1120.5199999999998 412.242Z " fill="#3a3a3a" fill-opacity="1" transform="matrix(1,0,0,1,-1115,-407)"></path></svg>