<?xml version="1.0" encoding="UTF-8"?>
<svg width="40px" height="40px" viewBox="0 0 40 40" version="1.1" xmlns="http://www.w3.org/2000/svg" xmlns:xlink="http://www.w3.org/1999/xlink">
    <!-- Generator: Sketch 42 (36781) - http://www.bohemiancoding.com/sketch -->
    <title>Icon Taste</title>
    <desc>Created with Sketch.</desc>
    <defs></defs>
    <g id="Symbols" stroke="none" stroke-width="1" fill="none" fill-rule="evenodd">
        <g id="Icon-Taste" fill="#FFFFFF">
            <path d="M30.9137355,32.0345743 C30.6277403,32.0345743 30.3956282,32.2719616 30.3956282,32.5644568 L30.3956282,38.7170987 L9.15322895,38.7170987 L9.15322895,25.8748673 C9.15322895,25.5996816 8.94771305,25.3707724 8.67967888,25.3467511 C4.39354989,24.967002 1.0362146,21.2196732 1.0362146,16.8152901 C1.0362146,12.0919178 4.79352873,8.24885696 9.4122826,8.24885696 C9.92244558,8.24885696 10.4405529,8.29831265 10.9517521,8.39581103 C11.2318754,8.44915253 11.5006004,8.26157414 11.5551744,7.97649737 C12.3195554,3.96881966 15.7763673,1.05976493 19.7744286,1.05976493 C21.2040593,1.05976493 22.6150382,1.43456846 23.8546963,2.14319794 C24.1047694,2.28485319 24.4197786,2.19441991 24.5596676,1.93901657 C24.6995566,1.68361322 24.6100967,1.36073817 24.360369,1.21802316 C22.9659695,0.421433187 21.3802158,0 19.7744286,0 C15.4496142,0 11.6888461,3.02951468 10.647105,7.27316671 C10.2353824,7.21735243 9.82193277,7.18909203 9.4122826,7.18909203 C4.22222908,7.18909203 0,11.5076341 0,16.8152901 C0,21.6011886 3.52865611,25.69718 8.11701435,26.3478757 L8.11701435,39.2469811 C8.11701435,39.5394763 8.34878101,39.7768636 8.63512165,39.7768636 L30.9137355,39.7768636 C31.1997307,39.7768636 31.4318428,39.5394763 31.4318428,39.2469811 L31.4318428,32.5644568 C31.4318428,32.2719616 31.1997307,32.0345743 30.9137355,32.0345743" id="Fill-1"></path>
            <path d="M29.0549648,7.26659942 C28.9268196,6.75508622 28.7568804,6.25346415 28.5475651,5.77021134 C28.4318545,5.50244407 28.1254803,5.38163087 27.8643543,5.49997128 C27.6025374,5.61866496 27.4840635,5.93164887 27.6001195,6.19941614 C27.8432846,6.76109155 28.02704,7.35138062 28.1462046,7.9533271 C28.2004332,8.22851272 28.4560328,8.40867276 28.7268302,8.37299401 C29.1264637,8.31470694 29.5267879,8.28538677 29.9170954,8.28538677 C34.5358493,8.28538677 38.2931634,12.1284477 38.2931634,16.85182 C38.2931634,21.1392756 35.1620683,24.7898125 31.009611,25.3430098 C30.7515935,25.3776288 30.5585122,25.6019457 30.5585122,25.8683 L30.5585122,27.537783 C30.5585122,27.8302781 30.7902789,28.0676655 31.0766195,28.0676655 C31.3626148,28.0676655 31.5947268,27.8302781 31.5947268,27.537783 L31.5947268,26.3222326 C36.0352518,25.5051539 39.329378,21.5133726 39.329378,16.85182 C39.329378,11.2534351 34.6363621,6.74201578 29.0549648,7.26659942" id="Fill-3"></path>
            <path d="M11.5555556,27.8026097 L11.5555556,35.8391605 C11.5555556,36.1316556 11.7873222,36.3690429 12.0736629,36.3690429 C12.3600035,36.3690429 12.5917702,36.1316556 12.5917702,35.8391605 L12.5917702,27.8026097 C12.5917702,27.5101146 12.3600035,27.2727273 12.0736629,27.2727273 C11.7873222,27.2727273 11.5555556,27.5101146 11.5555556,27.8026097" id="Fill-5"></path>
            <path d="M8.94629446,11.9679427 C9.23194428,11.9474539 9.44678611,11.6945233 9.42675263,11.4020282 C9.40671915,11.1105929 9.15768224,10.8859227 8.87375944,10.9110038 C4.59384774,11.2179824 3.52412887,15.7286952 3.55625153,18.0704224 C3.56039638,18.3604447 3.79147224,18.5925333 4.07435883,18.5925333 L4.08126692,18.5925333 C4.36691675,18.5886475 4.59592017,18.3484341 4.59246612,18.055939 C4.58970289,17.8203179 4.5762321,12.2816331 8.94629446,11.9679427" id="Fill-7"></path>
            <path d="M31.6291582,23.7419449 C31.6809689,23.7419449 31.7338159,23.7341733 31.7852812,23.7175703 C35.2389844,22.6016379 36.5318349,19.9649427 36.5853726,19.8529609 C36.7107546,19.5901392 36.6040245,19.2729162 36.3470433,19.1443314 C36.0904074,19.0168064 35.7798885,19.1252556 35.6541611,19.3880773 C35.6431081,19.4110389 34.5077623,21.7269785 31.4733806,22.7065546 C31.2005108,22.7948683 31.0492234,23.0926623 31.1352292,23.3717337 C31.205001,23.5978169 31.4094807,23.7419449 31.6291582,23.7419449" id="Fill-9"></path>
        </g>
    </g>
</svg>