<svg xmlns="http://www.w3.org/2000/svg" width="24" height="24" viewBox="0 0 24 24">
  <metadata><?xpacket begin="﻿" id="W5M0MpCehiHzreSzNTczkc9d"?>
<x:xmpmeta xmlns:x="adobe:ns:meta/" x:xmptk="Adobe XMP Core 5.6-c138 79.159824, 2016/09/14-01:09:01        ">
   <rdf:RDF xmlns:rdf="http://www.w3.org/1999/02/22-rdf-syntax-ns#">
      <rdf:Description rdf:about=""/>
   </rdf:RDF>
</x:xmpmeta>
<?xpacket end="w"?></metadata>
<defs>
    <style>
      .cls-1 {
        fill: #59524a;
        fill-rule: evenodd;
      }
    </style>
  </defs>
  <path id="insta" class="cls-1" d="M1113,3933a12,12,0,1,1-12,12A12,12,0,0,1,1113,3933Zm0,6.26c1.87,0,2.09.01,2.83,0.04a4.046,4.046,0,0,1,1.3.24,2.412,2.412,0,0,1,1.33,1.33,4.046,4.046,0,0,1,.24,1.3c0.03,0.74.04,0.96,0.04,2.83s-0.01,2.09-.04,2.83a4.046,4.046,0,0,1-.24,1.3,2.412,2.412,0,0,1-1.33,1.33,4.046,4.046,0,0,1-1.3.24c-0.74.03-.96,0.04-2.83,0.04s-2.09-.01-2.83-0.04a4.046,4.046,0,0,1-1.3-.24,2.412,2.412,0,0,1-1.33-1.33,4.046,4.046,0,0,1-.24-1.3c-0.03-.74-0.04-0.96-0.04-2.83s0.01-2.09.04-2.83a4.046,4.046,0,0,1,.24-1.3,2.412,2.412,0,0,1,1.33-1.33,4.046,4.046,0,0,1,1.3-.24c0.74-.03.96-0.04,2.83-0.04m0-1.26c-1.9,0-2.14.01-2.89,0.04a5.16,5.16,0,0,0-1.7.33,3.5,3.5,0,0,0-2.04,2.04,5.16,5.16,0,0,0-.33,1.7c-0.03.75-.04,0.99-0.04,2.89s0.01,2.14.04,2.89a5.16,5.16,0,0,0,.33,1.7,3.5,3.5,0,0,0,2.04,2.04,5.16,5.16,0,0,0,1.7.33c0.75,0.03.99,0.04,2.89,0.04s2.14-.01,2.89-0.04a5.16,5.16,0,0,0,1.7-.33,3.5,3.5,0,0,0,2.04-2.04,5.16,5.16,0,0,0,.33-1.7c0.03-.75.04-0.99,0.04-2.89s-0.01-2.14-.04-2.89a5.16,5.16,0,0,0-.33-1.7,3.5,3.5,0,0,0-2.04-2.04,5.16,5.16,0,0,0-1.7-.33c-0.75-.03-0.99-0.04-2.89-0.04h0Zm0,3.41a3.59,3.59,0,1,0,3.59,3.59A3.581,3.581,0,0,0,1113,3941.41Zm0,5.92a2.33,2.33,0,1,1,2.33-2.33A2.326,2.326,0,0,1,1113,3947.33Zm4.58-6.07a0.84,0.84,0,1,1-.84-0.84A0.839,0.839,0,0,1,1117.58,3941.26Z" transform="translate(-1101 -3933)"/>
</svg>
