<svg xmlns="http://www.w3.org/2000/svg" width="69.812" height="69.91" viewBox="0 0 69.812 69.91">
  <metadata><?xpacket begin="﻿" id="W5M0MpCehiHzreSzNTczkc9d"?>
<x:xmpmeta xmlns:x="adobe:ns:meta/" x:xmptk="Adobe XMP Core 5.6-c138 79.159824, 2016/09/14-01:09:01        ">
   <rdf:RDF xmlns:rdf="http://www.w3.org/1999/02/22-rdf-syntax-ns#">
      <rdf:Description rdf:about=""/>
   </rdf:RDF>
</x:xmpmeta>
                                                                                                    
                                                                                                    
                                                                                                    
                                                                                                    
                                                                                                    
                                                                                                    
                                                                                                    
                                                                                                    
                                                                                                    
                                                                                                    
                                                                                                    
                                                                                                    
                                                                                                    
                                                                                                    
                                                                                                    
                                                                                                    
                                                                                                    
                                                                                                    
                                                                                                    
                                                                                                    
                           
<?xpacket end="w"?></metadata>
<defs>
    <style>
      .cls-1 {
        fill: #fff;
        fill-rule: evenodd;
      }
    </style>
  </defs>
  <path id="map" class="cls-1" d="M510.868,3658.09l-11.638-45.88a1.451,1.451,0,0,0-1.057-1.05l-7.108-1.78a21.763,21.763,0,0,0-37.047-12.98,22.268,22.268,0,0,0-3.811,25.89l-9.082,35.8a1.461,1.461,0,0,0,1.409,1.82,1.705,1.705,0,0,0,.444-0.07l17.7-5.67,14.8,5.64a1.421,1.421,0,0,0,1.015.01l15.527-5.65L509,3659.83A1.452,1.452,0,0,0,510.868,3658.09Zm-19.608-45.66,5.361,1.34,2.41,9.5-8.961-4.22A22.456,22.456,0,0,0,491.26,3612.43Zm-38.91,13.24c0.01,0.01.021,0.03,0.031,0.04,0.456,0.58.944,1.15,1.466,1.7,1.42,1.49,3.9,4.2,6.407,6.98l-11.35,4.87Zm7.066,25.84-14.827,4.75L448,3642.81l13.851-5.94Zm15.124-11.3v16.13l-12.2-4.66,2.106-12.65c2.222,2.47,3.88,4.32,3.922,4.37a1.443,1.443,0,0,0,2.167,0c0.042-.05,1.743-1.95,4.008-4.47v1.28Zm-5.091.04c-2.842-3.18-10.492-11.69-13.5-14.85a0.4,0.4,0,0,1-.062-0.07c-0.371-.39-0.718-0.8-1.05-1.21-0.091-.12-0.182-0.23-0.27-0.35-0.344-.45-0.673-0.91-0.973-1.38-0.012-.02-0.022-0.04-0.033-0.06a19.37,19.37,0,0,1,2.509-23.87,18.888,18.888,0,0,1,26.747,0,19.282,19.282,0,0,1,4.188,20.51c-0.041.1-.089,0.2-0.132,0.31-0.186.46-.384,0.92-0.607,1.37-0.019.04-.043,0.07-0.063,0.11l-0.037.01,0.007,0.05c-0.085.16-.18,0.32-0.27,0.49-0.181.33-.357,0.66-0.559,0.99s-0.453.66-.688,0.99c-0.142.2-.27,0.41-0.421,0.6a19.691,19.691,0,0,1-1.3,1.51C479.941,3628.56,472.291,3637.07,469.449,3640.25Zm18.509-6.37-10.508,4.21v-2.39c2.89-3.19,5.954-6.56,7.6-8.29a0.511,0.511,0,0,0,.069-0.08c0.472-.5.92-1.02,1.342-1.55,0.117-.15.218-0.31,0.331-0.46Zm-10.508,22.49v-15.14l10.913-4.37,2.017,14.8Zm13.322-23.38-1.511-11.1,10.7,5.04,3.074,12.11-11.839-5.93A1.548,1.548,0,0,0,490.772,3632.99Zm2.525,18.53-2.061-15.13,12.742,6.38,3.413,13.46Zm-23.849-48.41a8.735,8.735,0,1,0,8.729,8.73A8.742,8.742,0,0,0,469.448,3603.11Zm0,14.56a5.825,5.825,0,1,1,5.82-5.83A5.828,5.828,0,0,1,469.448,3617.67Z" transform="translate(-441.094 -3590)"/>
</svg>
