<?xml version="1.0" encoding="UTF-8"?>
<svg width="81px" height="81px" viewBox="0 0 81 81" version="1.1" xmlns="http://www.w3.org/2000/svg" xmlns:xlink="http://www.w3.org/1999/xlink">
    <!-- Generator: Sketch 42 (36781) - http://www.bohemiancoding.com/sketch -->
    <title>Sticker/Middle</title>
    <desc>Created with Sketch.</desc>
    <defs></defs>
    <g id="Page-1" stroke="none" stroke-width="1" fill="none" fill-rule="evenodd">
        <g id="Sticker/Middle" transform="translate(40.358984, 40.641016) rotate(-30.000000) translate(-40.358984, -40.641016) translate(0.358984, 0.641016)">
            <ellipse id="Oval-5" fill="#FB3D32" cx="40" cy="40" rx="40" ry="40"></ellipse>
            <ellipse id="Oval-5" stroke="#FFFFFF" stroke-width="2" cx="40" cy="40" rx="35" ry="35"></ellipse>
            <path d="M27.8129883,27.8442383 L27.7700195,27.8442383 C27.6554356,27.8442383 27.5122079,27.8630369 27.340332,27.9006348 C27.1684562,27.9382326 27.0395512,27.9570312 26.9536133,27.9570312 C26.7960604,27.9570312 26.6349292,27.9051112 26.4702148,27.8012695 C26.3090812,27.6902664 26.2285156,27.455731 26.2285156,27.0976562 C26.2285156,26.775389 26.2875971,26.372561 26.4057617,25.8891602 C26.4952804,25.4308245 26.8318656,25.1658532 27.4155273,25.0942383 C29.5138451,24.9331047 31.465323,24.8238935 33.2700195,24.7666016 L33.3344727,24.7666016 C33.7749045,24.7666016 34.1893698,24.8382154 34.5778809,24.9814453 C34.9663919,25.1246752 35.2054032,25.3234037 35.2949219,25.5776367 C35.4703785,26.1219103 35.5581055,26.445963 35.5581055,26.5498047 C35.5581055,26.7109383 35.5205082,26.8273108 35.4453125,26.8989258 C35.3736976,27.0099289 35.3378906,27.5237584 35.3378906,28.4404297 C35.3343099,28.619467 35.3146161,29.2997988 35.2788086,30.4814453 C35.2430011,31.6630918 35.2250977,32.6979122 35.2250977,33.5859375 C35.2250977,35.2474041 35.2913405,36.8461837 35.4238281,38.3823242 L35.4238281,38.9140625 C35.4238281,39.2649757 35.3289398,39.4404297 35.1391602,39.4404297 C35.028157,39.4404297 34.7792988,39.3455413 34.3925781,39.1557617 C33.7766896,38.8227522 33.3693858,38.5703134 33.1706543,38.3984375 C32.9719228,38.2265616 32.8394372,37.9544289 32.7731934,37.5820312 C32.7069495,37.2096336 32.6738281,36.5525763 32.6738281,35.6108398 L32.6738281,33.6557617 C32.6738281,33.580566 32.7078447,33.1750525 32.7758789,32.439209 C32.8439131,31.7033655 32.9083656,30.8968143 32.9692383,30.0195312 C33.030111,29.1422482 33.0784503,28.1826224 33.1142578,27.140625 C32.7848291,27.1442057 32.4580908,27.1638996 32.1340332,27.199707 C31.8099756,27.2355145 31.4823422,27.2784828 31.151123,27.3286133 C30.8199039,27.3787437 30.4985367,27.4270831 30.1870117,27.4736328 C30.1440428,27.6634124 30.1225586,28.2130488 30.1225586,29.1225586 L30.1225586,32.2001953 C30.1225586,34.6243611 30.0348316,36.4648375 29.859375,37.7216797 C29.7125644,38.5452515 29.4708676,38.9570312 29.1342773,38.9570312 C28.9051095,38.9570312 28.6043313,38.8030614 28.2319336,38.4951172 C27.6518526,38.058266 27.2535004,37.7261567 27.0368652,37.4987793 C26.82023,37.2714019 26.7119141,37.0681975 26.7119141,36.8891602 C26.7119141,36.7709955 26.8157542,36.4764835 27.0234375,36.0056152 C27.2311208,35.534747 27.3833003,35.0361354 27.4799805,34.5097656 C27.7163098,33.1920507 27.8344727,31.4697372 27.8344727,29.3427734 C27.8344727,29.1923821 27.830892,28.9488949 27.8237305,28.6123047 C27.816569,28.2757145 27.8129883,28.0196949 27.8129883,27.8442383 Z M39.4091797,34.6870117 C39.6956395,34.2215146 40.0725074,33.6548699 40.5397949,32.9870605 C41.0070824,32.3192512 41.4636208,31.6693554 41.9094238,31.0373535 C42.3552268,30.4053517 42.6730134,29.9353857 42.862793,29.6274414 C42.9988614,29.2156555 43.1814767,29.0097656 43.4106445,29.0097656 C43.4786787,29.0097656 43.5449216,29.0258787 43.609375,29.0581055 C44.2395865,29.3982764 44.5922848,29.8673473 44.6674805,30.465332 C44.6209308,31.1420932 44.5976562,31.9781851 44.5976562,32.9736328 L44.5976562,34.1606445 C44.5976562,34.2680669 44.5904949,34.4363595 44.5761719,34.6655273 C44.5618489,34.8946952 44.5546875,35.0629877 44.5546875,35.1704102 C44.5546875,35.6215843 44.5752765,36.0450013 44.6164551,36.4406738 C44.6576337,36.8363464 44.7041827,37.190835 44.7561035,37.5041504 C44.8080243,37.8174658 44.8518878,38.0815419 44.8876953,38.2963867 C44.8876953,38.3536787 44.891276,38.4324539 44.8984375,38.5327148 C44.905599,38.6329758 44.9091797,38.7010089 44.9091797,38.7368164 C44.9091797,39.1020526 44.7390968,39.284668 44.3989258,39.284668 C44.1769195,39.284668 43.9280613,39.2255865 43.6523437,39.1074219 C43.3264958,38.9713535 43.0910652,38.8460292 42.9460449,38.7314453 C42.8010247,38.6168614 42.6953942,38.444093 42.6291504,38.2131348 C42.5629066,37.9821766 42.5297852,37.6357445 42.5297852,37.1738281 C42.5297852,36.7477192 42.5369465,36.4039727 42.5512695,36.1425781 C42.7303069,34.0836486 42.834147,32.7856472 42.862793,32.2485352 C42.1788703,33.2010139 41.0706457,35.0110544 39.5380859,37.6787109 L39.5380859,38.0117187 C39.5380859,38.5989613 39.3912775,38.8925781 39.0976562,38.8925781 C38.9436841,38.8925781 38.6661804,38.8030608 38.2651367,38.6240234 C37.8211241,38.3554674 37.5301927,38.1442065 37.392334,37.9902344 C37.2544752,37.8362623 37.1855469,37.6017268 37.1855469,37.2866211 C37.1855469,37.2508136 37.1891276,37.1899418 37.1962891,37.1040039 C37.2034506,37.018066 37.2070312,36.9536135 37.2070312,36.9106445 C37.224935,36.634927 37.2499998,36.226728 37.2822266,35.6860352 C37.3144533,35.1453423 37.3484699,34.6225611 37.3842773,34.1176758 C37.4558923,32.7569919 37.4916992,31.4446678 37.4916992,30.1806641 L37.4916992,29.5200195 C37.4916992,29.5092773 37.4809571,29.4645186 37.4594727,29.3857422 C37.4379882,29.3069658 37.4272461,29.2407229 37.4272461,29.1870117 C37.4272461,28.8790675 37.5668931,28.7250977 37.8461914,28.7250977 C38.0109058,28.7250977 38.2006825,28.7698563 38.4155273,28.859375 C38.8702822,29.0419931 39.1674798,29.1843257 39.3071289,29.286377 C39.446778,29.3884282 39.5541988,29.5826809 39.6293945,29.8691406 L39.6293945,30.003418 C39.6293945,30.0499677 39.6070152,30.314939 39.5622559,30.7983398 C39.5174965,31.2817407 39.4951172,31.7937798 39.4951172,32.3344727 C39.4915364,32.4204106 39.4772137,32.6835915 39.4521484,33.1240234 C39.4270832,33.5644553 39.4100749,33.8920888 39.401123,34.1069336 C39.3921712,34.3217784 39.3876953,34.4721675 39.3876953,34.5581055 C39.3876953,34.5831707 39.391276,34.6100259 39.3984375,34.6386719 C39.405599,34.6673179 39.4091797,34.683431 39.4091797,34.6870117 Z M48.5131836,30.1323242 C48.5131836,30.2504889 48.5096029,30.4313139 48.5024414,30.6748047 C48.4952799,30.9182955 48.4916992,31.1044915 48.4916992,31.2333984 C48.4916992,31.437501 48.506022,31.8045221 48.534668,32.3344727 C48.534668,32.5528982 48.5794266,32.6621094 48.6689453,32.6621094 C48.6725261,32.6621094 48.7459303,32.6263024 48.8891602,32.5546875 C49.9418998,31.7203734 50.8137986,30.5835033 51.5048828,29.144043 C51.5657555,29.0115553 51.6695956,28.9453125 51.8164062,28.9453125 C51.8235677,28.9453125 51.8414712,28.9488932 51.8701172,28.9560547 C51.8987632,28.9632162 51.9166666,28.9667969 51.9238281,28.9667969 C52.5110706,29.4788437 52.8046875,29.9640277 52.8046875,30.4223633 C52.8046875,30.5691739 52.7975261,30.6783851 52.7832031,30.75 C52.643554,31.5019569 52.152999,32.271806 51.3115234,33.0595703 C50.9749332,33.3961605 50.6437191,33.630696 50.3178711,33.7631836 C51.4028375,35.456877 52.4967393,36.8658798 53.5996094,37.9902344 C53.9505226,38.3196631 54.1259766,38.5541985 54.1259766,38.6938477 C54.1259766,38.7905278 54.0149751,38.8925776 53.7929687,39 C53.3059871,39.2291678 52.8601908,39.3759762 52.4555664,39.4404297 L52.3642578,39.4404297 C52.1243478,39.4404297 51.8969737,39.3222668 51.6821289,39.0859375 C51.2166318,38.5774714 50.7216009,37.9222045 50.1970215,37.1201172 C49.672442,36.3180298 49.2150085,35.528487 48.824707,34.7514648 C48.6635734,34.4148746 48.5310878,34.246582 48.4272461,34.246582 C48.3520504,34.246582 48.3144531,34.3719063 48.3144531,34.6225586 C48.3144531,34.6476238 48.3180338,34.6762694 48.3251953,34.7084961 C48.3323568,34.7407228 48.3377278,34.7639973 48.3413086,34.7783203 C48.2517899,36.4362062 48.2070312,37.6608033 48.2070312,38.4521484 C48.167643,38.8173846 48.0208346,39 47.7666016,39 C47.5875642,39 47.3011087,38.8907889 46.9072266,38.6723633 C46.5634748,38.4467762 46.321778,38.2247732 46.1821289,38.0063477 C46.0424798,37.7879221 45.9619142,37.6285812 45.9404297,37.5283203 C45.9440104,37.0126927 45.9654946,36.5239281 46.0048828,36.0620117 C46.044271,35.6000953 46.09082,35.1167017 46.1445312,34.6118164 C46.1982425,34.1069311 46.232259,33.7434907 46.246582,33.5214844 C46.289551,32.7945927 46.3486324,32.0256388 46.4238281,31.2145996 C46.4990238,30.4035604 46.5366211,29.7348659 46.5366211,29.2084961 C46.5366211,29.0330395 46.6673164,28.9453125 46.9287109,28.9453125 C47.1149098,28.9453125 47.2993155,28.9972326 47.4819336,29.1010742 C48.169437,29.4985371 48.5131836,29.792154 48.5131836,29.9819336 L48.5131836,30.1323242 Z M21.2602539,45.6953125 C21.117024,45.3443993 20.9702156,45.1689453 20.8198242,45.1689453 C20.7124018,45.1689453 20.6175134,45.2423495 20.5351562,45.3891602 C20.212889,45.7973653 19.9488129,46.3362597 19.7429199,47.0058594 C19.537027,47.6754591 19.434082,48.3164032 19.434082,48.9287109 C19.434082,49.5410187 19.542398,50.0351544 19.7590332,50.4111328 C19.9756684,50.7871113 20.3077777,50.9750977 20.7553711,50.9750977 C21.2065452,50.9750977 21.711423,50.7996437 22.2700195,50.4487305 C22.3810227,50.3162428 22.5206697,50.25 22.6889648,50.25 C22.828614,50.25 22.9673658,50.296549 23.1052246,50.3896484 C23.2430834,50.4827479 23.3317055,50.6044914 23.3710937,50.7548828 C23.4892584,51.0950538 23.5483398,51.343912 23.5483398,51.5014648 C23.5483398,51.8344743 23.3281272,52.1209298 22.8876953,52.3608398 C22.3505833,52.8299177 21.6612998,53.0644531 20.8198242,53.0644531 C20.3758116,53.0644531 19.9371766,52.975831 19.5039062,52.798584 C19.0706359,52.621337 18.6785499,52.3429381 18.3276367,51.9633789 C17.9767235,51.5838197 17.6992198,51.1075875 17.4951172,50.534668 C17.2193997,49.7075154 17.081543,48.9233435 17.081543,48.1821289 C17.081543,47.2941036 17.2399886,46.4642779 17.5568848,45.692627 C17.8737809,44.920976 18.2882461,44.306887 18.800293,43.8503418 C19.3123398,43.3937965 19.8458631,43.1655273 20.4008789,43.1655273 C20.8556338,43.1655273 21.3050108,43.2863757 21.7490234,43.5280762 C22.1930361,43.7697766 22.5528958,44.0786114 22.8286133,44.4545898 C23.1043308,44.8305683 23.2421875,45.2083314 23.2421875,45.5878906 C23.2421875,45.8242199 23.1831061,46.051594 23.0649414,46.2700195 C22.943196,46.4454761 22.8223476,46.5663245 22.7023926,46.6325684 C22.5824376,46.6988122 22.4168305,46.7319336 22.2055664,46.7319336 C21.9191066,46.7319336 21.7167975,46.6630052 21.5986328,46.5251465 C21.4804682,46.3872877 21.3676763,46.1106792 21.2602539,45.6953125 Z M30.7456055,50.9321289 C30.8172204,51.12907 30.8530273,51.3116854 30.8530273,51.4799805 C30.8530273,52.0349963 30.5468781,52.4449857 29.9345703,52.7099609 C29.3222626,52.9749362 28.7350289,53.1074219 28.1728516,53.1074219 C27.6178358,53.1074219 27.1120628,52.9919445 26.6555176,52.7609863 C26.1989723,52.5300281 25.799725,52.1979188 25.4577637,51.7646484 C25.1158023,51.331378 24.8320324,50.8050161 24.6064453,50.1855469 C24.370116,49.4980434 24.2519531,48.8159214 24.2519531,48.1391602 C24.2519531,47.5161102 24.3396801,46.9047068 24.5151367,46.3049316 C24.6905933,45.7051565 24.9448226,45.1662622 25.277832,44.6882324 C25.6108415,44.2102027 26.0100888,43.8333347 26.4755859,43.5576172 C26.9410831,43.2818997 27.4549126,43.144043 28.0170898,43.144043 C28.5076522,43.144043 29.0393852,43.3687315 29.6123047,43.8181152 C30.1852242,44.267499 30.555826,44.732094 30.7241211,45.2119141 C30.8995777,45.7060572 30.9873047,46.1536438 30.9873047,46.5546875 C30.9873047,47.2350294 30.7805196,47.7945128 30.3669434,48.2331543 C29.9533671,48.6717958 29.4959335,48.9895823 28.9946289,49.1865234 C28.4933243,49.3834645 28.1298839,49.4819336 27.9042969,49.4819336 C27.6643868,49.4819336 27.3564472,49.2832051 26.9804687,48.8857422 C26.7692047,48.6064439 26.6009121,48.4667969 26.4755859,48.4667969 C26.418294,48.4667969 26.3896484,48.5258783 26.3896484,48.644043 C26.3896484,48.8123381 26.4326168,49.0844708 26.5185547,49.4604492 C26.7083343,50.4702199 27.1415982,50.9750977 27.8183594,50.9750977 C28.0904962,50.9750977 28.5076469,50.8730479 29.0698242,50.6689453 C29.653486,50.4934887 29.9918615,50.4057617 30.0849609,50.4057617 C30.4072282,50.4057617 30.6274408,50.5812157 30.7456055,50.9321289 Z M28.2587891,47.1938477 C28.5524103,46.9646798 28.7278643,46.7068699 28.7851562,46.4204102 C28.8746749,46.055174 28.9194336,45.7848316 28.9194336,45.609375 C28.9086914,45.3945302 28.8281258,45.2199714 28.6777344,45.0856934 C28.527343,44.9514153 28.3590504,44.8842773 28.1728516,44.8842773 C27.8899725,44.8842773 27.6464854,45.0078113 27.4423828,45.2548828 C26.887367,46.2503305 26.6098633,46.9772112 26.6098633,47.4355469 C26.6098633,47.7434911 26.7333972,47.8974609 26.9804687,47.8974609 C27.2490248,47.8974609 27.6751273,47.6629255 28.2587891,47.1938477 Z M32.5449219,43.8046875 C32.8349624,43.4931625 33.1912414,43.2505705 33.6137695,43.0769043 C34.0362977,42.9032381 34.4641905,42.8164062 34.8974609,42.8164062 C35.2412127,42.8164062 35.5133454,42.8522132 35.7138672,42.9238281 C36.2867867,43.12435 36.7451155,43.4484027 37.0888672,43.8959961 C37.4326189,44.3435895 37.6044922,44.8413059 37.6044922,45.3891602 C37.6044922,46.1160518 37.2750684,46.7981739 36.6162109,47.4355469 C36.4264313,47.5572923 36.331543,47.6521806 36.331543,47.7202148 C36.331543,47.7452801 36.3503416,47.7676594 36.3879395,47.7873535 C36.4255373,47.8070476 36.5043126,47.8383787 36.6242676,47.8813477 C36.7442226,47.9243166 36.8579096,47.9654946 36.965332,48.0048828 C37.7137082,48.4524762 38.0878906,49.1059527 38.0878906,49.965332 C38.0878906,50.7172889 37.8103869,51.4495407 37.2553711,52.1621094 C36.7218398,52.8388706 36.0325563,53.1772461 35.1875,53.1772461 C34.8688135,53.1772461 34.6038422,53.1468102 34.3925781,53.0859375 C33.7695281,52.9104809 33.3004573,52.7063814 32.9853516,52.4736328 C32.5091122,52.1406233 32.1564139,51.8165706 31.9272461,51.5014648 C31.7231435,51.2758778 31.6210937,51.034181 31.6210937,50.7763672 C31.6210937,50.4576807 31.7679022,50.1282569 32.0615234,49.7880859 C32.3193372,49.4801417 32.5538726,49.3261719 32.7651367,49.3261719 C32.9835623,49.3261719 33.1446935,49.4729803 33.2485352,49.7666016 C33.2879234,49.8919277 33.3416338,50.0163568 33.409668,50.1398926 C33.4777022,50.2634284 33.5528967,50.3887526 33.6352539,50.5158691 C33.7176111,50.6429857 33.8160802,50.7960603 33.9306641,50.9750977 C34.030925,51.1433928 34.1634106,51.2848302 34.328125,51.3994141 C34.4928394,51.513998 34.6539706,51.5712891 34.8115234,51.5712891 C34.9368496,51.5712891 35.0550125,51.5265304 35.1660156,51.4370117 C35.4238294,51.2758781 35.6234531,51.032391 35.7648926,50.706543 C35.9063321,50.380695 35.9770508,50.0387388 35.9770508,49.6806641 C35.9770508,49.4873037 35.9698894,49.3548181 35.9555664,49.2832031 C35.7729483,48.7854793 35.4506859,48.5366211 34.9887695,48.5366211 C34.8885086,48.5366211 34.7631843,48.5509439 34.612793,48.5795898 C34.5948892,48.5795898 34.5698244,48.5867512 34.5375977,48.6010742 C34.5053709,48.6153972 34.4874675,48.6225586 34.4838867,48.6225586 C34.4015295,48.6225586 34.3370771,48.5957034 34.2905273,48.5419922 C34.2439776,48.488281 34.1723638,48.3754891 34.0756836,48.2036133 C33.9790034,48.0317374 33.9091799,47.9153649 33.8662109,47.8544922 C33.7766923,47.6969393 33.7319336,47.607422 33.7319336,47.5859375 C33.7319336,47.5035803 33.7740067,47.4310713 33.8581543,47.3684082 C33.9423019,47.3057451 34.0837392,47.2260747 34.2824707,47.1293945 C34.4812022,47.0327144 34.6217444,46.9575198 34.7041016,46.9038086 C35.0335303,46.6818023 35.2913402,46.3819192 35.4775391,46.0041504 C35.6637379,45.6263816 35.7568359,45.2889012 35.7568359,44.9916992 C35.7568359,44.7696929 35.7049159,44.5897631 35.6010742,44.4519043 C35.4972326,44.3140455 35.3665372,44.2451172 35.2089844,44.2451172 L35.1445312,44.2451172 C34.7649721,44.2809247 34.3388696,44.6318326 33.8662109,45.2978516 C33.7229811,45.5341809 33.5475271,45.6523437 33.3398437,45.6523437 C33.0856107,45.6523437 32.8582367,45.4321311 32.6577148,44.9916992 C32.6433919,44.9487303 32.5843104,44.8377288 32.4804687,44.6586914 C32.3766271,44.4796541 32.324707,44.3417974 32.324707,44.2451172 C32.324707,44.0768221 32.3981112,43.9300136 32.5449219,43.8046875 Z M45.8759766,46.6191406 C46.0227872,47.0130228 46.0961914,47.5125295 46.0961914,48.1176758 C46.0961914,48.8767942 45.9601251,49.6439577 45.6879883,50.4191895 C45.4158515,51.1944212 45.0201849,51.8326798 44.5009766,52.3339844 C43.9817682,52.835289 43.3766311,53.0859375 42.6855469,53.0859375 C42.4026679,53.0859375 42.0723489,52.9812022 41.6945801,52.7717285 C41.3168113,52.5622548 40.9506854,52.2784849 40.5961914,51.9204102 C40.3455391,51.6805001 40.0778823,51.3313825 39.7932129,50.8730469 C39.5085435,50.4147112 39.3071295,49.9868184 39.1889648,49.5893555 C38.9956045,49.0379204 38.8989258,48.4506867 38.8989258,47.8276367 C38.8989258,47.2833632 38.9705396,46.7373074 39.1137695,46.1894531 C39.2569994,45.6415988 39.4790024,45.1179224 39.7797852,44.6184082 C40.0805679,44.118894 40.4619118,43.6793639 40.9238281,43.2998047 C41.321291,42.9918604 41.6292307,42.8378906 41.8476562,42.8378906 C42.2200539,42.8378906 42.6389951,43.2031213 43.1044922,43.9335937 C43.3730482,44.2952492 43.5556636,44.5145667 43.6523437,44.5915527 C43.7490239,44.6685388 43.9029937,44.7070312 44.1142578,44.7070312 C44.8447302,44.7070312 45.4319639,45.3443947 45.8759766,46.6191406 Z M41.8476562,46.1357422 C41.48242,47.2099663 41.2998047,48.1642211 41.2998047,48.9985352 C41.2998047,49.5642932 41.3946931,50.0476868 41.5844727,50.4487305 C41.7599293,50.9321313 42.0016261,51.1738281 42.3095703,51.1738281 C42.4563809,51.1738281 42.6031894,51.1290695 42.75,51.0395508 C42.9899101,50.9106439 43.2226551,50.5507842 43.4482422,49.9599609 C43.6738293,49.3691377 43.7866211,48.7031287 43.7866211,47.9619141 C43.7866211,47.1956342 43.6756196,46.5063507 43.4536133,45.894043 C43.3963213,45.7185864 43.3050136,45.5467131 43.1796875,45.378418 C43.0543614,45.2101229 42.9111336,45.1259766 42.75,45.1259766 C42.467121,45.1259766 42.1663427,45.4625617 41.8476562,46.1357422 Z M49.5927734,48.0048828 C49.5319007,49.2832095 49.5014648,50.0978173 49.5014648,50.4487305 C49.5014648,50.7781592 49.5247394,51.2114231 49.5712891,51.7485352 C49.599935,52.0994484 49.6142578,52.3107093 49.6142578,52.3823242 C49.6142578,52.7941101 49.4817722,53 49.2167969,53 C49.0843092,53 48.7692082,52.8979502 48.2714844,52.6938477 C47.823891,52.4181301 47.5356452,52.2041837 47.4067383,52.052002 C47.2778314,51.8998202 47.2133789,51.66618 47.2133789,51.3510742 C47.2133789,51.311686 47.2169596,51.2508142 47.2241211,51.168457 C47.2312826,51.0860998 47.2348633,51.0216474 47.2348633,50.9750977 C47.2599285,50.6671534 47.2894692,50.205244 47.3234863,49.5893555 C47.3575034,48.973467 47.3870441,48.5043961 47.4121094,48.1821289 C46.9573545,47.8455387 46.7299805,47.573406 46.7299805,47.3657227 C46.7299805,47.1258126 46.9877904,46.9073903 47.503418,46.7104492 C47.517741,46.3702782 47.5249023,45.8260129 47.5249023,45.0776367 L47.5249023,43.5844727 C47.5249023,43.5701497 47.5132651,43.5244958 47.4899902,43.4475098 C47.4667154,43.3705237 47.4550781,43.305176 47.4550781,43.2514648 C47.4550781,42.9614243 47.5947252,42.8164062 47.8740234,42.8164062 C48.0566415,42.8164062 48.2482086,42.8522132 48.4487305,42.9238281 C48.8891624,43.1028655 49.1809889,43.245198 49.3242187,43.3508301 C49.4674486,43.4564621 49.5784501,43.6507147 49.6572266,43.9335937 C49.6572266,43.972982 49.6679686,44.1287421 49.6894531,44.4008789 C49.7109376,44.6730157 49.7216797,44.9290353 49.7216797,45.1689453 C49.7216797,45.6953151 49.7001955,46.1357404 49.6572266,46.4902344 C49.9580093,46.4436847 50.6616156,46.4060874 51.7680664,46.3774414 C51.7680664,46.3631184 51.7644857,46.345215 51.7573242,46.3237305 C51.7501627,46.302246 51.746582,46.2843425 51.746582,46.2700195 C51.746582,46.037271 51.7653807,45.6774113 51.8029785,45.1904297 C51.8405764,44.7034481 51.859375,44.3435884 51.859375,44.1108398 C51.859375,43.8458646 51.8522136,43.677572 51.8378906,43.605957 C51.8378906,43.5952148 51.8298341,43.5719403 51.8137207,43.5361328 C51.7976073,43.5003253 51.7895508,43.4716798 51.7895508,43.4501953 C51.7895508,43.1744778 51.9291978,43.0366211 52.2084961,43.0366211 C52.3839527,43.0366211 52.5379225,43.0652666 52.6704102,43.1225586 C53.5369509,43.4806333 53.9702148,43.8028957 53.9702148,44.0893555 L53.9702148,44.1323242 C53.9236651,44.4259455 53.8914389,44.7473127 53.8735352,45.0964355 C53.8556314,45.4455584 53.8350424,45.9728155 53.8117676,46.6782227 C53.7884927,47.3836298 53.7679037,47.8920883 53.75,48.2036133 C53.721354,48.7622098 53.7070312,49.1578764 53.7070312,49.390625 C53.7070312,50.2607465 53.7875969,51.2293241 53.9487305,52.2963867 C53.9773764,52.4002284 53.9916992,52.5470368 53.9916992,52.7368164 C53.9916992,53.1020526 53.8162452,53.284668 53.465332,53.284668 C53.2827139,53.284668 53.0392268,53.2255865 52.7348633,53.1074219 C52.2622047,52.9140615 51.9533699,52.7072765 51.8083496,52.4870605 C51.6633294,52.2668446 51.5908203,51.8291048 51.5908203,51.1738281 C51.5908203,51.0735672 51.6069334,50.7298206 51.6391602,50.1425781 C51.6534831,50.0100905 51.6606445,49.7451192 51.6606445,49.3476562 L51.6606445,47.784668 C51.5102532,47.798991 51.2963067,47.8133137 51.0187988,47.8276367 C50.7412909,47.8419597 50.4915376,47.8616535 50.2695312,47.8867187 C50.0475249,47.911784 49.8219412,47.9511716 49.5927734,48.0048828 Z M59.7548828,46.0014648 L59.7548828,45.894043 C59.7548828,45.7579746 59.7146,45.6398117 59.6340332,45.5395508 C59.5534664,45.4392899 59.4541022,45.3891602 59.3359375,45.3891602 C59.1819654,45.3891602 59.0494797,45.4249671 58.9384766,45.496582 C58.394203,45.8474952 57.9940605,46.3416309 57.7380371,46.9790039 C57.4820137,47.6163769 57.3540039,48.2805955 57.3540039,48.9716797 C57.3540039,49.490888 57.4202467,49.9689106 57.5527344,50.4057617 C57.6350916,50.6671563 57.8266587,50.7978516 58.1274414,50.7978516 C58.2169601,50.7978516 58.3924141,50.7620446 58.6538086,50.6904297 C59.1980821,50.3896469 59.5436191,49.9277375 59.6904297,49.3046875 C59.6904297,49.0898427 59.6823731,48.8186052 59.6662598,48.4909668 C59.6501464,48.1633284 59.6420898,47.9064137 59.6420898,47.7202148 C59.6420898,47.1437146 59.6796871,46.5708036 59.7548828,46.0014648 Z M59.7763672,52.2963867 C59.3359353,52.7797876 58.8149444,53.0214844 58.2133789,53.0214844 C57.6368786,53.0214844 57.0845567,52.8039573 56.5563965,52.3688965 C56.0282363,51.9338357 55.6424166,51.3600296 55.3989258,50.6474609 C55.0909815,49.7665972 54.9370117,48.9734736 54.9370117,48.2680664 C54.9370117,46.4275624 55.8089106,44.902187 57.5527344,43.6918945 C57.9860048,43.3696273 58.3315417,43.2084961 58.5893555,43.2084961 C58.6573897,43.2084961 58.7379553,43.2228189 58.8310547,43.2514648 C59.3574245,43.6489278 59.6796869,43.8476562 59.7978516,43.8476562 C59.9231777,43.8476562 60.0109047,43.686525 60.0610352,43.3642578 C60.0610352,43.3499348 60.0574545,43.3212893 60.050293,43.2783203 C60.0431315,43.2353513 60.0395508,43.2120768 60.0395508,43.2084961 C60.0395508,42.9005518 60.1791978,42.746582 60.4584961,42.746582 C60.7270521,42.746582 61.0421531,42.8862291 61.4038086,43.1655273 C61.7618833,43.3839529 62.0017898,43.5558262 62.1235352,43.6811523 C62.2452806,43.8064785 62.3061523,43.964029 62.3061523,44.1538086 C62.3061523,44.218262 62.2900392,44.3400056 62.2578125,44.519043 C62.2255858,44.6980803 62.2041016,44.8198239 62.1933594,44.8842773 C61.9892568,45.611169 61.887207,46.4383092 61.887207,47.3657227 C61.887207,49.1059657 62.1289038,50.6546156 62.6123047,52.0117187 C62.7734383,52.4485699 62.8540039,52.7636709 62.8540039,52.9570312 C62.8540039,53.2041028 62.7376314,53.3276367 62.5048828,53.3276367 C61.3160748,53.3276367 60.6339527,53.0931013 60.4584961,52.6240234 C60.3295892,52.2444642 60.2114263,52.0546875 60.1040039,52.0546875 C60.018066,52.0546875 59.9088548,52.1352531 59.7763672,52.2963867 Z" id="Пик-сезона" fill="#FFFFFF"></path>
        </g>
    </g>
</svg>