<svg xmlns="http://www.w3.org/2000/svg" width="54" height="70" viewBox="0 0 54 70">
  <metadata><?xpacket begin="﻿" id="W5M0MpCehiHzreSzNTczkc9d"?>
<x:xmpmeta xmlns:x="adobe:ns:meta/" x:xmptk="Adobe XMP Core 5.6-c138 79.159824, 2016/09/14-01:09:01        ">
   <rdf:RDF xmlns:rdf="http://www.w3.org/1999/02/22-rdf-syntax-ns#">
      <rdf:Description rdf:about=""/>
   </rdf:RDF>
</x:xmpmeta>
                                                                                                    
                                                                                                    
                                                                                                    
                                                                                                    
                                                                                                    
                                                                                                    
                                                                                                    
                                                                                                    
                                                                                                    
                                                                                                    
                                                                                                    
                                                                                                    
                                                                                                    
                                                                                                    
                                                                                                    
                                                                                                    
                                                                                                    
                                                                                                    
                                                                                                    
                                                                                                    
                           
<?xpacket end="w"?></metadata>
<defs>
    <style>
      .cls-1 {
        fill: #fff;
        fill-rule: evenodd;
      }
    </style>
  </defs>
  <path id="order" class="cls-1" d="M743.588,3602.8H727.519a10.962,10.962,0,0,0,.414-2.81,10.022,10.022,0,0,0-20.044,0,10.47,10.47,0,0,0,.414,2.81H692.317a1.308,1.308,0,0,0-1.326,1.32v54.57a1.308,1.308,0,0,0,1.326,1.32h51.354a1.307,1.307,0,0,0,1.325-1.32v-54.57A1.435,1.435,0,0,0,743.588,3602.8Zm-25.677-10.25a7.471,7.471,0,0,1,7.455,7.44,7.066,7.066,0,0,1-.746,3.22,1.423,1.423,0,0,0-.331.58h0a0.086,0.086,0,0,1-.083.09c0,0.08-.083.08-0.083,0.16v0.83a0.158,0.158,0,0,0,.083.16,0.086,0.086,0,0,0,.083.09c0,0.08.083,0.08,0.083,0.16h0l3.23,4.22H708.3l3.23-4.22h0c0-.08.083-0.08,0.083-0.16v-0.09a0.158,0.158,0,0,1,.083-0.16v-0.58a0.178,0.178,0,0,0-.083-0.17v-0.08a0.158,0.158,0,0,0-.083-0.16,0.086,0.086,0,0,0-.083-0.09h0c-0.083-.16-0.165-0.33-0.248-0.49a7.512,7.512,0,0,1-.828-3.31A7.652,7.652,0,0,1,717.911,3592.55Zm-12.176,19.59h28.908v37.37H701.262v-37.37h4.473Zm36.611,45.22H693.559v-51.91h14.578l-3.147,4.13h-5.053a1.307,1.307,0,0,0-1.325,1.32v40.01a1.31,1.31,0,0,0,1.325,1.33h35.948a1.309,1.309,0,0,0,1.325-1.33v-40.09a1.307,1.307,0,0,0-1.325-1.32h-5.052l-3.148-4.14h14.578l0.083,52h0Zm-24.435-60.59a3.22,3.22,0,1,1-3.23,3.22A3.224,3.224,0,0,1,717.911,3596.77Zm-10.6,24.88h21.37a1.325,1.325,0,1,0,0-2.65h-21.37A1.325,1.325,0,1,0,707.309,3621.65Zm0,7.94h21.37a1.325,1.325,0,1,0,0-2.65h-21.37A1.325,1.325,0,1,0,707.309,3629.59Zm0,8.01h21.37a1.32,1.32,0,1,0,0-2.64h-21.37A1.32,1.32,0,1,0,707.309,3637.6Z" transform="translate(-691 -3590)"/>
</svg>
