<svg xmlns="http://www.w3.org/2000/svg" width="59" height="81" viewBox="0 0 59 81">
  <metadata><?xpacket begin="﻿" id="W5M0MpCehiHzreSzNTczkc9d"?>
<x:xmpmeta xmlns:x="adobe:ns:meta/" x:xmptk="Adobe XMP Core 5.6-c138 79.159824, 2016/09/14-01:09:01        ">
   <rdf:RDF xmlns:rdf="http://www.w3.org/1999/02/22-rdf-syntax-ns#">
      <rdf:Description rdf:about=""/>
   </rdf:RDF>
</x:xmpmeta>
                                                                                                    
                                                                                                    
                                                                                                    
                                                                                                    
                                                                                                    
                                                                                                    
                                                                                                    
                                                                                                    
                                                                                                    
                                                                                                    
                                                                                                    
                                                                                                    
                                                                                                    
                                                                                                    
                                                                                                    
                                                                                                    
                                                                                                    
                                                                                                    
                                                                                                    
                                                                                                    
                           
<?xpacket end="w"?></metadata>
<defs>
    <style>
      .cls-1 {
        fill: #6b1d56;
        fill-rule: evenodd;
      }
    </style>
  </defs>
  <path id="package" class="cls-1" d="M989,1538.99v0.84l-0.531.12-0.416.18-6.108,3.91-0.949.54-0.415.19-13.522,4.27-1.066.05-8.306.91-26.928-16.84-0.474-.24-0.177-.36-0.119-.18,2.789-28.99,7.828-30.97,0.592-1.68,1.662-.36,3.556-.61,1.841-.24,0.476-.24,0.71-.17,0.177-.13,29.477,7.76,0.771,1.02,0.061,1.51-0.3,4.39-0.592.3-0.057.12-2.017.24,10.319,17.14,0.477,0.9,0.293,0.12,0.947,36.5h0Zm-2.487-2.16-0.89-33.26-13.165-21.71-0.061-.06-6.4,14.73,9.6,28.75,5.4,6.01,4.212,4.33,1.008,1.15,0.3,0.06h0Zm-5.342,4.75,3.858-2.46-9.665-10.17-1.9,2.34-11.387,15.22-0.236.54,5.1-.54,12.991-4.09,1.241-.84h0Zm-3.555-59.84-0.118-2.28-2.907.84,1.543,1.56,1.482-.12h0Zm-4.625-3.67,0.591-.24-23.842-6.19-0.061.12-1.125.3,22.24,5.83,2.2,0.18h0Zm-0.238,50.04,0.828-1.21-9.074-26.94-0.057-.06-2.373,5.54-2.254,39.87,12.93-17.2h0Zm-12.575-24.48,10.143-23.33-27.284-7.1-0.118.12-7.77,30.79-2.551,27.24,24.317,15.28,0.356,0.06,2.313-40.29-0.117-1.27,0.711-1.5h0Z" transform="translate(-930 -1469)"/>
</svg>
