<svg xmlns="http://www.w3.org/2000/svg" width="70" height="65" viewBox="0 0 70 65">
  <metadata><?xpacket begin="﻿" id="W5M0MpCehiHzreSzNTczkc9d"?>
<x:xmpmeta xmlns:x="adobe:ns:meta/" x:xmptk="Adobe XMP Core 5.6-c138 79.159824, 2016/09/14-01:09:01        ">
   <rdf:RDF xmlns:rdf="http://www.w3.org/1999/02/22-rdf-syntax-ns#">
      <rdf:Description rdf:about=""/>
   </rdf:RDF>
</x:xmpmeta>
                                                                                                    
                                                                                                    
                                                                                                    
                                                                                                    
                                                                                                    
                                                                                                    
                                                                                                    
                                                                                                    
                                                                                                    
                                                                                                    
                                                                                                    
                                                                                                    
                                                                                                    
                                                                                                    
                                                                                                    
                                                                                                    
                                                                                                    
                                                                                                    
                                                                                                    
                                                                                                    
                           
<?xpacket end="w"?></metadata>
<defs>
    <style>
      .cls-1 {
        fill: #fff;
        fill-rule: evenodd;
      }
    </style>
  </defs>
  <path id="pay" class="cls-1" d="M989.749,3620.03v-9a7.511,7.511,0,0,0-6.029-7.34c-0.142-4.53-1-7.16-2.693-8.21a3.251,3.251,0,0,0-3.22-.11c-3.05.93-33.046,7.63-35.472,8.17H932.5a7.511,7.511,0,0,0-7.5,7.5v41.46a7.5,7.5,0,0,0,7.5,7.49h49.75a7.5,7.5,0,0,0,7.5-7.49v-10.49H995v-21.98h-5.251Zm-10.831-21.89a0.684,0.684,0,0,1,.531-0.11c0.122,0.07,1.083.86,1.263,5.51H956C965.465,3601.4,976.882,3598.78,978.918,3598.14Zm7.831,40.87H963.5a8,8,0,1,1,0-15.99h23.25v15.99Zm0-18.98H963.5a10.99,10.99,0,1,0,0,21.98h23.25v10.49a4.5,4.5,0,0,1-4.5,4.49H932.5a4.5,4.5,0,0,1-4.5-4.49v-41.47a4.5,4.5,0,0,1,4.5-4.49h49.75a4.5,4.5,0,0,1,4.5,4.49v9Zm5.25,18.98h-2.25v-15.99H992v15.99Zm-18.252-2a6,6,0,1,0-6-5.99A6,6,0,0,0,973.747,3637.01Zm0-8.99a3,3,0,1,1-3,3A3.006,3.006,0,0,1,973.747,3628.02Zm-29.56,21.66h6.75v2.25h-6.75v-2.25Zm22.81,0h6.75v2.25H967v-2.25Zm-11.438,0h6.75v2.25h-6.75v-2.25Zm-11.372-38.21h6.75v2.25h-6.75v-2.25Zm22.81,0h6.75v2.25H967v-2.25Zm9.375,0v2.25h4.5v4.5h2.25v-6.75h-6.75Zm6.75,40.46v-6.74h-2.25v4.49h-4.5v2.25h6.75Zm-50.373-28.94H935v6.75h-2.25v-6.75Zm0-11.52v6.75H935v-4.5h4.5v-2.25h-6.75Zm2.25,33.72h-2.25v6.74h6.75v-2.25H935v-4.49Zm-2.25-10.77H935v6.74h-2.25v-6.74Zm22.81-22.95h6.75v2.25h-6.75v-2.25Z" transform="translate(-925 -3595)"/>
</svg>
