<svg xmlns="http://www.w3.org/2000/svg" width="80.75" height="80.75" viewBox="0 0 80.75 80.75">
  <metadata><?xpacket begin="﻿" id="W5M0MpCehiHzreSzNTczkc9d"?>
<x:xmpmeta xmlns:x="adobe:ns:meta/" x:xmptk="Adobe XMP Core 5.6-c138 79.159824, 2016/09/14-01:09:01        ">
   <rdf:RDF xmlns:rdf="http://www.w3.org/1999/02/22-rdf-syntax-ns#">
      <rdf:Description rdf:about=""/>
   </rdf:RDF>
</x:xmpmeta>
                                                                                                    
                                                                                                    
                                                                                                    
                                                                                                    
                                                                                                    
                                                                                                    
                                                                                                    
                                                                                                    
                                                                                                    
                                                                                                    
                                                                                                    
                                                                                                    
                                                                                                    
                                                                                                    
                                                                                                    
                                                                                                    
                                                                                                    
                                                                                                    
                                                                                                    
                                                                                                    
                           
<?xpacket end="w"?></metadata>
<defs>
    <style>
      .cls-1 {
        fill: #84b92f;
        fill-rule: evenodd;
      }
    </style>
  </defs>
  <path id="ringing_phone" class="cls-1" d="M816,875.576a3.529,3.529,0,0,1,3.525,3.525v32.791A3.529,3.529,0,0,1,816,915.417H801a3.529,3.529,0,0,1-3.525-3.525V879.1A3.529,3.529,0,0,1,801,875.576h15m0-2.5H801a6.024,6.024,0,0,0-6.024,6.024v32.791A6.024,6.024,0,0,0,801,917.917h15a6.024,6.024,0,0,0,6.024-6.025V879.1A6.024,6.024,0,0,0,816,873.077h0Zm-5.5,36.655a2,2,0,1,0-2,2A2,2,0,0,0,810.5,909.732Zm3.668-46.209-0.007.042a1.229,1.229,0,0,0,.968,1.41,31.185,31.185,0,0,1,23.886,23.889,1.231,1.231,0,0,0,1.411.968l0.042-.008a1.221,1.221,0,0,0,.993-1.443,33.642,33.642,0,0,0-25.85-25.851A1.221,1.221,0,0,0,814.165,863.523Zm-37.6,37.639-0.042.007a1.221,1.221,0,0,0-.993,1.443,33.642,33.642,0,0,0,25.849,25.852,1.22,1.22,0,0,0,1.443-.993l0.008-.042a1.231,1.231,0,0,0-.968-1.411,31.185,31.185,0,0,1-23.887-23.888A1.229,1.229,0,0,0,776.564,901.162Zm-7.379,1.282-0.048.009a1.222,1.222,0,0,0-1,1.441A41.143,41.143,0,0,0,800.1,935.861a1.224,1.224,0,0,0,1.442-1l0.009-.054a1.224,1.224,0,0,0-.972-1.4,38.653,38.653,0,0,1-29.991-29.99A1.223,1.223,0,0,0,769.185,902.444Zm46.264-46.307-0.009.048a1.223,1.223,0,0,0,.972,1.4A38.655,38.655,0,0,1,846.4,887.579a1.224,1.224,0,0,0,1.4.972l0.061-.011a1.224,1.224,0,0,0,1-1.442,41.167,41.167,0,0,0-31.971-31.959A1.222,1.222,0,0,0,815.449,856.137Z" transform="translate(-768.125 -855.125)"/>
</svg>
