<svg xmlns="http://www.w3.org/2000/svg" width="45.96" height="111" viewBox="0 0 45.96 111">
  <metadata><?xpacket begin="﻿" id="W5M0MpCehiHzreSzNTczkc9d"?>
<x:xmpmeta xmlns:x="adobe:ns:meta/" x:xmptk="Adobe XMP Core 5.6-c138 79.159824, 2016/09/14-01:09:01        ">
   <rdf:RDF xmlns:rdf="http://www.w3.org/1999/02/22-rdf-syntax-ns#">
      <rdf:Description rdf:about=""/>
   </rdf:RDF>
</x:xmpmeta>
                                                                                                    
                                                                                                    
                                                                                                    
                                                                                                    
                                                                                                    
                                                                                                    
                                                                                                    
                                                                                                    
                                                                                                    
                                                                                                    
                                                                                                    
                                                                                                    
                                                                                                    
                                                                                                    
                                                                                                    
                                                                                                    
                                                                                                    
                                                                                                    
                                                                                                    
                                                                                                    
                           
<?xpacket end="w"?></metadata>
<defs>
    <style>
      .cls-1 {
        fill: #fff;
        fill-rule: evenodd;
      }
    </style>
  </defs>
  <path id="rouble2" class="cls-1" d="M1534.56,304.536c0.02,0,.04-0.006.07-0.006h11.49c9.07,0,15.73-5.92,15.73-21.017v-18.5c0-12.137-4.39-21.017-15.73-21.017H1519.8a3.583,3.583,0,0,0-3.78,3.552,3.741,3.741,0,0,0,3.93,3.7h3.78v46.036h-4.04a3.627,3.627,0,1,0,0,7.253h4.04V317.7h-4.04a3.627,3.627,0,1,0,0,7.253h4.04v22.791h-4.08a3.583,3.583,0,0,0-3.78,3.552,3.7,3.7,0,0,0,3.78,3.7h21.48a3.589,3.589,0,0,0,3.78-3.552,3.747,3.747,0,0,0-3.93-3.7h-8.47V324.957h21.76a3.627,3.627,0,1,0,0-7.253h-21.76V304.536h2.05Zm-2.05-53.289h11.64c5.14,0,8.93,3.4,8.93,12.285v21.461c0,7.1-2.42,12.285-8.63,12.285h-11.94V251.247Z" transform="translate(-1515.88 -244)"/>
</svg>
