<svg xmlns="http://www.w3.org/2000/svg" width="19.03" height="20" viewBox="0 0 19.03 20">
  <metadata><?xpacket begin="﻿" id="W5M0MpCehiHzreSzNTczkc9d"?>
<x:xmpmeta xmlns:x="adobe:ns:meta/" x:xmptk="Adobe XMP Core 5.6-c138 79.159824, 2016/09/14-01:09:01        ">
   <rdf:RDF xmlns:rdf="http://www.w3.org/1999/02/22-rdf-syntax-ns#">
      <rdf:Description rdf:about=""/>
   </rdf:RDF>
</x:xmpmeta>
                                                                                                    
                                                                                                    
                                                                                                    
                                                                                                    
                                                                                                    
                                                                                                    
                                                                                                    
                                                                                                    
                                                                                                    
                                                                                                    
                                                                                                    
                                                                                                    
                                                                                                    
                                                                                                    
                                                                                                    
                                                                                                    
                                                                                                    
                                                                                                    
                                                                                                    
                                                                                                    
                           
<?xpacket end="w"?></metadata>
<defs>
    <style>
      .cls-1 {
        fill: #3a3a3a;
        fill-rule: evenodd;
      }
    </style>
  </defs>
  <path class="cls-1" d="M1350.67,540.539c5.1,0,7.18-2.376,7.18-5.423,0-2.964-2.11-5.116-7.18-5.116h-11.85v2.488h1.69a1,1,0,0,1,1.21,1.091v4.472h-2.9v2.488h2.9v1.441h-2.9v2.488h2.9v1.952a1,1,0,0,1-1.21,1.091h-1.69V550h10.53v-2.488h-1.69a1,1,0,0,1-1.21-1.091v-1.952h6.15V541.99c-0.78.009-1.34-.01-2.17-0.01h-3.98v-1.441h4.22Zm-4.22-8.051h3.43c2.06,0,3.16,1.006,3.16,2.628,0,2.013-1.07,2.935-3.32,2.935h-3.27v-5.563Z" transform="translate(-1338.81 -530)"/>
</svg>
