<svg xmlns="http://www.w3.org/2000/svg" width="73" height="88" viewBox="0 0 73 88">
  <metadata><?xpacket begin="﻿" id="W5M0MpCehiHzreSzNTczkc9d"?>
<x:xmpmeta xmlns:x="adobe:ns:meta/" x:xmptk="Adobe XMP Core 5.6-c138 79.159824, 2016/09/14-01:09:01        ">
   <rdf:RDF xmlns:rdf="http://www.w3.org/1999/02/22-rdf-syntax-ns#">
      <rdf:Description rdf:about=""/>
   </rdf:RDF>
</x:xmpmeta>
                                                                                                    
                                                                                                    
                                                                                                    
                                                                                                    
                                                                                                    
                                                                                                    
                                                                                                    
                                                                                                    
                                                                                                    
                                                                                                    
                                                                                                    
                                                                                                    
                                                                                                    
                                                                                                    
                                                                                                    
                                                                                                    
                                                                                                    
                                                                                                    
                                                                                                    
                                                                                                    
                           
<?xpacket end="w"?></metadata>
<defs>
    <style>
      .cls-1 {
        fill: #d9cd01;
        fill-rule: evenodd;
      }
    </style>
  </defs>
  <path id="service" class="cls-1" d="M1400,1507.5a36.5,36.5,0,0,0-73,0v25c0,10.49,4.66,16.5,12.79,16.5,5.32,0,7.71-8.29,7.71-16.5s-2.39-16.5-7.71-16.5a11.29,11.29,0,0,0-9.79,4.82V1507.5a33.5,33.5,0,0,1,67,0v13.32a11.3,11.3,0,0,0-9.79-4.82c-1.81,0-4.34.98-6.06,5.67a32.546,32.546,0,0,0-1.65,10.83c0,7.56,2.03,15.16,6.5,16.33a24.184,24.184,0,0,1-8.7,2.11,6.483,6.483,0,1,0,.03,3.03,26.467,26.467,0,0,0,16.11-6.5c2.74-1.56,4.69-4.27,5.72-8.01a13.167,13.167,0,0,0,.84-4.46,1.547,1.547,0,0,0-.07-0.43c0.04-.67.07-1.36,0.07-2.07v-25Zm-60.21,11.5c2.6,0,4.71,6.06,4.71,13.5a29.882,29.882,0,0,1-1.46,9.79c-0.51,1.39-1.61,3.71-3.25,3.71-8.09,0-9.79-7.34-9.79-13.5S1331.7,1519,1339.79,1519Zm47.42,27c-2.6,0-4.71-6.06-4.71-13.5a29.882,29.882,0,0,1,1.46-9.79c0.51-1.39,1.61-3.71,3.25-3.71,8.09,0,9.79,7.34,9.79,13.5a23.9,23.9,0,0,1-.75,6.24,16.648,16.648,0,0,1-4.27,6.1A9.373,9.373,0,0,1,1387.21,1546ZM1371,1556a3.5,3.5,0,1,1,3.5-3.5A3.5,3.5,0,0,1,1371,1556Z" transform="translate(-1327 -1471)"/>
</svg>
