<svg xmlns="http://www.w3.org/2000/svg" width="80.97" height="82" viewBox="0 0 80.97 82">
  <metadata><?xpacket begin="﻿" id="W5M0MpCehiHzreSzNTczkc9d"?>
<x:xmpmeta xmlns:x="adobe:ns:meta/" x:xmptk="Adobe XMP Core 5.6-c138 79.159824, 2016/09/14-01:09:01        ">
   <rdf:RDF xmlns:rdf="http://www.w3.org/1999/02/22-rdf-syntax-ns#">
      <rdf:Description rdf:about=""/>
   </rdf:RDF>
</x:xmpmeta>
                                                                                                    
                                                                                                    
                                                                                                    
                                                                                                    
                                                                                                    
                                                                                                    
                                                                                                    
                                                                                                    
                                                                                                    
                                                                                                    
                                                                                                    
                                                                                                    
                                                                                                    
                                                                                                    
                                                                                                    
                                                                                                    
                                                                                                    
                                                                                                    
                                                                                                    
                                                                                                    
                           
<?xpacket end="w"?></metadata>
<defs>
    <style>
      .cls-1 {
        fill: #fac152;
        fill-rule: evenodd;
      }
    </style>
  </defs>
  <path id="strawberry" class="cls-1" d="M1403.32,895.786a1.985,1.985,0,0,0-3.97,0c0,1.093.89,3.818,1.99,3.818S1403.32,896.879,1403.32,895.786Zm-6.98-17.234a1.983,1.983,0,0,0-1.99,1.981c0,1.093.89,3.818,1.99,3.818s1.98-2.725,1.98-3.818A1.981,1.981,0,0,0,1396.34,878.552Zm6.55,33.388a1.986,1.986,0,0,0-1.99,1.982c0,1.093.89,3.817,1.99,3.817s1.98-2.724,1.98-3.817A1.977,1.977,0,0,0,1402.89,911.94Zm-12.76-9.067a1.984,1.984,0,0,0-1.99,1.981c0,1.093.89,3.818,1.99,3.818s1.98-2.725,1.98-3.818A1.976,1.976,0,0,0,1390.13,902.873Zm24.36,18.138a1.985,1.985,0,0,0-1.99,1.981c0,1.094.89,3.818,1.99,3.818s1.98-2.724,1.98-3.818A1.976,1.976,0,0,0,1414.49,921.011Zm-30.92-33.392a1.982,1.982,0,0,0-1.98,1.982c0,1.093.89,3.817,1.98,3.817s1.99-2.724,1.99-3.817A1.985,1.985,0,0,0,1383.57,887.619Zm43.29,6.186a1.984,1.984,0,0,0-1.99,1.981c0,1.093.89,3.818,1.99,3.818s1.99-2.725,1.99-3.818A1.984,1.984,0,0,0,1426.86,893.805Zm16.21-6.186a1.985,1.985,0,0,0-1.99,1.982c0,1.093.89,3.817,1.99,3.817s1.99-2.724,1.99-3.817A1.985,1.985,0,0,0,1443.07,887.619Zm-5,16.8a1.984,1.984,0,0,0-1.99,1.981c0,1.093.89,3.818,1.99,3.818s1.98-2.725,1.98-3.818A1.976,1.976,0,0,0,1438.07,904.419Zm-23.58-2.9a1.984,1.984,0,0,0-1.99,1.981c0,1.093.89,3.817,1.99,3.817s1.98-2.724,1.98-3.817A1.976,1.976,0,0,0,1414.49,901.52Zm19.04-31.512a18.077,18.077,0,0,0-3.97.47c2.75-4.93,4.84-13.384,4.94-13.786a1.139,1.139,0,0,0-.16-0.914,1.165,1.165,0,0,0-.78-0.5c-0.53-.088-12.91-2.035-19.43,5.578a9.142,9.142,0,0,0-1.25,1.961c-5.46-3.866-13.2-2.657-13.55-2.6a1.146,1.146,0,0,0-.91,1.508c0,0.021.71,2.165,1.15,4.34l0.18,0.913a34.53,34.53,0,0,0,.91,3.835,18.9,18.9,0,0,0-5.22-.8c-12.43,0-21.45,9.739-21.45,23.159,0,21.244,38.3,42.771,39.93,43.677a1.147,1.147,0,0,0,.57.147,1.106,1.106,0,0,0,.56-0.147c1.63-.906,39.93-22.438,39.93-43.677C1454.98,879.747,1445.96,870.008,1433.53,870.008Zm-19.04-4.885v-0.009a7.121,7.121,0,0,1,1.41-2.757c4.54-5.3,12.84-5.195,16-4.935-0.8,2.954-2.95,10.239-5.37,13.471a8.33,8.33,0,0,1-8.83,2.277,23.138,23.138,0,0,1,6.24-8.01,1.154,1.154,0,0,0,.16-1.634,1.171,1.171,0,0,0-1.64-.161,25.525,25.525,0,0,0-6.68,8.392,6.46,6.46,0,0,1-1.51-3.4A8,8,0,0,1,1414.49,865.123Zm4.13,10.559c-0.85.651-1.65,1.331-2.39,2.022a22.218,22.218,0,0,1,.76-2.578A8.68,8.68,0,0,0,1418.62,875.682Zm-6.52-10.514a10.569,10.569,0,0,0-.13,3.5,8.751,8.751,0,0,0,1.74,4.222,4.478,4.478,0,0,1-.56.662,26,26,0,0,0-4.44-5.887,1.171,1.171,0,0,0-1.65,0,1.157,1.157,0,0,0,.01,1.641,23.921,23.921,0,0,1,4.12,5.484c-1.9.6-4.72,0.414-6.07-.829-2.01-1.864-2.58-4.82-3.08-7.431l-0.19-.933c-0.24-1.2-.55-2.374-0.8-3.237C1403.46,862.205,1408.62,862.293,1412.1,865.168Zm2.39,69.325c-4.8-2.775-38.17-22.766-38.17-41.328,0-12.076,8.04-20.84,19.12-20.84a18.321,18.321,0,0,1,6.46,1.311,9.621,9.621,0,0,0,1.64,2.029,7.9,7.9,0,0,0,5.23,1.775,26.449,26.449,0,0,1,4.81,4.528,1.157,1.157,0,0,0,1.81,0c3.74-4.671,11.36-9.639,18.14-9.639,11.08,0,19.12,8.763,19.12,20.84C1452.66,911.716,1419.28,931.717,1414.49,934.493Zm0-48.227a1.984,1.984,0,0,0-1.99,1.981c0,1.093.89,3.818,1.99,3.818s1.98-2.725,1.98-3.818A1.976,1.976,0,0,0,1414.49,886.266Zm17.37-7.714a1.983,1.983,0,0,0-1.99,1.981c0,1.093.89,3.818,1.99,3.818s1.99-2.725,1.99-3.818A1.983,1.983,0,0,0,1431.86,878.552Zm-6.55,33.388a1.986,1.986,0,0,0-1.99,1.982c0,1.093.89,3.817,1.99,3.817s1.98-2.724,1.98-3.817A1.977,1.977,0,0,0,1425.31,911.94Z" transform="translate(-1374 -855)"/>
</svg>
