<svg xmlns="http://www.w3.org/2000/svg" width="84.001" height="83.79" viewBox="0 0 84.001 83.79">
  <metadata><?xpacket begin="﻿" id="W5M0MpCehiHzreSzNTczkc9d"?>
<x:xmpmeta xmlns:x="adobe:ns:meta/" x:xmptk="Adobe XMP Core 5.6-c138 79.159824, 2016/09/14-01:09:01        ">
   <rdf:RDF xmlns:rdf="http://www.w3.org/1999/02/22-rdf-syntax-ns#">
      <rdf:Description rdf:about=""/>
   </rdf:RDF>
</x:xmpmeta>
                                                                                                    
                                                                                                    
                                                                                                    
                                                                                                    
                                                                                                    
                                                                                                    
                                                                                                    
                                                                                                    
                                                                                                    
                                                                                                    
                                                                                                    
                                                                                                    
                                                                                                    
                                                                                                    
                                                                                                    
                                                                                                    
                                                                                                    
                                                                                                    
                                                                                                    
                                                                                                    
                           
<?xpacket end="w"?></metadata>
<defs>
    <style>
      .cls-1 {
        fill: #ffa800;
        fill-rule: evenodd;
      }
    </style>
  </defs>
  <path class="cls-1" d="M967.517,1896.04a3.537,3.537,0,0,1,3.543,3.52v32.68a3.528,3.528,0,0,1-3.543,3.51H952.435a3.527,3.527,0,0,1-3.543-3.51v-32.68a3.536,3.536,0,0,1,3.543-3.52h15.082m0-2.49H952.435a6.032,6.032,0,0,0-6.055,6.01v32.68a6.024,6.024,0,0,0,6.055,6h15.082a6.024,6.024,0,0,0,6.055-6v-32.68a6.032,6.032,0,0,0-6.055-6.01h0Zm-5.532,36.54a2.01,2.01,0,1,0-2.009,1.99A2.007,2.007,0,0,0,961.985,1930.09Zm-2.011-55.84a41.956,41.956,0,0,0-20.953,5.57l0.761-4.28a1.256,1.256,0,0,0-2.474-.43l-1.157,6.5c-0.01.01-.02,0.01-0.029,0.02l0.022,0.02-0.145.82h0a1.248,1.248,0,0,0,1.019,1.44l7.422,1.3a1.249,1.249,0,1,0,.436-2.46l-4.553-.79a39.535,39.535,0,0,1,59,30.68,38.731,38.731,0,0,1-6.046,24.27,1.238,1.238,0,0,0,.161,1.56,1.262,1.262,0,0,0,1.946-.19,41.189,41.189,0,0,0,6.587-22.38C1001.97,1893.03,983.039,1874.25,959.974,1874.25Zm22.493,73.8h0l-7.421-1.3a1.249,1.249,0,1,0-.436,2.46l4.668,0.81a39.521,39.521,0,0,1-58.625-30.59,38.7,38.7,0,0,1,5.722-24.05,1.244,1.244,0,0,0-.172-1.55l-0.011-.01a1.266,1.266,0,0,0-1.955.21,41.157,41.157,0,0,0-6.253,21.9c0.016,22.78,18.984,41.59,41.961,41.61a42.065,42.065,0,0,0,20.5-5.28l-0.74,4.16a1.242,1.242,0,0,0,1.019,1.44h0a1.253,1.253,0,0,0,1.455-1.01l1.125-6.33a0.081,0.081,0,0,0,.042-0.02l-0.032-.03,0.173-.98A1.248,1.248,0,0,0,982.467,1948.05Z" transform="translate(-917.969 -1874.09)"/>
</svg>
