<svg xmlns="http://www.w3.org/2000/svg" width="85" height="88.81" viewBox="0 0 85 88.81">
<defs>
    <style>
      .cls-1 {
        fill: #f18925;
        fill-rule: evenodd;
      }
    </style>
  </defs>
  <path class="cls-1" d="M543.936,1960h0a19.962,19.962,0,0,0,4.9-.6l6.708-1.71,6.708,1.71a19.765,19.765,0,0,0,4.805.6,20.027,20.027,0,0,0,14.117-5.81l0.2-.2A55.352,55.352,0,0,0,598,1914.35a26.381,26.381,0,0,0-3.6-13.42,3.6,3.6,0,0,0,2.2-2.3,3.707,3.707,0,0,0-2.4-4.71,10.261,10.261,0,0,0-6.006-.2,27.231,27.231,0,0,0-17.42-6.2,50.422,50.422,0,0,0-12.214,1.5l-1.8.5v-0.8a16.956,16.956,0,0,1,9.311-15.12,1.275,1.275,0,1,0-1.1-2.3,19.045,19.045,0,0,0-8.71,8.81,21.233,21.233,0,0,0-24.328-7.71l-1.6.5,0.9,1.3a21.31,21.31,0,0,0,17.62,9.41,19.793,19.793,0,0,0,6.308-1,19.67,19.67,0,0,0-.9,5.91v0.8l-1.8-.4a50.434,50.434,0,0,0-12.214-1.5A27.13,27.13,0,0,0,513,1914.35v0.1a55.827,55.827,0,0,0,16.82,39.84A20.1,20.1,0,0,0,543.936,1960Zm5-78.79a18.714,18.714,0,0,1-14.516-6.91,17.438,17.438,0,0,1,4.5-.6,19.07,19.07,0,0,1,14.617,6.91A18.8,18.8,0,0,1,548.941,1881.21Zm44.552,15.02a1.265,1.265,0,1,1-.8,2.4,5.691,5.691,0,0,0-4.606.5,5.452,5.452,0,0,0-2.6,3.8,7.993,7.993,0,0,1-3.5,5.41,7.592,7.592,0,0,1-4.405,1.3,12.291,12.291,0,0,1-1.9-.2l-2.9-.7a1.184,1.184,0,0,1-.9-1.5,1.226,1.226,0,0,1,1.5-.9l2.9,0.7a5.415,5.415,0,0,0,6.708-4.41,8.035,8.035,0,0,1,3.8-5.5A7.638,7.638,0,0,1,593.493,1896.23Zm-21.325,14.81,2.9,0.7a7.808,7.808,0,0,0,2.2.3,6.168,6.168,0,0,1-4.105,1.61,6.35,6.35,0,0,1-6.307-6.31,6.286,6.286,0,0,1,6.307-6.31,6.2,6.2,0,0,1,5.507,3.31,3.227,3.227,0,0,1-1.7.1l-2.9-.7a3.8,3.8,0,0,0-4.605,2.7A3.679,3.679,0,0,0,572.168,1911.04Zm-56.665,3.31a24.59,24.59,0,0,1,24.729-24.43h0a50.537,50.537,0,0,1,11.613,1.4l3.7,0.9,3.7-.9a50.545,50.545,0,0,1,11.614-1.4,24.851,24.851,0,0,1,14.717,4.81,0.1,0.1,0,0,0-.1.1,10.47,10.47,0,0,0-4.906,7.3,1.421,1.421,0,0,1-.2.6,8.738,8.738,0,1,0,.4,9.11,12.3,12.3,0,0,0,2.6-1.2,10.79,10.79,0,0,0,4.605-7.11,3.214,3.214,0,0,1,1.4-2.1,3.023,3.023,0,0,1,2.1-.4,24.12,24.12,0,0,1,4.105,13.42h0a53.26,53.26,0,0,1-15.818,37.84l-0.2.1a17.847,17.847,0,0,1-12.415,5.1,19.346,19.346,0,0,1-4.2-.5l-7.409-1.8-7.308,1.8a20.128,20.128,0,0,1-4.205.5h-0.1a17.689,17.689,0,0,1-12.314-5,53.076,53.076,0,0,1-16.119-38.14h0Zm25.93-14.42a1.325,1.325,0,0,0-1.3-1.3,15.854,15.854,0,0,0-15.918,15.72,1.3,1.3,0,0,0,2.6,0,13.314,13.314,0,0,1,13.416-13.22A1.1,1.1,0,0,0,541.433,1899.93Z" transform="translate(-513 -1871.19)"/>
</svg>
