<svg xmlns="http://www.w3.org/2000/svg" width="85" height="88.81" viewBox="0 0 85 88.81">
  <metadata><?xpacket begin="﻿" id="W5M0MpCehiHzreSzNTczkc9d"?>
<x:xmpmeta xmlns:x="adobe:ns:meta/" x:xmptk="Adobe XMP Core 5.6-c138 79.159824, 2016/09/14-01:09:01        ">
   <rdf:RDF xmlns:rdf="http://www.w3.org/1999/02/22-rdf-syntax-ns#">
      <rdf:Description rdf:about=""/>
   </rdf:RDF>
</x:xmpmeta>
<?xpacket end="w"?></metadata>
<defs>
    <style>
      .cls-1 {
        fill: #d9cd01;
        fill-rule: evenodd;
      }
    </style>
  </defs>
  <path class="cls-1" d="M1351.94,1960h0a19.928,19.928,0,0,0,4.9-.6l6.71-1.7,6.71,1.7a19.725,19.725,0,0,0,4.8.6,20.027,20.027,0,0,0,14.12-5.8l0.2-.2a55.27,55.27,0,0,0,16.62-39.6,27.121,27.121,0,0,0-27.23-26.9,50.476,50.476,0,0,0-12.22,1.5l-1.8.5v-0.8a16.936,16.936,0,0,1,9.31-15.1,1.275,1.275,0,0,0-1.1-2.3,19.038,19.038,0,0,0-8.71,8.8,21.246,21.246,0,0,0-24.33-7.7l-1.6.6,0.9,1.3a21.329,21.329,0,0,0,17.62,9.4,19.805,19.805,0,0,0,6.31-1,19.636,19.636,0,0,0-.9,5.9v0.8l-1.8-.4a50.476,50.476,0,0,0-12.22-1.5,27.115,27.115,0,0,0-27.23,26.9v0.1a55.748,55.748,0,0,0,16.82,39.8A20.09,20.09,0,0,0,1351.94,1960Zm5-78.7a18.727,18.727,0,0,1-14.51-6.9,17.4,17.4,0,0,1,4.5-.6,19.1,19.1,0,0,1,14.62,6.9A18.834,18.834,0,0,1,1356.94,1881.3Zm-33.44,33.1a24.582,24.582,0,0,1,24.73-24.4h0a50.6,50.6,0,0,1,11.62,1.4l3.7,0.9,3.7-.9a50.6,50.6,0,0,1,11.62-1.4,24.582,24.582,0,0,1,24.73,24.4h0a53.178,53.178,0,0,1-15.82,37.8l-0.2.2a17.862,17.862,0,0,1-12.42,5.1,19.31,19.31,0,0,1-4.2-.5l-7.41-1.8-7.31,1.8a20.073,20.073,0,0,1-4.2.5h-0.1a17.708,17.708,0,0,1-12.32-5h0a53,53,0,0,1-16.12-38.1h0Zm25.93-14.4a1.324,1.324,0,0,0-1.3-1.3,15.845,15.845,0,0,0-15.92,15.7,1.305,1.305,0,0,0,2.61,0,13.3,13.3,0,0,1,13.41-13.2A1.1,1.1,0,0,0,1349.43,1900Z" transform="translate(-1321 -1871.19)"/>
</svg>
