<svg xmlns="http://www.w3.org/2000/svg" width="89.22" height="72.282" viewBox="0 0 89.22 72.282">
  <metadata><?xpacket begin="﻿" id="W5M0MpCehiHzreSzNTczkc9d"?>
<x:xmpmeta xmlns:x="adobe:ns:meta/" x:xmptk="Adobe XMP Core 5.6-c138 79.159824, 2016/09/14-01:09:01        ">
   <rdf:RDF xmlns:rdf="http://www.w3.org/1999/02/22-rdf-syntax-ns#">
      <rdf:Description rdf:about=""/>
   </rdf:RDF>
</x:xmpmeta>
                                                                                                    
                                                                                                    
                                                                                                    
                                                                                                    
                                                                                                    
                                                                                                    
                                                                                                    
                                                                                                    
                                                                                                    
                                                                                                    
                                                                                                    
                                                                                                    
                                                                                                    
                                                                                                    
                                                                                                    
                                                                                                    
                                                                                                    
                                                                                                    
                                                                                                    
                                                                                                    
                           
<?xpacket end="w"?></metadata>
<defs>
    <style>
      .cls-1 {
        fill: #a03083;
        fill-rule: evenodd;
      }
    </style>
  </defs>
  <path id="telega" class="cls-1" d="M1155.2,911.248L1122.34,921.9a4.363,4.363,0,0,1-1,.2,11.269,11.269,0,1,1-22.48-1.609,11.467,11.467,0,0,1,5.3-8.847,6.173,6.173,0,0,1-.5-1.207l-15.78-42.627a7.545,7.545,0,0,0-4.5-4.423l-4-.9c-1.89-.6-1.09-2.514.7-2.112l5.5,1.408a6.6,6.6,0,0,1,4.09,4.222l15.79,42.024c0.1,0.5.6,2.413,0.7,2.815,7.79-3.217,14.98,4.122,15.08,9.149,0.2-.1,3.79-1.307,4.09-1.407l29.27-9.451C1156.2,908.835,1157,910.644,1155.2,911.248Zm-44.85,1a9.152,9.152,0,1,0,8.89,9.149A9.052,9.052,0,0,0,1110.35,912.253Zm23.58-5.932-0.9-2.613,2.59-.9,0.9,2.613Zm-1.3.5-2.6.905-0.9-2.614,2.6-.9Zm-13.79-15.181-1.8-5.328,2.6-.905,1.8,5.328Zm20.58,18-16.38,5.731c-0.3-.7-0.6-1.307-0.9-1.911l16.68-5.831a1.466,1.466,0,0,0,.9-1.809l-7.79-23.224a1.39,1.39,0,0,0-1.7-.9l-22.78,7.942a1.476,1.476,0,0,0-.9,1.81l5,15.281c-0.4,0-.8-0.1-1.3-0.1h-0.9l-4.89-14.578a3.482,3.482,0,0,1,2.09-4.423l22.78-7.943a3.425,3.425,0,0,1,4.4,2.212l7.79,23.324A3.48,3.48,0,0,1,1139.42,909.639Zm-49.75-9.149v0.4a0.9,0.9,0,0,1-.9.9H1067.9a0.9,0.9,0,0,1-.9-0.9v-0.4a0.9,0.9,0,0,1,.9-0.9h20.87A1.057,1.057,0,0,1,1089.67,900.49Zm-16.38,4.826h20.88a0.9,0.9,0,0,1,.9.9v0.3a0.9,0.9,0,0,1-.9.9h-20.88a0.9,0.9,0,0,1-.9-0.9v-0.3A0.969,0.969,0,0,1,1073.29,905.316Zm5.6,6.233h13.98a0.9,0.9,0,0,1,.9.9v0.4a0.9,0.9,0,0,1-.9.9h-13.98a0.9,0.9,0,0,1-.9-0.9v-0.4A0.9,0.9,0,0,1,1078.89,911.549Z" transform="translate(-1067 -860.312)"/>
</svg>
