<?xml version="1.0" encoding="UTF-8"?>
<svg width="226px" height="90px" viewBox="0 0 226 90" version="1.1" xmlns="http://www.w3.org/2000/svg" xmlns:xlink="http://www.w3.org/1999/xlink">
    <!-- Generator: Sketch 42 (36781) - http://www.bohemiancoding.com/sketch -->
    <title>Fill 1</title>
    <desc>Created with Sketch.</desc>
    <defs>
        <path d="M141.35896,209.771485 L141.35896,208.948465 L141.913762,208.948465 C142.18198,208.948465 142.311584,208.837228 142.311584,208.587723 L142.311584,204.730446 C142.311584,204.480594 142.18198,204.369703 141.913762,204.369703 L141.35896,204.369703 L141.35896,203.546683 L144.818069,203.546683 L144.818069,204.369703 L144.263267,204.369703 C143.994703,204.369703 143.865099,204.480594 143.865099,204.730446 L143.865099,206.885891 C143.865099,207.051881 143.847079,207.209208 143.819356,207.375891 L146.510545,205.128614 C146.658861,204.99901 146.732673,204.841683 146.732673,204.730446 C146.732673,204.480594 146.603416,204.369703 146.334851,204.369703 L145.78005,204.369703 L145.78005,203.546683 L149.239158,203.546683 L149.239158,204.369703 L148.684356,204.369703 C148.416139,204.369703 148.286535,204.480594 148.286535,204.730446 L148.286535,208.587723 C148.286535,208.837228 148.416139,208.948465 148.684356,208.948465 L149.239158,208.948465 L149.239158,209.771485 L145.78005,209.771485 L145.78005,208.948465 L146.334851,208.948465 C146.603416,208.948465 146.732673,208.837228 146.732673,208.587723 L146.732673,206.30302 C146.732673,206.164406 146.751386,206.053515 146.769406,205.951634 L144.068515,208.198911 C143.930248,208.310149 143.865099,208.494851 143.865099,208.587723 C143.865099,208.837228 143.994703,208.948465 144.263267,208.948465 L144.818069,208.948465 L144.818069,209.771485 L141.35896,209.771485 Z M132.858812,203.546683 L132.858812,204.369703 L132.30401,204.369703 C132.035792,204.369703 131.906188,204.480594 131.906188,204.730446 L131.906188,208.948465 L134.209257,208.948465 L134.209257,204.730446 C134.209257,204.480594 134.079653,204.369703 133.811436,204.369703 L133.256634,204.369703 L133.256634,203.546683 L136.715743,203.546683 L136.715743,204.369703 L136.160941,204.369703 C135.892723,204.369703 135.763119,204.480594 135.763119,204.730446 L135.763119,208.948465 L137.98302,208.948465 L137.98302,204.730446 C137.98302,204.480594 137.853416,204.369703 137.585198,204.369703 L137.030396,204.369703 L137.030396,203.546683 L140.489505,203.546683 L140.489505,204.369703 L139.934703,204.369703 C139.666485,204.369703 139.536881,204.480594 139.536881,204.730446 L139.536881,208.948465 L140.489505,208.948465 L140.489505,211.667723 L139.638762,211.667723 L139.638762,210.807277 C139.638762,210.178663 139.333465,209.771485 138.621337,209.771485 L129.482871,209.771485 L129.482871,208.948465 L130.03802,208.948465 C130.305891,208.948465 130.435495,208.837228 130.435495,208.587723 L130.435495,204.730446 C130.435495,204.480594 130.305891,204.369703 130.03802,204.369703 L129.482871,204.369703 L129.482871,203.546683 L132.858812,203.546683 Z M123.378317,206.654752 C123.378317,207.930693 123.822574,209.114455 125.191386,209.114455 C126.569208,209.114455 127.004109,207.921683 127.004109,206.654752 C127.004109,205.174703 126.560198,204.203713 125.191386,204.203713 C123.942475,204.203713 123.378317,205.174703 123.378317,206.654752 L123.378317,206.654752 Z M128.622772,206.654752 C128.622772,208.578366 127.272327,209.937822 125.191386,209.937822 C122.86995,209.937822 121.759653,208.37495 121.759653,206.654752 C121.759653,204.758168 123.174901,203.380347 125.191386,203.380347 C127.309406,203.380347 128.622772,204.675 128.622772,206.654752 L128.622772,206.654752 Z M116.90401,208.948465 L118.162277,208.948465 C119.01302,208.948465 119.419851,208.578366 119.419851,207.94005 C119.419851,207.246634 118.846337,206.96005 118.162277,206.96005 L116.90401,206.96005 L116.90401,208.948465 Z M116.90401,206.164406 L118.115842,206.164406 C118.744802,206.164406 119.142624,205.877475 119.142624,205.184059 C119.142624,204.564455 118.735446,204.369703 118.023317,204.369703 L116.90401,204.369703 L116.90401,206.164406 Z M115.350149,204.730446 C115.350149,204.480594 115.220891,204.369703 114.952673,204.369703 L114.397525,204.369703 L114.397525,203.546683 L118.162277,203.546683 C120.058168,203.546683 120.696485,204.323267 120.696485,205.193069 C120.696485,205.812673 120.233861,206.210495 119.725149,206.478713 C120.696485,206.746584 121.001436,207.338812 121.001436,207.995495 C121.001436,209.253762 119.910198,209.771485 118.254455,209.771485 L114.397525,209.771485 L114.397525,208.948465 L114.952673,208.948465 C115.220891,208.948465 115.350149,208.837228 115.350149,208.587723 L115.350149,204.730446 Z M108.293317,206.654752 C108.293317,207.930693 108.737228,209.114455 110.10604,209.114455 C111.484208,209.114455 111.918762,207.921683 111.918762,206.654752 C111.918762,205.174703 111.474851,204.203713 110.10604,204.203713 C108.857129,204.203713 108.293317,205.174703 108.293317,206.654752 L108.293317,206.654752 Z M113.537426,206.654752 C113.537426,208.578366 112.18698,209.937822 110.10604,209.937822 C107.784604,209.937822 106.674653,208.37495 106.674653,206.654752 C106.674653,204.758168 108.089901,203.380347 110.10604,203.380347 C112.224059,203.380347 113.537426,204.675 113.537426,206.654752 L113.537426,206.654752 Z M235.633713,203.546683 L235.633713,204.369703 L235.078218,204.369703 C234.810347,204.369703 234.681089,204.480594 234.681089,204.730446 L234.681089,208.587723 C234.681089,208.837228 234.810347,208.948465 235.078218,208.948465 L235.633713,208.948465 L235.633713,209.771485 L232.173911,209.771485 L232.173911,208.948465 L232.729059,208.948465 C232.997277,208.948465 233.126881,208.837228 233.126881,208.587723 L233.126881,204.730446 C233.126881,204.480594 232.997277,204.369703 232.729059,204.369703 L232.173911,204.369703 L232.173911,203.546683 L235.633713,203.546683 Z M228.076832,208.948465 L229.343762,208.948465 C230.204208,208.948465 230.592673,208.578366 230.592673,207.94005 C230.592673,207.227921 230.111337,206.96005 229.343762,206.96005 L228.076832,206.96005 L228.076832,208.948465 Z M228.076832,206.164406 L229.621337,206.164406 C231.027228,206.164406 232.173911,206.682129 232.173911,207.949406 C232.173911,209.160891 231.221287,209.771485 229.593614,209.771485 L225.570347,209.771485 L225.570347,208.948465 L226.125149,208.948465 C226.393366,208.948465 226.52297,208.837228 226.52297,208.587723 L226.52297,204.730446 C226.52297,204.480594 226.393366,204.369703 226.125149,204.369703 L225.570347,204.369703 L225.570347,203.546683 L229.029455,203.546683 L229.029455,204.369703 L228.474653,204.369703 C228.206089,204.369703 228.076832,204.480594 228.076832,204.730446 L228.076832,206.164406 Z M224.885941,203.546683 L224.885941,206.090248 L224.035198,206.090248 L224.035198,205.405842 C224.035198,204.776881 223.729901,204.369703 223.017772,204.369703 L222.397822,204.369703 L222.397822,208.587723 C222.397822,208.837228 222.527426,208.948465 222.795644,208.948465 L223.350792,208.948465 L223.350792,209.771485 L219.891337,209.771485 L219.891337,208.948465 L220.446485,208.948465 C220.714356,208.948465 220.84396,208.837228 220.84396,208.587723 L220.84396,204.369703 L220.224356,204.369703 C219.511881,204.369703 219.206931,204.776881 219.206931,205.405842 L219.206931,206.090248 L218.355842,206.090248 L218.355842,203.546683 L224.885941,203.546683 Z M210.549455,209.771485 L210.549455,208.948465 L211.104604,208.948465 C211.372822,208.948465 211.502079,208.837228 211.502079,208.587723 L211.502079,204.730446 C211.502079,204.480594 211.372822,204.369703 211.104604,204.369703 L210.549455,204.369703 L210.549455,203.546683 L214.008564,203.546683 L214.008564,204.369703 L213.453762,204.369703 C213.185545,204.369703 213.055941,204.480594 213.055941,204.730446 L213.055941,206.164406 L213.620099,206.164406 C214.619158,206.164406 214.979901,205.82203 214.979901,205.165347 L214.979901,204.878762 C214.979901,203.962871 215.581485,203.426089 216.395149,203.426089 C217.227525,203.426089 217.690149,203.879703 217.690149,204.471584 C217.690149,204.878762 217.402871,205.211436 216.996386,205.211436 C216.579851,205.211436 216.311634,204.970941 216.311634,204.693713 C216.311634,204.407129 216.441238,204.323267 216.589208,204.268168 C216.543119,204.203713 216.450594,204.175644 216.367426,204.175644 C216.265545,204.175644 215.821634,204.259158 215.821634,204.887772 L215.821634,205.072822 C215.821634,205.79396 215.627228,206.219851 215.174307,206.441634 C216.135941,206.691139 216.607574,207.246634 216.607574,208.23599 L216.607574,208.791139 C216.607574,209.003911 216.700446,209.04099 216.792624,209.04099 C216.857426,209.04099 216.940594,208.976188 216.940594,208.837228 L216.940594,207.921683 L217.690149,207.921683 L217.690149,208.966832 C217.690149,209.475545 217.227525,209.892079 216.496683,209.892079 C215.571782,209.892079 215.072426,209.318218 215.072426,208.652525 L215.072426,208.152822 C215.072426,207.59802 215.035,206.96005 214.184257,206.96005 L213.055941,206.96005 L213.055941,208.587723 C213.055941,208.837228 213.185545,208.948465 213.453762,208.948465 L214.008564,208.948465 L214.008564,209.771485 L210.549455,209.771485 Z M206.350495,203.546683 L206.350495,204.369703 L205.823069,204.369703 C205.610644,204.369703 205.536485,204.443861 205.536485,204.545743 C205.536485,204.619554 205.573911,204.712079 205.629356,204.804604 L207.099703,207.292723 L208.209653,204.869406 C208.265099,204.739802 208.302525,204.638267 208.302525,204.554752 C208.302525,204.434851 208.237376,204.369703 208.089059,204.369703 L207.433069,204.369703 L207.433069,203.546683 L210.022723,203.546683 L210.022723,204.369703 L209.837673,204.369703 C209.624901,204.369703 209.255149,204.564455 209.032673,205.017376 L207.377277,208.476485 C206.850198,209.568069 206.202525,209.892079 205.508762,209.892079 C204.371089,209.892079 203.806931,209.05 203.806931,208.439406 C203.806931,208.023218 204.112228,207.551931 204.66703,207.551931 C205.213168,207.551931 205.453317,207.94005 205.453317,208.254703 C205.453317,208.670891 205.157376,208.865297 204.879802,208.89302 C204.944604,209.022624 205.166733,209.142525 205.48104,209.142525 C205.934653,209.142525 206.184158,208.948465 206.350495,208.606089 L204.010347,204.804604 C203.751485,204.379059 203.492624,204.369703 203.178317,204.369703 L203.030347,204.369703 L203.030347,203.546683 L206.350495,203.546683 Z M198.84005,206.210495 L199.913267,206.210495 C200.652772,206.210495 201.004505,205.905198 201.004505,205.239158 C201.004505,204.702723 200.643762,204.369703 199.968713,204.369703 L198.84005,204.369703 L198.84005,206.210495 Z M196.333911,209.771485 L196.333911,208.948465 L196.888713,208.948465 C197.156931,208.948465 197.286188,208.837228 197.286188,208.587723 L197.286188,204.730446 C197.286188,204.480594 197.156931,204.369703 196.888713,204.369703 L196.333911,204.369703 L196.333911,203.546683 L200.227574,203.546683 C201.892673,203.546683 202.586089,204.259158 202.586089,205.239158 C202.586089,206.247574 201.901683,207.033861 200.227574,207.033861 L198.84005,207.033861 L198.84005,208.587723 C198.84005,208.837228 198.969653,208.948465 199.237871,208.948465 L199.79302,208.948465 L199.79302,209.771485 L196.333911,209.771485 Z M192.301287,207.810792 L192.64297,207.810792 C193.466683,207.810792 193.956683,207.551931 193.956683,206.571238 C193.956683,205.618614 193.466683,205.359752 192.64297,205.359752 L192.301287,205.359752 L192.301287,207.810792 Z M190.756436,205.359752 L190.414406,205.359752 C189.591386,205.359752 189.100693,205.618614 189.100693,206.571238 C189.100693,207.551931 189.591386,207.810792 190.414406,207.810792 L190.756436,207.810792 L190.756436,205.359752 Z M189.785099,209.771485 L189.785099,208.948465 L190.340248,208.948465 C190.589752,208.948465 190.756436,208.846584 190.756436,208.56901 L190.090396,208.56901 C188.25896,208.56901 187.510099,207.514505 187.510099,206.571238 C187.510099,205.627624 188.25896,204.600842 190.090396,204.600842 L190.756436,204.600842 C190.756436,204.397426 190.599109,204.323267 190.340248,204.323267 L189.785099,204.323267 L189.785099,203.500248 L193.272277,203.500248 L193.272277,204.323267 L192.717129,204.323267 C192.458267,204.323267 192.301287,204.397426 192.301287,204.600842 L192.96698,204.600842 C194.798416,204.600842 195.547624,205.627624 195.547624,206.571238 C195.547624,207.514505 194.798416,208.56901 192.96698,208.56901 L192.301287,208.56901 C192.301287,208.846584 192.467277,208.948465 192.717129,208.948465 L193.272277,208.948465 L193.272277,209.771485 L189.785099,209.771485 Z M181.488713,206.654752 C181.488713,207.930693 181.932624,209.114455 183.301436,209.114455 C184.679604,209.114455 185.114505,207.921683 185.114505,206.654752 C185.114505,205.174703 184.670248,204.203713 183.301436,204.203713 C182.052871,204.203713 181.488713,205.174703 181.488713,206.654752 L181.488713,206.654752 Z M186.733168,206.654752 C186.733168,208.578366 185.382376,209.937822 183.301436,209.937822 C180.98,209.937822 179.87005,208.37495 179.87005,206.654752 C179.87005,204.758168 181.285297,203.380347 183.301436,203.380347 C185.419455,203.380347 186.733168,204.675 186.733168,206.654752 L186.733168,206.654752 Z M175.115941,203.546683 L175.115941,204.369703 L174.533069,204.369703 C174.440891,204.369703 174.403812,204.416139 174.403812,204.471584 C174.403812,204.536733 174.440891,204.592178 174.496337,204.647277 L175.605941,205.803317 L176.688515,204.66599 C176.74396,204.610198 176.799406,204.52703 176.799406,204.480594 C176.799406,204.416139 176.753317,204.369703 176.660792,204.369703 L176.10599,204.369703 L176.10599,203.546683 L178.973218,203.546683 L178.973218,204.369703 L178.686287,204.369703 C178.37198,204.369703 178.04797,204.434851 177.798119,204.684356 L176.133713,206.358465 L178.297822,208.615446 C178.584406,208.911386 178.71401,208.948465 178.991584,208.948465 L179.250446,208.948465 L179.250446,209.771485 L175.745248,209.771485 L175.745248,208.948465 L176.373861,208.948465 C176.494109,208.948465 176.558911,208.883317 176.558911,208.791139 C176.558911,208.735693 176.531188,208.670891 176.475743,208.606089 L175.162376,207.200198 L173.802574,208.606089 C173.747129,208.661881 173.719406,208.726337 173.719406,208.781782 C173.719406,208.874307 173.793564,208.948465 173.904455,208.948465 L174.579505,208.948465 L174.579505,209.771485 L171.527228,209.771485 L171.527228,208.948465 L171.814158,208.948465 C172.100743,208.948465 172.470495,208.827871 172.646535,208.652525 L174.625941,206.654752 L172.655545,204.675 C172.442772,204.462574 172.249059,204.369703 171.91604,204.369703 L171.702921,204.369703 L171.702921,203.546683 L175.115941,203.546683 Z M167.531683,203.546683 L167.531683,204.369703 L167.004604,204.369703 C166.792178,204.369703 166.71802,204.443861 166.71802,204.545743 C166.71802,204.619554 166.754752,204.712079 166.810198,204.804604 L168.280891,207.292723 L169.391188,204.869406 C169.446634,204.739802 169.483366,204.638267 169.483366,204.554752 C169.483366,204.434851 169.418911,204.369703 169.270594,204.369703 L168.613911,204.369703 L168.613911,203.546683 L171.203911,203.546683 L171.203911,204.369703 L171.018861,204.369703 C170.806436,204.369703 170.43599,204.564455 170.214208,205.017376 L168.558465,208.476485 C168.031386,209.568069 167.384059,209.892079 166.690297,209.892079 C165.552277,209.892079 164.988465,209.05 164.988465,208.439406 C164.988465,208.023218 165.293416,207.551931 165.848564,207.551931 C166.39401,207.551931 166.634505,207.94005 166.634505,208.254703 C166.634505,208.670891 166.338564,208.865297 166.06099,208.89302 C166.126139,209.022624 166.347921,209.142525 166.662574,209.142525 C167.115495,209.142525 167.365347,208.948465 167.531683,208.606089 L165.191535,204.804604 C164.932673,204.379059 164.673812,204.369703 164.359158,204.369703 L164.211188,204.369703 L164.211188,203.546683 L167.531683,203.546683 Z M163.388168,207.422327 C163.323713,208.809505 162.444901,209.937822 160.622822,209.937822 C158.310396,209.937822 157.200446,208.37495 157.200446,206.654752 C157.200446,204.767871 158.578614,203.380347 160.622822,203.380347 C161.427475,203.380347 162.065792,203.703663 162.537426,204.166287 L162.62995,203.537327 L163.388168,203.537327 L163.388168,205.997723 L162.537426,205.997723 C162.463267,204.675 161.482921,204.203713 160.622822,204.203713 C159.373911,204.203713 158.819109,205.174703 158.819109,206.654752 C158.819109,207.930693 159.25401,209.114455 160.622822,209.114455 C162.065792,209.114455 162.472624,208.143812 162.537426,207.422327 L163.388168,207.422327 Z M98.7137129,203.546683 L98.7137129,204.369703 L98.1585644,204.369703 C97.8903465,204.369703 97.7607426,204.480594 97.7607426,204.730446 L97.7607426,208.587723 C97.7607426,208.837228 97.8903465,208.948465 98.1585644,208.948465 L98.7137129,208.948465 L98.7137129,209.771485 L95.2542574,209.771485 L95.2542574,208.948465 L95.8094059,208.948465 C96.0776238,208.948465 96.2068812,208.837228 96.2068812,208.587723 L96.2068812,204.730446 C96.2068812,204.480594 96.0776238,204.369703 95.8094059,204.369703 L95.2542574,204.369703 L95.2542574,203.546683 L98.7137129,203.546683 Z M91.1568317,208.948465 L92.4241089,208.948465 C93.2842079,208.948465 93.6726733,208.578366 93.6726733,207.94005 C93.6726733,207.227921 93.1913366,206.96005 92.4241089,206.96005 L91.1568317,206.96005 L91.1568317,208.948465 Z M91.1568317,206.164406 L92.7013366,206.164406 C94.1072277,206.164406 95.2542574,206.682129 95.2542574,207.949406 C95.2542574,209.160891 94.3016337,209.771485 92.6736139,209.771485 L88.65,209.771485 L88.65,208.948465 L89.2051485,208.948465 C89.4733663,208.948465 89.6029703,208.837228 89.6029703,208.587723 L89.6029703,204.730446 C89.6029703,204.480594 89.4733663,204.369703 89.2051485,204.369703 L88.65,204.369703 L88.65,203.546683 L92.1094554,203.546683 L92.1094554,204.369703 L91.5543069,204.369703 C91.2860891,204.369703 91.1568317,204.480594 91.1568317,204.730446 L91.1568317,206.164406 Z M87.9659406,203.546683 L87.9659406,206.090248 L87.1148515,206.090248 L87.1148515,205.405842 C87.1148515,204.776881 86.8095545,204.369703 86.0974257,204.369703 L85.4778218,204.369703 L85.4778218,208.587723 C85.4778218,208.837228 85.6074257,208.948465 85.8756436,208.948465 L86.4304455,208.948465 L86.4304455,209.771485 L82.9713366,209.771485 L82.9713366,208.948465 L83.5261386,208.948465 C83.7943564,208.948465 83.9239604,208.837228 83.9239604,208.587723 L83.9239604,204.369703 L83.3043564,204.369703 C82.5918812,204.369703 82.2869307,204.776881 82.2869307,205.405842 L82.2869307,206.090248 L81.4358416,206.090248 L81.4358416,203.546683 L87.9659406,203.546683 Z M73.6294554,209.771485 L73.6294554,208.948465 L74.1842574,208.948465 C74.4524752,208.948465 74.5820792,208.837228 74.5820792,208.587723 L74.5820792,204.730446 C74.5820792,204.480594 74.4524752,204.369703 74.1842574,204.369703 L73.6294554,204.369703 L73.6294554,203.546683 L77.0889109,203.546683 L77.0889109,204.369703 L76.5337624,204.369703 C76.2655446,204.369703 76.1359406,204.480594 76.1359406,204.730446 L76.1359406,206.164406 L76.700099,206.164406 C77.6991584,206.164406 78.059901,205.82203 78.059901,205.165347 L78.059901,204.878762 C78.059901,203.962871 78.6611386,203.426089 79.4751485,203.426089 C80.3075248,203.426089 80.7701485,203.879703 80.7701485,204.471584 C80.7701485,204.878762 80.4832178,205.211436 80.0760396,205.211436 C79.660198,205.211436 79.3919802,204.970941 79.3919802,204.693713 C79.3919802,204.407129 79.5212376,204.323267 79.6692079,204.268168 C79.6231188,204.203713 79.5305941,204.175644 79.4474257,204.175644 C79.3455446,204.175644 78.9016337,204.259158 78.9016337,204.887772 L78.9016337,205.072822 C78.9016337,205.79396 78.7075743,206.219851 78.2539604,206.441634 C79.2159406,206.691139 79.6879208,207.246634 79.6879208,208.23599 L79.6879208,208.791139 C79.6879208,209.003911 79.780099,209.04099 79.8726238,209.04099 C79.9374257,209.04099 80.0209406,208.976188 80.0209406,208.837228 L80.0209406,207.921683 L80.7701485,207.921683 L80.7701485,208.966832 C80.7701485,209.475545 80.3075248,209.892079 79.5766832,209.892079 C78.6517822,209.892079 78.1524257,209.318218 78.1524257,208.652525 L78.1524257,208.152822 C78.1524257,207.59802 78.1153465,206.96005 77.264604,206.96005 L76.1359406,206.96005 L76.1359406,208.587723 C76.1359406,208.837228 76.2655446,208.948465 76.5337624,208.948465 L77.0889109,208.948465 L77.0889109,209.771485 L73.6294554,209.771485 Z M69.430495,203.546683 L69.430495,204.369703 L68.9034158,204.369703 C68.6906436,204.369703 68.6164851,204.443861 68.6164851,204.545743 C68.6164851,204.619554 68.6535644,204.712079 68.7090099,204.804604 L70.179703,207.292723 L71.2896535,204.869406 C71.345099,204.739802 71.3818317,204.638267 71.3818317,204.554752 C71.3818317,204.434851 71.3173762,204.369703 71.1694059,204.369703 L70.5127228,204.369703 L70.5127228,203.546683 L73.1023762,203.546683 L73.1023762,204.369703 L72.9176733,204.369703 C72.7045545,204.369703 72.334802,204.564455 72.1126733,205.017376 L70.4572772,208.476485 C69.9298515,209.568069 69.2825248,209.892079 68.5887624,209.892079 C67.4510891,209.892079 66.8869307,209.05 66.8869307,208.439406 C66.8869307,208.023218 67.1922277,207.551931 67.7470297,207.551931 C68.2928218,207.551931 68.5333168,207.94005 68.5333168,208.254703 C68.5333168,208.670891 68.2373762,208.865297 67.959802,208.89302 C68.024604,209.022624 68.2467327,209.142525 68.5610396,209.142525 C69.0143069,209.142525 69.2641584,208.948465 69.430495,208.606089 L67.0903465,204.804604 C66.8314851,204.379059 66.5726238,204.369703 66.2579703,204.369703 L66.11,204.369703 L66.11,203.546683 L69.430495,203.546683 Z M61.9200495,206.210495 L62.9929208,206.210495 C63.7331188,206.210495 64.084505,205.905198 64.084505,205.239158 C64.084505,204.702723 63.7237624,204.369703 63.0487129,204.369703 L61.9200495,204.369703 L61.9200495,206.210495 Z M59.4135644,209.771485 L59.4135644,208.948465 L59.9683663,208.948465 C60.2365842,208.948465 60.3661881,208.837228 60.3661881,208.587723 L60.3661881,204.730446 C60.3661881,204.480594 60.2365842,204.369703 59.9683663,204.369703 L59.4135644,204.369703 L59.4135644,203.546683 L63.3075743,203.546683 C64.9723267,203.546683 65.6660891,204.259158 65.6660891,205.239158 C65.6660891,206.247574 64.9816832,207.033861 63.3075743,207.033861 L61.9200495,207.033861 L61.9200495,208.587723 C61.9200495,208.837228 62.0496535,208.948465 62.3178713,208.948465 L62.8730198,208.948465 L62.8730198,209.771485 L59.4135644,209.771485 Z M55.3809406,207.810792 L55.7233168,207.810792 C56.5463366,207.810792 57.0366832,207.551931 57.0366832,206.571238 C57.0366832,205.618614 56.5463366,205.359752 55.7233168,205.359752 L55.3809406,205.359752 L55.3809406,207.810792 Z M53.8364356,205.359752 L53.4940594,205.359752 C52.6710396,205.359752 52.1806931,205.618614 52.1806931,206.571238 C52.1806931,207.551931 52.6710396,207.810792 53.4940594,207.810792 L53.8364356,207.810792 L53.8364356,205.359752 Z M52.865099,209.771485 L52.865099,208.948465 L53.4202475,208.948465 C53.670099,208.948465 53.8364356,208.846584 53.8364356,208.56901 L53.170396,208.56901 C51.3393069,208.56901 50.5897525,207.514505 50.5897525,206.571238 C50.5897525,205.627624 51.3393069,204.600842 53.170396,204.600842 L53.8364356,204.600842 C53.8364356,204.397426 53.6791089,204.323267 53.4202475,204.323267 L52.865099,204.323267 L52.865099,203.500248 L56.3522772,203.500248 L56.3522772,204.323267 L55.7971287,204.323267 C55.5382673,204.323267 55.3809406,204.397426 55.3809406,204.600842 L56.0469802,204.600842 C57.8784158,204.600842 58.6276238,205.627624 58.6276238,206.571238 C58.6276238,207.514505 57.8784158,208.56901 56.0469802,208.56901 L55.3809406,208.56901 C55.3809406,208.846584 55.5476238,208.948465 55.7971287,208.948465 L56.3522772,208.948465 L56.3522772,209.771485 L52.865099,209.771485 Z M153.220149,205.905198 C153.867475,205.905198 154.394554,206.340099 154.394554,206.885891 C154.394554,207.431337 153.867475,207.865891 153.220149,207.865891 C152.572475,207.865891 152.045396,207.431337 152.045396,206.885891 C152.045396,206.340099 152.572475,205.905198 153.220149,205.905198 L153.220149,205.905198 Z M102.69401,205.905198 C103.341337,205.905198 103.868762,206.340099 103.868762,206.885891 C103.868762,207.431337 103.341337,207.865891 102.69401,207.865891 C102.046683,207.865891 101.519257,207.431337 101.519257,206.885891 C101.519257,206.340099 102.046683,205.905198 102.69401,205.905198 L102.69401,205.905198 Z M243.845891,192.814505 L42.2431188,192.814505 L42.2431188,164.496733 C42.2431188,158.842673 46.5734158,154.243119 51.895495,154.243119 L234.193515,154.243119 C239.515594,154.243119 243.845891,158.842673 243.845891,164.496733 L243.845891,192.814505 Z M234.193515,152 L51.895495,152 C45.3362871,152 40,157.605891 40,164.496733 L40,209.244406 C40,216.135594 45.3362871,221.741485 51.895495,221.741485 L234.193515,221.741485 C240.752376,221.741485 246.088663,216.135594 246.088663,209.244406 L246.088663,164.496733 C246.088663,157.605891 240.752376,152 234.193515,152 L234.193515,152 Z M196.566089,169.246683 L198.101238,169.246683 C198.843168,169.246683 199.201139,169.553366 199.201139,170.244356 L199.201139,174.949257 L199.201139,174.228119 C196.49297,174.691782 194.23495,174.691436 191.526436,174.228119 L191.526436,174.949257 L191.526436,170.244356 C191.526436,169.553366 191.884752,169.246683 192.626337,169.246683 L194.161485,169.246683 L194.161485,166.969604 L184.593663,166.969604 L184.593663,169.246683 L186.128465,169.246683 C186.870396,169.246683 187.228366,169.553366 187.228366,170.244356 L187.228366,180.912079 C187.228366,181.603069 186.870396,181.910099 186.128465,181.910099 L184.593663,181.910099 L184.593663,184.186832 L194.161485,184.186832 L194.161485,181.910099 L192.626337,181.910099 C191.884752,181.910099 191.526436,181.603069 191.526436,180.912079 L191.526436,176.390842 C194.23495,175.927525 196.49297,175.927871 199.201139,176.390842 L199.201139,180.912079 C199.201139,181.603069 198.843168,181.910099 198.101238,181.910099 L196.566089,181.910099 L196.566089,184.186832 L206.133911,184.186832 L206.133911,181.910099 L204.599109,181.910099 C203.857525,181.910099 203.498861,181.603069 203.498861,180.912079 L203.498861,170.244356 C203.498861,169.553366 203.857525,169.246683 204.599109,169.246683 L206.133911,169.246683 L206.133911,166.969604 L196.566089,166.969604 L196.566089,169.246683 Z M173.10396,169.246683 L174.639109,169.246683 C175.38104,169.246683 175.73901,169.553366 175.73901,170.244356 L175.73901,171.375446 L175.73901,170.535099 C173.030842,173.60505 170.772822,175.777822 168.064307,177.921485 L168.064307,178.761832 L168.064307,170.244356 C168.064307,169.553366 168.422624,169.246683 169.164208,169.246683 L170.699356,169.246683 L170.699356,166.969604 L161.131535,166.969604 L161.131535,169.246683 L162.666337,169.246683 C163.408267,169.246683 163.766584,169.553366 163.766584,170.244356 L163.766584,180.912079 C163.766584,181.603069 163.408267,181.910099 162.666337,181.910099 L161.131535,181.910099 L161.131535,184.186832 L170.699356,184.186832 L170.699356,181.910099 L169.164208,181.910099 C168.422624,181.910099 168.064307,181.603069 168.064307,180.912079 L168.064307,180.442178 C170.772822,177.372228 173.030842,175.199455 175.73901,173.055792 L175.73901,180.912079 C175.73901,181.603069 175.38104,181.910099 174.639109,181.910099 L173.10396,181.910099 L173.10396,184.186832 L182.672129,184.186832 L182.672129,181.910099 L181.13698,181.910099 C180.39505,181.910099 180.036733,181.603069 180.036733,180.912079 L180.036733,170.244356 C180.036733,169.553366 180.39505,169.246683 181.13698,169.246683 L182.672129,169.246683 L182.672129,166.969604 L173.10396,166.969604 L173.10396,169.246683 Z M147.288515,178.891436 L147.185941,178.891436 L142.351089,166.969604 L134.932129,166.969604 L134.932129,169.246683 L136.466931,169.246683 C137.208861,169.246683 137.567178,169.553366 137.567178,170.244356 L137.567178,180.912079 C137.567178,181.603069 137.208861,181.910099 136.466931,181.910099 L134.932129,181.910099 L134.932129,184.186832 L142.555891,184.186832 L142.555891,181.910099 L141.020743,181.910099 C140.278812,181.910099 139.920842,181.603069 139.920842,180.912079 L139.920842,171.190743 L140.023069,171.190743 L145.062723,184.186832 L147.390743,184.186832 L152.430396,171.190743 L152.53297,171.190743 L152.53297,180.912079 C152.53297,181.603069 152.175,181.910099 151.432723,181.910099 L149.897921,181.910099 L149.897921,184.186832 L159.465743,184.186832 L159.465743,181.910099 L157.930941,181.910099 C157.18901,181.910099 156.830693,181.603069 156.830693,180.912079 L156.830693,170.244356 C156.830693,169.553366 157.18901,169.246683 157.930941,169.246683 L159.465743,169.246683 L159.465743,166.969604 L152.046782,166.969604 L147.288515,178.891436 Z M226.065545,169.246683 L227.600693,169.246683 C228.342624,169.246683 228.700941,169.553366 228.700941,170.244356 L228.700941,180.912079 C228.700941,181.603069 228.342624,181.910099 227.600693,181.910099 L226.065545,181.910099 L226.065545,184.186832 L235.633713,184.186832 L235.633713,181.910099 L234.098564,181.910099 C233.35698,181.910099 232.998663,181.603069 232.998663,180.912079 L232.998663,170.244356 C232.998663,169.553366 233.35698,169.246683 234.098564,169.246683 L235.633713,169.246683 L235.633713,166.969604 L226.065545,166.969604 L226.065545,169.246683 Z M218.237673,181.910099 L214.732475,181.910099 L214.732475,176.409901 L218.237673,176.409901 C220.360891,176.409901 221.690891,177.151485 221.690891,179.121535 C221.690891,180.886782 220.616634,181.910099 218.237673,181.910099 L218.237673,181.910099 Z M219.004901,174.209406 L214.732475,174.209406 L214.732475,170.244356 C214.732475,169.553366 215.090792,169.246683 215.832723,169.246683 L217.367525,169.246683 L217.367525,166.969604 L207.799703,166.969604 L207.799703,169.246683 L209.334505,169.246683 C210.076782,169.246683 210.434752,169.553366 210.434752,170.244356 L210.434752,180.912079 C210.434752,181.603069 210.076782,181.910099 209.334505,181.910099 L207.799703,181.910099 L207.799703,184.186832 L218.928317,184.186832 C223.430495,184.186832 226.065545,182.498168 226.065545,179.146832 C226.065545,175.642327 222.893366,174.209406 219.004901,174.209406 L219.004901,174.209406 Z M61.6511386,181.910099 L58.1719307,181.910099 L58.1719307,176.409901 L61.6511386,176.409901 C63.5442574,176.409901 65.1303465,177.202772 65.1303465,179.121535 C65.1303465,180.886782 64.0044554,181.910099 61.6511386,181.910099 L61.6511386,181.910099 Z M58.1719307,169.246683 L61.2671782,169.246683 C63.2372277,169.246683 64.3627723,169.783812 64.3627723,171.497772 C64.3627723,173.416535 63.2628713,174.209406 61.5232673,174.209406 L58.1719307,174.209406 L58.1719307,169.246683 Z M65.974505,175.079554 C67.3814356,174.337624 68.660495,173.237376 68.660495,171.523416 C68.660495,169.118465 66.8955941,166.969604 61.6511386,166.969604 L51.2388119,166.969604 L51.2388119,169.246683 L52.7739604,169.246683 C53.5158911,169.246683 53.8738614,169.553366 53.8738614,170.244356 L53.8738614,180.912079 C53.8738614,181.603069 53.5158911,181.910099 52.7739604,181.910099 L51.2388119,181.910099 L51.2388119,184.186832 L61.9068812,184.186832 C66.4859901,184.186832 69.505,182.754257 69.505,179.27505 C69.505,177.458515 68.660495,175.821139 65.974505,175.079554 L65.974505,175.079554 Z M94.6325743,174.00495 L96.9865842,174.00495 L96.9865842,172.111832 C96.9865842,170.372228 97.830396,169.246683 99.8004455,169.246683 L101.514406,169.246683 L101.514406,180.912079 C101.514406,181.603069 101.156436,181.910099 100.414505,181.910099 L98.879703,181.910099 L98.879703,184.186832 L108.447178,184.186832 L108.447178,181.910099 L106.912376,181.910099 C106.170446,181.910099 105.812129,181.603069 105.812129,180.912079 L105.812129,169.246683 L107.526436,169.246683 C109.496139,169.246683 110.340644,170.372228 110.340644,172.111832 L110.340644,174.00495 L112.69396,174.00495 L112.69396,166.969604 L94.6325743,166.969604 L94.6325743,174.00495 Z M83.2714356,169.246683 L84.8062376,169.246683 C85.5481683,169.246683 85.9061386,169.553366 85.9061386,170.244356 L85.9061386,171.165099 L85.9061386,170.535099 C83.1976238,173.60505 80.9399505,175.777822 78.2314356,177.921485 L78.2314356,178.551832 L78.2314356,170.244356 C78.2314356,169.553366 78.5894059,169.246683 79.3313366,169.246683 L80.8664851,169.246683 L80.8664851,166.969604 L71.2986634,166.969604 L71.2986634,169.246683 L72.8334653,169.246683 C73.575396,169.246683 73.9337129,169.553366 73.9337129,170.244356 L73.9337129,180.912079 C73.9337129,181.603069 73.575396,181.910099 72.8334653,181.910099 L71.2986634,181.910099 L71.2986634,184.186832 L80.8664851,184.186832 L80.8664851,181.910099 L79.3313366,181.910099 C78.5894059,181.910099 78.2314356,181.603069 78.2314356,180.912079 L78.2314356,180.442178 C80.9399505,177.372228 83.1976238,175.199455 85.9061386,173.055792 L85.9061386,180.912079 C85.9061386,181.603069 85.5481683,181.910099 84.8062376,181.910099 L83.2714356,181.910099 L83.2714356,184.186832 L92.8389109,184.186832 L92.8389109,181.910099 L91.3041089,181.910099 C90.5625248,181.910099 90.2038614,181.603069 90.2038614,180.912079 L90.2038614,170.244356 C90.2038614,169.553366 90.5625248,169.246683 91.3041089,169.246683 L92.8389109,169.246683 L92.8389109,166.969604 L83.2714356,166.969604 L83.2714356,169.246683 Z M119.351238,176.627525 L119.366832,176.595297 L122.383416,170.305693 L125.169901,176.595297 L125.17198,176.600149 C123.158614,176.881188 121.352129,176.891931 119.351238,176.627525 L119.351238,176.627525 Z M131.980347,165.349208 C133.741782,163.588465 134.154851,157.796485 134.154851,157.796485 C134.154851,157.796485 132.95896,158.419901 131.048861,158.583812 C129.247228,158.738366 127.57901,158.992723 126.601782,159.970297 C125.09297,161.479455 124.715248,163.626931 125.57396,165.144752 C126.519307,163.661584 130.40604,161.545297 130.40604,161.545297 C127.913762,163.327525 126.513069,164.754554 124.878119,166.981733 L121.488663,166.981733 L114.969653,180.353465 C114.483812,181.350446 113.94703,181.913218 113.205792,181.913218 L112.770891,181.913218 L112.770891,184.188564 L119.775743,184.188564 L119.775743,181.913218 L117.730495,181.913218 C117.551683,181.913218 117.219356,181.682772 117.219356,181.325149 C117.219356,181.171634 117.270297,181.018119 117.398168,180.762723 L118.318564,178.794059 L118.39896,178.625297 C121.07698,178.173762 123.320446,178.176535 126.005743,178.635693 L126.005743,178.538663 L126.115594,178.794059 L127.010347,180.762723 C127.112574,180.967178 127.240446,181.248218 127.240446,181.452673 C127.240446,181.734059 127.112574,181.913218 126.882475,181.913218 L125.220842,181.913218 L125.220842,184.188564 L132.941287,184.188564 L132.941287,181.913218 L132.455446,181.913218 C132.020891,181.913218 131.586337,181.197277 130.972624,179.86797 L125.384752,167.779109 C125.627673,167.370891 126.098614,166.62203 126.525545,166.193713 C128.04995,167.275248 130.375198,166.95505 131.980347,165.349208 L131.980347,165.349208 Z" id="path-1"></path>
        <filter x="-50%" y="-50%" width="200%" height="200%" filterUnits="objectBoundingBox" id="filter-2">
            <feOffset dx="0" dy="2" in="SourceAlpha" result="shadowOffsetOuter1"></feOffset>
            <feGaussianBlur stdDeviation="5" in="shadowOffsetOuter1" result="shadowBlurOuter1"></feGaussianBlur>
            <feColorMatrix values="0 0 0 0 0   0 0 0 0 0   0 0 0 0 0  0 0 0 0.3 0" type="matrix" in="shadowBlurOuter1"></feColorMatrix>
        </filter>
    </defs>
    <g id="Page-1" stroke="none" stroke-width="1" fill="none" fill-rule="evenodd">
        <g id="DESIGN-Firs-Page---full-length-Copy" transform="translate(-30.000000, -144.000000)">
            <g id="Fill-1">
                <use fill="black" fill-opacity="1" filter="url(#filter-2)" xlink:href="#path-1"></use>
                <use fill="#FFFFFF" fill-rule="evenodd" xlink:href="#path-1"></use>
            </g>
        </g>
    </g>
</svg>