<svg xmlns="http://www.w3.org/2000/svg" width="24" height="24" viewBox="0 0 24 24">
  <metadata><?xpacket begin="﻿" id="W5M0MpCehiHzreSzNTczkc9d"?>
<x:xmpmeta xmlns:x="adobe:ns:meta/" x:xmptk="Adobe XMP Core 5.6-c138 79.159824, 2016/09/14-01:09:01        ">
   <rdf:RDF xmlns:rdf="http://www.w3.org/1999/02/22-rdf-syntax-ns#">
      <rdf:Description rdf:about=""/>
   </rdf:RDF>
</x:xmpmeta>
<?xpacket end="w"?></metadata>
<defs>
    <style>
      .cls-1 {
        fill: #e5cfb1;
        fill-rule: evenodd;
      }
    </style>
  </defs>
  <path id="vk" class="cls-1" d="M1147,3933a12,12,0,1,1-12,12A12,12,0,0,1,1147,3933Zm-0.66,15.89h0.9a0.752,0.752,0,0,0,.4-0.17,0.561,0.561,0,0,0,.13-0.36s-0.02-1.11.54-1.28,1.26,1.08,2.01,1.55a1.534,1.534,0,0,0,.99.29l2.01-.03s1.04-.06.55-0.82a6.3,6.3,0,0,0-1.49-1.6c-1.26-1.08-1.09-.9.42-2.77,0.92-1.14,1.29-1.83,1.18-2.13a0.942,0.942,0,0,0-.79-0.21l-2.26.01a0.549,0.549,0,0,0-.29.05,0.632,0.632,0,0,0-.2.23,10.717,10.717,0,0,1-.83,1.62c-1,1.58-1.41,1.67-1.57,1.57a1.694,1.694,0,0,1-.29-1.41c0-1.53.25-2.17-.48-2.33a4.133,4.133,0,0,0-1.06-.1,5.071,5.071,0,0,0-1.87.18c-0.26.11-.45,0.37-0.33,0.39a1.019,1.019,0,0,1,.66.31,1.916,1.916,0,0,1,.23.94s0.13,1.8-.31,2.03c-0.31.15-.72-0.16-1.62-1.59a13.533,13.533,0,0,1-.81-1.55,0.562,0.562,0,0,0-.18-0.23,0.99,0.99,0,0,0-.35-0.13l-2.14.01a0.78,0.78,0,0,0-.44.14,0.383,0.383,0,0,0-.01.35,22.263,22.263,0,0,0,3.58,5.47,5.372,5.372,0,0,0,3.72,1.57h0Z" transform="translate(-1135 -3933)"/>
</svg>
