<svg xmlns="http://www.w3.org/2000/svg" width="73" height="72" viewBox="0 0 73 72">
  <metadata><?xpacket begin="﻿" id="W5M0MpCehiHzreSzNTczkc9d"?>
<x:xmpmeta xmlns:x="adobe:ns:meta/" x:xmptk="Adobe XMP Core 5.6-c138 79.159824, 2016/09/14-01:09:01        ">
   <rdf:RDF xmlns:rdf="http://www.w3.org/1999/02/22-rdf-syntax-ns#">
      <rdf:Description rdf:about=""/>
   </rdf:RDF>
</x:xmpmeta>
                                                                                                    
                                                                                                    
                                                                                                    
                                                                                                    
                                                                                                    
                                                                                                    
                                                                                                    
                                                                                                    
                                                                                                    
                                                                                                    
                                                                                                    
                                                                                                    
                                                                                                    
                                                                                                    
                                                                                                    
                                                                                                    
                                                                                                    
                                                                                                    
                                                                                                    
                                                                                                    
                           
<?xpacket end="w"?></metadata>
<defs>
    <style>
      .cls-1 {
        fill: #bf8243;
        fill-rule: evenodd;
      }
    </style>
  </defs>
  <path id="wash" class="cls-1" d="M584.233,1504.22a102.711,102.711,0,0,0-10.788-14.2,4.971,4.971,0,0,0-7.156,0,103.607,103.607,0,0,0-10.877,14.35c-5.758,8.82-8.677,16.39-8.677,22.49,0,13.62,9.514,23.13,23.133,23.13S593,1540.48,593,1526.86c0-6.13-2.95-13.75-8.764-22.63C584.234,1504.23,584.234,1504.23,584.233,1504.22Zm-14.366,43.42c-12.428,0-20.778-8.35-20.778-20.78,0-5.64,2.789-12.77,8.294-21.21a104.072,104.072,0,0,1,10.595-13.99,2.676,2.676,0,0,1,3.777,0,103.036,103.036,0,0,1,10.507,13.86h0c5.559,8.49,8.379,15.68,8.379,21.34C590.646,1539.29,582.295,1547.64,569.867,1547.64Zm-0.348-8.59a12.318,12.318,0,0,1-12.3-12.3,12.174,12.174,0,0,1,.79-4.34,1.178,1.178,0,1,0-2.205-.83,14.583,14.583,0,0,0-.7,2.5,14.89,14.89,0,0,0-.243,2.67,14.679,14.679,0,0,0,14.66,14.66A1.18,1.18,0,0,0,569.519,1539.05Zm-26.694-51.66c0-.01,0-0.01,0-0.01a60.092,60.092,0,0,0-6.32-8.33,3.466,3.466,0,0,0-4.97,0,60.2,60.2,0,0,0-6.374,8.41c0,0.01,0,.01,0,0.01-3.42,5.24-5.154,9.76-5.154,13.42,0,8.25,5.763,14.01,14.017,14.01s14.016-5.76,14.016-14.01C548.034,1497.21,546.281,1492.66,542.825,1487.39Zm-8.808,25.16c-6.976,0-11.662-4.68-11.662-11.66,0-3.2,1.605-7.28,4.771-12.13,0-.01,0-0.01,0-0.01a60.243,60.243,0,0,1,6.093-8.06,1.121,1.121,0,0,1,1.589,0,60.227,60.227,0,0,1,6.042,7.99h0c3.156,4.81,4.823,9.04,4.823,12.21C545.678,1507.87,540.992,1512.55,534.017,1512.55Zm-0.042-5.18a6.715,6.715,0,0,1-6.706-6.71,6.875,6.875,0,0,1,.072-0.98,6.572,6.572,0,0,1,.357-1.38,1.176,1.176,0,1,0-2.2-.83,8.932,8.932,0,0,0-.487,1.87,9.074,9.074,0,0,0,8.965,10.39A1.18,1.18,0,0,0,533.975,1507.37Z" transform="translate(-520 -1478)"/>
</svg>
